<?xml version="1.0" encoding="UTF-8"?>
<svg xmlns="http://www.w3.org/2000/svg" width="148" height="14" viewBox="0 0 148 14" fill="none">
  <path fill-rule="evenodd" clip-rule="evenodd" d="M75.7549 0.0147133L67.7931 13.9264H62.253L61.3782 6.56571L57.1827 13.9264H51.6507L49.8202 0.0147133H54.9148L55.8948 7.94216L60.4468 0.0147133H65.1931L66.0679 8.11146L70.6846 0.0662434L75.7549 0.0147133ZM77.2209 0.0147133H82.3803L79.3187 13.9264H74.1593L77.2209 0.0147133ZM99.9644 0.0147133L96.9028 13.9264H92.6586L88.2606 7.449L86.8432 13.9264H81.8134L84.875 0.0147133H89.1192L93.5091 6.4921L94.9346 0.0147133H99.9644ZM117.549 0.0147133L114.487 13.9264H110.243L105.845 7.449L104.427 13.9264H99.3974L102.459 0.0147133H106.695L111.093 6.4921L112.519 0.0147133H117.549ZM124.328 3.54783L123.971 5.16719H130.451L129.706 8.54574H123.226L122.829 10.3712H130.508L129.698 13.9117H116.973L120.035 0H132.484L131.674 3.53312L124.328 3.54783ZM147.987 4.58569C148.015 5.74069 147.635 6.87352 146.901 7.81704C146.139 8.7665 145.077 9.48276 143.856 9.87067L146.415 13.9264H141.053L138.891 10.4301H137.619L136.858 13.9264H131.698L134.76 0.0147133H141.628C143.299 -0.0793399 144.954 0.343581 146.326 1.21451C146.877 1.61689 147.316 2.13211 147.606 2.71805C147.896 3.30398 148.029 3.94397 147.995 4.58569H147.987ZM142.762 5.04205C142.762 4.09988 142.122 3.62881 140.835 3.62881H139.109L138.389 6.88958H140.511C141.111 6.91999 141.703 6.74689 142.171 6.40378C142.371 6.22869 142.528 6.01644 142.63 5.78146C142.732 5.54649 142.777 5.29429 142.762 5.04205Z" fill="white"></path>
  <path fill-rule="evenodd" clip-rule="evenodd" d="M13.9312 6.78654C14.5352 7.01499 15.0589 7.38915 15.4458 7.86856C15.8109 8.3504 15.9981 8.92518 15.9804 9.50998C16.0144 10.1769 15.8457 10.8395 15.4928 11.425C15.14 12.0106 14.6165 12.4966 13.9798 12.8297C12.4079 13.6237 10.6254 14.0083 8.82849 13.9411H0L3.06162 0.0294231H11.1612C12.5745 -0.0470053 13.9817 0.252253 15.2109 0.890632C15.658 1.15574 16.022 1.52148 16.2676 1.95228C16.5131 2.38308 16.6318 2.86427 16.6121 3.3491C16.6256 4.08689 16.3724 4.80833 15.8913 5.40273C15.3721 6.02088 14.6778 6.4992 13.8826 6.78654H13.9312ZM7.41107 3.30493L6.9494 5.37328H9.60605C10.7481 5.37328 11.3151 4.96845 11.3151 4.15877C11.3202 4.03517 11.291 3.91236 11.2301 3.80173C11.1692 3.69109 11.0787 3.59616 10.9668 3.52575C10.661 3.36218 10.3085 3.2853 9.95432 3.30493H7.41107ZM9.12007 10.6656C9.58281 10.6879 10.04 10.5658 10.416 10.3197C10.5754 10.2106 10.7031 10.0677 10.7878 9.90344C10.8725 9.73921 10.9117 9.55865 10.902 9.37749C10.9091 9.24583 10.8794 9.11467 10.8157 8.99625C10.752 8.87783 10.6562 8.776 10.5375 8.7003C10.2721 8.53198 9.95373 8.44673 9.63035 8.45741H6.30953L5.82357 10.6656H9.12007ZM24.25 3.56991L23.9017 5.20398H30.3814L29.6362 8.58255H23.1566L22.7678 10.408H30.4381L29.6281 13.9485H16.8956L19.9573 0.036791H32.3981L31.5882 3.56991H24.25ZM37.2093 3.67297H32.7302L33.5402 0.036791H47.6739L46.8639 3.69505H42.3849L40.1251 14H34.9657L37.2174 3.69505L37.2093 3.67297Z" fill="#FFCE06"></path>
</svg>
