<svg xmlns="http://www.w3.org/2000/svg" xmlns:xlink="http://www.w3.org/1999/xlink" viewBox="0 0 600 236.58"><defs><style>.cls-1{fill:#0079bf;}.cls-2{fill:none;}.cls-3{fill:url(#linear-gradient);}.cls-4{fill:url(#linear-gradient-2);}.cls-5{fill:url(#linear-gradient-3);}.cls-6{fill:url(#linear-gradient-4);}.cls-7{fill:url(#linear-gradient-5);}.cls-8{fill:url(#linear-gradient-6);}</style><linearGradient id="linear-gradient" x1="161.8" y1="-6.84" x2="161.8" y2="125.4" gradientUnits="userSpaceOnUse"><stop offset="0.27" stop-color="#e8e8e8"/><stop offset="0.49" stop-color="#fff"/></linearGradient><linearGradient id="linear-gradient-2" x1="51.1" y1="-22.33" x2="51.1" y2="140.44" xlink:href="#linear-gradient"/><linearGradient id="linear-gradient-3" x1="546.91" y1="-7.75" x2="546.91" y2="127.86" xlink:href="#linear-gradient"/><linearGradient id="linear-gradient-4" x1="429.33" y1="-5.83" x2="429.33" y2="125.49" xlink:href="#linear-gradient"/><linearGradient id="linear-gradient-5" x1="262.36" y1="-22.33" x2="262.36" y2="140.44" xlink:href="#linear-gradient"/><linearGradient id="linear-gradient-6" x1="341.26" y1="-5.28" x2="341.26" y2="125.29" xlink:href="#linear-gradient"/></defs><title>Asset 3</title><g id="Layer_2" data-name="Layer 2"><g id="Layer_2-2" data-name="Layer 2"><path class="cls-1" d="M106.23,152.25q12.83,0,20.62,6.12a25.17,25.17,0,0,1,9.58,15.31,43.74,43.74,0,0,1-1,19.79,59.27,59.27,0,0,1-9.51,19.78,53.71,53.71,0,0,1-17.74,15.31,48.56,48.56,0,0,1-23.89,6.13H53.17l22-82.44ZM91.1,171.45l-11.74,44h10a22.86,22.86,0,0,0,11.76-3.24,27.36,27.36,0,0,0,8.89-8.18,34.59,34.59,0,0,0,4.89-10.6,26,26,0,0,0,.76-10.6,12.93,12.93,0,0,0-4.53-8.19q-3.8-3.23-10-3.23ZM214,152.25l-5,18.84h-30.5l-3.11,11.66h28l-5,18.73h-28L166.5,216h31.56l-5,18.73H140.55l22-82.44Zm18.31,82.44H211.21l22-82.44h36.27a27,27,0,0,1,11.1,2.12,17.52,17.52,0,0,1,7.27,5.65,24.3,24.3,0,0,1,4.06,17.9,54.08,54.08,0,0,1-2.7,10.13,35.08,35.08,0,0,1-5.52,9.66,50.3,50.3,0,0,1-8,8.12,36.57,36.57,0,0,1-22.51,7.78H237.9Zm25.74-40a9.69,9.69,0,0,0,6.24-2.42,15.54,15.54,0,0,0,4.45-5.89,25.08,25.08,0,0,0,1.95-6.89,8.33,8.33,0,0,0-1.19-5.88,5.76,5.76,0,0,0-5.17-2.48H249.23L243,194.65Zm56.22,14.83a4.83,4.83,0,0,0,1.32,5,9.69,9.69,0,0,0,5.74,2.53,32,32,0,0,0,7.58.06,16.64,16.64,0,0,0,7.11-2.36,8,8,0,0,0,3.89-4.65,4.57,4.57,0,0,0-.2-3.47,5.06,5.06,0,0,0-2.85-2.12,20.42,20.42,0,0,0-4.31-1.06c-1.48-.2-3.41-.37-5.8-.53q-14.21-1.06-20.32-6.83t-2.85-18.49a31.52,31.52,0,0,1,10.79-17.08A37.3,37.3,0,0,1,332.41,152a55.12,55.12,0,0,1,18.66,0,19.66,19.66,0,0,1,13.57,8.53q4.62,7,1.81,17.08h-20q1-3.88-1.89-5.95a11.78,11.78,0,0,0-7.12-2,19.63,19.63,0,0,0-8.4,2.12,9.79,9.79,0,0,0-5.38,5.59c-1,2.83-.51,4.81,1.42,5.95s5.08,1.94,9.43,2.41c2.9.32,5.18.59,6.84.83s3.72.63,6.17,1.18a23.86,23.86,0,0,1,5.68,1.88,25.55,25.55,0,0,1,4.23,2.89,9.56,9.56,0,0,1,3.07,4.18,19,19,0,0,1,.94,5.77,28.18,28.18,0,0,1-1.07,7.77A29.82,29.82,0,0,1,353.23,223a36,36,0,0,1-11.87,8.54,64.66,64.66,0,0,1-14.23,4.35,37.56,37.56,0,0,1-14.33.06A36.7,36.7,0,0,1,301,231.56a16.33,16.33,0,0,1-7.13-8.83q-2.1-5.82,0-13.25ZM62.18,152.29l0,0H41.3l-22,82.44h20.9Zm-31.41,0v0H22L0,234.69H8.81Z"/><path class="cls-2" d="M272.79,78.22a30.56,30.56,0,0,0-3.76-1V93.71a15.46,15.46,0,0,0,6.12-2.62,7.12,7.12,0,0,0,3.33-5.85,6.67,6.67,0,0,0-1.4-4.36A9.22,9.22,0,0,0,272.79,78.22Z"/><path class="cls-2" d="M512.9,61.29a33.9,33.9,0,0,1,4.83-14.79,3.17,3.17,0,0,0-.84-4.19l-5.83-4.26a3.21,3.21,0,0,0-4.6.9,47.16,47.16,0,0,0-7.11,21.77,3.21,3.21,0,0,0,3.18,3.44h7.21A3.16,3.16,0,0,0,512.9,61.29Z"/><polygon class="cls-2" points="150.11 80.36 173.48 80.36 161.65 53.15 150.11 80.36"/><path class="cls-2" d="M247.13,44.13q-.45,5.32,3.77,7.47a18.22,18.22,0,0,0,2.2.92v-16c-.36.18-.73.33-1.09.54Q247.42,39.69,247.13,44.13Z"/><path class="cls-2" d="M533.62,95.74A34.57,34.57,0,0,1,521,86.54a3.14,3.14,0,0,0-4.24-.48L511,90.29a3.2,3.2,0,0,0-.57,4.65,48.28,48.28,0,0,0,18.48,13.5,3.2,3.2,0,0,0,4.26-2l2.24-6.86A3.15,3.15,0,0,0,533.62,95.74Z"/><path class="cls-2" d="M535.51,28.81a3.16,3.16,0,0,0,3.71,2.11A34.71,34.71,0,0,1,547,30h0a34,34,0,0,1,7.81.9,3.17,3.17,0,0,0,3.72-2.11L560.75,22a3.2,3.2,0,0,0-2.28-4.09A47.53,47.53,0,0,0,547,16.49h0a47.87,47.87,0,0,0-11.4,1.37,3.2,3.2,0,0,0-2.29,4.08Z"/><path class="cls-2" d="M569.09,80.14a30.4,30.4,0,0,0,3.85-15.6,30.14,30.14,0,0,0-3.85-15.46,23.37,23.37,0,0,0-9.61-9.46,28.57,28.57,0,0,0-25,0,23.32,23.32,0,0,0-9.61,9.46A30,30,0,0,0,521,64.54a30.31,30.31,0,0,0,3.85,15.6,23.78,23.78,0,0,0,9.61,9.54,27.87,27.87,0,0,0,25,0A23.84,23.84,0,0,0,569.09,80.14Z"/><path class="cls-2" d="M587.55,39a3.21,3.21,0,0,0-4.6-.9l-5.83,4.24a3.16,3.16,0,0,0-.85,4.19,33.88,33.88,0,0,1,4.8,14.94,3.16,3.16,0,0,0,3.15,2.89l10.52,0V64.1A47.32,47.32,0,0,0,587.55,39Z"/><path class="cls-2" d="M577,86.24a3.14,3.14,0,0,0-4.24.46,34.62,34.62,0,0,1-12.63,9.12,3.16,3.16,0,0,0-1.78,3.88l2.21,6.87a3.19,3.19,0,0,0,4.24,2,48.25,48.25,0,0,0,18.56-13.39,3.21,3.21,0,0,0-.54-4.66Z"/><path class="cls-3" d="M156,11.3l-46.59,101v3.84h25.88l6.07-13H182.2l6.07,13h25.88v-3.84l-46.73-101Zm-5.92,69.06,11.54-27.21,11.83,27.21Z"/><path class="cls-4" d="M68,88.79a25.25,25.25,0,0,1-14.87,4.29,23.74,23.74,0,0,1-18.56-8.5,30,30,0,0,1-7.17-20.19q0-12.87,7.1-20.85t18.63-8q17.31,0,22.63,15.24h26Q98.95,31.41,84.89,21.43a53,53,0,0,0-17-8V2.82A2.81,2.81,0,0,0,65.12,0H37.46a2.82,2.82,0,0,0-2.82,2.82V14.56c-.3.1-.62.18-.92.29a56.35,56.35,0,0,0-16.93,9.76A45,45,0,0,0,4.59,41.32,56.3,56.3,0,0,0,0,64.39,56.3,56.3,0,0,0,4.59,87.46a45,45,0,0,0,12.2,16.72,55.09,55.09,0,0,0,16.93,9.68c.3.11.62.18.92.29v12.09a2.82,2.82,0,0,0,2.82,2.82H65.12a2.81,2.81,0,0,0,2.81-2.82V115.39a55.13,55.13,0,0,0,6.9-2.12A43.18,43.18,0,0,0,92.66,99.81q7.75-9.54,9.53-23.44h-26A20.77,20.77,0,0,1,68,88.79Z"/><path class="cls-5" d="M595.41,41.1a46.45,46.45,0,0,0-12-16.86,54.34,54.34,0,0,0-17-9.91,56.07,56.07,0,0,0-38.89,0,54.34,54.34,0,0,0-17,9.91A46.45,46.45,0,0,0,498.4,41.1a57.61,57.61,0,0,0-4.59,23.44,58.08,58.08,0,0,0,4.59,23.51A46.26,46.26,0,0,0,510.45,105a54.34,54.34,0,0,0,17,9.91,56.22,56.22,0,0,0,38.89,0,54.34,54.34,0,0,0,17-9.91,46.26,46.26,0,0,0,12-16.94A58.08,58.08,0,0,0,600,64.54,57.61,57.61,0,0,0,595.41,41.1ZM535.58,17.86A47.87,47.87,0,0,1,547,16.49h0a47.53,47.53,0,0,1,11.48,1.39A3.2,3.2,0,0,1,560.75,22l-2.23,6.86a3.17,3.17,0,0,1-3.72,2.11A34,34,0,0,0,547,30h0a34.71,34.71,0,0,0-7.76.88,3.16,3.16,0,0,1-3.71-2.11l-2.22-6.87A3.2,3.2,0,0,1,535.58,17.86Zm-33.05,46.3a3.21,3.21,0,0,1-3.18-3.44A47.16,47.16,0,0,1,506.46,39a3.21,3.21,0,0,1,4.6-.9l5.83,4.26a3.17,3.17,0,0,1,.84,4.19,33.9,33.9,0,0,0-4.83,14.79,3.16,3.16,0,0,1-3.16,2.88Zm32.84,35.47-2.24,6.86a3.2,3.2,0,0,1-4.26,2,48.28,48.28,0,0,1-18.48-13.5,3.2,3.2,0,0,1,.57-4.65l5.84-4.23a3.14,3.14,0,0,1,4.24.48,34.57,34.57,0,0,0,12.58,9.2A3.15,3.15,0,0,1,535.37,99.63Zm-.89-9.95a23.78,23.78,0,0,1-9.61-9.54A30.31,30.31,0,0,1,521,64.54a30,30,0,0,1,3.85-15.46,23.32,23.32,0,0,1,9.61-9.46,28.57,28.57,0,0,1,25,0,23.37,23.37,0,0,1,9.61,9.46,30.14,30.14,0,0,1,3.85,15.46,30.4,30.4,0,0,1-3.85,15.6,23.84,23.84,0,0,1-9.61,9.54,27.87,27.87,0,0,1-25,0Zm48.9,5.48a48.25,48.25,0,0,1-18.56,13.39,3.19,3.19,0,0,1-4.24-2l-2.21-6.87a3.16,3.16,0,0,1,1.78-3.88,34.62,34.62,0,0,0,12.63-9.12,3.14,3.14,0,0,1,4.24-.46l5.82,4.26A3.21,3.21,0,0,1,583.38,95.16Zm.84-30.77a3.16,3.16,0,0,1-3.15-2.89,33.88,33.88,0,0,0-4.8-14.94,3.16,3.16,0,0,1,.85-4.19L583,38.13a3.21,3.21,0,0,1,4.6.9,47.32,47.32,0,0,1,7.19,25.07v.31Z"/><polygon class="cls-6" points="446.78 63.36 394.43 12.19 384.81 12.19 384.81 116.16 412.17 116.16 412.17 65.28 464.38 116.3 473.84 116.3 473.84 12.63 446.78 12.63 446.78 63.36"/><path class="cls-7" d="M299.85,68.39a17.63,17.63,0,0,0-5.25-5.26,47.08,47.08,0,0,0-6.28-3.62,38.23,38.23,0,0,0-7.77-2.37c-3.25-.68-6-1.18-8.13-1.47-1-.14-2.11-.28-3.39-.43V35.77A17.05,17.05,0,0,1,271.46,37a8.21,8.21,0,0,1,4.36,7.47H301q.15-12.72-8-21.45a34.38,34.38,0,0,0-19.89-10.72c-1.35-.23-2.7-.37-4.05-.52V2a2,2,0,0,0-2-2h-12a2,2,0,0,0-2,2v9.83c-1.15.14-2.31.24-3.46.44A34.38,34.38,0,0,0,229.82,23q-8.13,8.73-7.83,21.45.13,16,9.76,23.21c5.21,3.94,12.35,6.54,21.35,7.86V92.88a15,15,0,0,1-3.68-2.09,7.72,7.72,0,0,1-3.33-6.28H220.51a29.78,29.78,0,0,0,4.43,16.63,30.33,30.33,0,0,0,11.91,11.1,59.56,59.56,0,0,0,16.25,5.46v9.37a2,2,0,0,0,2,2h12a2,2,0,0,0,2-2v-9.13c.69-.11,1.37-.17,2.06-.31a64,64,0,0,0,16.41-5.47,30.79,30.79,0,0,0,12.06-10.72,28.4,28.4,0,0,0,4.65-16A35.07,35.07,0,0,0,303,75.63,29.18,29.18,0,0,0,299.85,68.39ZM253.1,52.52a18.22,18.22,0,0,1-2.2-.92q-4.22-2.15-3.77-7.47.28-4.44,4.88-7c.36-.21.73-.36,1.09-.54Zm22,38.57A15.46,15.46,0,0,1,269,93.71V77.25a30.56,30.56,0,0,1,3.76,1,9.22,9.22,0,0,1,4.29,2.66,6.67,6.67,0,0,1,1.4,4.36A7.12,7.12,0,0,1,275.15,91.09Z"/><polygon class="cls-8" points="354.35 35.7 366.48 35.7 366.48 12.63 316.05 12.63 316.05 35.7 328.17 35.7 328.17 92.94 315.01 92.94 315.01 116.16 367.51 116.16 367.51 92.94 354.35 92.94 354.35 35.7"/></g></g></svg>