<svg width="155" height="37" viewBox="0 0 155 37" fill="none" xmlns="http://www.w3.org/2000/svg">
<path d="M19.8468 29.5056C20.2015 29.5056 20.5417 29.5085 20.8819 29.5056C22.2371 29.4912 23.5893 29.4796 24.9445 29.4595C25.8066 29.445 26.6715 29.4941 27.5336 29.3701C28.0411 29.2951 28.5168 29.1654 28.932 28.8482C29.2895 28.5743 29.4914 28.2197 29.5346 27.7785C29.5433 27.6459 29.526 27.5104 29.4827 27.3835C29.4424 27.2566 29.3328 27.1846 29.1915 27.1903C29.0589 27.1961 28.9609 27.2682 28.9234 27.3922C28.9032 27.4585 28.909 27.5334 28.9147 27.6055C28.9378 27.8737 28.8253 28.136 28.6177 28.3061C28.3727 28.5166 28.0872 28.6579 27.7672 28.7012C27.2886 28.7617 26.8042 28.828 26.3227 28.8396C24.9445 28.8742 23.5663 28.8915 22.188 28.9001C21.0463 28.9088 19.9016 28.9088 18.7598 28.9001C17.8862 28.8943 17.0126 28.8626 16.139 28.8482C15.3172 28.8338 14.4955 28.8424 13.6766 28.8107C13.2326 28.7934 12.7828 28.7531 12.3705 28.5599C11.9438 28.358 11.6266 28.0668 11.6814 27.5594C11.7045 27.3547 11.5949 27.2134 11.4219 27.1932C11.2489 27.173 11.1019 27.297 11.0702 27.4988C11.0067 27.8938 11.1163 28.2456 11.3585 28.5483C11.6987 28.9779 12.1658 29.2 12.6934 29.3095C12.8809 29.347 13.0683 29.3672 13.2557 29.396C13.2557 29.6555 13.2557 29.9006 13.2557 30.1457C13.2586 30.6387 13.3335 31.1116 13.6305 31.5239C13.8554 31.8382 14.1581 32.0544 14.5445 32.0948C15.1125 32.1553 15.5681 31.9362 15.8939 31.4633C16.1735 31.0568 16.2687 30.5955 16.2889 30.114C16.2975 29.9035 16.2889 29.6959 16.2889 29.4796H16.8079C16.8079 29.6123 16.8021 29.7305 16.8079 29.8487C16.8223 30.2062 16.8165 30.5695 16.8684 30.9242C16.9463 31.4316 17.2202 31.8093 17.7132 32.0025C18.4744 32.2995 19.4403 31.8958 19.6883 31.002C19.8209 30.5147 19.8757 30.0102 19.8468 29.5056ZM9.75251 21.0807C9.78422 20.6857 9.3056 20.0312 8.85004 20.0427C8.25897 20.06 7.78612 20.4752 7.78035 21.0259C7.77458 21.7611 8.14076 22.0812 8.73759 22.1158C9.32001 22.1504 9.74674 21.689 9.75251 21.0807ZM32.8071 21.0807C32.81 20.4954 32.3602 20.0542 31.7605 20.0485C31.3078 20.0456 30.835 20.5703 30.835 21.072C30.835 21.6804 31.2531 22.1417 31.8384 22.1158C32.4237 22.0898 32.7956 21.7813 32.8071 21.0807Z" fill="white"/>
<path d="M40.0931 16.8771C39.7817 16.8136 39.4789 16.7358 39.1762 16.6954C38.983 16.6695 38.7841 16.6752 38.5909 16.7098C38.3256 16.7589 38.1757 16.9924 38.2535 17.249C38.3112 17.4364 38.4035 17.6094 38.5274 17.7622C39.0234 18.362 39.4213 19.0107 39.6462 19.7575C39.6519 19.7805 39.6606 19.8036 39.6635 19.8267C39.6635 19.8411 39.6606 19.8555 39.6577 19.8728C39.4905 19.8324 39.329 19.7805 39.1618 19.7603C38.9398 19.7257 38.7149 19.7084 38.49 19.7084C38.0921 19.7171 37.9075 20.0746 38.1123 20.412C38.1411 20.461 38.1757 20.51 38.2103 20.5532C39.0291 21.5076 39.4847 22.6292 39.724 23.8517C39.8826 24.659 39.8537 25.4663 39.6894 26.2679C39.6836 26.2996 39.6692 26.3313 39.6519 26.3861C39.6116 26.3284 39.5827 26.2881 39.5568 26.2477C39.2598 25.8008 38.8734 25.4577 38.3689 25.2587C38.3026 25.2328 38.2334 25.2097 38.1642 25.1953C37.8355 25.1232 37.5731 25.3164 37.5904 25.6509C37.6048 25.8642 37.6509 26.0776 37.723 26.2794C37.922 26.8618 38.0546 27.4558 38.0431 28.0699C38.0373 28.4015 37.9681 28.7302 37.9248 29.0589L37.8729 29.0618C37.8412 29.0041 37.8037 28.9522 37.7634 28.9003C37.5731 28.6985 37.4001 28.4707 37.181 28.3092C36.6908 27.9488 36.2035 28.341 36.1747 28.7936C36.1516 29.18 36.1487 29.5721 36.019 29.9469C35.5577 31.2934 34.7302 32.3458 33.5336 33.1099C32.3082 33.8912 31.005 34.4967 29.6383 34.984C28.7013 35.3185 27.7556 35.6154 26.7839 35.8202C26.1842 35.947 25.5729 36.0277 24.9645 36.1027C24.4023 36.1719 23.8372 36.2123 23.2721 36.2498C21.7757 36.3536 20.2763 36.2844 18.7799 36.3045C17.9553 36.3132 17.1394 36.2411 16.3205 36.1863C15.7467 36.146 15.1816 36.0277 14.6078 35.9585C13.7602 35.8576 12.9413 35.6327 12.1282 35.3848C11.0412 35.0503 9.96866 34.6668 8.9451 34.1709C7.97344 33.6981 7.01619 33.1906 6.19734 32.4727C5.60627 31.9537 5.15936 31.3136 4.81626 30.6072C4.54234 30.0536 4.40395 29.4452 4.40395 28.8282C4.40683 28.5485 4.26267 28.3381 4.01182 28.2227C3.77251 28.1132 3.53897 28.1795 3.35444 28.3438C3.16126 28.5139 2.99403 28.7129 2.81815 28.9003C2.7749 28.9493 2.74607 29.0099 2.69129 29.0877C2.51541 28.4707 2.47792 27.8767 2.60479 27.2857C2.6884 26.8878 2.81238 26.4985 2.91618 26.1035C2.95078 25.9651 2.98826 25.8239 2.99403 25.6797C3.00844 25.3106 2.75183 25.1059 2.39143 25.1982C1.87244 25.3337 1.47743 25.6537 1.15162 26.0661C1.07377 26.1641 1.00746 26.2679 0.895008 26.3659C0.854643 26.0776 0.796977 25.7921 0.773911 25.5009C0.644164 23.8921 1.10549 22.436 1.9474 21.0866C2.02237 20.9655 2.11751 20.856 2.2069 20.7407C2.28186 20.6455 2.36259 20.5561 2.43179 20.4581C2.54136 20.3024 2.60767 20.1294 2.50676 19.9478C2.40584 19.7661 2.23285 19.7084 2.0339 19.6998C1.71386 19.6854 1.40246 19.743 1.09684 19.8295C1.04206 19.844 0.987273 19.8584 0.892125 19.8843C0.95844 19.694 1.00746 19.5268 1.07089 19.3653C1.30443 18.7743 1.65331 18.2553 2.0512 17.7622C2.17518 17.6065 2.27033 17.4278 2.32799 17.2375C2.40296 16.9953 2.25591 16.7617 2.00795 16.7127C1.81189 16.6752 1.61006 16.6695 1.41111 16.6925C1.10549 16.73 0.805627 16.8108 0.5 16.8713C0.505767 16.8482 0.511533 16.8281 0.520183 16.805C0.94979 15.8564 1.50626 14.9914 2.25015 14.2591C2.61632 13.8987 2.99115 13.5469 3.36885 13.198C3.4121 13.1605 3.47265 13.1432 3.52743 13.1519C4.59136 13.3624 5.56014 13.1807 6.43377 12.506C7.28145 11.8515 7.66493 10.9721 7.77449 9.9428C7.80044 9.70638 7.79756 9.46706 7.80909 9.2191C7.86099 9.21334 7.91289 9.21045 7.96479 9.20469C8.50396 9.12395 8.80958 8.6165 8.61929 8.09751C8.48377 7.73134 8.2387 7.44589 7.93019 7.20946C7.87829 7.1691 7.82062 7.12873 7.76872 7.08837C7.75142 7.06818 7.73701 7.04512 7.72547 7.02205C7.82927 7.02205 7.91577 7.00475 7.99073 7.02493C8.24446 7.09125 8.50107 7.15468 8.74615 7.24983C9.02583 7.36228 9.29109 7.51221 9.56788 7.63619C9.82449 7.75152 10.0955 7.82648 10.3781 7.78035C10.7356 7.72269 10.9432 7.50067 10.9692 7.14027C10.9807 6.9096 10.9778 6.68182 10.9547 6.45116C10.9461 6.3416 10.9778 6.30123 11.0758 6.32142C11.1825 6.3416 11.2892 6.3762 11.3901 6.41656C11.6554 6.52901 11.9149 6.65299 12.1801 6.76256C12.6011 6.93844 12.9096 6.81157 13.195 6.43963C13.3075 6.29258 13.394 6.12247 13.4862 5.96101C13.5497 5.84856 13.6333 5.82838 13.7371 5.88893C13.8351 5.94659 13.9332 6.01002 14.0254 6.07634C14.4291 6.36467 14.8731 6.54919 15.3661 6.58956C15.8015 6.62704 16.2369 6.51171 16.5944 6.25798C16.9433 6.01579 16.9865 5.53717 16.6982 5.22289C16.5858 5.09891 16.4618 4.98646 16.332 4.8596C16.5512 4.7558 16.7645 4.79617 16.9635 4.83653C17.4796 4.93745 17.9495 5.14504 18.3474 5.50257C18.4772 5.6179 18.6127 5.72458 18.7453 5.83414C19.2297 6.23492 19.7602 6.28105 20.2965 5.97254C20.6137 5.79089 20.8991 5.5487 21.2019 5.33534C21.3259 5.24596 21.4527 5.15946 21.594 5.06143C21.6603 5.20559 21.718 5.32957 21.7756 5.45355C21.9313 5.79378 22.2716 5.94659 22.6233 5.81108C22.8367 5.72746 23.0443 5.62655 23.2461 5.51122C23.8401 5.16523 24.4629 4.88843 25.152 4.81347C25.4316 4.78463 25.7171 4.81923 25.9968 4.82788C26.0342 4.83365 26.0717 4.84518 26.1063 4.86248C26.2534 4.92591 26.262 4.96916 26.1669 5.09603C26.0141 5.29785 25.8411 5.48815 25.7142 5.70728C25.4691 6.13689 25.5268 6.51171 25.8497 6.82311C26.0227 6.98745 26.2505 7.0826 26.4898 7.09125C26.7349 7.10278 26.9771 7.08548 27.2164 7.03935C27.6114 6.96727 28.0006 6.86924 28.4158 6.77697C28.387 6.9096 28.361 7.01052 28.3437 7.11432C28.2774 7.48626 28.4533 7.74863 28.7445 7.9447C29.004 8.11769 29.2722 8.06291 29.5143 7.89568C29.7364 7.74287 29.944 7.57276 30.1573 7.40841C30.5523 7.10278 30.9387 6.78274 31.3971 6.57514C31.5471 6.50883 31.7056 6.4627 31.8671 6.43386C31.8469 6.4627 31.8267 6.49441 31.8065 6.52036C31.5153 6.89807 31.351 7.31903 31.3481 7.79765C31.3481 8.34547 31.795 9.04899 32.5101 9.14702C32.5908 9.15855 32.6715 9.1672 32.7753 9.18162C32.7753 9.30272 32.7753 9.4267 32.7753 9.55068C32.7724 10.2888 32.9339 10.9923 33.3289 11.6093C33.8911 12.4858 34.684 13.0481 35.7393 13.1922C36.1862 13.2528 36.6274 13.2643 37.0685 13.1432C37.1031 13.1346 37.1608 13.1577 37.1925 13.1865C37.9364 13.8237 38.6226 14.5128 39.205 15.2999C39.5741 15.7901 39.8278 16.3379 40.0931 16.8771Z" fill="#D2FF71"/>
<path d="M40.0931 16.8771C39.7817 16.8136 39.4789 16.7358 39.1762 16.6954C38.983 16.6695 38.7841 16.6752 38.5909 16.7098C38.3256 16.7589 38.1757 16.9924 38.2535 17.249C38.3112 17.4364 38.4035 17.6094 38.5274 17.7622C39.0234 18.362 39.4213 19.0107 39.6462 19.7575C39.6519 19.7805 39.6606 19.8036 39.6635 19.8267C39.6635 19.8411 39.6606 19.8555 39.6577 19.8728C39.4905 19.8324 39.329 19.7805 39.1618 19.7603C38.9398 19.7257 38.7149 19.7084 38.49 19.7084C38.0921 19.7171 37.9075 20.0746 38.1123 20.412C38.1411 20.461 38.1757 20.51 38.2103 20.5532C39.0291 21.5076 39.4847 22.6292 39.724 23.8517C39.8826 24.659 39.8537 25.4663 39.6894 26.2679C39.6836 26.2996 39.6692 26.3313 39.6519 26.3861C39.6116 26.3284 39.5827 26.2881 39.5568 26.2477C39.2598 25.8008 38.8734 25.4577 38.3689 25.2587C38.3026 25.2328 38.2334 25.2097 38.1642 25.1953C37.8355 25.1232 37.5731 25.3164 37.5904 25.6509C37.6048 25.8642 37.6509 26.0776 37.723 26.2794C37.922 26.8618 38.0546 27.4558 38.0431 28.0699C38.0373 28.4015 37.9681 28.7302 37.9248 29.0589L37.8729 29.0618C37.8412 29.0041 37.8037 28.9522 37.7634 28.9003C37.5731 28.6985 37.4001 28.4707 37.181 28.3092C36.6908 27.9488 36.2035 28.341 36.1747 28.7936C36.1516 29.18 36.1487 29.5721 36.019 29.9469C35.5577 31.2934 34.7302 32.3458 33.5336 33.1099C32.3082 33.8912 31.005 34.4967 29.6383 34.984C28.7013 35.3185 27.7556 35.6154 26.7839 35.8202C26.1842 35.947 25.5729 36.0277 24.9645 36.1027C24.4023 36.1719 23.8372 36.2123 23.2721 36.2498C21.7757 36.3536 20.2763 36.2844 18.7799 36.3045C17.9553 36.3132 17.1394 36.2411 16.3205 36.1863C15.7467 36.146 15.1816 36.0277 14.6078 35.9585C13.7602 35.8576 12.9413 35.6327 12.1282 35.3848C11.0412 35.0503 9.96866 34.6668 8.9451 34.1709C7.97344 33.6981 7.01619 33.1906 6.19734 32.4727C5.60627 31.9537 5.15936 31.3136 4.81626 30.6072C4.54234 30.0536 4.40395 29.4452 4.40395 28.8282C4.40683 28.5485 4.26267 28.3381 4.01182 28.2227C3.77251 28.1132 3.53897 28.1795 3.35444 28.3438C3.16126 28.5139 2.99403 28.7129 2.81815 28.9003C2.7749 28.9493 2.74607 29.0099 2.69129 29.0877C2.51541 28.4707 2.47792 27.8767 2.60479 27.2857C2.6884 26.8878 2.81238 26.4985 2.91618 26.1035C2.95078 25.9651 2.98826 25.8239 2.99403 25.6797C3.00844 25.3106 2.75183 25.1059 2.39143 25.1982C1.87244 25.3337 1.47743 25.6537 1.15162 26.0661C1.07377 26.1641 1.00746 26.2679 0.895008 26.3659C0.854643 26.0776 0.796977 25.7921 0.773911 25.5009C0.644164 23.8921 1.10549 22.436 1.9474 21.0866C2.02237 20.9655 2.11751 20.856 2.2069 20.7407C2.28186 20.6455 2.36259 20.5561 2.43179 20.4581C2.54136 20.3024 2.60767 20.1294 2.50676 19.9478C2.40584 19.7661 2.23285 19.7084 2.0339 19.6998C1.71386 19.6854 1.40246 19.743 1.09684 19.8295C1.04206 19.844 0.987273 19.8584 0.892125 19.8843C0.95844 19.694 1.00746 19.5268 1.07089 19.3653C1.30443 18.7743 1.65331 18.2553 2.0512 17.7622C2.17518 17.6065 2.27033 17.4278 2.32799 17.2375C2.40296 16.9953 2.25591 16.7617 2.00795 16.7127C1.81189 16.6752 1.61006 16.6695 1.41111 16.6925C1.10549 16.73 0.805627 16.8108 0.5 16.8713C0.505767 16.8482 0.511533 16.8281 0.520183 16.805C0.94979 15.8564 1.50626 14.9914 2.25015 14.2591C2.61632 13.8987 2.99115 13.5469 3.36885 13.198C3.4121 13.1605 3.47265 13.1432 3.52743 13.1519C4.59136 13.3624 5.56014 13.1807 6.43377 12.506C7.28145 11.8515 7.66493 10.9721 7.77449 9.9428C7.80044 9.70638 7.79756 9.46706 7.80909 9.2191C7.86099 9.21334 7.91289 9.21045 7.96479 9.20469C8.50396 9.12395 8.80958 8.6165 8.61929 8.09751C8.48377 7.73134 8.2387 7.44589 7.93019 7.20946C7.87829 7.1691 7.82062 7.12873 7.76872 7.08837C7.75142 7.06818 7.73701 7.04512 7.72547 7.02205C7.82927 7.02205 7.91577 7.00475 7.99073 7.02493C8.24446 7.09125 8.50107 7.15468 8.74615 7.24983C9.02583 7.36228 9.29109 7.51221 9.56788 7.63619C9.82449 7.75152 10.0955 7.82648 10.3781 7.78035C10.7356 7.72269 10.9432 7.50067 10.9692 7.14027C10.9807 6.9096 10.9778 6.68182 10.9547 6.45116C10.9461 6.3416 10.9778 6.30123 11.0758 6.32142C11.1825 6.3416 11.2892 6.3762 11.3901 6.41656C11.6554 6.52901 11.9149 6.65299 12.1801 6.76256C12.6011 6.93844 12.9096 6.81157 13.195 6.43963C13.3075 6.29258 13.394 6.12247 13.4862 5.96101C13.5497 5.84856 13.6333 5.82838 13.7371 5.88893C13.8351 5.94659 13.9332 6.01002 14.0254 6.07634C14.4291 6.36467 14.8731 6.54919 15.3661 6.58956C15.8015 6.62704 16.2369 6.51171 16.5944 6.25798C16.9433 6.01579 16.9865 5.53717 16.6982 5.22289C16.5858 5.09891 16.4618 4.98646 16.332 4.8596C16.5512 4.7558 16.7645 4.79617 16.9635 4.83653C17.4796 4.93745 17.9495 5.14504 18.3474 5.50257C18.4772 5.6179 18.6127 5.72458 18.7453 5.83414C19.2297 6.23492 19.7602 6.28105 20.2965 5.97254C20.6137 5.79089 20.8991 5.5487 21.2019 5.33534C21.3259 5.24596 21.4527 5.15946 21.594 5.06143C21.6603 5.20559 21.718 5.32957 21.7756 5.45355C21.9313 5.79378 22.2716 5.94659 22.6233 5.81108C22.8367 5.72746 23.0443 5.62655 23.2461 5.51122C23.8401 5.16523 24.4629 4.88843 25.152 4.81347C25.4316 4.78463 25.7171 4.81923 25.9968 4.82788C26.0342 4.83365 26.0717 4.84518 26.1063 4.86248C26.2534 4.92591 26.262 4.96916 26.1669 5.09603C26.0141 5.29785 25.8411 5.48815 25.7142 5.70728C25.4691 6.13689 25.5268 6.51171 25.8497 6.82311C26.0227 6.98745 26.2505 7.0826 26.4898 7.09125C26.7349 7.10278 26.9771 7.08548 27.2164 7.03935C27.6114 6.96727 28.0006 6.86924 28.4158 6.77697C28.387 6.9096 28.361 7.01052 28.3437 7.11432C28.2774 7.48626 28.4533 7.74863 28.7445 7.9447C29.004 8.11769 29.2722 8.06291 29.5143 7.89568C29.7364 7.74287 29.944 7.57276 30.1573 7.40841C30.5523 7.10278 30.9387 6.78274 31.3971 6.57514C31.5471 6.50883 31.7056 6.4627 31.8671 6.43386C31.8469 6.4627 31.8267 6.49441 31.8065 6.52036C31.5153 6.89807 31.351 7.31903 31.3481 7.79765C31.3481 8.34547 31.795 9.04899 32.5101 9.14702C32.5908 9.15855 32.6715 9.1672 32.7753 9.18162C32.7753 9.30272 32.7753 9.4267 32.7753 9.55068C32.7724 10.2888 32.9339 10.9923 33.3289 11.6093C33.8911 12.4858 34.684 13.0481 35.7393 13.1922C36.1862 13.2528 36.6274 13.2643 37.0685 13.1432C37.1031 13.1346 37.1608 13.1577 37.1925 13.1865C37.9364 13.8237 38.6226 14.5128 39.205 15.2999C39.5741 15.7901 39.8278 16.3379 40.0931 16.8771Z" fill="#FE5A13"/>
<path d="M35.5131 6.39879C36.5107 6.74478 37.468 6.77938 38.382 6.12199C38.4079 6.25462 38.4339 6.3786 38.4512 6.50258C38.5924 7.52326 38.5492 8.54106 38.4108 9.56174C38.3301 10.1586 38.1427 10.7208 37.9235 11.2744C37.7505 11.704 37.4853 12.0759 37.1652 12.4046C37.0672 12.5056 36.8971 12.5575 36.75 12.5805C35.6284 12.7506 34.6971 12.3816 33.9994 11.4993C33.59 10.9832 33.4256 10.3546 33.4083 9.69436C33.4026 9.49254 33.4083 9.29071 33.4199 9.08888C33.4227 9.03121 33.4545 8.95048 33.5006 8.91877C34.2272 8.41419 34.7462 7.72797 35.1988 6.98409C35.3142 6.79379 35.4064 6.59485 35.5131 6.39879Z" fill="white"/>
<path d="M35.5131 6.39879C36.5107 6.74478 37.468 6.77938 38.382 6.12199C38.4079 6.25462 38.4339 6.3786 38.4512 6.50258C38.5924 7.52326 38.5492 8.54106 38.4108 9.56174C38.3301 10.1586 38.1427 10.7208 37.9235 11.2744C37.7505 11.704 37.4853 12.0759 37.1652 12.4046C37.0672 12.5056 36.8971 12.5575 36.75 12.5805C35.6284 12.7506 34.6971 12.3816 33.9994 11.4993C33.59 10.9832 33.4256 10.3546 33.4083 9.69436C33.4026 9.49254 33.4083 9.29071 33.4199 9.08888C33.4227 9.03121 33.4545 8.95048 33.5006 8.91877C34.2272 8.41419 34.7462 7.72797 35.1988 6.98409C35.3142 6.79379 35.4064 6.59485 35.5131 6.39879Z" fill="#FE5A13"/>
<path d="M2.17723 6.10172C3.12006 6.7764 4.08019 6.74757 5.07491 6.39581C5.17006 6.57746 5.25656 6.76487 5.36324 6.94075C5.7842 7.64715 6.2657 8.30742 6.93751 8.79469C7.1278 8.93309 7.1797 9.08014 7.18547 9.2935C7.21142 9.98548 7.11339 10.6544 6.74721 11.2484C6.283 12.0009 5.61697 12.4853 4.71739 12.5804C4.42618 12.6064 4.13497 12.6035 3.84376 12.5775C3.65346 12.5631 3.48623 12.4766 3.34495 12.3238C2.7856 11.7241 2.50304 10.986 2.30986 10.2133C2.07631 9.27908 2.02153 8.32472 2.06478 7.36747C2.07919 6.95805 2.13398 6.54862 2.17723 6.10172Z" fill="white"/>
<path d="M2.17723 6.10172C3.12006 6.7764 4.08019 6.74757 5.07491 6.39581C5.17006 6.57746 5.25656 6.76487 5.36324 6.94075C5.7842 7.64715 6.2657 8.30742 6.93751 8.79469C7.1278 8.93309 7.1797 9.08014 7.18547 9.2935C7.21142 9.98548 7.11339 10.6544 6.74721 11.2484C6.283 12.0009 5.61697 12.4853 4.71739 12.5804C4.42618 12.6064 4.13497 12.6035 3.84376 12.5775C3.65346 12.5631 3.48623 12.4766 3.34495 12.3238C2.7856 11.7241 2.50304 10.986 2.30986 10.2133C2.07631 9.27908 2.02153 8.32472 2.06478 7.36747C2.07919 6.95805 2.13398 6.54862 2.17723 6.10172Z" fill="#FE5A13"/>
<path d="M35.7678 5.81483L35.935 4.29246C36.5347 4.37607 37.0883 4.20019 37.5842 3.785C37.6505 3.93493 37.7169 4.07621 37.7745 4.22326C37.9072 4.56637 38.034 4.91525 38.1695 5.25835C38.2128 5.36792 38.1811 5.43423 38.1061 5.51208C37.8553 5.77446 37.5237 5.94457 37.1633 5.98782C36.6731 6.05125 36.1945 6.01377 35.7678 5.81483Z" fill="white"/>
<path d="M35.7678 5.81483L35.935 4.29246C36.5347 4.37607 37.0883 4.20019 37.5842 3.785C37.6505 3.93493 37.7169 4.07621 37.7745 4.22326C37.9072 4.56637 38.034 4.91525 38.1695 5.25835C38.2128 5.36792 38.1811 5.43423 38.1061 5.51208C37.8553 5.77446 37.5237 5.94457 37.1633 5.98782C36.6731 6.05125 36.1945 6.01377 35.7678 5.81483Z" fill="#FE5A13"/>
<path d="M3.00406 3.79514C3.69604 4.268 3.94689 4.34008 4.6504 4.29683C4.70518 4.79564 4.75997 5.29156 4.82052 5.83361C4.6331 5.87975 4.40532 5.95759 4.17466 5.98931C3.71334 6.04986 3.2549 6.02968 2.83394 5.78748C2.79646 5.76442 2.75898 5.74712 2.72149 5.72117C2.36974 5.48474 2.34955 5.42419 2.50237 5.03206C2.64653 4.66589 2.79069 4.3026 2.93486 3.93642C2.95504 3.89029 2.98099 3.84416 3.00406 3.79514Z" fill="white"/>
<path d="M3.00406 3.79514C3.69604 4.268 3.94689 4.34008 4.6504 4.29683C4.70518 4.79564 4.75997 5.29156 4.82052 5.83361C4.6331 5.87975 4.40532 5.95759 4.17466 5.98931C3.71334 6.04986 3.2549 6.02968 2.83394 5.78748C2.79646 5.76442 2.75898 5.74712 2.72149 5.72117C2.36974 5.48474 2.34955 5.42419 2.50237 5.03206C2.64653 4.66589 2.79069 4.3026 2.93486 3.93642C2.95504 3.89029 2.98099 3.84416 3.00406 3.79514Z" fill="#FE5A13"/>
<path d="M4.39154 3.70185C4.0715 3.68455 3.80624 3.60382 3.56981 3.44524C3.34492 3.29531 3.3132 3.17133 3.4516 2.94355C3.92734 2.14488 4.48381 1.41542 5.29689 0.922378C5.43529 0.835879 5.58522 0.766681 5.73803 0.714782C5.96581 0.639817 6.09267 0.749382 6.04942 0.982926C6.02347 1.11844 5.97157 1.24819 5.89084 1.36063C5.6227 1.73546 5.33726 2.10163 5.16138 2.53124C5.03163 2.84552 4.92495 3.16845 4.82115 3.49137C4.79232 3.58075 4.7606 3.63265 4.66545 3.64707C4.56454 3.66437 4.46074 3.69032 4.39154 3.70185Z" fill="white"/>
<path d="M4.39154 3.70185C4.0715 3.68455 3.80624 3.60382 3.56981 3.44524C3.34492 3.29531 3.3132 3.17133 3.4516 2.94355C3.92734 2.14488 4.48381 1.41542 5.29689 0.922378C5.43529 0.835879 5.58522 0.766681 5.73803 0.714782C5.96581 0.639817 6.09267 0.749382 6.04942 0.982926C6.02347 1.11844 5.97157 1.24819 5.89084 1.36063C5.6227 1.73546 5.33726 2.10163 5.16138 2.53124C5.03163 2.84552 4.92495 3.16845 4.82115 3.49137C4.79232 3.58075 4.7606 3.63265 4.66545 3.64707C4.56454 3.66437 4.46074 3.69032 4.39154 3.70185Z" fill="#FE5A13"/>
<path d="M36.2575 3.70361C36.2027 3.70072 36.171 3.70072 36.1364 3.69496C35.8134 3.65747 35.8134 3.65747 35.7269 3.34896C35.5424 2.68581 35.2281 2.06591 34.8043 1.52385C34.6774 1.36239 34.5477 1.20093 34.5275 0.978916C34.5073 0.748254 34.6169 0.644456 34.8389 0.716538C34.9946 0.768437 35.1416 0.837636 35.28 0.921251C35.972 1.33644 36.4824 1.9304 36.9148 2.59643C37.01 2.74636 37.0965 2.90206 37.1916 3.05199C37.2435 3.13272 37.2291 3.20192 37.1772 3.27688C37.0071 3.51908 36.7419 3.59693 36.4766 3.66612C36.4045 3.68631 36.3324 3.69784 36.2575 3.70361Z" fill="white"/>
<path d="M36.2575 3.70361C36.2027 3.70072 36.171 3.70072 36.1364 3.69496C35.8134 3.65747 35.8134 3.65747 35.7269 3.34896C35.5424 2.68581 35.2281 2.06591 34.8043 1.52385C34.6774 1.36239 34.5477 1.20093 34.5275 0.978916C34.5073 0.748254 34.6169 0.644456 34.8389 0.716538C34.9946 0.768437 35.1416 0.837636 35.28 0.921251C35.972 1.33644 36.4824 1.9304 36.9148 2.59643C37.01 2.74636 37.0965 2.90206 37.1916 3.05199C37.2435 3.13272 37.2291 3.20192 37.1772 3.27688C37.0071 3.51908 36.7419 3.59693 36.4766 3.66612C36.4045 3.68631 36.3324 3.69784 36.2575 3.70361Z" fill="#FE5A13"/>
<path d="M19.8457 29.5044C19.8745 30.0089 19.8197 30.5164 19.6871 31.0037C19.4391 31.8975 18.4732 32.3011 17.7121 32.0042C17.219 31.811 16.9422 31.4333 16.8673 30.9258C16.8154 30.5712 16.824 30.2108 16.8067 29.8504C16.801 29.7322 16.8067 29.6139 16.8067 29.4813H16.2877C16.2877 29.6947 16.2964 29.9051 16.2877 30.1156C16.2675 30.5971 16.1724 31.0585 15.8927 31.465C15.5669 31.9379 15.1114 32.157 14.5434 32.0964C14.157 32.0561 13.8571 31.8398 13.6294 31.5255C13.3324 31.1132 13.2574 30.6375 13.2545 30.1473C13.2516 29.9023 13.2545 29.6601 13.2545 29.3977C13.0671 29.3689 12.8768 29.3487 12.6923 29.3112C12.1675 29.2016 11.6976 28.9796 11.3573 28.55C11.1151 28.2444 11.0056 27.8926 11.069 27.5005C11.1007 27.2987 11.2449 27.1747 11.4208 27.1949C11.5966 27.2151 11.7033 27.3563 11.6803 27.5611C11.6255 28.0685 11.9426 28.3597 12.3694 28.5615C12.7817 28.7576 13.2315 28.7951 13.6755 28.8124C14.4943 28.847 15.3161 28.8355 16.1378 28.8499C17.0114 28.8643 17.8851 28.8931 18.7587 28.9018C19.9034 28.9104 21.0451 28.9104 22.1869 28.9018C23.5651 28.8902 24.9433 28.8758 26.3215 28.8412C26.803 28.8297 27.2874 28.7634 27.766 28.7028C28.0861 28.6625 28.3715 28.5183 28.6166 28.3078C28.8242 28.1377 28.9366 27.8753 28.9107 27.6072C28.9049 27.5351 28.8992 27.4601 28.9193 27.3938C28.9568 27.267 29.0549 27.1978 29.1875 27.192C29.3288 27.1862 29.4383 27.2554 29.4787 27.3852C29.5219 27.512 29.5392 27.6475 29.5306 27.7802C29.4873 28.2213 29.2826 28.5788 28.928 28.8499C28.5128 29.167 28.0371 29.2968 27.5296 29.3717C26.6675 29.4986 25.8025 29.4496 24.9404 29.4611C23.5853 29.4813 22.233 29.4928 20.8779 29.5073C20.5406 29.5073 20.2003 29.5044 19.8457 29.5044ZM13.8888 29.4582C13.8831 29.5476 13.8744 29.6284 13.8715 29.7091C13.8571 30.1272 13.8485 30.5424 14.0042 30.9431C14.2377 31.54 14.9182 31.6726 15.3161 31.1911C15.4026 31.0844 15.4746 30.9633 15.5237 30.8336C15.6851 30.4184 15.6967 29.983 15.6448 29.5447C15.6419 29.513 15.5813 29.4611 15.5467 29.4611C15.0018 29.4554 14.454 29.4582 13.8888 29.4582ZM17.4093 29.5044C17.4295 29.9484 17.4353 30.3867 17.4756 30.8191C17.5045 31.1017 17.6602 31.3237 17.9427 31.4246C18.4242 31.5976 18.9144 31.3583 19.0787 30.8739C19.2229 30.4501 19.2488 30.0089 19.2229 29.5649C19.2171 29.5447 19.2085 29.5246 19.1998 29.5044H17.4093Z" fill="white"/>
<path d="M9.75251 21.0807C9.74674 21.6919 9.32001 22.1504 8.73759 22.1158C8.14076 22.0812 7.7717 21.7611 7.78035 21.0259C7.78612 20.4723 8.25897 20.0571 8.85004 20.0427C9.3056 20.0312 9.78422 20.6857 9.75251 21.0807Z" fill="white"/>
<path d="M32.8071 21.0807C32.7956 21.7813 32.4237 22.0927 31.8384 22.1158C31.2531 22.1388 30.835 21.6804 30.835 21.072C30.835 20.5703 31.3078 20.0456 31.7605 20.0485C32.3631 20.0513 32.81 20.4925 32.8071 21.0807Z" fill="white"/>
<path d="M13.89 29.4589C14.4551 29.4589 15.0001 29.4589 15.5479 29.4618C15.5825 29.4618 15.6431 29.5137 15.6459 29.5454C15.6978 29.9837 15.6863 30.4191 15.5248 30.8343C15.4758 30.964 15.4037 31.0851 15.3172 31.1918C14.9194 31.6733 14.2418 31.5407 14.0054 30.9438C13.8497 30.5431 13.8554 30.1279 13.8727 29.7098C13.8756 29.6291 13.8843 29.5483 13.89 29.4589Z" fill="white"/>
<path d="M17.4093 29.5044H19.1998C19.2114 29.5246 19.22 29.5447 19.2229 29.5649C19.2488 30.0089 19.2229 30.4501 19.0787 30.8739C18.9144 31.3583 18.4242 31.5947 17.9427 31.4246C17.6602 31.3237 17.5045 31.1017 17.4756 30.8191C17.4353 30.3838 17.4295 29.9484 17.4093 29.5044Z" fill="white"/>
<path d="M58.5651 31.1844C57.3119 31.1844 56.1617 30.9612 55.1145 30.5148C54.0844 30.0513 53.1917 29.4161 52.4364 28.6093C51.6982 27.7852 51.1231 26.8153 50.7111 25.6994C50.2991 24.5664 50.093 23.3304 50.093 21.9913V21.8626C50.093 20.5235 50.3162 19.2961 50.7626 18.1802C51.2089 17.0472 51.8269 16.0686 52.6166 15.2446C53.4063 14.4206 54.3419 13.7768 55.4235 13.3133C56.505 12.8498 57.6895 12.618 58.9771 12.618H59.0286C60.6766 12.618 62.1187 12.9785 63.3547 13.6996C64.6079 14.4206 65.638 15.3991 66.4448 16.6351L63.7152 18.3605C63.2174 17.4678 62.5994 16.7897 61.8612 16.3261C61.1402 15.8455 60.2646 15.6051 59.2346 15.6051H59.1831C58.3419 15.6051 57.578 15.7596 56.8913 16.0686C56.2046 16.3776 55.6123 16.8068 55.1145 17.3562C54.6338 17.9055 54.2561 18.5665 53.9814 19.339C53.7239 20.0943 53.5952 20.9355 53.5952 21.8626V22.0171C53.5952 22.9441 53.7239 23.7853 53.9814 24.5406C54.2561 25.296 54.6338 25.9484 55.1145 26.4977C55.6123 27.0299 56.2046 27.4505 56.8913 27.7595C57.578 28.0513 58.3419 28.1973 59.1831 28.1973H59.2346C59.9384 28.1973 60.5736 28.1028 61.1402 27.914C61.7067 27.7252 62.1873 27.4677 62.5822 27.1415C62.977 26.7981 63.2775 26.4033 63.4835 25.9569C63.7066 25.5106 63.8182 25.0385 63.8182 24.5406V24.1801H59.8011V21.3475H66.9598V30.9268H64.5135C64.4105 30.738 64.3161 30.4548 64.2303 30.0771C64.1616 29.6822 64.1101 29.3045 64.0757 28.944C63.5092 29.6136 62.7453 30.1543 61.7839 30.5663C60.8226 30.9783 59.8097 31.1844 58.7453 31.1844H58.5651Z" fill="#161616"/>
<path d="M70.332 17.5364H72.8556C72.9414 17.7939 73.0187 18.1029 73.0873 18.4635C73.1732 18.824 73.2247 19.1501 73.2418 19.442C73.7568 18.8411 74.3834 18.3776 75.1216 18.0514C75.877 17.7081 76.7182 17.5364 77.6452 17.5364H77.9542V20.6265C77.6967 20.5235 77.4135 20.472 77.1045 20.472C75.9371 20.472 75.0444 20.7724 74.4264 21.3733C73.8255 21.9741 73.5251 22.7896 73.5251 23.8196V30.9268H70.332V17.5364Z" fill="#161616"/>
<path d="M84.0493 31.1844C83.3626 31.1844 82.7275 31.0899 82.1438 30.9011C81.5772 30.6951 81.088 30.4204 80.676 30.0771C80.264 29.7337 79.9378 29.3131 79.6974 28.8153C79.4743 28.3174 79.3627 27.7767 79.3627 27.193V27.0127C79.3627 24.1115 82.0579 22.6608 87.4484 22.6608H88.53V22.0686C88.53 21.4162 88.2896 20.8926 87.8089 20.4978C87.3283 20.1029 86.6416 19.9055 85.7489 19.9055H85.6716C84.9678 19.9055 84.2296 20.0257 83.4571 20.266C82.7017 20.5064 81.9893 20.8411 81.3197 21.2703L80.0064 18.9527C80.8305 18.4377 81.7403 18.0257 82.736 17.7167C83.7317 17.4077 84.7704 17.2532 85.8519 17.2532H86.0064C86.8133 17.2532 87.5514 17.3562 88.221 17.5622C88.8905 17.7682 89.4742 18.0772 89.972 18.4892C90.4699 18.9012 90.8561 19.4077 91.1308 20.0085C91.4055 20.6094 91.5428 21.3132 91.5428 22.1201V28.1715C91.5428 28.635 91.5857 29.0985 91.6716 29.5621C91.7574 30.0256 91.869 30.4805 92.0063 30.9268H88.9677C88.8819 30.7208 88.8046 30.4805 88.736 30.2058C88.6845 29.914 88.6416 29.6221 88.6072 29.3303C88.0407 29.8968 87.3712 30.3517 86.5987 30.6951C85.8261 31.0213 84.9764 31.1844 84.0493 31.1844ZM84.6931 28.6093C85.4485 28.6093 86.1609 28.4634 86.8304 28.1715C87.4999 27.8625 88.0665 27.4591 88.53 26.9612V24.7209H87.6287C85.8605 24.7209 84.5558 24.9012 83.7146 25.2617C82.8734 25.605 82.4528 26.1372 82.4528 26.8582V26.9612C82.4528 27.4419 82.6588 27.8367 83.0708 28.1458C83.4828 28.4548 84.0236 28.6093 84.6931 28.6093Z" fill="#161616"/>
<path d="M95.4038 17.5364H97.9274C98.0132 17.7768 98.0905 18.0686 98.1592 18.412C98.2278 18.7553 98.2793 19.0643 98.3137 19.339C98.8287 18.721 99.4467 18.2231 100.168 17.8454C100.906 17.4678 101.696 17.2789 102.537 17.2789H102.588C104.528 17.2789 105.841 18.06 106.528 19.6222C107.06 18.9012 107.704 18.3347 108.459 17.9227C109.232 17.4935 110.082 17.2789 111.009 17.2789H111.06C112.502 17.2789 113.592 17.7081 114.331 18.5665C115.069 19.4248 115.438 20.6523 115.438 22.2488V30.9268H112.245V22.7896C112.245 21.8111 112.056 21.1158 111.678 20.7038C111.318 20.2746 110.743 20.06 109.953 20.06H109.902C109.043 20.06 108.348 20.3347 107.816 20.884C107.284 21.4334 107.017 22.266 107.017 23.3819V30.9268H103.824V22.8153C103.824 21.8368 103.636 21.133 103.258 20.7038C102.897 20.2746 102.314 20.06 101.507 20.06H101.455C100.597 20.0772 99.9016 20.3604 99.3695 20.9098C98.8544 21.442 98.5969 22.2746 98.5969 23.4076V30.9268H95.4038V17.5364Z" fill="#161616"/>
<path d="M120.638 15.4506C120.089 15.4506 119.634 15.2961 119.273 14.9871C118.93 14.6609 118.758 14.2489 118.758 13.7511C118.758 13.2532 118.93 12.8412 119.273 12.515C119.634 12.1717 120.089 12 120.638 12C121.205 12 121.668 12.1717 122.029 12.515C122.389 12.8412 122.57 13.2532 122.57 13.7511C122.57 14.2489 122.389 14.6609 122.029 14.9871C121.668 15.2961 121.205 15.4506 120.638 15.4506ZM119.067 17.5364H122.261V30.9268H119.067V17.5364Z" fill="#161616"/>
<path d="M126.134 17.5364H128.657C128.743 17.8111 128.82 18.1459 128.889 18.5407C128.975 18.9356 129.035 19.2789 129.069 19.5707C129.705 18.7982 130.443 18.2231 131.284 17.8454C132.142 17.4678 133.035 17.2789 133.962 17.2789H134.039C135.619 17.2789 136.82 17.7253 137.644 18.618C138.468 19.4935 138.88 20.7467 138.88 22.3776V30.9268H135.687V23.0471C135.687 22.0686 135.473 21.3304 135.044 20.8325C134.614 20.3175 133.928 20.06 132.984 20.06H132.881C131.799 20.06 130.932 20.3948 130.28 21.0643C129.645 21.7338 129.327 22.6093 129.327 23.6909V30.9268H126.134V17.5364Z" fill="#161616"/>
<path d="M141.679 22.0943C141.679 21.3733 141.825 20.7209 142.117 20.1373C142.426 19.5364 142.847 19.03 143.379 18.618C143.911 18.2059 144.538 17.8884 145.259 17.6652C145.997 17.4248 146.804 17.3047 147.679 17.3047H148.066C149.096 17.3047 150.006 17.4592 150.795 17.7682C150.933 17.3562 151.07 16.9957 151.207 16.6866C151.362 16.3776 151.533 16.103 151.722 15.8626H154.632L152.958 19.1845C153.679 19.9913 154.04 20.9613 154.04 22.0943V22.3003C154.04 22.987 153.885 23.6222 153.576 24.2059C153.284 24.7896 152.872 25.296 152.34 25.7252C151.808 26.1372 151.173 26.4634 150.435 26.7037C149.714 26.9441 148.924 27.0642 148.066 27.0642H147.937C147.645 27.0642 147.345 27.0385 147.036 26.987V28.429C147.259 28.4118 147.465 28.4033 147.654 28.4033C147.86 28.3861 148.074 28.3775 148.297 28.3775H148.529C149.405 28.3775 150.22 28.4719 150.976 28.6608C151.731 28.8324 152.383 29.09 152.933 29.4333C153.482 29.7595 153.911 30.1629 154.22 30.6436C154.529 31.1071 154.684 31.6307 154.684 32.2144V32.4719C154.684 33.0556 154.521 33.5792 154.194 34.0427C153.885 34.5234 153.456 34.9268 152.907 35.253C152.357 35.5963 151.697 35.8538 150.924 36.0255C150.169 36.2143 149.345 36.3088 148.452 36.3088H147.808C146.915 36.3088 146.083 36.2143 145.31 36.0255C144.538 35.8538 143.877 35.5963 143.328 35.253C142.778 34.9268 142.34 34.5234 142.014 34.0427C141.705 33.5792 141.551 33.0556 141.551 32.4719V32.1629C141.551 31.4075 141.808 30.738 142.323 30.1543C142.855 29.5706 143.551 29.1071 144.409 28.7638V26.3432C143.568 25.9484 142.898 25.399 142.4 24.6952C141.92 23.9741 141.679 23.1759 141.679 22.3003V22.0943ZM144.847 22.4033C144.847 22.7638 144.924 23.09 145.079 23.3819C145.233 23.6737 145.439 23.9226 145.697 24.1286C145.971 24.3346 146.289 24.4977 146.649 24.6179C147.01 24.7209 147.388 24.7724 147.782 24.7724H148.066C148.461 24.7724 148.83 24.7123 149.173 24.5921C149.533 24.472 149.842 24.3089 150.1 24.1029C150.375 23.8969 150.589 23.648 150.744 23.3561C150.898 23.0643 150.976 22.7467 150.976 22.4033V22.1201C150.976 21.7767 150.898 21.4591 150.744 21.1673C150.589 20.8754 150.375 20.6265 150.1 20.4205C149.842 20.2145 149.533 20.0514 149.173 19.9313C148.83 19.8111 148.452 19.751 148.04 19.751H147.808C147.396 19.751 147.01 19.8111 146.649 19.9313C146.306 20.0514 145.997 20.2145 145.722 20.4205C145.448 20.6265 145.233 20.8754 145.079 21.1673C144.924 21.4591 144.847 21.7767 144.847 22.1201V22.4033ZM144.744 32.3174C144.744 32.7981 145.027 33.1843 145.594 33.4762C146.16 33.7852 146.907 33.9397 147.834 33.9397H148.426C149.353 33.9397 150.1 33.7852 150.666 33.4762C151.25 33.1672 151.542 32.7809 151.542 32.3174V32.1114C151.542 31.6479 151.25 31.2616 150.666 30.9526C150.1 30.6608 149.353 30.5148 148.426 30.5148H147.834C146.907 30.5148 146.16 30.6608 145.594 30.9526C145.027 31.2616 144.744 31.6479 144.744 32.1114V32.3174Z" fill="#161616"/>
</svg>
