<?xml version="1.0" encoding="UTF-8"?>
<svg width="72px" height="40px" viewBox="0 0 72 40" version="1.1" xmlns="http://www.w3.org/2000/svg" xmlns:xlink="http://www.w3.org/1999/xlink">
    <!-- Generator: Sketch 49.1 (51147) - http://www.bohemiancoding.com/sketch -->
    <title>logotype-lifex</title>
    <desc>Created with Sketch.</desc>
    <defs></defs>
    <g stroke="none" stroke-width="1" fill="none" fill-rule="evenodd">
        <g transform="translate(-266.000000, -50.000000)" fill="#303030">
            <g transform="translate(166.000000, 0.000000)">
                <path d="M114.047782,50.3292181 C114.047782,50.3840881 113.979523,50.57613 113.843003,50.9053498 C113.761092,51.1248296 113.624574,51.4540444 113.433447,51.8930041 L104.259386,74.4032922 C103.576788,76.0768259 103.235495,77.1604914 103.235495,77.654321 C103.235495,78.3950654 103.726958,78.7654321 104.709898,78.7654321 C105.692838,78.7654321 106.675763,78.1893062 107.658703,77.037037 C108.068261,76.5432074 108.327645,76.2962963 108.43686,76.2962963 C108.627987,76.2962963 108.723549,76.3923173 108.723549,76.5843621 C108.723549,76.9410169 108.273042,77.5171428 107.372014,78.3127572 C106.334466,79.2455465 104.996595,79.7119342 103.358362,79.7119342 C101.119443,79.7119342 100,78.8751798 100,77.2016461 C100,76.6529465 100.341294,75.5418465 101.023891,73.8683128 L110.197952,51.399177 C110.279864,51.2345671 110.320819,51.1385461 110.320819,51.1111111 C110.320819,50.8641963 110.061436,50.7407407 109.542662,50.7407407 C108.341291,50.7407407 107.740614,50.6310025 107.740614,50.4115226 C107.740614,50.2469128 107.86348,50.1646091 108.109215,50.1646091 C108.35495,50.1646091 108.730373,50.1783263 109.235495,50.2057613 C109.740617,50.2331963 110.11604,50.2469136 110.361775,50.2469136 C111.535842,50.2469136 112.409553,50.1920444 112.982935,50.0823045 C113.283278,50.0274346 113.488054,50 113.59727,50 C113.897612,50 114.047782,50.1097383 114.047782,50.3292181 Z M122.525597,53.9917695 C122.525597,55.1440387 121.993179,55.7201646 120.928328,55.7201646 C120.38225,55.7201646 119.931742,55.5486986 119.576792,55.2057613 C119.221841,54.8628241 119.044369,54.4307296 119.044369,53.909465 C119.044369,52.7846309 119.672349,52.2222222 120.928328,52.2222222 C121.993179,52.2222222 122.525597,52.8120654 122.525597,53.9917695 Z M119.699659,61.6872428 C119.699659,61.7695477 119.6314,61.9341551 119.494881,62.18107 C119.303753,62.5102897 118.989763,63.1824366 118.552901,64.1975309 L113.843003,75.0205761 C113.215014,76.47463 112.901024,77.3799708 112.901024,77.7366255 C112.901024,78.47737 113.283273,78.8477366 114.047782,78.8477366 C114.566555,78.8477366 115.160406,78.6625533 115.829352,78.2921811 C116.498297,77.9218088 117.010237,77.4759971 117.365188,76.9547325 C117.610923,76.6255128 117.802047,76.4609053 117.938567,76.4609053 C118.10239,76.4609053 118.1843,76.5432091 118.1843,76.7078189 C118.1843,77.0370387 117.802052,77.5308609 117.037543,78.1893004 C115.890779,79.1769597 114.593864,79.6707819 113.146758,79.6707819 C112.191122,79.6707819 111.406146,79.4238708 110.791809,78.9300412 C110.177471,78.4362115 109.870307,77.8052165 109.870307,77.037037 C109.870307,76.3511626 110.211601,75.2400626 110.894198,73.7037037 L115.153584,64.1563786 C115.290103,63.689984 115.453924,63.3333346 115.645051,63.0864198 C115.726963,62.9766798 115.767918,62.8806588 115.767918,62.7983539 C115.767918,62.5514391 115.167242,62.3868317 113.96587,62.3045267 C113.747439,62.2496568 113.638225,62.1536358 113.638225,62.0164609 C113.638225,61.7695461 113.747439,61.6460905 113.96587,61.6460905 C113.993174,61.6460905 114.19795,61.6735251 114.580205,61.7283951 C114.962459,61.783265 115.576788,61.8106996 116.423208,61.8106996 C117.569972,61.8106996 118.375424,61.7146786 118.83959,61.5226337 C119.112629,61.4128938 119.303754,61.3580247 119.412969,61.3580247 C119.604097,61.3580247 119.699659,61.467763 119.699659,61.6872428 Z M139.849829,52.6748971 C139.849829,53.7448613 139.344715,54.2798354 138.334471,54.2798354 C137.97952,54.2798354 137.672356,54.1632385 137.412969,53.9300412 C137.153582,53.6968438 137.023891,53.4293568 137.023891,53.127572 C137.023891,52.9080922 137.201363,52.5925947 137.556314,52.18107 C137.66553,51.9615901 137.720137,51.7832654 137.720137,51.6460905 C137.720137,50.960216 137.146763,50.617284 136,50.617284 C134.798629,50.617284 133.829355,51.1316821 133.09215,52.1604938 C132.354945,53.1893056 131.426627,55.2811914 130.307167,58.436214 L129.201365,61.563786 L133.419795,61.563786 C133.556315,61.536351 133.733787,61.5226337 133.952218,61.5226337 C134.252561,61.5226337 134.40273,61.6735239 134.40273,61.9753086 C134.40273,62.2770934 134.211606,62.4279835 133.829352,62.4279835 L129.037543,62.3868313 L125.474403,72.18107 C122.907837,79.2318597 120.409568,84.1563646 117.979522,86.9547325 C116.996582,88.0795667 116.088741,88.8683105 115.255973,89.3209877 C114.423204,89.7736648 113.433453,90 112.286689,90 C109.965859,90 108.805461,89.2181148 108.805461,87.654321 C108.805461,86.5294868 109.406137,85.9670782 110.607509,85.9670782 C111.426625,85.9670782 111.836177,86.3100103 111.836177,86.9958848 C111.836177,87.2153646 111.69966,87.5034276 111.426621,87.8600823 C111.262798,88.0521272 111.180887,88.2304519 111.180887,88.3950617 C111.180887,88.9986313 111.59044,89.3004115 112.409556,89.3004115 C113.829359,89.3004115 115.044364,88.6145473 116.054608,87.2427984 C116.84642,86.1453992 117.883953,83.7723091 119.167235,80.1234568 L125.351536,62.4691358 L124.409556,62.4691358 L122.361775,62.5102881 C122.143344,62.537723 121.897612,62.5514403 121.624573,62.5514403 C121.296927,62.5514403 121.133106,62.4417021 121.133106,62.2222222 C121.133106,61.8106975 121.474399,61.5637864 122.156997,61.4814815 C122.211604,61.4814815 122.703067,61.4951988 123.631399,61.5226337 L125.105802,61.563786 L125.679181,61.563786 C127.317414,57.640584 128.655285,54.9657136 129.692833,53.5390947 C131.412978,51.2071214 133.583605,50.0411523 136.204778,50.0411523 C137.296934,50.0411523 138.177471,50.2812047 138.846416,50.7613169 C139.515362,51.241429 139.849829,51.8792827 139.849829,52.6748971 Z M147.05802,64.2386831 C147.05802,65.720172 146.26622,66.9478689 144.682594,67.9218107 C143.098968,68.8957525 141.092162,69.382716 138.662116,69.382716 C137.788392,69.382716 136.819118,69.3141296 135.754266,69.1769547 C134.744022,71.2894481 134.238908,73.2510198 134.238908,75.0617284 C134.238908,77.5034416 135.317395,78.7242798 137.474403,78.7242798 C139.13994,78.7242798 140.764497,77.8463737 142.348123,76.090535 C142.703073,75.7064453 142.935153,75.5144033 143.044369,75.5144033 C143.180888,75.5144033 143.249147,75.5829897 143.249147,75.7201646 C143.249147,76.3511691 142.607515,77.1330543 141.324232,78.0658436 C139.849822,79.1358078 138.320827,79.6707819 136.737201,79.6707819 C134.962448,79.6707819 133.501712,79.1495251 132.354949,78.1069959 C131.208185,77.0644667 130.634812,75.7476074 130.634812,74.1563786 C130.634812,71.0836609 132.300325,68.1070103 135.631399,65.2263374 C138.552916,62.7023193 141.160398,61.4403292 143.453925,61.4403292 C145.856667,61.4403292 147.05802,62.3731045 147.05802,64.2386831 Z M144.150171,63.5390947 C144.150171,62.6886103 143.726967,62.2633745 142.880546,62.2633745 C142.006822,62.2633745 141.146762,62.5925893 140.300341,63.2510288 C138.771323,64.4581679 137.365194,66.2551321 136.081911,68.6419753 C136.409558,68.6694103 136.778155,68.6831276 137.187713,68.6831276 C138.716731,68.6831276 140.204771,68.2167399 141.651877,67.2839506 C143.317414,66.2414214 144.150171,64.9931486 144.150171,63.5390947 Z M172,78.7654321 C172,79.0123469 171.617751,79.1358025 170.853242,79.1358025 C169.92491,79.1358025 168.976114,79.1220852 168.006826,79.0946502 C167.037538,79.0672152 166.088742,79.0534979 165.16041,79.0534979 C163.959038,79.0534979 162.566561,79.0809325 160.982935,79.1358025 C160.191122,79.1632374 159.604097,79.1769547 159.221843,79.1769547 C158.43003,79.1769547 158.03413,79.0260646 158.03413,78.7242798 C158.03413,78.44993 158.34812,78.3264745 158.976109,78.3539095 L160.819113,78.3950617 C161.474406,78.4224967 161.870306,78.4087794 162.006826,78.3539095 C162.416384,78.2716045 162.62116,78.0109761 162.62116,77.5720165 C162.62116,77.1604918 162.279867,76.2688683 161.59727,74.8971193 L157.215017,66.0082305 L152.054608,74.7736626 C151.153579,76.3100214 150.703072,77.2153621 150.703072,77.4897119 C150.703072,77.9835416 151.153579,78.2716045 152.054608,78.3539095 L153.897611,78.3539095 C154.389081,78.3539095 154.634812,78.4910823 154.634812,78.7654321 C154.634812,79.0123469 154.430036,79.1358025 154.020478,79.1358025 L149.392491,79.0946502 L145.911263,79.1358025 C145.474401,79.1358025 145.255973,79.0123469 145.255973,78.7654321 C145.255973,78.5185173 145.610918,78.3539099 146.320819,78.2716049 L147.795222,78.1069959 C148.20478,77.997256 148.546074,77.8189313 148.819113,77.5720165 C149.337887,77.1056218 151.017051,74.4170342 153.856655,69.5061728 C154.894203,67.6954642 155.822522,66.1179765 156.641638,64.7736626 L151.972696,55.9670782 C151.01706,54.1563695 150.354951,52.9835418 149.986348,52.4485597 C149.617746,51.9135776 149.228671,51.5637868 148.819113,51.399177 C148.38225,51.316872 147.522191,51.2757202 146.238908,51.2757202 C145.911261,51.2757202 145.74744,51.1659819 145.74744,50.9465021 C145.74744,50.6447173 145.965868,50.4938272 146.40273,50.4938272 C147.003416,50.4938272 148.245724,50.5212617 150.129693,50.5761317 C151.058025,50.6035667 151.699657,50.617284 152.054608,50.617284 C155.249163,50.617284 157.010237,50.5898494 157.337884,50.5349794 L157.911263,50.5349794 C158.484645,50.5349794 158.771331,50.6447177 158.771331,50.8641975 C158.771331,51.1659823 158.279868,51.3168724 157.296928,51.3168724 C155.467568,51.2894374 154.552901,51.508914 154.552901,51.9753086 C154.552901,52.4691383 156.109199,55.6789827 159.221843,61.6049383 C160.341303,59.9588395 161.569959,58.0041265 162.90785,55.7407407 C164.24574,53.4773549 164.914676,52.2085062 164.914676,51.9341564 C164.914676,51.5226317 164.16383,51.3168724 162.662116,51.3168724 C161.924911,51.3168724 161.556314,51.1934169 161.556314,50.9465021 C161.556314,50.6721523 161.815697,50.5349794 162.334471,50.5349794 C162.689422,50.5349794 163.208188,50.5486967 163.890785,50.5761317 C164.573382,50.6035667 165.092148,50.617284 165.447099,50.617284 C165.583618,50.617284 166.218424,50.596708 167.351536,50.5555556 C168.484647,50.5144031 169.146757,50.4938272 169.337884,50.4938272 L169.706485,50.4938272 C170.170651,50.4938272 170.40273,50.6172827 170.40273,50.8641975 C170.40273,51.1111123 170.225258,51.2345679 169.870307,51.2345679 C169.815699,51.2345679 169.378844,51.2482852 168.559727,51.2757202 C167.631395,51.3031551 166.996589,51.4677626 166.65529,51.7695473 C166.313991,52.0713321 165.733792,52.9492383 164.914676,54.4032922 C163.849824,56.3237407 162.293526,58.8614383 160.245734,62.0164609 L159.795222,62.7160494 C159.986349,63.0727041 161.829334,66.6803498 165.324232,73.5390947 C166.525603,75.8985029 167.385663,77.3045245 167.904437,77.7572016 C168.423211,78.2098788 169.447091,78.4224967 170.976109,78.3950617 C171.658706,78.3950617 172,78.5185173 172,78.7654321 Z"></path>
            </g>
        </g>
    </g>
</svg>