<svg width="150" height="29" viewBox="0 0 150 29" fill="none" xmlns="http://www.w3.org/2000/svg" id="logo-svg"><g id="logo-svg_group" clip-path="url(#clip0_4064_17944)"><path id="heart_left" fill-rule="evenodd" clip-rule="evenodd" d="M26.9322 25.2949C29.3299 25.2403 31.5692 24.0857 33.0043 22.1641L40.2463 12.4673C42.8241 9.0157 42.1157 4.12796 38.6641 1.5502C35.2126 -1.02756 30.3248 -0.319193 27.7471 3.13238L26.4667 4.84671L24.8312 2.85282C22.099 -0.477873 17.1841 -0.963085 13.8534 1.76907C10.5227 4.50122 10.0375 9.41613 12.7697 12.7468L20.724 22.4437C22.245 24.298 24.5345 25.3494 26.9322 25.2949Z" fill="#FF553C"></path><path id="heart_right" fill-rule="evenodd" clip-rule="evenodd" d="M41.9322 25.2949C44.3299 25.2403 46.5692 24.0857 48.0043 22.1641L55.2463 12.4673C57.8241 9.0157 57.1157 4.12796 53.6641 1.5502C50.2126 -1.02756 45.3248 -0.319193 42.7471 3.13238L41.4667 4.84671L39.8312 2.85282C37.099 -0.477873 32.1841 -0.963085 28.8534 1.76907C25.5227 4.50122 25.0375 9.41613 27.7697 12.7468L35.724 22.4437C37.245 24.298 39.5345 25.3494 41.9322 25.2949Z" fill="#FF553C"></path><g id="name"><path d="M74.2514 22.6662H78.1224V7.48798H83.1866V3.8261H69.2402V7.48798H74.2514V22.6662Z" fill="black"></path><path d="M94.4304 22.6662H98.0363L102.411 9.39853H98.5136L96.0213 17.8898L93.3168 9.39853H90.5329L87.8549 17.8898L85.3361 9.39853H81.4651L85.8664 22.6662H89.4723L91.9381 15.1036L94.4304 22.6662Z" fill="black"></path><path d="M107.894 4.91405C107.894 3.64035 106.86 2.60547 105.561 2.60547C104.315 2.60547 103.254 3.64035 103.254 4.91405C103.254 6.18775 104.315 7.22263 105.561 7.22263C106.86 7.22263 107.894 6.18775 107.894 4.91405ZM103.758 22.6662H107.391V9.39853H103.758V22.6662Z" fill="black"></path><path d="M122.81 19.137L119.655 17.4387C119.124 18.6594 117.984 19.5616 116.526 19.5616C114.617 19.5616 113.159 18.0756 113.159 16.0324C113.159 13.9891 114.617 12.5032 116.526 12.5032C117.984 12.5032 119.124 13.4054 119.655 14.626L122.81 12.9277C121.67 10.6457 119.284 9.10664 116.526 9.10664C112.602 9.10664 109.5 12.0255 109.5 16.0324C109.5 20.0392 112.602 22.9581 116.526 22.9581C119.284 22.9581 121.67 21.4191 122.81 19.137Z" fill="black"></path><path d="M134.095 18.6328C134.095 16.3243 132.636 15.1567 130.25 14.5199L129.004 14.1484C127.89 13.8565 127.705 13.4054 127.705 13.0073C127.705 12.397 128.394 12.1051 129.031 12.1051C129.906 12.1051 130.674 12.5032 131.284 13.2727L133.671 11.3356C132.663 9.87616 131.099 9.10664 129.084 9.10664C126.273 9.10664 124.152 10.6722 124.099 13.1135C124.046 15.1567 125.319 16.7223 127.758 17.3591L128.739 17.598C130.197 17.996 130.515 18.3144 130.515 18.8717C130.515 19.535 129.799 19.8269 129.057 19.8269C127.784 19.8269 126.671 19.2697 126.088 18.2879L123.595 20.4107C124.735 22.1355 126.724 22.9581 129.057 22.9581C131.894 22.9581 134.095 21.2068 134.095 18.6328Z" fill="black"></path><path d="M140.995 28.2121L149.32 9.39853H145.317L141.79 17.996L138.237 9.39853H134.26L139.828 21.9232L137.044 28.2121H140.995Z" fill="black"></path></g><path id="arrow" d="M36.3202 5.96153C35.3757 5.4054 34.2085 5.38204 33.2424 5.89995L24.4392 10.619C22.9137 11.4367 22.3415 13.3334 23.1612 14.8553C23.9809 16.3772 25.882 16.9481 27.4075 16.1303L31.9919 13.6728C31.9889 13.7275 31.9873 13.7825 31.9873 13.838V40.0869C31.9873 41.6963 33.2951 43.001 34.9083 43.001C36.5215 43.001 37.8292 41.6963 37.8292 40.0869V14.1149L41.1477 16.0687C42.6391 16.9469 44.5616 16.4525 45.4418 14.9646C46.322 13.4767 45.8265 11.5586 44.3351 10.6805L36.3202 5.96153Z" fill="white"></path></g><defs><clipPath id="clip0_4064_17944"><rect width="150" height="29" fill="white"></rect></clipPath></defs></svg>
