
<svg width="137" height="39" viewBox="0 0 137 39" fill="none" xmlns="http://www.w3.org/2000/svg">
<path d="M46.3398 28.1027V8.73767H50.0765V15.3927C50.922 14.6563 52.1221 14.2472 53.3494 14.2472C57.3861 14.2472 60.0317 17.4928 60.0317 21.284C60.0317 25.0752 57.3861 28.3209 53.3494 28.3209C52.1221 28.3209 50.922 27.9118 50.0765 27.1754V28.1027H46.3398ZM52.8039 17.6838C51.6039 17.6838 50.6765 18.202 50.0765 19.0475V23.5478C50.6765 24.3933 51.6039 24.8843 52.8039 24.8843C54.9314 24.8843 56.2678 23.2751 56.2678 21.284C56.2678 19.293 54.9314 17.6838 52.8039 17.6838Z" fill="#292D33"/>
<path d="M70.6037 28.1027V26.9844C69.7036 27.8845 68.3944 28.3209 67.1398 28.3209C63.5941 28.3209 61.4394 25.8662 61.4394 22.2386V14.4654H65.176V21.6113C65.176 23.4933 66.0488 24.8843 67.7944 24.8843C68.9945 24.8843 70.0582 24.2842 70.6037 23.2478V14.4654H74.3403V28.1027H70.6037Z" fill="#292D33"/>
<path d="M75.316 28.1027L81.9983 17.711H76.1615V14.4654H88.2715L81.6165 24.8297H87.8896V28.1027H75.316Z" fill="#292D33"/>
<path d="M88.1553 28.1027L94.8377 17.711H89.0009V14.4654H101.111L94.4558 24.8297H100.729V28.1027H88.1553Z" fill="#292D33"/>
<path d="M108.339 28.3209C104.357 28.3209 101.248 25.157 101.248 21.284C101.248 17.411 104.357 14.2472 108.339 14.2472C112.294 14.2472 115.431 17.411 115.431 21.284C115.431 25.157 112.294 28.3209 108.339 28.3209ZM108.339 24.8297C110.248 24.8297 111.64 23.3296 111.64 21.284C111.64 19.2384 110.248 17.7383 108.339 17.7383C106.403 17.7383 105.012 19.2384 105.012 21.284C105.012 23.3296 106.403 24.8297 108.339 24.8297Z" fill="#292D33"/>
<path d="M117.119 12.3107C116.764 11.9288 116.573 11.4106 116.573 10.8105C116.573 9.52863 117.582 8.51947 118.864 8.51947C120.146 8.51947 121.155 9.52863 121.155 10.8105C121.155 11.4106 120.964 11.9288 120.61 12.3107H117.119ZM116.982 28.1027V14.4654H120.719V28.1027H116.982Z" fill="#292D33"/>
<path d="M136.012 28.1027H132.275V27.1754C131.402 27.9118 130.23 28.3209 128.975 28.3209C124.938 28.3209 122.293 25.0752 122.293 21.284C122.293 17.4928 124.938 14.2472 128.975 14.2472C130.23 14.2472 131.402 14.6563 132.275 15.3927V8.73767H136.012V28.1027ZM129.52 17.6838C127.42 17.6838 126.084 19.293 126.084 21.284C126.084 23.2751 127.42 24.8843 129.52 24.8843C130.748 24.8843 131.675 24.3933 132.275 23.5478V19.0475C131.675 18.202 130.748 17.6838 129.52 17.6838Z" fill="#292D33"/>
<path d="M31.8226 27.8874L17.0597 36.2452L2.29688 27.8874V11.1734L17.0597 2.81561L31.8226 11.1734V27.8874Z" fill="#292D33"/>
<path fill-rule="evenodd" clip-rule="evenodd" d="M33.7283 28.999L17.0585 38.4364L0.388672 28.999V10.0615L17.0585 0.624084L33.7283 10.0615V28.999ZM17.0585 36.245L31.8213 27.8872V11.1732L17.0585 2.81544L2.29563 11.1732V27.8872L17.0585 36.245Z" fill="#292D33"/>
<path d="M29.4337 26.6453L17.0601 33.7596L4.68652 26.6453V12.4151L17.0601 5.29926L29.4337 12.4151V26.6453Z" fill="url(#paint0_linear_5_1927)"/>
<path d="M29.4337 26.6453L17.0601 33.7596L4.68652 26.6453V12.4151L17.0601 5.29926L29.4337 12.4151V26.6453Z" fill="url(#paint1_linear_5_1927)"/>
<g style="mix-blend-mode:overlay">
<path d="M17.0264 19.5639L29.433 12.415V26.6451L17.0264 33.7594V19.5639Z" fill="#1E041E"/>
</g>
<defs>
<linearGradient id="paint0_linear_5_1927" x1="35.8182" y1="10.9321" x2="9.47771" y2="23.0062" gradientUnits="userSpaceOnUse">
<stop stop-color="#FF5C00"/>
<stop offset="0.81" stop-color="#EF612B"/>
<stop offset="1" stop-color="#E0531D"/>
</linearGradient>
<linearGradient id="paint1_linear_5_1927" x1="24.3639" y1="7.17086" x2="20.1707" y2="29.7495" gradientUnits="userSpaceOnUse">
<stop stop-color="#FAD2A7"/>
<stop offset="0.365" stop-color="#F25064"/>
<stop offset="0.665" stop-color="#F90C30"/>
<stop offset="0.915" stop-color="#F48824"/>
</linearGradient>
</defs>
</svg>
