<svg width="195" height="40" xmlns="http://www.w3.org/2000/svg">

 <g>
  <title>background</title>
  <rect fill="none" id="canvas_background" height="42" width="197" y="-1" x="-1"/>
 </g>
 <g>
  <title>Layer 1</title>
  <g id="svg_4">
   <path fill="#809cd0" id="svg_2" d="m36.261269,12.617079c0.535576,0 1.071156,0.133896 1.472839,0.535583c0.267792,0.401683 0.535583,0.803367 0.535583,1.472839c0,0.803371 -0.267792,1.472845 -0.803375,2.008423c-0.669472,0.669474 -1.205048,0.937265 -2.008423,0.937265c-0.535572,0 -1.071156,-0.133896 -1.472839,-0.535578c-0.401684,-0.401688 -0.535583,-0.803371 -0.535583,-1.472843c0,-0.803371 0.267792,-1.472844 0.937267,-2.008424c0.535583,-0.669475 1.205055,-0.937266 1.874531,-0.937266zm-7.230326,26.109495l3.615164,-17.540224l4.016846,-1.205053l-4.016846,18.745277c0,0 -3.615164,0 -3.615164,0zm18.209703,0l2.410107,-12.184429c0,-0.267792 0.133892,-0.669474 0.133892,-0.937265c0,-1.740631 -1.071159,-2.677896 -2.945686,-2.544001c-1.205051,0 -2.41011,0.401684 -3.749054,1.071156l-2.945694,14.59454l-3.615154,0l3.213474,-15.397907c2.008423,-1.338947 3.749058,-2.142317 5.221901,-2.544003c1.338947,-0.267786 2.544003,-0.535578 3.615162,-0.535578c0.669472,0 1.338947,0.133896 2.008423,0.267792c2.276207,0.535578 3.34737,1.740631 3.34737,3.749054c0,0.267792 0,0.669474 -0.133896,0.937263l-2.81179,13.523378l-3.749054,0l0,0zm12.452217,0.53558c-2.008423,0 -3.882954,-0.803371 -5.489689,-2.276211l1.874527,-2.41011c1.205055,1.205051 2.544003,1.740635 4.150738,1.740635c0.937267,0 1.874527,-0.267792 2.677898,-0.669476c0.803368,-0.53558 1.205051,-1.071159 1.472843,-1.874531c0.133896,-0.669472 -0.133896,-1.205048 -0.535576,-1.472839c-0.267796,-0.133892 -0.669472,-0.401684 -1.472847,-0.803368c-0.267792,-0.1339 -0.803371,-0.401686 -1.472843,-0.669474c-1.338951,-0.53558 -2.276211,-1.071163 -2.677898,-1.338947c-0.803364,-0.669476 -1.205048,-1.472847 -1.205048,-2.544004c0,-0.267792 0,-0.669476 0.133892,-1.071157c0.401684,-1.740637 1.338947,-3.21348 2.811794,-4.150742c1.338947,-0.937265 2.945683,-1.472843 4.686317,-1.472843c1.606735,0 3.213478,0.669474 5.087997,1.740633l-1.874519,2.410109c-1.338943,-0.937265 -2.544006,-1.338949 -3.615166,-1.338949c-0.803368,0 -1.606735,0.267788 -2.142319,0.669474c-0.669468,0.401682 -1.071152,0.937262 -1.205051,1.740633c-0.133892,0.669472 0.1339,1.205051 0.937263,1.472843c0.401684,0.26779 1.338955,0.669474 2.811794,1.338947c1.338951,0.535582 2.276207,1.071159 2.81179,1.606737c0.669472,0.669476 1.071159,1.472841 1.071159,2.544001c0,0.401691 0,0.803375 -0.133896,1.205059c-0.40168,1.874527 -1.472847,3.34737 -3.21347,4.418526c-2.008423,0.669476 -3.61517,1.205055 -5.489693,1.205055l0,0zm11.916634,-5.088001l2.276222,-10.845486l-1.874527,0l0.535576,-2.677898l1.874519,0l0.937271,-4.686318l3.882957,-1.338948l-1.338951,6.025267l3.079567,0l-0.535568,2.677898l-2.945686,0l-2.276215,10.845486c-0.133896,0.267784 -0.133896,0.669472 -0.133896,0.803364c0,0.669476 0.267792,1.071159 0.669472,1.205059c0.401688,0.267784 1.071159,0.401684 2.008423,0.401684l-0.535576,2.410103l-1.071159,0c-3.213478,0 -4.686317,-1.205055 -4.686317,-3.615162c0,-0.401684 0,-0.669472 0.133888,-1.205048zm16.87075,-21.557074c0.535576,0 1.071159,0.133896 1.338951,0.535583c0.401688,0.401683 0.535576,0.803367 0.535576,1.472839c0,0.803371 -0.267784,1.472845 -0.937256,2.008423c-0.535583,0.669474 -1.338943,0.937265 -2.008423,0.937265c-0.535576,0 -1.071159,-0.133896 -1.472839,-0.535578c-0.401688,-0.401688 -0.535583,-0.803371 -0.535583,-1.472843c0,-0.803371 0.267784,-1.472844 0.937263,-2.008424c0.669472,-0.669475 1.338951,-0.937266 2.142311,-0.937266zm-7.230309,26.109495l3.61515,-17.540224l4.016846,-1.205053l-4.016846,18.745277c0,0 -3.61515,0 -3.61515,0zm18.075798,0l2.410095,-12.184429c0.133896,-0.267792 0.133896,-0.669474 0.133896,-0.937265c0,-1.740631 -1.071144,-2.677896 -2.945679,-2.544001c-1.071159,0 -2.41011,0.401684 -3.61515,1.071156l-2.945694,14.59454l-3.749062,0l3.213478,-15.397907c2.142326,-1.338947 3.88295,-2.142317 5.221893,-2.544003c1.338951,-0.267786 2.544006,-0.535578 3.615173,-0.535578c0.669472,0 1.338951,0.133896 1.874512,0.267792c2.276222,0.535578 3.347374,1.740631 3.347374,3.749054c0,0.267792 0,0.669474 -0.133888,0.937263l-2.81179,13.523378l-3.615158,0l0,0zm13.389481,0.401684c-1.874527,0 -3.21347,-0.669476 -4.284645,-2.008423c-0.937248,-1.205051 -1.338936,-2.811794 -1.338936,-4.686321c0,-2.008421 0.535576,-4.016842 1.606743,-6.159161c1.071144,-2.008421 2.543991,-3.615162 4.28463,-4.686317c1.338951,-0.803371 2.81179,-1.205053 4.418526,-1.205053c1.740631,0 3.347374,0.535578 4.820221,1.606737l-1.606743,2.142315c-1.472847,-0.803368 -2.811798,-1.071156 -4.016853,-1.071156c-1.606728,0.133894 -2.945679,1.205053 -4.150734,3.213474c-1.071152,1.874527 -1.606735,3.61516 -1.606735,5.355793c0,1.338951 0.267784,2.41011 0.803368,3.213478c0.535583,0.93726 1.472839,1.338951 2.544006,1.338951c1.071152,0 2.811783,-0.535583 5.087997,-1.472847l0.535583,2.276215c-2.41011,1.472839 -4.820213,2.142315 -7.096428,2.142315l0,0zm10.97937,-4.954105l2.276215,-10.845486l-1.874527,0l0.535576,-2.677898l1.874535,0l0.937271,-4.686318l3.882942,-1.338948l-1.338959,6.025267l3.07959,0l-0.535583,2.677898l-2.811783,0l-2.276207,10.845486c-0.133904,0.267784 -0.133904,0.669472 -0.133904,0.803364c0,0.669476 0.133904,1.071159 0.535576,1.205059c0.401695,0.267784 1.071159,0.401684 2.142311,0.401684l-0.535568,2.410103l-1.071167,0c-3.21347,0 -4.820198,-1.205055 -4.820198,-3.615162c0,-0.401684 0,-0.669472 0.133881,-1.205048zm19.682549,-10.97938c-2.945679,0.133894 -4.686325,2.276213 -5.623581,6.159163c-0.267792,0.937265 -0.267792,1.874529 -0.267792,2.677895c0,2.811794 1.071152,4.284637 3.21347,4.284637c2.811798,0 4.820221,-2.41011 5.757477,-6.962532c0.133896,-0.803368 0.267792,-1.606737 0.267792,-2.142317c-0.133896,-2.544004 -1.205048,-3.882952 -3.347366,-4.016846zm-3.481262,15.799589c-2.142319,0 -3.749054,-0.803368 -4.820221,-2.142315c-1.071167,-1.205055 -1.472839,-2.81179 -1.472839,-4.954109c0,-0.937265 0.133896,-1.740633 0.267776,-2.677896c0.535583,-2.544004 1.740646,-4.552427 3.481277,-6.426954c1.874527,-1.874527 4.150742,-2.81179 6.694733,-2.677896c2.008423,0 3.749054,0.669474 4.820236,2.008423c1.071152,1.205053 1.60672,2.811792 1.60672,4.820215c0,2.945684 -1.071167,5.757477 -2.945679,8.167583c-2.276215,2.677895 -4.686325,3.88295 -7.632004,3.88295zm22.226547,-15.799589c-2.811783,0.133894 -4.686325,2.276213 -5.623596,6.159163c-0.133896,0.937265 -0.267776,1.874529 -0.267776,2.677895c0,2.811794 1.071152,4.284637 3.07959,4.284637c2.811783,0 4.82019,-2.41011 5.757446,-6.962532c0.133911,-0.803368 0.267807,-1.606737 0.267807,-2.142317c0,-2.544004 -1.071167,-3.882952 -3.21347,-4.016846zm-3.347382,15.799589c-2.142303,0 -3.749054,-0.803368 -4.954117,-2.142315c-0.937256,-1.205055 -1.472839,-2.81179 -1.472839,-4.954109c0,-0.937265 0.133896,-1.740633 0.267807,-2.677896c0.535568,-2.544004 1.740616,-4.552427 3.481247,-6.426954c1.874542,-1.874527 4.150757,-2.81179 6.560867,-2.677896c2.142288,0 3.615143,0.669474 4.82019,2.008423c1.071167,1.205053 1.606735,2.811792 1.606735,4.820215c0,2.945684 -0.937256,5.757477 -2.945679,8.167583c-2.008423,2.677895 -4.552414,3.88295 -7.364212,3.88295zm12.184433,-4.82021l4.686325,-22.762125l3.749054,-1.071158l-4.954117,23.967172c0,0.267792 0,0.669476 0,0.803371c0,0.53558 0.133896,0.937263 0.669479,1.205055c0.401688,0.267792 1.071136,0.267792 1.874542,0.401684l-0.535614,2.276211l-1.071136,0c-3.079575,0 -4.552429,-1.205055 -4.552429,-3.481262c0,-0.535583 0,-0.937267 0.133896,-1.338947l0,0zm13.791168,5.088001c-2.008423,0 -3.882935,-0.803371 -5.489685,-2.276211l2.008438,-2.41011c1.205048,1.205051 2.543991,1.740635 4.150726,1.740635c0.937256,0 1.874542,-0.267792 2.677902,-0.669476c0.803375,-0.53558 1.205063,-1.071159 1.472855,-1.874531c0.133881,-0.669472 -0.133911,-1.205048 -0.535599,-1.472839c-0.267776,-0.133892 -0.80336,-0.401684 -1.472824,-0.803368c-0.267792,-0.1339 -0.803375,-0.401686 -1.472855,-0.669474c-1.338959,-0.53558 -2.142319,-1.071163 -2.677902,-1.338947c-0.80336,-0.669476 -1.205048,-1.472847 -1.205048,-2.544004c0,-0.267792 0,-0.669476 0.133881,-1.071157c0.401688,-1.740637 1.338959,-3.21348 2.811798,-4.150742c1.338959,-0.937265 2.945694,-1.472843 4.552429,-1.472843c1.60675,0 3.21347,0.669474 5.087997,1.740633l-1.874527,2.410109c-1.338928,-0.937265 -2.543991,-1.338949 -3.615143,-1.338949c-0.803375,0 -1.472855,0.267788 -2.142319,0.669474c-0.669479,0.401682 -1.071167,0.937262 -1.205048,1.740633c-0.133911,0.669472 0.133881,1.205051 0.937256,1.472843c0.401688,0.26779 1.338943,0.669474 2.677902,1.338947c1.338943,0.535582 2.276215,1.071159 2.811768,1.606737c0.803375,0.669476 1.071167,1.472841 1.071167,2.544001c0,0.401691 0,0.803375 -0.133896,1.205059c-0.401688,1.874527 -1.472824,3.34737 -3.21347,4.418526c-1.874542,0.669476 -3.615173,1.205055 -5.355804,1.205055z" class="st0"/>
   <path fill="#ff0000" id="svg_3" d="m28.093679,10.340869l-3.34737,-5.757479l-7.230318,4.284636l0,-8.435375l-6.694742,0l0,8.435375l-7.364216,-4.284636l-3.481266,5.757479l7.498111,4.418529l-7.498111,4.41853l3.347371,5.757479l7.230321,-4.284637l0,8.435375l6.694741,0l0,-8.435375l7.230324,4.284637l3.34737,-5.757479l-7.498114,-4.41853" class="st1"/>
  </g>
 </g>
</svg>