<?xml version="1.0" encoding="UTF-8"?> <svg xmlns="http://www.w3.org/2000/svg" width="225" height="95" viewBox="0 0 225 95" fill="none"><path d="M206.71 69.633C206.423 69.4177 206.193 69.1808 206.021 68.9224C205.848 68.6497 205.755 68.42 205.741 68.2334C205.726 68.0324 205.762 67.7955 205.848 67.5228C205.949 67.2357 206.078 66.8911 206.236 66.4892C209.164 59.2828 210.629 54.445 210.629 51.9759C210.586 51.2868 210.349 50.7987 209.918 50.5116L209.487 50.2101C209.358 50.1097 209.286 49.9374 209.272 49.6934C209.272 49.435 209.365 49.1909 209.552 48.9612C209.739 48.7315 209.983 48.5306 210.284 48.3583C210.901 48.0281 211.533 47.863 212.179 47.863C212.839 47.863 213.349 47.9348 213.708 48.0784C214.081 48.2219 214.397 48.4157 214.655 48.6598C215.201 49.1766 215.474 49.7221 215.474 50.2963C215.488 50.8705 215.423 51.4519 215.28 52.0405C215.151 52.629 214.993 53.2104 214.806 53.7846C214.619 54.3445 214.433 54.8828 214.246 55.3996C214.06 55.9021 213.938 56.2753 213.88 56.5194C213.765 57.0218 213.722 57.3376 213.751 57.4668C214.095 57.1653 214.304 56.8711 214.375 56.584L215.215 54.9905C217.081 51.6313 218.905 49.4062 220.685 48.3152C221.201 48.0138 221.819 47.863 222.536 47.863C223.269 47.863 223.857 48.1214 224.302 48.6382C224.747 49.1407 224.977 49.7005 224.991 50.3178C225.02 50.9351 224.977 51.4519 224.862 51.8682C224.762 52.2702 224.604 52.6506 224.388 53.0095C223.915 53.8134 223.34 54.2153 222.666 54.2153C222.479 54.2153 222.307 54.1507 222.149 54.0215L221.675 53.6124C221.201 53.1961 220.742 52.9879 220.297 52.9879C219.866 52.9879 219.335 53.275 218.704 53.8492C218.086 54.4235 217.44 55.1628 216.766 56.0672C214.497 59.0674 212.646 62.4266 211.21 66.1447L210.263 68.6425C210.019 69.2598 209.803 69.7048 209.617 69.9776C209.43 70.236 209.15 70.3651 208.777 70.3651C208.418 70.3651 208.052 70.2934 207.679 70.1498C207.32 70.0206 206.997 69.8484 206.71 69.633Z" fill="#ECEAEC"></path><path d="M206.71 69.633C206.423 69.4177 206.193 69.1808 206.021 68.9224C205.848 68.6497 205.755 68.42 205.741 68.2334C205.726 68.0324 205.762 67.7955 205.848 67.5228C205.949 67.2357 206.078 66.8911 206.236 66.4892C209.164 59.2828 210.629 54.445 210.629 51.9759C210.586 51.2868 210.349 50.7987 209.918 50.5116L209.487 50.2101C209.358 50.1097 209.286 49.9374 209.272 49.6934C209.272 49.435 209.365 49.1909 209.552 48.9612C209.739 48.7315 209.983 48.5306 210.284 48.3583C210.901 48.0281 211.533 47.863 212.179 47.863C212.839 47.863 213.349 47.9348 213.708 48.0784C214.081 48.2219 214.397 48.4157 214.655 48.6598C215.201 49.1766 215.474 49.7221 215.474 50.2963C215.488 50.8705 215.423 51.4519 215.28 52.0405C215.151 52.629 214.993 53.2104 214.806 53.7846C214.619 54.3445 214.433 54.8828 214.246 55.3996C214.06 55.9021 213.938 56.2753 213.88 56.5194C213.765 57.0218 213.722 57.3376 213.751 57.4668C214.095 57.1653 214.304 56.8711 214.375 56.584L215.215 54.9905C217.081 51.6313 218.905 49.4062 220.685 48.3152C221.201 48.0138 221.819 47.863 222.536 47.863C223.269 47.863 223.857 48.1214 224.302 48.6382C224.747 49.1407 224.977 49.7005 224.991 50.3178C225.02 50.9351 224.977 51.4519 224.862 51.8682C224.762 52.2702 224.604 52.6506 224.388 53.0095C223.915 53.8134 223.34 54.2153 222.666 54.2153C222.479 54.2153 222.307 54.1507 222.149 54.0215L221.675 53.6124C221.201 53.1961 220.742 52.9879 220.297 52.9879C219.866 52.9879 219.335 53.275 218.704 53.8492C218.086 54.4235 217.44 55.1628 216.766 56.0672C214.497 59.0674 212.646 62.4266 211.21 66.1447L210.263 68.6425C210.019 69.2598 209.803 69.7048 209.617 69.9776C209.43 70.236 209.15 70.3651 208.777 70.3651C208.418 70.3651 208.052 70.2934 207.679 70.1498C207.32 70.0206 206.997 69.8484 206.71 69.633Z" fill="white"></path><path d="M199.345 64.422C199.345 65.7427 199.812 66.4031 200.745 66.4031C201.391 66.4031 201.922 66.3026 202.338 66.1016C202.769 65.9006 203.056 65.8001 203.2 65.8001C203.501 65.8001 203.652 65.958 203.652 66.2739C203.652 67.5084 203.006 68.5707 201.714 69.4608C200.35 70.3939 198.958 70.6235 197.536 70.1498C196.603 69.8196 195.914 69.1091 195.469 68.018C195.254 67.4582 195.146 66.9486 195.146 66.4892C195.146 65.7427 195.218 64.9532 195.362 64.1205C194.027 66.8481 192.368 68.7286 190.387 69.7622C189.598 70.1642 188.758 70.3651 187.868 70.3651C186.978 70.3651 186.203 70.1857 185.542 69.8268C184.896 69.4536 184.344 68.944 183.884 68.298C182.951 66.9486 182.528 65.2546 182.614 63.2162C182.7 60.6609 183.454 58.1559 184.875 55.7011C186.181 53.4042 187.832 51.5308 189.828 50.081C191.823 48.6023 193.689 47.863 195.426 47.863C197.163 47.863 198.563 48.6598 199.625 50.2532C200.616 48.6598 201.491 47.863 202.252 47.863C203.07 47.863 203.688 48.0138 204.104 48.3152C204.894 48.8894 205.173 49.3919 204.944 49.8226C201.341 57.2012 199.489 61.795 199.388 63.6037C199.36 63.8621 199.345 64.1349 199.345 64.422ZM187.394 64.5081C187.394 66.2308 187.947 67.0921 189.052 67.0921C189.899 67.0921 190.94 66.3743 192.175 64.9388C193.983 62.8286 195.584 59.9862 196.977 56.4117C197.422 55.292 197.795 54.1722 198.096 53.0525C198.039 52.0764 197.63 51.3586 196.869 50.8992C196.61 50.7413 196.223 50.6623 195.706 50.6623C195.204 50.6623 194.608 50.849 193.919 51.2222C193.244 51.5954 192.584 52.1051 191.938 52.7511C191.306 53.3971 190.71 54.1651 190.151 55.0551C189.605 55.9308 189.124 56.8854 188.708 57.919C187.832 60.1297 187.394 62.3261 187.394 64.5081Z" fill="#ECEAEC"></path><path d="M199.345 64.422C199.345 65.7427 199.812 66.4031 200.745 66.4031C201.391 66.4031 201.922 66.3026 202.338 66.1016C202.769 65.9006 203.056 65.8001 203.2 65.8001C203.501 65.8001 203.652 65.958 203.652 66.2739C203.652 67.5084 203.006 68.5707 201.714 69.4608C200.35 70.3939 198.958 70.6235 197.536 70.1498C196.603 69.8196 195.914 69.1091 195.469 68.018C195.254 67.4582 195.146 66.9486 195.146 66.4892C195.146 65.7427 195.218 64.9532 195.362 64.1205C194.027 66.8481 192.368 68.7286 190.387 69.7622C189.598 70.1642 188.758 70.3651 187.868 70.3651C186.978 70.3651 186.203 70.1857 185.542 69.8268C184.896 69.4536 184.344 68.944 183.884 68.298C182.951 66.9486 182.528 65.2546 182.614 63.2162C182.7 60.6609 183.454 58.1559 184.875 55.7011C186.181 53.4042 187.832 51.5308 189.828 50.081C191.823 48.6023 193.689 47.863 195.426 47.863C197.163 47.863 198.563 48.6598 199.625 50.2532C200.616 48.6598 201.491 47.863 202.252 47.863C203.07 47.863 203.688 48.0138 204.104 48.3152C204.894 48.8894 205.173 49.3919 204.944 49.8226C201.341 57.2012 199.489 61.795 199.388 63.6037C199.36 63.8621 199.345 64.1349 199.345 64.422ZM187.394 64.5081C187.394 66.2308 187.947 67.0921 189.052 67.0921C189.899 67.0921 190.94 66.3743 192.175 64.9388C193.983 62.8286 195.584 59.9862 196.977 56.4117C197.422 55.292 197.795 54.1722 198.096 53.0525C198.039 52.0764 197.63 51.3586 196.869 50.8992C196.61 50.7413 196.223 50.6623 195.706 50.6623C195.204 50.6623 194.608 50.849 193.919 51.2222C193.244 51.5954 192.584 52.1051 191.938 52.7511C191.306 53.3971 190.71 54.1651 190.151 55.0551C189.605 55.9308 189.124 56.8854 188.708 57.919C187.832 60.1297 187.394 62.3261 187.394 64.5081Z" fill="white"></path><path d="M158.432 68.0611C158.26 67.5874 158.174 67.0491 158.174 66.4461C158.174 65.8288 158.275 65.147 158.476 64.4005C158.691 63.6396 158.964 62.8501 159.294 62.0318C159.624 61.2136 159.983 60.3738 160.37 59.5125L161.533 56.9285C163.026 53.6124 163.579 51.6457 163.191 51.0284C163.019 50.7557 162.696 50.4829 162.222 50.2101C162.05 50.1097 161.964 49.9374 161.964 49.6934C161.964 49.435 162.064 49.1909 162.265 48.9612C162.481 48.7315 162.753 48.5306 163.084 48.3583C163.787 48.0281 164.49 47.863 165.194 47.863C165.897 47.863 166.428 47.942 166.787 48.0999C167.161 48.2435 167.462 48.4301 167.692 48.6598C168.165 49.1335 168.402 49.6575 168.402 50.2317C168.402 50.8059 168.309 51.4519 168.122 52.1697C167.936 52.8731 167.692 53.6411 167.39 54.4737C167.089 55.3063 166.759 56.1676 166.4 57.0577C165.409 59.3833 164.742 60.9193 164.397 61.6658L163.6 63.3238C163.155 64.3143 162.933 65.0106 162.933 65.4125C162.933 65.8145 162.997 66.1016 163.127 66.2739C163.256 66.4318 163.486 66.5107 163.816 66.5107C164.16 66.5107 164.534 66.3815 164.935 66.1231C165.352 65.8647 165.797 65.5202 166.271 65.0895C166.744 64.6589 167.232 64.1636 167.735 63.6037C168.252 63.0295 168.754 62.4338 169.242 61.8165C170.52 60.2374 171.467 58.8808 172.084 57.7467C175.185 52.0333 176.829 49.0474 177.016 48.789C177.489 48.1717 177.963 47.863 178.437 47.863C178.925 47.863 179.348 47.9205 179.707 48.0353C180.066 48.1358 180.375 48.2865 180.633 48.4875C181.207 48.9038 181.38 49.3704 181.15 49.8872C180.935 50.4039 180.669 51.1145 180.353 52.0189C177.626 59.9288 175.853 64.8598 175.035 66.8122C174.231 68.7645 173.527 70.3293 172.924 71.5064C172.321 72.6979 171.611 73.8966 170.792 75.1024C169.989 76.3083 169.127 77.4065 168.209 78.397C166.113 80.6364 164.146 81.8351 162.308 81.993C161.605 82.0505 161.045 81.95 160.629 81.6916C159.911 81.2609 159.552 80.8518 159.552 80.4642C159.552 80.0766 159.875 79.8038 160.521 79.6459C161.182 79.5024 161.856 79.2009 162.545 78.7415C163.249 78.2965 163.923 77.7725 164.569 77.1696C166.464 75.3608 167.936 73.3941 168.984 71.2695C169.874 69.4033 170.592 67.6376 171.137 65.9724L172.817 60.8475C172.4 61.3499 171.941 61.9385 171.438 62.6132L169.888 64.6804C168.539 66.3887 167.419 67.6017 166.529 68.3195C164.835 69.6833 163.32 70.3651 161.985 70.3651C160.205 70.3651 159.021 69.5971 158.432 68.0611Z" fill="#ECEAEC"></path><path d="M158.432 68.0611C158.26 67.5874 158.174 67.0491 158.174 66.4461C158.174 65.8288 158.275 65.147 158.476 64.4005C158.691 63.6396 158.964 62.8501 159.294 62.0318C159.624 61.2136 159.983 60.3738 160.37 59.5125L161.533 56.9285C163.026 53.6124 163.579 51.6457 163.191 51.0284C163.019 50.7557 162.696 50.4829 162.222 50.2101C162.05 50.1097 161.964 49.9374 161.964 49.6934C161.964 49.435 162.064 49.1909 162.265 48.9612C162.481 48.7315 162.753 48.5306 163.084 48.3583C163.787 48.0281 164.49 47.863 165.194 47.863C165.897 47.863 166.428 47.942 166.787 48.0999C167.161 48.2435 167.462 48.4301 167.692 48.6598C168.165 49.1335 168.402 49.6575 168.402 50.2317C168.402 50.8059 168.309 51.4519 168.122 52.1697C167.936 52.8731 167.692 53.6411 167.39 54.4737C167.089 55.3063 166.759 56.1676 166.4 57.0577C165.409 59.3833 164.742 60.9193 164.397 61.6658L163.6 63.3238C163.155 64.3143 162.933 65.0106 162.933 65.4125C162.933 65.8145 162.997 66.1016 163.127 66.2739C163.256 66.4318 163.486 66.5107 163.816 66.5107C164.16 66.5107 164.534 66.3815 164.935 66.1231C165.352 65.8647 165.797 65.5202 166.271 65.0895C166.744 64.6589 167.232 64.1636 167.735 63.6037C168.252 63.0295 168.754 62.4338 169.242 61.8165C170.52 60.2374 171.467 58.8808 172.084 57.7467C175.185 52.0333 176.829 49.0474 177.016 48.789C177.489 48.1717 177.963 47.863 178.437 47.863C178.925 47.863 179.348 47.9205 179.707 48.0353C180.066 48.1358 180.375 48.2865 180.633 48.4875C181.207 48.9038 181.38 49.3704 181.15 49.8872C180.935 50.4039 180.669 51.1145 180.353 52.0189C177.626 59.9288 175.853 64.8598 175.035 66.8122C174.231 68.7645 173.527 70.3293 172.924 71.5064C172.321 72.6979 171.611 73.8966 170.792 75.1024C169.989 76.3083 169.127 77.4065 168.209 78.397C166.113 80.6364 164.146 81.8351 162.308 81.993C161.605 82.0505 161.045 81.95 160.629 81.6916C159.911 81.2609 159.552 80.8518 159.552 80.4642C159.552 80.0766 159.875 79.8038 160.521 79.6459C161.182 79.5024 161.856 79.2009 162.545 78.7415C163.249 78.2965 163.923 77.7725 164.569 77.1696C166.464 75.3608 167.936 73.3941 168.984 71.2695C169.874 69.4033 170.592 67.6376 171.137 65.9724L172.817 60.8475C172.4 61.3499 171.941 61.9385 171.438 62.6132L169.888 64.6804C168.539 66.3887 167.419 67.6017 166.529 68.3195C164.835 69.6833 163.32 70.3651 161.985 70.3651C160.205 70.3651 159.021 69.5971 158.432 68.0611Z" fill="white"></path><path d="M147.838 65.4556C145.656 68.7286 143.237 70.3651 140.581 70.3651C138.184 70.3651 136.569 69.0875 135.736 66.5323C135.449 65.6566 135.306 64.5799 135.306 63.3023C135.306 62.0247 135.485 60.747 135.844 59.4694C136.217 58.1774 136.72 56.9572 137.351 55.8088C137.983 54.6603 138.722 53.6052 139.569 52.6434C140.431 51.6672 141.349 50.8274 142.325 50.124C144.364 48.6167 146.388 47.863 148.398 47.863C150.408 47.863 151.843 48.8033 152.704 50.6839C152.877 50.4973 153.035 50.3106 153.178 50.124C153.322 49.923 153.48 49.7364 153.652 49.5642C154.025 49.1909 154.348 49.0043 154.621 49.0043C154.908 49.0043 155.202 49.0545 155.504 49.155C155.82 49.2555 156.121 49.3919 156.408 49.5642C157.112 49.9805 157.377 50.3681 157.205 50.7269C156.415 52.4352 155.755 54.1148 155.224 55.7657L152.037 65.9293C149.525 73.6382 146.338 78.6195 142.476 80.8733C141.457 81.4762 140.574 81.8208 139.828 81.9069C139.081 82.0074 138.543 82.0146 138.213 81.9284C137.882 81.8423 137.588 81.7203 137.33 81.5624C136.77 81.2035 136.49 80.8805 136.49 80.5934C136.49 80.0909 136.82 79.7823 137.481 79.6675C138.155 79.5526 138.859 79.2799 139.591 78.8492C140.323 78.4329 141.019 77.9233 141.679 77.3203C144.393 74.8081 146.445 70.8532 147.838 65.4556ZM141.378 57.9836C141.005 59.0172 140.71 60.0795 140.495 61.1705C140.28 62.2472 140.172 63.13 140.172 63.8191C140.172 64.5081 140.194 65.0321 140.237 65.391C140.28 65.7499 140.366 66.0657 140.495 66.3385C140.782 66.9414 141.206 67.2428 141.766 67.2428C142.325 67.2428 142.878 67.049 143.424 66.6615C143.969 66.2595 144.543 65.714 145.146 65.0249C145.749 64.3359 146.352 63.5248 146.955 62.5917C147.558 61.6586 148.132 60.6537 148.678 59.5771C149.884 57.1941 150.731 54.9187 151.219 52.7511C151.147 52.3491 150.903 51.94 150.487 51.5237C149.668 50.7341 148.929 50.3393 148.269 50.3393C147.608 50.3393 146.948 50.5475 146.288 50.9638C145.627 51.3658 144.996 51.9184 144.393 52.6219C143.804 53.3109 143.251 54.122 142.735 55.0551C142.218 55.9738 141.766 56.95 141.378 57.9836Z" fill="#ECEAEC"></path><path d="M147.838 65.4556C145.656 68.7286 143.237 70.3651 140.581 70.3651C138.184 70.3651 136.569 69.0875 135.736 66.5323C135.449 65.6566 135.306 64.5799 135.306 63.3023C135.306 62.0247 135.485 60.747 135.844 59.4694C136.217 58.1774 136.72 56.9572 137.351 55.8088C137.983 54.6603 138.722 53.6052 139.569 52.6434C140.431 51.6672 141.349 50.8274 142.325 50.124C144.364 48.6167 146.388 47.863 148.398 47.863C150.408 47.863 151.843 48.8033 152.704 50.6839C152.877 50.4973 153.035 50.3106 153.178 50.124C153.322 49.923 153.48 49.7364 153.652 49.5642C154.025 49.1909 154.348 49.0043 154.621 49.0043C154.908 49.0043 155.202 49.0545 155.504 49.155C155.82 49.2555 156.121 49.3919 156.408 49.5642C157.112 49.9805 157.377 50.3681 157.205 50.7269C156.415 52.4352 155.755 54.1148 155.224 55.7657L152.037 65.9293C149.525 73.6382 146.338 78.6195 142.476 80.8733C141.457 81.4762 140.574 81.8208 139.828 81.9069C139.081 82.0074 138.543 82.0146 138.213 81.9284C137.882 81.8423 137.588 81.7203 137.33 81.5624C136.77 81.2035 136.49 80.8805 136.49 80.5934C136.49 80.0909 136.82 79.7823 137.481 79.6675C138.155 79.5526 138.859 79.2799 139.591 78.8492C140.323 78.4329 141.019 77.9233 141.679 77.3203C144.393 74.8081 146.445 70.8532 147.838 65.4556ZM141.378 57.9836C141.005 59.0172 140.71 60.0795 140.495 61.1705C140.28 62.2472 140.172 63.13 140.172 63.8191C140.172 64.5081 140.194 65.0321 140.237 65.391C140.28 65.7499 140.366 66.0657 140.495 66.3385C140.782 66.9414 141.206 67.2428 141.766 67.2428C142.325 67.2428 142.878 67.049 143.424 66.6615C143.969 66.2595 144.543 65.714 145.146 65.0249C145.749 64.3359 146.352 63.5248 146.955 62.5917C147.558 61.6586 148.132 60.6537 148.678 59.5771C149.884 57.1941 150.731 54.9187 151.219 52.7511C151.147 52.3491 150.903 51.94 150.487 51.5237C149.668 50.7341 148.929 50.3393 148.269 50.3393C147.608 50.3393 146.948 50.5475 146.288 50.9638C145.627 51.3658 144.996 51.9184 144.393 52.6219C143.804 53.3109 143.251 54.122 142.735 55.0551C142.218 55.9738 141.766 56.95 141.378 57.9836Z" fill="white"></path><path d="M127.941 64.422C127.941 65.7427 128.408 66.4031 129.341 66.4031C129.987 66.4031 130.518 66.3026 130.934 66.1016C131.365 65.9006 131.652 65.8001 131.796 65.8001C132.097 65.8001 132.248 65.958 132.248 66.2739C132.248 67.5084 131.602 68.5707 130.31 69.4608C128.946 70.3939 127.554 70.6235 126.133 70.1498C125.199 69.8196 124.51 69.1091 124.065 68.018C123.85 67.4582 123.742 66.9486 123.742 66.4892C123.742 65.7427 123.814 64.9532 123.958 64.1205C122.623 66.8481 120.965 68.7286 118.984 69.7622C118.194 70.1642 117.354 70.3651 116.464 70.3651C115.574 70.3651 114.799 70.1857 114.139 69.8268C113.493 69.4536 112.94 68.944 112.481 68.298C111.547 66.9486 111.124 65.2546 111.21 63.2162C111.296 60.6609 112.05 58.1559 113.471 55.7011C114.777 53.4042 116.428 51.5308 118.424 50.081C120.419 48.6023 122.285 47.863 124.022 47.863C125.759 47.863 127.159 48.6598 128.221 50.2532C129.212 48.6598 130.088 47.863 130.848 47.863C131.667 47.863 132.284 48.0138 132.7 48.3152C133.49 48.8894 133.77 49.3919 133.54 49.8226C129.937 57.2012 128.085 61.795 127.984 63.6037C127.956 63.8621 127.941 64.1349 127.941 64.422ZM115.99 64.5081C115.99 66.2308 116.543 67.0921 117.649 67.0921C118.496 67.0921 119.536 66.3743 120.771 64.9388C122.58 62.8286 124.18 59.9862 125.573 56.4117C126.018 55.292 126.391 54.1722 126.692 53.0525C126.635 52.0764 126.226 51.3586 125.465 50.8992C125.207 50.7413 124.819 50.6623 124.302 50.6623C123.8 50.6623 123.204 50.849 122.515 51.2222C121.84 51.5954 121.18 52.1051 120.534 52.7511C119.902 53.3971 119.307 54.1651 118.747 55.0551C118.201 55.9308 117.72 56.8854 117.304 57.919C116.428 60.1297 115.99 62.3261 115.99 64.5081Z" fill="#ECEAEC"></path><path d="M127.941 64.422C127.941 65.7427 128.408 66.4031 129.341 66.4031C129.987 66.4031 130.518 66.3026 130.934 66.1016C131.365 65.9006 131.652 65.8001 131.796 65.8001C132.097 65.8001 132.248 65.958 132.248 66.2739C132.248 67.5084 131.602 68.5707 130.31 69.4608C128.946 70.3939 127.554 70.6235 126.133 70.1498C125.199 69.8196 124.51 69.1091 124.065 68.018C123.85 67.4582 123.742 66.9486 123.742 66.4892C123.742 65.7427 123.814 64.9532 123.958 64.1205C122.623 66.8481 120.965 68.7286 118.984 69.7622C118.194 70.1642 117.354 70.3651 116.464 70.3651C115.574 70.3651 114.799 70.1857 114.139 69.8268C113.493 69.4536 112.94 68.944 112.481 68.298C111.547 66.9486 111.124 65.2546 111.21 63.2162C111.296 60.6609 112.05 58.1559 113.471 55.7011C114.777 53.4042 116.428 51.5308 118.424 50.081C120.419 48.6023 122.285 47.863 124.022 47.863C125.759 47.863 127.159 48.6598 128.221 50.2532C129.212 48.6598 130.088 47.863 130.848 47.863C131.667 47.863 132.284 48.0138 132.7 48.3152C133.49 48.8894 133.77 49.3919 133.54 49.8226C129.937 57.2012 128.085 61.795 127.984 63.6037C127.956 63.8621 127.941 64.1349 127.941 64.422ZM115.99 64.5081C115.99 66.2308 116.543 67.0921 117.649 67.0921C118.496 67.0921 119.536 66.3743 120.771 64.9388C122.58 62.8286 124.18 59.9862 125.573 56.4117C126.018 55.292 126.391 54.1722 126.692 53.0525C126.635 52.0764 126.226 51.3586 125.465 50.8992C125.207 50.7413 124.819 50.6623 124.302 50.6623C123.8 50.6623 123.204 50.849 122.515 51.2222C121.84 51.5954 121.18 52.1051 120.534 52.7511C119.902 53.3971 119.307 54.1651 118.747 55.0551C118.201 55.9308 117.72 56.8854 117.304 57.919C116.428 60.1297 115.99 62.3261 115.99 64.5081Z" fill="white"></path><path d="M107.399 65.7998C107.758 65.7998 107.937 66.0582 107.937 66.575C107.937 67.0775 107.844 67.4938 107.657 67.824C107.471 68.1541 107.255 68.4556 107.011 68.7283C106.767 69.0011 106.459 69.2595 106.085 69.5035C105.21 70.0778 104.284 70.3649 103.308 70.3649C102.346 70.3649 101.578 70.25 101.004 70.0203C100.444 69.7763 99.9557 69.4174 99.5394 68.9437C98.6494 67.9532 98.2044 66.5822 98.2044 64.8309C98.2044 62.9646 98.5632 60.6893 99.281 58.0049C99.9988 55.306 100.688 53.002 101.348 51.0927C102.023 49.1691 102.712 47.3388 103.415 45.6018L105.353 40.6707C103.229 42.58 100.537 46.5923 97.2784 52.7077L92.0674 62.5699C89.2825 67.7665 87.2942 70.3649 86.1027 70.3649C84.94 70.3649 84.1432 69.8624 83.7126 68.8575C83.325 67.8957 83.1312 66.2664 83.1312 63.9695C83.1312 61.6583 83.3106 59.4476 83.6695 57.3373C84.0427 55.2127 84.5093 53.1384 85.0692 51.1143C86.0453 47.5398 87.3086 43.994 88.859 40.4769C87.3517 41.3239 85.6793 43.2116 83.8418 46.1401C82.4349 48.48 81.4444 50.1883 80.8702 51.265L75.3147 61.4932C73.0034 65.6994 71.1444 68.2977 69.7376 69.2882C68.7183 70.006 67.6202 70.3649 66.443 70.3649C65.4381 70.3649 64.7132 70.049 64.2682 69.4174C64.0959 69.159 64.0098 68.9221 64.0098 68.7068C64.0098 68.4915 64.0744 68.3623 64.2036 68.3192C65.0936 68.0752 65.7252 67.824 66.0985 67.5656C66.4574 67.2928 66.8162 67.0201 67.1751 66.7473C67.534 66.4602 68.058 65.8644 68.7471 64.9601C69.4361 64.0413 70.1826 62.9431 70.9865 61.6655C71.7904 60.3735 72.6302 58.9308 73.5059 57.3373L76.2406 52.2986C78.7671 47.4177 81.4085 43.5059 84.1648 40.563C85.1409 39.5151 86.1027 38.704 87.0502 38.1298C87.9977 37.4551 89.0959 37.0029 90.3448 36.7732C90.6893 36.7014 91.0051 36.6655 91.2922 36.6655C91.5937 36.6655 91.9239 36.7086 92.2828 36.7947C92.656 36.8809 92.979 37.0172 93.2517 37.2039C93.8834 37.6345 94.07 38.2087 93.8116 38.9265C93.6968 39.3572 93.4743 40.0032 93.1441 40.8645L91.9813 43.9437C89.2681 51.4373 87.7823 58.2561 87.5239 64.4002C88.2848 63.0938 89.0528 61.6655 89.828 60.1151L92.2612 55.3132L94.8237 50.4252C98.7714 43.1039 102.439 38.9122 105.827 37.8498C106.531 37.6202 107.119 37.5053 107.593 37.5053C108.067 37.5053 108.44 37.5699 108.713 37.6991C108.985 37.814 109.229 37.9647 109.445 38.1513C109.947 38.6107 110.119 39.0844 109.961 39.5725C109.804 40.0462 109.595 40.6563 109.337 41.4028L106.215 50.5113L105.095 54.0858C103.86 58.2202 103.128 61.3927 102.899 63.6035C102.812 64.5366 102.913 65.2687 103.2 65.7998C103.502 66.3166 103.911 66.575 104.427 66.575C104.944 66.575 105.346 66.5391 105.633 66.4674C105.935 66.3812 106.193 66.2879 106.408 66.1874L106.968 65.929C107.126 65.8429 107.27 65.7998 107.399 65.7998Z" fill="#ECEAEC"></path><path d="M107.399 65.7998C107.758 65.7998 107.937 66.0582 107.937 66.575C107.937 67.0775 107.844 67.4938 107.657 67.824C107.471 68.1541 107.255 68.4556 107.011 68.7283C106.767 69.0011 106.459 69.2595 106.085 69.5035C105.21 70.0778 104.284 70.3649 103.308 70.3649C102.346 70.3649 101.578 70.25 101.004 70.0203C100.444 69.7763 99.9557 69.4174 99.5394 68.9437C98.6494 67.9532 98.2044 66.5822 98.2044 64.8309C98.2044 62.9646 98.5632 60.6893 99.281 58.0049C99.9988 55.306 100.688 53.002 101.348 51.0927C102.023 49.1691 102.712 47.3388 103.415 45.6018L105.353 40.6707C103.229 42.58 100.537 46.5923 97.2784 52.7077L92.0674 62.5699C89.2825 67.7665 87.2942 70.3649 86.1027 70.3649C84.94 70.3649 84.1432 69.8624 83.7126 68.8575C83.325 67.8957 83.1312 66.2664 83.1312 63.9695C83.1312 61.6583 83.3106 59.4476 83.6695 57.3373C84.0427 55.2127 84.5093 53.1384 85.0692 51.1143C86.0453 47.5398 87.3086 43.994 88.859 40.4769C87.3517 41.3239 85.6793 43.2116 83.8418 46.1401C82.4349 48.48 81.4444 50.1883 80.8702 51.265L75.3147 61.4932C73.0034 65.6994 71.1444 68.2977 69.7376 69.2882C68.7183 70.006 67.6202 70.3649 66.443 70.3649C65.4381 70.3649 64.7132 70.049 64.2682 69.4174C64.0959 69.159 64.0098 68.9221 64.0098 68.7068C64.0098 68.4915 64.0744 68.3623 64.2036 68.3192C65.0936 68.0752 65.7252 67.824 66.0985 67.5656C66.4574 67.2928 66.8162 67.0201 67.1751 66.7473C67.534 66.4602 68.058 65.8644 68.7471 64.9601C69.4361 64.0413 70.1826 62.9431 70.9865 61.6655C71.7904 60.3735 72.6302 58.9308 73.5059 57.3373L76.2406 52.2986C78.7671 47.4177 81.4085 43.5059 84.1648 40.563C85.1409 39.5151 86.1027 38.704 87.0502 38.1298C87.9977 37.4551 89.0959 37.0029 90.3448 36.7732C90.6893 36.7014 91.0051 36.6655 91.2922 36.6655C91.5937 36.6655 91.9239 36.7086 92.2828 36.7947C92.656 36.8809 92.979 37.0172 93.2517 37.2039C93.8834 37.6345 94.07 38.2087 93.8116 38.9265C93.6968 39.3572 93.4743 40.0032 93.1441 40.8645L91.9813 43.9437C89.2681 51.4373 87.7823 58.2561 87.5239 64.4002C88.2848 63.0938 89.0528 61.6655 89.828 60.1151L92.2612 55.3132L94.8237 50.4252C98.7714 43.1039 102.439 38.9122 105.827 37.8498C106.531 37.6202 107.119 37.5053 107.593 37.5053C108.067 37.5053 108.44 37.5699 108.713 37.6991C108.985 37.814 109.229 37.9647 109.445 38.1513C109.947 38.6107 110.119 39.0844 109.961 39.5725C109.804 40.0462 109.595 40.6563 109.337 41.4028L106.215 50.5113L105.095 54.0858C103.86 58.2202 103.128 61.3927 102.899 63.6035C102.812 64.5366 102.913 65.2687 103.2 65.7998C103.502 66.3166 103.911 66.575 104.427 66.575C104.944 66.575 105.346 66.5391 105.633 66.4674C105.935 66.3812 106.193 66.2879 106.408 66.1874L106.968 65.929C107.126 65.8429 107.27 65.7998 107.399 65.7998Z" fill="white"></path><path d="M141.993 13.7295C143.209 13.7295 144.256 14.0011 145.136 14.5445C146.016 15.0748 146.695 15.8316 147.173 16.8147C147.652 17.7978 147.891 18.9686 147.891 20.3268C147.891 21.6851 147.652 22.8558 147.173 23.8389C146.695 24.8221 146.016 25.5853 145.136 26.1286C144.256 26.659 143.209 26.9242 141.993 26.9242C140.789 26.9242 139.742 26.659 138.849 26.1286C137.969 25.5853 137.29 24.8221 136.812 23.8389C136.333 22.8558 136.094 21.6851 136.094 20.3268C136.094 18.9686 136.333 17.7978 136.812 16.8147C137.29 15.8316 137.969 15.0748 138.849 14.5445C139.742 14.0011 140.789 13.7295 141.993 13.7295ZM141.993 14.6221C140.996 14.6221 140.13 14.8549 139.392 15.3206C138.668 15.7734 138.105 16.4266 137.704 17.2804C137.303 18.1342 137.103 19.1497 137.103 20.3268C137.103 21.504 137.303 22.5195 137.704 23.3732C138.105 24.227 138.668 24.8867 139.392 25.3524C140.13 25.8052 140.996 26.0316 141.993 26.0316C143.002 26.0316 143.868 25.8052 144.593 25.3524C145.317 24.8867 145.88 24.227 146.281 23.3732C146.682 22.5195 146.882 21.504 146.882 20.3268C146.882 19.1497 146.682 18.1342 146.281 17.2804C145.88 16.4266 145.317 15.7734 144.593 15.3206C143.868 14.8549 143.002 14.6221 141.993 14.6221Z" fill="#ECEAEC"></path><path d="M141.993 13.7295C143.209 13.7295 144.256 14.0011 145.136 14.5445C146.016 15.0748 146.695 15.8316 147.173 16.8147C147.652 17.7978 147.891 18.9686 147.891 20.3268C147.891 21.6851 147.652 22.8558 147.173 23.8389C146.695 24.8221 146.016 25.5853 145.136 26.1286C144.256 26.659 143.209 26.9242 141.993 26.9242C140.789 26.9242 139.742 26.659 138.849 26.1286C137.969 25.5853 137.29 24.8221 136.812 23.8389C136.333 22.8558 136.094 21.6851 136.094 20.3268C136.094 18.9686 136.333 17.7978 136.812 16.8147C137.29 15.8316 137.969 15.0748 138.849 14.5445C139.742 14.0011 140.789 13.7295 141.993 13.7295ZM141.993 14.6221C140.996 14.6221 140.13 14.8549 139.392 15.3206C138.668 15.7734 138.105 16.4266 137.704 17.2804C137.303 18.1342 137.103 19.1497 137.103 20.3268C137.103 21.504 137.303 22.5195 137.704 23.3732C138.105 24.227 138.668 24.8867 139.392 25.3524C140.13 25.8052 140.996 26.0316 141.993 26.0316C143.002 26.0316 143.868 25.8052 144.593 25.3524C145.317 24.8867 145.88 24.227 146.281 23.3732C146.682 22.5195 146.882 21.504 146.882 20.3268C146.882 19.1497 146.682 18.1342 146.281 17.2804C145.88 16.4266 145.317 15.7734 144.593 15.3206C143.868 14.8549 143.002 14.6221 141.993 14.6221Z" fill="#ED2F95"></path><path d="M132.876 13.9236V26.7302H131.673L124.881 16.6789L123.93 15.0296H123.911L123.969 16.5819V26.7302H123.038V13.9236H124.26L131.032 23.9554L132.002 25.6242L131.964 24.0718V13.9236H132.876Z" fill="#ECEAEC"></path><path d="M132.876 13.9236V26.7302H131.673L124.881 16.6789L123.93 15.0296H123.911L123.969 16.5819V26.7302H123.038V13.9236H124.26L131.032 23.9554L132.002 25.6242L131.964 24.0718V13.9236H132.876Z" fill="#ED2F95"></path><path d="M119.006 13.9236V26.7302H118.035V13.9236H119.006Z" fill="#ECEAEC"></path><path d="M119.006 13.9236V26.7302H118.035V13.9236H119.006Z" fill="#ED2F95"></path><path d="M106.223 26.1869L106.048 25.8376H115.245V26.7302H105.349V25.8764L114.062 14.4669L114.236 14.8162H105.524V13.9236H114.935V14.7774L106.223 26.1869Z" fill="#ECEAEC"></path><path d="M106.223 26.1869L106.048 25.8376H115.245V26.7302H105.349V25.8764L114.062 14.4669L114.236 14.8162H105.524V13.9236H114.935V14.7774L106.223 26.1869Z" fill="#ED2F95"></path><path d="M98.478 13.7295C99.6551 13.7295 100.645 13.9623 101.447 14.428C102.262 14.8937 102.883 15.6052 103.31 16.5625L102.495 17.1834C102.119 16.2779 101.589 15.6246 100.903 15.2236C100.231 14.8226 99.3964 14.6221 98.4004 14.6221C97.6371 14.6221 96.9903 14.745 96.46 14.9907C95.9296 15.2236 95.5221 15.5405 95.2375 15.9415C94.9659 16.3296 94.83 16.7694 94.83 17.261C94.83 17.8561 95.0241 18.3476 95.4122 18.7357C95.8002 19.1238 96.5117 19.4342 97.5466 19.6671L100.069 20.2104C101.324 20.4821 102.204 20.8766 102.708 21.394C103.225 21.8985 103.484 22.5518 103.484 23.3538C103.484 24.0524 103.277 24.6733 102.863 25.2166C102.462 25.7599 101.906 26.1803 101.195 26.4779C100.483 26.7754 99.6487 26.9242 98.6914 26.9242C97.773 26.9242 96.9515 26.8013 96.2271 26.5555C95.5156 26.2968 94.9141 25.941 94.4226 25.4883C93.931 25.0226 93.5688 24.4663 93.3359 23.8195L94.1897 23.1598C94.3708 23.7678 94.6683 24.2917 95.0823 24.7315C95.5092 25.1584 96.0331 25.4818 96.654 25.7017C97.2749 25.9216 97.967 26.0316 98.7302 26.0316C99.4546 26.0316 100.101 25.9346 100.671 25.7405C101.24 25.5335 101.68 25.236 101.99 24.8479C102.313 24.4599 102.475 23.9812 102.475 23.4121C102.475 22.8687 102.281 22.4095 101.893 22.0344C101.518 21.6592 100.845 21.3746 99.8751 21.1806L97.2361 20.5985C96.4212 20.4174 95.7614 20.1781 95.2569 19.8805C94.7524 19.583 94.3837 19.2273 94.1509 18.8133C93.931 18.3864 93.821 17.9078 93.821 17.3774C93.821 16.7177 94.0086 16.1162 94.3837 15.5729C94.7589 15.0166 95.2957 14.5703 95.9943 14.234C96.6928 13.8977 97.5207 13.7295 98.478 13.7295Z" fill="#ECEAEC"></path><path d="M98.478 13.7295C99.6551 13.7295 100.645 13.9623 101.447 14.428C102.262 14.8937 102.883 15.6052 103.31 16.5625L102.495 17.1834C102.119 16.2779 101.589 15.6246 100.903 15.2236C100.231 14.8226 99.3964 14.6221 98.4004 14.6221C97.6371 14.6221 96.9903 14.745 96.46 14.9907C95.9296 15.2236 95.5221 15.5405 95.2375 15.9415C94.9659 16.3296 94.83 16.7694 94.83 17.261C94.83 17.8561 95.0241 18.3476 95.4122 18.7357C95.8002 19.1238 96.5117 19.4342 97.5466 19.6671L100.069 20.2104C101.324 20.4821 102.204 20.8766 102.708 21.394C103.225 21.8985 103.484 22.5518 103.484 23.3538C103.484 24.0524 103.277 24.6733 102.863 25.2166C102.462 25.7599 101.906 26.1803 101.195 26.4779C100.483 26.7754 99.6487 26.9242 98.6914 26.9242C97.773 26.9242 96.9515 26.8013 96.2271 26.5555C95.5156 26.2968 94.9141 25.941 94.4226 25.4883C93.931 25.0226 93.5688 24.4663 93.3359 23.8195L94.1897 23.1598C94.3708 23.7678 94.6683 24.2917 95.0823 24.7315C95.5092 25.1584 96.0331 25.4818 96.654 25.7017C97.2749 25.9216 97.967 26.0316 98.7302 26.0316C99.4546 26.0316 100.101 25.9346 100.671 25.7405C101.24 25.5335 101.68 25.236 101.99 24.8479C102.313 24.4599 102.475 23.9812 102.475 23.4121C102.475 22.8687 102.281 22.4095 101.893 22.0344C101.518 21.6592 100.845 21.3746 99.8751 21.1806L97.2361 20.5985C96.4212 20.4174 95.7614 20.1781 95.2569 19.8805C94.7524 19.583 94.3837 19.2273 94.1509 18.8133C93.931 18.3864 93.821 17.9078 93.821 17.3774C93.821 16.7177 94.0086 16.1162 94.3837 15.5729C94.7589 15.0166 95.2957 14.5703 95.9943 14.234C96.6928 13.8977 97.5207 13.7295 98.478 13.7295Z" fill="#ED2F95"></path><path d="M92.2844 26.7302H91.256L89.6455 22.7136H83.5332L81.9227 26.7302H80.8943L86.0169 13.9236H87.1618L92.2844 26.7302ZM83.8825 21.821H89.2962L86.5796 14.8744L83.8825 21.821Z" fill="#ECEAEC"></path><path d="M92.2844 26.7302H91.256L89.6455 22.7136H83.5332L81.9227 26.7302H80.8943L86.0169 13.9236H87.1618L92.2844 26.7302ZM83.8825 21.821H89.2962L86.5796 14.8744L83.8825 21.821Z" fill="#ED2F95"></path><path d="M79.9755 13.9236L74.62 19.4149L74.4648 19.5701L71.1661 22.927V21.6075L78.6949 13.9236H79.9755ZM71.6706 13.9236V26.7302H70.7004V13.9236H71.6706ZM74.6976 18.7746L80.1113 26.7302H78.9277L73.9215 19.3567L74.6976 18.7746Z" fill="#ECEAEC"></path><path d="M79.9755 13.9236L74.62 19.4149L74.4648 19.5701L71.1661 22.927V21.6075L78.6949 13.9236H79.9755ZM71.6706 13.9236V26.7302H70.7004V13.9236H71.6706ZM74.6976 18.7746L80.1113 26.7302H78.9277L73.9215 19.3567L74.6976 18.7746Z" fill="#ED2F95"></path><path d="M40.8863 46.9754C36.7437 42.2206 32.6532 37.4212 28.5507 32.6323L16.6383 46.4841C13.1359 50.5564 17.9761 56.5795 22.9486 53.8518C23.7014 53.4383 24.3113 52.8427 24.7557 52.1088C26.4843 49.2549 30.6352 49.2534 32.3653 52.1058C34.5072 55.6377 40.3156 55.2848 41.4705 50.8678C41.8303 49.4907 41.6738 48.1575 40.8863 46.9754ZM38.7133 48.589C35.3023 44.6709 31.9246 40.7233 28.5461 36.7757L18.6835 48.2436C17.1152 50.0674 19.3154 52.7672 21.6509 51.4861C21.9872 51.3009 22.2495 51.0386 22.4475 50.7106C25.2236 46.1266 31.8936 46.1251 34.6728 50.7068C35.644 52.3084 38.3362 52.189 38.86 50.1853C39.0096 49.6139 39.0013 49.0916 38.7133 48.589Z" fill="url(#paint0_linear_261_2)"></path><path d="M52.5093 53.4725C52.5093 53.4725 52.5093 53.4732 52.51 53.4732L52.5093 53.4725ZM53.9143 60.2257C54.0852 57.6952 53.3966 55.3605 52.5093 53.4725C51.2471 50.7856 49.5858 49.0011 49.4324 48.8386L30.5348 26.9752C37.6266 19.3272 44.0827 24.3148 51.2546 28.8995C51.2675 28.9078 51.2796 28.9162 51.2924 28.9245C53.0837 30.068 54.0844 31.8948 54.0844 34.0202V60.1267L53.9143 60.2257ZM28.5531 29.2971C33.2187 34.7329 37.8904 40.2299 42.6081 45.6438C43.794 47.3436 44.1122 49.3541 43.5733 51.4174C41.9347 57.6824 33.6442 58.4049 30.5076 53.2329C29.6218 51.7734 27.4995 51.7734 26.6152 53.2344C25.938 54.3515 25.0249 55.1912 23.9932 55.7573C16.8916 59.6528 9.93363 50.9458 14.9908 45.0679L28.5531 29.2971ZM32.7826 58.9302C39.1276 61.4735 46.2103 57.4329 46.8044 50.419C48.3024 51.8641 50.0499 54.4535 50.6787 57.0482C51.2766 59.5152 50.8639 61.9867 48.2662 63.4862L31.5809 73.1198C29.6573 74.2301 27.4564 74.2301 25.5328 73.1198L20.4205 70.1676C21.032 69.9023 21.6147 69.5698 22.1574 69.1813C23.5496 68.1859 24.6826 66.8224 25.3938 65.2692L31.636 65.2858H31.6844C32.704 65.2858 33.5611 64.8732 34.1264 64.2572C34.9676 63.3396 35.1611 61.9693 34.2753 60.8371L32.7826 58.9302ZM57.1076 61.8575V28.898C47.5406 23.3745 38.1156 17.9365 28.5538 12.416C19.0329 17.9123 9.52096 23.401 0 28.898V61.8605L28.5508 78.3448C38.0703 72.8485 47.589 67.3522 57.1076 61.8575ZM27.4035 26.0093L13.7082 41.9343L13.8178 37.2233L13.9266 32.5123C14.0415 24.1235 18.6565 21.4064 25.2063 17.7717C27.3551 16.579 29.7805 16.5994 31.9089 17.8284L35.8761 20.1193C35.1732 20.3127 34.5043 20.5637 33.8732 20.8524C30.1886 22.5363 27.7852 25.5158 27.4035 26.0093ZM10.5678 32.3498L10.5647 47.1645C8.53085 55.1564 16.5462 62.0351 24.3251 58.931L22.8323 60.8371C22.1702 61.6829 22.0894 62.7342 22.5383 63.6223C21.852 64.5996 21.0358 65.505 20.1167 66.1785C18.4441 67.4044 16.4306 67.8639 14.2387 66.5987L6.04725 61.8696C4.12371 60.7593 3.02325 58.8524 3.02325 56.6318V34.1267C3.02325 29.4241 8.11364 27.6963 11.6954 25.6284L11.6788 25.6737C10.499 28.8874 10.5526 31.8956 10.5678 32.3498ZM28.5538 58.414L31.5657 62.2626L25.5532 62.2482C26.5539 60.9702 27.5539 59.6921 28.5538 58.414Z" fill="url(#paint1_linear_261_2)"></path><path opacity="0.2" d="M1.34157 29.672C10.4113 24.4357 19.4833 19.2009 28.5538 13.9647C37.6243 19.2009 46.6963 24.4357 55.7661 29.672V61.0828C46.6948 66.3205 37.6228 71.5583 28.5508 76.7961L1.34157 61.0865V29.672ZM57.1076 28.898C47.5406 23.3745 38.1156 17.9365 28.5538 12.416C19.0329 17.9123 9.52096 23.401 0 28.898V61.8605L28.5508 78.3448C38.0703 72.8485 47.589 67.3522 57.1076 61.8575V28.898Z" fill="#300C50"></path><path opacity="0.2" d="M22.4195 52.8873C18.5105 55.0308 14.7669 50.3478 17.472 47.2014L28.5492 34.3216C32.3585 38.7703 36.161 43.2243 40.0073 47.6405C41.1062 49.1068 40.6127 52.3953 37.9326 53.2191C36.2146 53.7467 34.2495 53.0914 33.3055 51.5359C31.1476 47.9776 25.9703 47.9791 23.8148 51.539C23.4709 52.1073 23.0023 52.5669 22.4195 52.8873ZM28.5507 32.6323L16.6383 46.4841C13.1359 50.5564 17.9761 56.5795 22.9486 53.8518C23.7014 53.4383 24.3113 52.8427 24.7557 52.1088C26.4843 49.2549 30.6352 49.2534 32.3653 52.1058C34.5072 55.6377 40.3156 55.2848 41.4705 50.8678C41.8303 49.4907 41.6738 48.1575 40.8863 46.9754C36.7437 42.2206 32.6532 37.4212 28.5507 32.6323Z" fill="#300C50"></path><defs><linearGradient id="paint0_linear_261_2" x1="28.5493" y1="78.3447" x2="28.5493" y2="8.32624" gradientUnits="userSpaceOnUse"><stop stop-color="#5E17A9"></stop><stop offset="1" stop-color="#FF2966"></stop></linearGradient><linearGradient id="paint1_linear_261_2" x1="28.5538" y1="78.3447" x2="28.5538" y2="8.32645" gradientUnits="userSpaceOnUse"><stop stop-color="#5E17A9"></stop><stop offset="1" stop-color="#FF2966"></stop></linearGradient></defs></svg> 