<?xml version="1.0" encoding="UTF-8"?>
<svg width="178px" height="30px" viewBox="0 0 178 30" version="1.1" xmlns="http://www.w3.org/2000/svg" xmlns:xlink="http://www.w3.org/1999/xlink">
    <!-- Generator: sketchtool 49.1 (51147) - http://www.bohemiancoding.com/sketch -->
    <title>F8DCB9AC-40FA-4ADB-8604-6311CFC9450D-416-0000F5A4C92BF4F5</title>
    <desc>Created with sketchtool.</desc>
    <defs></defs>
    <g id="Home" stroke="none" stroke-width="1" fill="none" fill-rule="evenodd">
        <g id="1-Home-[Opt-1]-[desktop]" transform="translate(-120.000000, -29.000000)">
            <g id="Header">
                <g id="menu-[top]" transform="translate(120.000000, 28.000000)">
                    <g id="logo">
                        <g transform="translate(0.000000, 1.000000)">
                            <g>
                                <path d="M22.4408249,0.801379976 L29.4751555,5.82961099 L32.4911167,15.1004337 L29.3017141,24.3319744 L21.125191,30 L11.0847816,29.9380125 L2.99934746,24.1443403 L2.652035,23.0530817 L0,14.8997056 L2.82518995,6.64812459 L3.1730753,5.64128042 L3.61247927,5.37410733 L11.3656392,0 L20.9295503,0.0325956743 L21.3898646,0.0356602249 L22.4408249,0.801379976 Z M2.68984551,19.4746617 L2.78637689,10.3324109 L1.20506683,14.9100137 L2.68984551,19.4746617 Z M3.59701134,22.2631242 L3.68294432,22.5272327 L9.50576307,14.9671257 L3.84736275,7.261174 L3.75226359,7.53600847 L3.59701134,22.2631242 Z M10.0769309,15.7446858 L4.37026494,23.1536547 L13.4628336,20.3558593 L10.0769309,15.7446858 Z M11.4638892,28.8258592 L16.8261072,28.8590121 L7.12384407,25.7238376 L11.4638892,28.8258592 Z M4.74292763,23.9944559 L19.6786525,28.8205659 L14.035004,21.1349517 L4.74292763,23.9944559 Z M20.7137153,28.6628809 L20.9208137,1.17302638 L11.7289925,1.1163322 L4.27831665,6.28107501 L20.7137153,28.6628809 Z M21.7744147,12.1772703 L21.7320211,17.8108894 L30.7728867,15.0286953 L21.7744147,12.1772703 Z M28.3338223,23.634232 L29.8446673,19.2616755 L24.4884646,26.3001124 L28.3338223,23.634232 Z M30.8137049,16.4567759 L31.0013252,15.9139326 L21.7247168,18.7684221 L21.6532492,28.2654644 L22.021472,28.0102709 L30.8137049,16.4567759 Z M30.9755453,14.1353788 L30.8463594,13.7383802 L22.1618292,1.9844358 L21.8529001,1.76364886 L21.7815758,11.2216877 L30.9755453,14.1353788 Z M24.6059064,3.73164752 L29.9390504,10.9496392 L28.4955195,6.51230928 L24.6059064,3.73164752 Z" id="Combined-Shape" fill="#262E36"></path>
                                <path d="M42.313,8.6 C44.513011,8.6 46.1959942,9.0033293 47.362,9.81 C48.5280058,10.6166707 49.111,11.8486584 49.111,13.506 C49.111,15.5740103 48.0916769,16.974663 46.053,17.708 C46.3316681,18.045335 46.6469982,18.4559976 46.999,18.94 C47.3510018,19.4240024 47.7103315,19.9483305 48.077,20.513 C48.4436685,21.0776695 48.795665,21.656997 49.133,22.251 C49.470335,22.845003 49.7709987,23.4279971 50.035,24 L46.933,24 C46.6543319,23.4719974 46.3536683,22.940336 46.031,22.405 C45.7083317,21.869664 45.3820016,21.3490025 45.052,20.843 C44.7219983,20.3369975 44.3956683,19.8603356 44.073,19.413 C43.7503317,18.9656644 43.4496681,18.5660018 43.171,18.214 C42.9656656,18.2286667 42.7896674,18.236 42.643,18.236 L40.883,18.236 L40.883,24 L38.111,24 L38.111,8.974 C38.78567,8.8273326 39.5043295,8.72833359 40.267,8.677 C41.0296705,8.62566641 41.7116637,8.6 42.313,8.6 Z M42.511,10.998 C41.9243304,10.998 41.3816692,11.0199998 40.883,11.064 L40.883,15.992 L42.093,15.992 C42.76767,15.992 43.3616641,15.9553337 43.875,15.882 C44.3883359,15.8086663 44.8173316,15.6766676 45.162,15.486 C45.5066684,15.2953324 45.7669991,15.0386683 45.943,14.716 C46.1190009,14.3933317 46.207,13.9826692 46.207,13.484 C46.207,13.0146643 46.1190009,12.6186683 45.943,12.296 C45.7669991,11.9733317 45.5140016,11.7166676 45.184,11.526 C44.8539983,11.3353324 44.4616689,11.1996671 44.007,11.119 C43.5523311,11.0383329 43.0536694,10.998 42.511,10.998 Z M58.065,24.33 C57.0236615,24.33 56.1290037,24.1796682 55.381,23.879 C54.6329963,23.5783318 54.0133358,23.1566694 53.522,22.614 C53.0306642,22.0713306 52.6676678,21.433337 52.433,20.7 C52.1983322,19.966663 52.081,19.1600044 52.081,18.28 L52.081,8.754 L54.875,8.754 L54.875,18.016 C54.875,18.7053368 54.9519992,19.2956642 55.106,19.787 C55.2600008,20.2783358 55.4799986,20.6779985 55.766,20.986 C56.0520014,21.2940015 56.3893314,21.5213326 56.778,21.668 C57.1666686,21.8146674 57.6029976,21.888 58.087,21.888 C58.5710024,21.888 59.010998,21.8146674 59.407,21.668 C59.803002,21.5213326 60.1439986,21.2940015 60.43,20.986 C60.7160014,20.6779985 60.9359992,20.2783358 61.09,19.787 C61.2440008,19.2956642 61.321,18.7053368 61.321,18.016 L61.321,8.754 L64.115,8.754 L64.115,18.28 C64.115,19.1600044 63.9940012,19.966663 63.752,20.7 C63.5099988,21.433337 63.1433358,22.0713306 62.652,22.614 C62.1606642,23.1566694 61.5336705,23.5783318 60.771,23.879 C60.0083295,24.1796682 59.1063385,24.33 58.065,24.33 Z M72.255,24.176 C71.4483293,24.176 70.6343374,24.1503336 69.813,24.099 C68.9916626,24.0476664 68.2730031,23.9413341 67.657,23.78 L67.657,8.974 C67.9796683,8.91533304 68.3243315,8.86033359 68.691,8.809 C69.0576685,8.75766641 69.4316648,8.71733348 69.813,8.688 C70.1943352,8.65866652 70.5719981,8.63666674 70.946,8.622 C71.3200019,8.60733326 71.675665,8.6 72.013,8.6 C72.9370046,8.6 73.794996,8.66966597 74.587,8.809 C75.379004,8.94833403 76.0646638,9.17933172 76.644,9.502 C77.2233362,9.82466828 77.6743317,10.2499974 77.997,10.778 C78.3196683,11.3060026 78.481,11.9586628 78.481,12.736 C78.481,13.4546703 78.3086684,14.0706641 77.964,14.584 C77.6193316,15.0973359 77.1390031,15.5079985 76.523,15.816 C77.4470046,16.1240015 78.1289978,16.5786637 78.569,17.18 C79.0090022,17.7813363 79.229,18.5439954 79.229,19.468 C79.229,21.0373412 78.6570057,22.2143294 77.513,22.999 C76.3689943,23.7836706 74.6163451,24.176 72.255,24.176 Z M70.385,17.136 L70.385,21.778 C70.6930015,21.8073335 71.0229982,21.8293333 71.375,21.844 C71.7270018,21.8586667 72.0496652,21.866 72.343,21.866 C72.9150029,21.866 73.4466642,21.8293337 73.938,21.756 C74.4293358,21.6826663 74.8546649,21.5543343 75.214,21.371 C75.5733351,21.1876658 75.8593323,20.9420015 76.072,20.634 C76.2846677,20.3259985 76.391,19.9300024 76.391,19.446 C76.391,18.5806623 76.0756698,17.979335 75.445,17.642 C74.8143302,17.304665 73.9416722,17.136 72.827,17.136 L70.385,17.136 Z M70.385,14.958 L72.343,14.958 C73.3990053,14.958 74.2276637,14.8076682 74.829,14.507 C75.4303363,14.2063318 75.731,13.6673372 75.731,12.89 C75.731,12.156663 75.4193365,11.6360015 74.796,11.328 C74.1726635,11.0199985 73.3623383,10.866 72.365,10.866 C71.9396645,10.866 71.5620016,10.8733333 71.232,10.888 C70.9019983,10.9026667 70.6196678,10.9246665 70.385,10.954 L70.385,14.958 Z M87.237,15.508 C87.8970033,14.4079945 88.5423302,13.293339 89.173,12.164 C89.8036698,11.034661 90.3756641,9.89800572 90.889,8.754 L93.969,8.754 C93.1476626,10.3086744 92.2933378,11.8523257 91.406,13.385 C90.5186622,14.9176743 89.5690051,16.4613256 88.557,18.016 L88.557,24 L85.785,24 L85.785,18.06 C84.7729949,16.4906588 83.8196711,14.9360077 82.925,13.396 C82.0303289,11.8559923 81.1723374,10.3086744 80.351,8.754 L83.607,8.754 C84.1203359,9.89800572 84.6849969,11.034661 85.301,12.164 C85.9170031,13.293339 86.56233,14.4079945 87.237,15.508 Z M100.063,8.6 C102.263011,8.6 103.945994,9.0033293 105.112,9.81 C106.278006,10.6166707 106.861,11.8486584 106.861,13.506 C106.861,15.5740103 105.841677,16.974663 103.803,17.708 C104.081668,18.045335 104.396998,18.4559976 104.749,18.94 C105.101002,19.4240024 105.460331,19.9483305 105.827,20.513 C106.193669,21.0776695 106.545665,21.656997 106.883,22.251 C107.220335,22.845003 107.520999,23.4279971 107.785,24 L104.683,24 C104.404332,23.4719974 104.103668,22.940336 103.781,22.405 C103.458332,21.869664 103.132002,21.3490025 102.802,20.843 C102.471998,20.3369975 102.145668,19.8603356 101.823,19.413 C101.500332,18.9656644 101.199668,18.5660018 100.921,18.214 C100.715666,18.2286667 100.539667,18.236 100.393,18.236 L98.633,18.236 L98.633,24 L95.861,24 L95.861,8.974 C96.53567,8.8273326 97.2543295,8.72833359 98.017,8.677 C98.7796705,8.62566641 99.4616637,8.6 100.063,8.6 Z M100.261,10.998 C99.6743304,10.998 99.1316692,11.0199998 98.633,11.064 L98.633,15.992 L99.843,15.992 C100.51767,15.992 101.111664,15.9553337 101.625,15.882 C102.138336,15.8086663 102.567332,15.6766676 102.912,15.486 C103.256668,15.2953324 103.516999,15.0386683 103.693,14.716 C103.869001,14.3933317 103.957,13.9826692 103.957,13.484 C103.957,13.0146643 103.869001,12.6186683 103.693,12.296 C103.516999,11.9733317 103.264002,11.7166676 102.934,11.526 C102.603998,11.3353324 102.211669,11.1996671 101.757,11.119 C101.302331,11.0383329 100.803669,10.998 100.261,10.998 Z M112.207,16.366 C112.207,17.2020042 112.309666,17.9609966 112.515,18.643 C112.720334,19.3250034 113.017331,19.904331 113.406,20.381 C113.794669,20.8576691 114.267664,21.2279987 114.825,21.492 C115.382336,21.7560013 116.012996,21.888 116.717,21.888 C117.406337,21.888 118.029664,21.7560013 118.587,21.492 C119.144336,21.2279987 119.617331,20.8576691 120.006,20.381 C120.394669,19.904331 120.691666,19.3250034 120.897,18.643 C121.102334,17.9609966 121.205,17.2020042 121.205,16.366 C121.205,15.5299958 121.102334,14.7710034 120.897,14.089 C120.691666,13.4069966 120.394669,12.8276691 120.006,12.351 C119.617331,11.874331 119.144336,11.5040013 118.587,11.24 C118.029664,10.9759987 117.406337,10.844 116.717,10.844 C116.012996,10.844 115.382336,10.9759987 114.825,11.24 C114.267664,11.5040013 113.794669,11.8779976 113.406,12.362 C113.017331,12.8460024 112.720334,13.42533 112.515,14.1 C112.309666,14.77467 112.207,15.5299958 112.207,16.366 Z M124.109,16.366 C124.109,17.6713399 123.914669,18.8226617 123.526,19.82 C123.137331,20.8173383 122.609337,21.6496633 121.942,22.317 C121.274663,22.9843367 120.493671,23.486665 119.599,23.824 C118.704329,24.161335 117.751005,24.33 116.739,24.33 C115.726995,24.33 114.770005,24.161335 113.868,23.824 C112.965995,23.486665 112.181337,22.9843367 111.514,22.317 C110.846663,21.6496633 110.315002,20.8173383 109.919,19.82 C109.522998,18.8226617 109.325,17.6713399 109.325,16.366 C109.325,15.0606601 109.522998,13.913005 109.919,12.923 C110.315002,11.9329951 110.853997,11.10067 111.536,10.426 C112.218003,9.75132996 113.006329,9.24533502 113.901,8.908 C114.795671,8.57066498 115.741662,8.402 116.739,8.402 C117.736338,8.402 118.682329,8.57066498 119.577,8.908 C120.471671,9.24533502 121.252663,9.75132996 121.92,10.426 C122.587337,11.10067 123.118998,11.9329951 123.515,12.923 C123.911002,13.913005 124.109,15.0606601 124.109,16.366 Z M127.145,8.754 L129.917,8.754 L129.917,24 L127.145,24 L127.145,8.754 Z M136.341,21.712 C136.502334,21.7266667 136.714999,21.7376666 136.979,21.745 C137.243001,21.7523334 137.602331,21.756 138.057,21.756 C139.919676,21.756 141.309329,21.2830047 142.226,20.337 C143.142671,19.3909953 143.601,18.0673418 143.601,16.366 C143.601,14.6353247 143.153671,13.3080046 142.259,12.384 C141.364329,11.4599954 139.978343,10.998 138.101,10.998 C137.279663,10.998 136.693002,11.0199998 136.341,11.064 L136.341,21.712 Z M146.505,16.366 C146.505,17.6860066 146.299669,18.8336618 145.889,19.809 C145.478331,20.7843382 144.895337,21.5983301 144.14,22.251 C143.384663,22.9036699 142.475339,23.3876651 141.412,23.703 C140.348661,24.0183349 139.171673,24.176 137.881,24.176 C137.264997,24.176 136.568337,24.1503336 135.791,24.099 C135.013663,24.0476664 134.273004,23.9413341 133.569,23.78 L133.569,8.974 C134.273004,8.81266586 135.020996,8.71000022 135.813,8.666 C136.605004,8.62199978 137.308997,8.6 137.925,8.6 C139.201006,8.6 140.366995,8.75033183 141.423,9.051 C142.479005,9.35166817 143.384663,9.82099681 144.14,10.459 C144.895337,11.0970032 145.478331,11.9036618 145.889,12.879 C146.299669,13.8543382 146.505,15.0166599 146.505,16.366 Z" id="Rubyroid" fill="#2E3841"></path>
                                <path d="M149.979492,24 L149.979492,9.125 L152.104492,9.125 L152.104492,24 L149.979492,24 Z M157.210645,22.40625 C157.360059,22.40625 157.505322,22.3619796 157.646436,22.2734375 C157.78755,22.1848954 157.894075,22.0991215 157.966016,22.0161133 C158.037956,21.9331051 158.126497,21.8224291 158.231641,21.684082 C158.248242,21.6564126 158.262077,21.6370443 158.273145,21.6259766 L158.273145,18.6875 C158.184602,18.7483727 158.037957,18.8424473 157.833203,18.9697266 C157.62845,19.0970058 157.465202,19.2007646 157.343457,19.2810059 C157.221712,19.3612471 157.075066,19.4719231 156.903516,19.6130371 C156.731965,19.7541511 156.599154,19.8897292 156.505078,20.0197754 C156.411002,20.1498216 156.327995,20.3089183 156.256055,20.4970703 C156.184114,20.6852223 156.148145,20.8816722 156.148145,21.0864258 C156.148145,21.966313 156.502308,22.40625 157.210645,22.40625 Z M156.148145,24.1494141 C155.556019,24.1494141 155.053827,23.8934759 154.641553,23.3815918 C154.229279,22.8697077 154.023145,22.2928092 154.023145,21.6508789 C154.023145,21.1362279 154.110302,20.6686219 154.284619,20.2480469 C154.458936,19.8274719 154.642935,19.4912936 154.836621,19.239502 C155.030307,18.9877103 155.354034,18.7276218 155.807813,18.4592285 C156.261591,18.1908352 156.604686,18.0068364 156.837109,17.9072266 C157.069532,17.8076167 157.4735,17.6443696 158.049023,17.4174805 C158.148633,17.3787433 158.22334,17.3483074 158.273145,17.3261719 L158.273145,16.5625 C158.273145,16.0257135 158.198438,15.6092951 158.049023,15.3132324 C157.899609,15.0171697 157.620152,14.8691406 157.210645,14.8691406 C156.845408,14.8691406 156.583936,14.9950345 156.426221,15.2468262 C156.268505,15.4986178 156.178581,15.8458637 156.156445,16.2885742 C156.150911,16.3494469 156.148145,16.4407546 156.148145,16.5625 L154.023145,16.5625 C154.034212,15.5442657 154.319203,14.7335642 154.878125,14.1303711 C155.437047,13.527178 156.214546,13.2255859 157.210645,13.2255859 C158.201209,13.2255859 158.980092,13.5313283 159.547314,14.1428223 C160.114537,14.7543162 160.398145,15.5608674 160.398145,16.5625 L160.398145,21.34375 C160.398145,22.4505264 160.489452,23.3359342 160.67207,24 L158.555371,24 L158.273145,22.40625 C158.162467,22.6276053 158.072543,22.799153 158.003369,22.9208984 C157.934196,23.0426438 157.833204,23.1934399 157.700391,23.373291 C157.567577,23.5531422 157.434766,23.6914871 157.301953,23.7883301 C157.16914,23.885173 157.003126,23.9695634 156.803906,24.0415039 C156.604687,24.1134444 156.386101,24.1494141 156.148145,24.1494141 Z M166.243066,22.40625 C166.469956,22.40625 166.659488,22.323243 166.81167,22.1572266 C166.963852,21.9912101 167.074528,21.7546402 167.143701,21.4475098 C167.212875,21.1403793 167.259912,20.8346369 167.284814,20.5302734 C167.309717,20.2259099 167.322168,19.8717468 167.322168,19.4677734 C167.322168,19.1689438 167.320785,18.7732772 167.318018,18.2807617 C167.315251,17.7882462 167.313867,17.4174817 167.313867,17.168457 C167.313867,16.9194323 167.308333,16.7022307 167.297266,16.5168457 C167.286198,16.3314607 167.258529,16.1363943 167.214258,15.9316406 C167.169987,15.726887 167.110498,15.5581061 167.035791,15.425293 C166.961084,15.2924798 166.857325,15.1831873 166.724512,15.0974121 C166.591699,15.0116369 166.431218,14.96875 166.243066,14.96875 C165.656475,14.96875 165.12523,15.1098619 164.649316,15.3920898 L164.649316,22.0742188 C165.197171,22.295574 165.728415,22.40625 166.243066,22.40625 Z M166.774316,24.1494141 C166.342674,24.1494141 165.960842,24.0470388 165.628809,23.8422852 C165.296776,23.6375315 164.970282,23.3691423 164.649316,23.0371094 L164.649316,24 L162.524316,24 L162.524316,9.13330078 L164.649316,9.13330078 L164.649316,14.4291992 C164.848536,14.2189117 164.997949,14.0667322 165.097559,13.9726562 C165.197168,13.8785803 165.342431,13.7596036 165.53335,13.6157227 C165.724269,13.4718417 165.922102,13.3708499 166.126855,13.3127441 C166.331609,13.2546384 166.558495,13.2255859 166.80752,13.2255859 C167.167222,13.2255859 167.488182,13.2906081 167.77041,13.4206543 C168.052638,13.5507005 168.285058,13.7070303 168.467676,13.8896484 C168.650294,14.0722665 168.80524,14.335122 168.93252,14.6782227 C169.059799,15.0213233 169.155257,15.3312161 169.218897,15.6079102 C169.282536,15.8846042 169.330957,16.2581357 169.36416,16.7285156 C169.397363,17.1988956 169.416732,17.5793443 169.422266,17.869873 C169.4278,18.1604018 169.430566,18.5602188 169.430566,19.0693359 L169.430566,19.2104492 C169.430566,19.6752953 169.407048,20.123533 169.36001,20.5551758 C169.312972,20.9868186 169.227198,21.4267556 169.102686,21.875 C168.978173,22.3232444 168.82046,22.7106103 168.629541,23.0371094 C168.438622,23.3636084 168.184067,23.6306142 167.865869,23.8381348 C167.547671,24.0456553 167.183824,24.1494141 166.774316,24.1494141 Z M174.262793,24.1494141 C173.38844,24.1494141 172.687031,23.8893255 172.158545,23.3691406 C171.630059,22.8489557 171.268979,22.1738323 171.075293,21.34375 L172.669043,20.8125 C173.050881,21.8750053 173.582126,22.40625 174.262793,22.40625 C174.60036,22.40625 174.861832,22.3135589 175.047217,22.1281738 C175.232602,21.9427888 175.325293,21.6813168 175.325293,21.34375 C175.325293,20.8512345 175.148211,20.4417334 174.794043,20.1152344 L172.669043,18.5214844 C172.431086,18.3610018 172.231869,18.2102058 172.071387,18.0690918 C171.910904,17.9279778 171.747657,17.7550466 171.581641,17.550293 C171.415624,17.3455393 171.28973,17.1158867 171.203955,16.8613281 C171.11818,16.6067696 171.075293,16.3300796 171.075293,16.03125 C171.075293,15.1236934 171.364434,14.4292016 171.942725,13.9477539 C172.521015,13.4663062 173.294364,13.2255859 174.262793,13.2255859 C174.722105,13.2255859 175.13714,13.2989088 175.50791,13.4455566 C175.87868,13.5922045 176.189956,13.7983385 176.441748,14.0639648 C176.69354,14.3295912 176.901057,14.624266 177.064307,14.947998 C177.227556,15.2717301 177.356217,15.6328105 177.450293,16.03125 L175.856543,16.5625 C175.779069,16.3522125 175.701595,16.1709806 175.624121,16.0187988 C175.546647,15.8666171 175.442888,15.7019866 175.312842,15.5249023 C175.182796,15.3478181 175.029233,15.2108566 174.852148,15.1140137 C174.675064,15.0171707 174.478614,14.96875 174.262793,14.96875 C173.925226,14.96875 173.663754,15.0614411 173.478369,15.2468262 C173.292984,15.4322112 173.200293,15.6936832 173.200293,16.03125 C173.200293,16.3632829 173.377375,16.662108 173.731543,16.9277344 L175.856543,18.5214844 C176.0945,18.7096364 176.297867,18.8908683 176.46665,19.0651855 C176.635434,19.2395028 176.800064,19.4414865 176.960547,19.6711426 C177.121029,19.9007987 177.242773,20.1567369 177.325781,20.4389648 C177.40879,20.7211928 177.450293,21.0227849 177.450293,21.34375 C177.450293,22.2513066 177.161152,22.9457984 176.582861,23.4272461 C176.004571,23.9086938 175.231222,24.1494141 174.262793,24.1494141 Z" id="labs" fill="#17B131"></path>
                            </g>
                        </g>
                    </g>
                </g>
            </g>
        </g>
    </g>
</svg>