<svg width="131" height="40" viewBox="0 0 131 40" fill="none" xmlns="http://www.w3.org/2000/svg">
<path d="M56.082 6.682C56.478 6.922 56.808 7.264 57.072 7.708C57.348 8.152 57.486 8.746 57.486 9.49C57.486 10.222 57.252 10.888 56.784 11.488C55.92 12.616 54.606 13.18 52.842 13.18C52.074 13.18 51.312 13.072 50.556 12.856C49.812 12.628 49.26 12.4 48.9 12.172L48.36 11.848L49.134 10.3C49.998 10.72 50.778 10.93 51.474 10.93C52.17 10.93 52.518 10.708 52.518 10.264C52.518 10.012 52.38 9.778 52.104 9.562C51.84 9.334 51.51 9.118 51.114 8.914C50.73 8.71 50.34 8.476 49.944 8.212C49.56 7.936 49.23 7.558 48.954 7.078C48.69 6.586 48.558 6.016 48.558 5.368C48.558 4.216 48.996 3.34 49.872 2.74C50.76 2.14 51.828 1.84 53.076 1.84C53.82 1.84 54.516 1.93 55.164 2.11C55.824 2.29 56.292 2.47 56.568 2.65L57 2.92L56.298 4.45C55.686 4.186 55.068 4.054 54.444 4.054C53.832 4.054 53.526 4.288 53.526 4.756C53.526 5.008 53.658 5.236 53.922 5.44C54.198 5.644 54.528 5.842 54.912 6.034C55.308 6.214 55.698 6.43 56.082 6.682ZM68.5156 2.092L68.8756 5.512L65.9776 4.936L65.1676 13H61.6576L60.8476 4.936L57.9316 5.512L58.2916 2.092H68.5156ZM75.3268 7.546C75.8788 7.546 76.3168 7.378 76.6408 7.042C76.9648 6.706 77.1268 6.298 77.1268 5.818C77.1268 5.326 76.9708 4.96 76.6588 4.72C76.3588 4.468 75.9688 4.342 75.4888 4.342H74.7688L74.4628 7.546H75.3268ZM77.3608 2.092C78.6448 2.092 79.6708 2.398 80.4388 3.01C81.2188 3.61 81.6088 4.504 81.6088 5.692C81.6088 6.124 81.5188 6.538 81.3388 6.934C81.1588 7.318 80.9428 7.63 80.6908 7.87C80.1628 8.35 79.6768 8.692 79.2328 8.896L78.9628 9.004L80.9068 13H77.7568L74.2648 9.49L73.9228 13H70.4128L69.3328 2.092H77.3608ZM90.5152 13L89.7952 11.182H85.2052L84.5212 13H81.9652L85.0072 2.092H91.4152L94.4572 13H90.5152ZM88.8772 8.842L87.4552 5.242L86.0872 8.842H88.8772ZM100.943 2.092L104.129 8.446L103.625 2.092H107.783L106.883 13H101.609L98.5852 7.06L97.9912 13H95.6332L94.7332 2.092H100.943ZM113.37 11.182C114.198 11.182 114.84 10.744 115.296 9.868C115.752 8.992 115.98 8.074 115.98 7.114C115.98 6.142 115.806 5.368 115.458 4.792C115.11 4.216 114.66 3.928 114.108 3.928H114L113.262 11.182H113.37ZM113.298 13H109.77L108.69 2.092H114C116.676 2.092 118.518 2.824 119.526 4.288C120.054 5.068 120.318 5.992 120.318 7.06C120.318 11.02 117.978 13 113.298 13ZM128.768 6.682C129.164 6.922 129.494 7.264 129.758 7.708C130.034 8.152 130.172 8.746 130.172 9.49C130.172 10.222 129.938 10.888 129.47 11.488C128.606 12.616 127.292 13.18 125.528 13.18C124.76 13.18 123.998 13.072 123.242 12.856C122.498 12.628 121.946 12.4 121.586 12.172L121.046 11.848L121.82 10.3C122.684 10.72 123.464 10.93 124.16 10.93C124.856 10.93 125.204 10.708 125.204 10.264C125.204 10.012 125.066 9.778 124.79 9.562C124.526 9.334 124.196 9.118 123.8 8.914C123.416 8.71 123.026 8.476 122.63 8.212C122.246 7.936 121.916 7.558 121.64 7.078C121.376 6.586 121.244 6.016 121.244 5.368C121.244 4.216 121.682 3.34 122.558 2.74C123.446 2.14 124.514 1.84 125.762 1.84C126.506 1.84 127.202 1.93 127.85 2.11C128.51 2.29 128.978 2.47 129.254 2.65L129.686 2.92L128.984 4.45C128.372 4.186 127.754 4.054 127.13 4.054C126.518 4.054 126.212 4.288 126.212 4.756C126.212 5.008 126.344 5.236 126.608 5.44C126.884 5.644 127.214 5.842 127.598 6.034C127.994 6.214 128.384 6.43 128.768 6.682Z" fill="#181818"/>
<path d="M65.224 37L64.488 29.64L58.792 30.152L58.12 37H51.88L49.96 17.608H60.04L59.304 25H64.04L63.304 17.608H73.384L71.464 37H65.224ZM77.0638 37L75.1438 17.608H85.2238L83.3038 37H77.0638ZM97.8713 17.608L103.535 28.904L102.639 17.608H110.031L108.431 37H99.0553L93.6793 26.44L92.6233 37H88.4313L86.8313 17.608H97.8713ZM129.66 17.608L130.3 23.688L125.148 22.664L123.708 37H117.468L116.028 22.664L110.844 23.688L111.484 17.608H129.66Z" fill="#5356FF"/>
<g clip-path="url(#clip0_148_172)">
<path d="M35.509 6.05124C35.7349 6.38999 36.1065 6.57327 36.4852 6.57327C36.7163 6.57333 36.9421 6.50475 37.1341 6.37624L39.4779 4.81374C40.0164 4.45476 40.1619 3.72719 39.8029 3.18868C39.4439 2.65016 38.7163 2.50454 38.1779 2.86368L35.8341 4.42617C35.2956 4.78515 35.1501 5.51272 35.509 6.05124Z" fill="#5356FF"/>
<path d="M38.1779 25.9074C38.3699 26.0359 38.5958 26.1045 38.8268 26.1044C39.2055 26.1044 39.5771 25.9211 39.8029 25.5825C40.1619 25.0439 40.0164 24.3164 39.4779 23.9574L37.1341 22.3949C36.5958 22.0359 35.8681 22.1813 35.509 22.7199C35.1501 23.2584 35.2956 23.986 35.8341 24.345L38.1779 25.9074Z" fill="#5356FF"/>
<path d="M36.4842 15.5574H38.8279C39.4751 15.5574 39.9998 15.0327 39.9998 14.3856C39.9998 13.7384 39.4751 13.2137 38.8279 13.2137H36.4842C35.837 13.2137 35.3123 13.7384 35.3123 14.3856C35.3123 15.0327 35.837 15.5574 36.4842 15.5574Z" fill="#5356FF"/>
<path d="M18.3281 17.0901C17.48 16.6682 16.9843 15.958 16.9843 15.2347C16.9843 14.3114 16.2358 13.5629 15.3124 13.5629C14.3891 13.5629 13.6406 14.3114 13.6406 15.2347C13.6406 17.849 15.6738 19.9816 18.3281 20.6172V29.1878H16.0937C13.8728 29.1878 11.9769 27.5832 11.5911 25.4189L11.5367 25.1138L11.2392 25.0268C8.62947 24.2636 6.82812 21.8774 6.82812 19.141C6.82812 17.6781 7.34562 16.2807 8.29339 15.1684L8.5697 14.8441L8.29338 14.5198C7.34555 13.4075 6.82812 12.0101 6.82812 10.5473C6.82812 7.81091 8.62948 5.42462 11.2392 4.66141L11.5367 4.57441L11.5911 4.26928C11.977 2.10497 13.8728 0.500443 16.0937 0.500443L16.0938 0.500442C16.8778 0.500236 17.647 0.70196 18.3281 1.08411V17.0901Z" fill="#181818" stroke="#181818"/>
<path d="M23.9061 0.000320435C26.3706 0.000320435 28.4728 1.77984 28.9009 4.18139C31.723 5.00678 33.6718 7.58785 33.6717 10.5472C33.6717 12.1295 33.1115 13.6417 32.0871 14.8441C33.1115 16.0464 33.6717 17.5586 33.6717 19.1409C33.6717 22.1002 31.723 24.6813 28.9009 25.5067C28.4728 27.9083 26.3706 29.6877 23.9061 29.6877H21.1718V11.8759C22.5357 12.2521 23.5155 13.2652 23.5155 14.4534C23.5155 15.1006 24.0402 15.6253 24.6874 15.6253C25.3345 15.6253 25.8592 15.1006 25.8592 14.4534C25.8592 12.0011 23.843 9.94932 21.1718 9.47753V0.801253C21.9878 0.27805 22.9368 6.45855e-05 23.9061 0.000320435Z" fill="#5356FF"/>
<path d="M23.9015 37.5002C23.2198 38.9743 21.7278 40.0002 19.9998 40.0002C18.2719 40.0002 16.7799 38.9743 16.0982 37.5002H23.9015Z" fill="#181818"/>
<path d="M16.0936 35.1564C15.015 35.1564 14.1405 34.282 14.1405 33.2033V32.0315H25.8592V33.2033C25.8592 34.282 24.9847 35.1564 23.9061 35.1564H16.0936Z" fill="#181818"/>
<path d="M3.5145 6.32317H3.51458C3.81321 6.32317 4.10517 6.17877 4.28265 5.91256L3.5145 6.32317ZM3.5145 6.32317C3.33296 6.32323 3.1555 6.26938 3.00462 6.16843L3.00428 6.16821M3.5145 6.32317L3.00428 6.16821M3.00428 6.16821L0.660542 4.60572L0.660535 4.60571M3.00428 6.16821L0.660535 4.60571M0.660535 4.60571C0.236908 4.32332 0.122412 3.75096 0.404803 3.32734L0.660535 4.60571ZM1.68318 3.07168L1.68314 3.07165C1.2597 2.78923 0.687289 2.90362 0.404808 3.32733L1.68318 3.07168ZM1.68318 3.07168L4.02692 4.63417L4.02693 4.63417M1.68318 3.07168L4.02693 4.63417M4.02693 4.63417C4.45055 4.91657 4.56505 5.48892 4.28266 5.91255L4.02693 4.63417ZM1.17303 25.8543H1.17296C0.874348 25.8543 0.582375 25.7099 0.404808 25.4436C0.122411 25.02 0.236906 24.4476 0.660535 24.1652L0.522056 23.9575L0.660542 24.1652L3.00428 22.6027L3.00433 22.6027C3.42782 22.3202 4.00024 22.4347 4.28265 22.8584C4.56505 23.282 4.45056 23.8544 4.02693 24.1368L4.1656 24.3448L4.02692 24.1368L1.68318 25.6993L1.6828 25.6995C1.53196 25.8005 1.35453 25.8544 1.17303 25.8543ZM3.51568 15.3073H1.17194C0.662829 15.3073 0.250073 14.8946 0.250073 14.3855C0.250073 13.8764 0.662828 13.4636 1.17194 13.4636H3.51568C4.02479 13.4636 4.43755 13.8764 4.43755 14.3855C4.43755 14.8946 4.02479 15.3073 3.51568 15.3073Z" fill="#181818" stroke="#181818" stroke-width="0.5"/>
</g>
<defs>
<clipPath id="clip0_148_172">
<rect width="40" height="40" fill="white"/>
</clipPath>
</defs>
</svg>
