<svg width="125" height="125" viewBox="0 0 125 125" fill="none" xmlns="http://www.w3.org/2000/svg" class="w-20 h-20 relative z-[1000001] text-white"><g clip-path="url(#clip0_2777_96)"><path d="M78.3258 44.7463V42.8125C78.3258 36.5925 72.5845 31.5312 65.5283 31.5312C58.472 31.5312 52.7308 36.5912 52.7308 42.8125V43.84H24.832V51.6175H34.9133V82.1862C34.9133 88.4062 40.6545 93.4675 47.7108 93.4675C54.767 93.4675 60.5083 88.4062 60.5083 82.1862V42.8125C60.5083 40.9137 62.807 39.3088 65.5283 39.3088C68.2495 39.3088 70.5483 40.9137 70.5483 42.8125V89.5788H78.3258V55.1213C78.3258 54.8363 78.3758 44.7275 78.3258 44.7463ZM52.7308 82.1862C52.7308 84.0863 50.432 85.69 47.7108 85.69C44.9895 85.69 42.6908 84.085 42.6908 82.1862V51.6175H52.7308V82.1862Z" fill="currentColor"></path><path d="M83.3789 31.531C76.7914 31.531 71.3552 35.941 70.6602 41.5873V52.961H78.3589V42.811C78.3589 40.9123 80.6577 39.3073 83.3789 39.3073C86.1002 39.3073 88.3989 40.9123 88.3989 42.811V89.5773H96.1439V42.2523C95.8102 36.2923 90.2214 31.5298 83.3789 31.5298V31.531Z" fill="currentColor"></path></g></svg>
