<svg xmlns="http://www.w3.org/2000/svg" width="148" height="14" viewBox="0 0 148 14" fill="none"><path fill-rule="evenodd" clip-rule="evenodd" d="M75.755.015l-7.962 13.911h-5.54l-.875-7.36-4.195 7.36H51.65L49.82.015h5.094l.98 7.927L60.447.015h4.746l.875 8.096L70.685.066l5.07-.051zm1.466 0h5.16l-3.062 13.911h-5.16L77.221.015zm22.743 0l-3.061 13.911h-4.244L88.26 7.45l-1.418 6.477h-5.03L84.875.015h4.244l4.39 6.477L94.935.015h5.03zm17.585 0l-3.062 13.911h-4.244l-4.398-6.477-1.418 6.477h-5.03L102.46.015h4.236l4.398 6.477L112.52.015h5.03zm6.779 3.533l-.357 1.62h6.48l-.745 3.378h-6.48l-.397 1.825h7.679l-.81 3.54h-12.725L120.035 0h12.449l-.81 3.533-7.346.015zm23.659 1.038a5.053 5.053 0 01-1.086 3.231c-.762.95-1.824 1.666-3.045 2.054l2.559 4.055h-5.362l-2.162-3.496h-1.272l-.761 3.496h-5.16L134.76.015h6.868a7.956 7.956 0 014.698 1.2c.551.402.99.917 1.28 1.503.29.586.423 1.226.389 1.868h-.008zm-5.225.456c0-.942-.64-1.413-1.927-1.413h-1.726l-.72 3.26h2.122c.6.031 1.192-.142 1.66-.485.2-.175.357-.388.459-.623.102-.235.147-.487.132-.739z" fill="#fff"/><path fill-rule="evenodd" clip-rule="evenodd" d="M13.931 6.787a3.557 3.557 0 011.515 1.082c.365.481.552 1.056.534 1.641a3.37 3.37 0 01-.487 1.915 3.827 3.827 0 01-1.513 1.405 10.576 10.576 0 01-5.152 1.111H0L3.062.03h8.1a7.886 7.886 0 014.049.862c.447.265.811.63 1.057 1.061.245.431.364.912.344 1.397a3.17 3.17 0 01-.72 2.054 4.703 4.703 0 01-2.01 1.384h.05zm-6.52-3.482L6.95 5.373h2.657c1.142 0 1.71-.405 1.71-1.214a.68.68 0 00-.086-.357.762.762 0 00-.263-.276 1.926 1.926 0 00-1.013-.221H7.411zm1.71 7.36c.462.023.919-.1 1.295-.345.16-.11.287-.252.372-.417.085-.164.124-.344.114-.526a.721.721 0 00-.086-.38.806.806 0 00-.279-.297 1.6 1.6 0 00-.907-.243H6.31l-.486 2.209H9.12zM24.25 3.57l-.348 1.634h6.48l-.746 3.379h-6.48l-.388 1.825h7.67l-.81 3.54H16.896L19.957.037h12.441l-.81 3.533H24.25zm12.96.103h-4.48l.81-3.636h14.134l-.81 3.658h-4.48L40.126 14h-5.16l2.252-10.305-.008-.022z" fill="#FFCE06"/></svg>