<svg width="137" height="39" viewBox="0 0 137 39" fill="none" xmlns="http://www.w3.org/2000/svg"><path d="M46.34 28.103V8.738h3.736v6.655c.846-.737 2.046-1.146 3.273-1.146 4.037 0 6.683 3.246 6.683 7.037s-2.646 7.037-6.683 7.037c-1.227 0-2.427-.41-3.272-1.146v.928H46.34zm6.464-10.42c-1.2 0-2.128.519-2.727 1.364v4.5c.6.846 1.527 1.337 2.727 1.337 2.127 0 3.464-1.609 3.464-3.6s-1.337-3.6-3.464-3.6zm17.8 10.42v-1.119c-.9.9-2.21 1.337-3.464 1.337-3.546 0-5.7-2.455-5.7-6.082v-7.774h3.736v7.146c0 1.882.873 3.273 2.618 3.273 1.2 0 2.264-.6 2.81-1.636v-8.783h3.736v13.638h-3.736zm4.712 0l6.682-10.392h-5.837v-3.246h12.11L81.618 24.83h6.273v3.273H75.316zm12.839 0l6.683-10.392H89v-3.246h12.11L94.456 24.83h6.273v3.273H88.155zm20.184.217c-3.982 0-7.091-3.163-7.091-7.036 0-3.873 3.109-7.037 7.091-7.037 3.955 0 7.092 3.164 7.092 7.037 0 3.873-3.137 7.037-7.092 7.037zm0-3.49c1.909 0 3.301-1.5 3.301-3.546s-1.392-3.546-3.301-3.546c-1.936 0-3.327 1.5-3.327 3.546s1.391 3.546 3.327 3.546zm8.78-12.52c-.355-.381-.546-.9-.546-1.5a2.27 2.27 0 012.291-2.29 2.27 2.27 0 012.291 2.29c0 .6-.191 1.119-.545 1.5h-3.491zm-.137 15.793V14.465h3.737v13.638h-3.737zm19.03 0h-3.737v-.928c-.873.737-2.045 1.146-3.3 1.146-4.037 0-6.682-3.246-6.682-7.037s2.645-7.037 6.682-7.037c1.255 0 2.427.41 3.3 1.146V8.738h3.737v19.365zm-6.492-10.42c-2.1 0-3.436 1.61-3.436 3.601 0 1.991 1.336 3.6 3.436 3.6 1.228 0 2.155-.49 2.755-1.336v-4.5c-.6-.846-1.527-1.364-2.755-1.364zM31.823 27.887L17.06 36.245 2.297 27.887V11.173L17.06 2.816l14.763 8.357v16.714z" fill="#292D33"/><path fill-rule="evenodd" clip-rule="evenodd" d="M33.728 28.999l-16.67 9.437L.388 29V10.061L17.059.624l16.67 9.438v18.937zm-16.67 7.246l14.763-8.358V11.173L17.058 2.815 2.296 11.173v16.714l14.762 8.358z" fill="#292D33"/><path d="M29.434 26.645L17.06 33.76 4.687 26.645v-14.23L17.06 5.3l12.374 7.116v14.23z" fill="url(#paint0_linear_5_1927)"/><path d="M29.434 26.645L17.06 33.76 4.687 26.645v-14.23L17.06 5.3l12.374 7.116v14.23z" fill="url(#paint1_linear_5_1927)"/><path d="M17.026 19.564l12.407-7.149v14.23L17.026 33.76V19.564z" fill="#1E041E"/><defs><linearGradient id="paint0_linear_5_1927" x1="35.818" y1="10.932" x2="9.478" y2="23.006" gradientUnits="userSpaceOnUse"><stop stop-color="#FF5C00"/><stop offset=".81" stop-color="#EF612B"/><stop offset="1" stop-color="#E0531D"/></linearGradient><linearGradient id="paint1_linear_5_1927" x1="24.364" y1="7.171" x2="20.171" y2="29.75" gradientUnits="userSpaceOnUse"><stop stop-color="#FAD2A7"/><stop offset=".365" stop-color="#F25064"/><stop offset=".665" stop-color="#F90C30"/><stop offset=".915" stop-color="#F48824"/></linearGradient></defs></svg>