<svg xmlns="http://www.w3.org/2000/svg" xmlns:xlink="http://www.w3.org/1999/xlink" viewBox="0 0 600 236.58"><defs><linearGradient id="a" x1="161.8" y1="-6.84" x2="161.8" y2="125.4" gradientUnits="userSpaceOnUse"><stop offset=".27" stop-color="#e8e8e8"/><stop offset=".49" stop-color="#fff"/></linearGradient><linearGradient id="b" x1="51.1" y1="-22.33" x2="51.1" y2="140.44" xlink:href="#a"/><linearGradient id="c" x1="546.91" y1="-7.75" x2="546.91" y2="127.86" xlink:href="#a"/><linearGradient id="d" x1="429.33" y1="-5.83" x2="429.33" y2="125.49" xlink:href="#a"/><linearGradient id="e" x1="262.36" y1="-22.33" x2="262.36" y2="140.44" xlink:href="#a"/><linearGradient id="f" x1="341.26" y1="-5.28" x2="341.26" y2="125.29" xlink:href="#a"/></defs><g data-name="Layer 2"><path d="M106.23 152.25q12.83 0 20.62 6.12a25.17 25.17 0 019.58 15.31 43.74 43.74 0 01-1 19.79 59.27 59.27 0 01-9.51 19.78 53.71 53.71 0 01-17.74 15.31 48.56 48.56 0 01-23.89 6.13H53.17l22-82.44zm-15.13 19.2l-11.74 44h10a22.86 22.86 0 0011.76-3.24 27.36 27.36 0 008.89-8.18 34.59 34.59 0 004.89-10.6 26 26 0 00.76-10.6 12.93 12.93 0 00-4.53-8.19q-3.8-3.23-10-3.23zm122.9-19.2l-5 18.84h-30.5l-3.11 11.66h28l-5 18.73h-28L166.5 216h31.56l-5 18.73h-52.51l22-82.44zm18.31 82.44h-21.1l22-82.44h36.27a27 27 0 0111.1 2.12 17.52 17.52 0 017.27 5.65 24.3 24.3 0 014.06 17.9 54.08 54.08 0 01-2.7 10.13 35.08 35.08 0 01-5.52 9.66 50.3 50.3 0 01-8 8.12 36.57 36.57 0 01-22.51 7.78H237.9zm25.74-40a9.69 9.69 0 006.24-2.42 15.54 15.54 0 004.45-5.89 25.08 25.08 0 001.95-6.89 8.33 8.33 0 00-1.19-5.88 5.76 5.76 0 00-5.17-2.48h-15.1L243 194.65zm56.22 14.83a4.83 4.83 0 001.32 5 9.69 9.69 0 005.74 2.53 32 32 0 007.58.06 16.64 16.64 0 007.11-2.36 8 8 0 003.89-4.65 4.57 4.57 0 00-.2-3.47 5.06 5.06 0 00-2.85-2.12 20.42 20.42 0 00-4.31-1.06c-1.48-.2-3.41-.37-5.8-.53q-14.21-1.06-20.32-6.83t-2.85-18.49a31.52 31.52 0 0110.79-17.08 37.3 37.3 0 0118.04-8.52 55.12 55.12 0 0118.66 0 19.66 19.66 0 0113.57 8.53q4.62 7 1.81 17.08h-20q1-3.88-1.89-5.95a11.78 11.78 0 00-7.12-2 19.63 19.63 0 00-8.4 2.12 9.79 9.79 0 00-5.38 5.59c-1 2.83-.51 4.81 1.42 5.95s5.08 1.94 9.43 2.41c2.9.32 5.18.59 6.84.83s3.72.63 6.17 1.18a23.86 23.86 0 015.68 1.88 25.55 25.55 0 014.23 2.89 9.56 9.56 0 013.07 4.18 19 19 0 01.94 5.77 28.18 28.18 0 01-1.07 7.77 29.82 29.82 0 01-7.14 12.77 36 36 0 01-11.87 8.54 64.66 64.66 0 01-14.23 4.35 37.56 37.56 0 01-14.33.06 36.7 36.7 0 01-11.8-4.39 16.33 16.33 0 01-7.13-8.83q-2.1-5.82 0-13.25zM62.18 152.29H41.3l-22 82.44h20.9zm-31.41 0H22l-22 82.4h8.81z" fill="#0079bf"/><path d="M272.79 78.22a30.56 30.56 0 00-3.76-1v16.49a15.46 15.46 0 006.12-2.62 7.12 7.12 0 003.33-5.85 6.67 6.67 0 00-1.4-4.36 9.22 9.22 0 00-4.29-2.66zM512.9 61.29a33.9 33.9 0 014.83-14.79 3.17 3.17 0 00-.84-4.19l-5.83-4.26a3.21 3.21 0 00-4.6.9 47.16 47.16 0 00-7.11 21.77 3.21 3.21 0 003.18 3.44h7.21a3.16 3.16 0 003.16-2.87zM150.11 80.36h23.37l-11.83-27.21-11.54 27.21zm97.02-36.23q-.45 5.32 3.77 7.47a18.22 18.22 0 002.2.92v-16c-.36.18-.73.33-1.09.54q-4.59 2.63-4.88 7.07zm286.49 51.61a34.57 34.57 0 01-12.62-9.2 3.14 3.14 0 00-4.24-.48L511 90.29a3.2 3.2 0 00-.57 4.65 48.28 48.28 0 0018.48 13.5 3.2 3.2 0 004.26-2l2.24-6.86a3.15 3.15 0 00-1.79-3.84zm1.89-66.93a3.16 3.16 0 003.71 2.11A34.71 34.71 0 01547 30a34 34 0 017.81.9 3.17 3.17 0 003.72-2.11l2.22-6.79a3.2 3.2 0 00-2.28-4.09A47.53 47.53 0 00547 16.49a47.87 47.87 0 00-11.4 1.37 3.2 3.2 0 00-2.29 4.08zm33.58 51.33a30.4 30.4 0 003.85-15.6 30.14 30.14 0 00-3.85-15.46 23.37 23.37 0 00-9.61-9.46 28.57 28.57 0 00-25 0 23.32 23.32 0 00-9.61 9.46A30 30 0 00521 64.54a30.31 30.31 0 003.85 15.6 23.78 23.78 0 009.61 9.54 27.87 27.87 0 0025 0 23.84 23.84 0 009.63-9.54zM587.55 39a3.21 3.21 0 00-4.6-.9l-5.83 4.24a3.16 3.16 0 00-.85 4.19 33.88 33.88 0 014.8 14.94 3.16 3.16 0 003.15 2.89h10.52v-.26a47.32 47.32 0 00-7.19-25.1zM577 86.24a3.14 3.14 0 00-4.24.46 34.62 34.62 0 01-12.63 9.12 3.16 3.16 0 00-1.78 3.88l2.21 6.87a3.19 3.19 0 004.24 2 48.25 48.25 0 0018.56-13.39 3.21 3.21 0 00-.54-4.66z" fill="none"/><path d="M156 11.3l-46.59 101v3.84h25.88l6.07-13h40.84l6.07 13h25.88v-3.84l-46.73-101zm-5.92 69.06l11.54-27.21 11.83 27.21z" fill="url(#a)"/><path d="M68 88.79a25.25 25.25 0 01-14.87 4.29 23.74 23.74 0 01-18.56-8.5 30 30 0 01-7.17-20.19q0-12.87 7.1-20.85t18.63-8q17.31 0 22.63 15.24h26q-2.81-19.37-16.87-29.35a53 53 0 00-17-8V2.82A2.81 2.81 0 0065.12 0H37.46a2.82 2.82 0 00-2.82 2.82v11.74c-.3.1-.62.18-.92.29a56.35 56.35 0 00-16.93 9.76 45 45 0 00-12.2 16.71A56.3 56.3 0 000 64.39a56.3 56.3 0 004.59 23.07 45 45 0 0012.2 16.72 55.09 55.09 0 0016.93 9.68c.3.11.62.18.92.29v12.09a2.82 2.82 0 002.82 2.82h27.66a2.81 2.81 0 002.81-2.82v-10.85a55.13 55.13 0 006.9-2.12 43.18 43.18 0 0017.83-13.46q7.75-9.54 9.53-23.44h-26A20.77 20.77 0 0168 88.79z" fill="url(#b)"/><path d="M595.41 41.1a46.45 46.45 0 00-12-16.86 54.34 54.34 0 00-17-9.91 56.07 56.07 0 00-38.89 0 54.34 54.34 0 00-17 9.91A46.45 46.45 0 00498.4 41.1a57.61 57.61 0 00-4.59 23.44 58.08 58.08 0 004.59 23.51A46.26 46.26 0 00510.45 105a54.34 54.34 0 0017 9.91 56.22 56.22 0 0038.89 0 54.34 54.34 0 0017-9.91 46.26 46.26 0 0012-16.94A58.08 58.08 0 00600 64.54a57.61 57.61 0 00-4.59-23.44zm-59.83-23.24A47.87 47.87 0 01547 16.49a47.53 47.53 0 0111.48 1.39 3.2 3.2 0 012.27 4.12l-2.23 6.86a3.17 3.17 0 01-3.72 2.11A34 34 0 00547 30a34.71 34.71 0 00-7.76.88 3.16 3.16 0 01-3.71-2.11l-2.22-6.87a3.2 3.2 0 012.27-4.04zm-33.05 46.3a3.21 3.21 0 01-3.18-3.44A47.16 47.16 0 01506.46 39a3.21 3.21 0 014.6-.9l5.83 4.26a3.17 3.17 0 01.84 4.19 33.9 33.9 0 00-4.83 14.79 3.16 3.16 0 01-3.16 2.88zm32.84 35.47l-2.24 6.86a3.2 3.2 0 01-4.26 2 48.28 48.28 0 01-18.48-13.5 3.2 3.2 0 01.57-4.65l5.84-4.23a3.14 3.14 0 014.24.48 34.57 34.57 0 0012.58 9.2 3.15 3.15 0 011.75 3.84zm-.89-9.95a23.78 23.78 0 01-9.61-9.54 30.31 30.31 0 01-3.87-15.6 30 30 0 013.85-15.46 23.32 23.32 0 019.61-9.46 28.57 28.57 0 0125 0 23.37 23.37 0 019.61 9.46 30.14 30.14 0 013.85 15.46 30.4 30.4 0 01-3.85 15.6 23.84 23.84 0 01-9.61 9.54 27.87 27.87 0 01-25 0zm48.9 5.48a48.25 48.25 0 01-18.56 13.39 3.19 3.19 0 01-4.24-2l-2.21-6.87a3.16 3.16 0 011.78-3.88 34.62 34.62 0 0012.63-9.12 3.14 3.14 0 014.24-.46l5.82 4.26a3.21 3.21 0 01.54 4.68zm.84-30.77a3.16 3.16 0 01-3.15-2.89 33.88 33.88 0 00-4.8-14.94 3.16 3.16 0 01.85-4.19l5.88-4.24a3.21 3.21 0 014.6.9 47.32 47.32 0 017.19 25.07v.31z" fill="url(#c)"/><path fill="url(#d)" d="M446.78 63.36l-52.35-51.17h-9.62v103.97h27.36V65.28l52.21 51.02h9.46V12.63h-27.06v50.73z"/><path d="M299.85 68.39a17.63 17.63 0 00-5.25-5.26 47.08 47.08 0 00-6.28-3.62 38.23 38.23 0 00-7.77-2.37c-3.25-.68-6-1.18-8.13-1.47-1-.14-2.11-.28-3.39-.43V35.77a17.05 17.05 0 012.43 1.23 8.21 8.21 0 014.36 7.47H301q.15-12.72-8-21.45a34.38 34.38 0 00-19.89-10.72c-1.35-.23-2.7-.37-4.05-.52V2a2 2 0 00-2-2h-12a2 2 0 00-2 2v9.83c-1.15.14-2.31.24-3.46.44A34.38 34.38 0 00229.82 23q-8.13 8.73-7.83 21.45.13 16 9.76 23.21c5.21 3.94 12.35 6.54 21.35 7.86v17.36a15 15 0 01-3.68-2.09 7.72 7.72 0 01-3.33-6.28h-25.58a29.78 29.78 0 004.43 16.63 30.33 30.33 0 0011.91 11.1 59.56 59.56 0 0016.25 5.46v9.37a2 2 0 002 2h12a2 2 0 002-2v-9.13c.69-.11 1.37-.17 2.06-.31a64 64 0 0016.41-5.47 30.79 30.79 0 0012.06-10.72 28.4 28.4 0 004.65-16 35.07 35.07 0 00-1.28-9.81 29.18 29.18 0 00-3.15-7.24zM253.1 52.52a18.22 18.22 0 01-2.2-.92q-4.22-2.15-3.77-7.47.28-4.44 4.88-7c.36-.21.73-.36 1.09-.54zm22 38.57a15.46 15.46 0 01-6.1 2.62V77.25a30.56 30.56 0 013.76 1 9.22 9.22 0 014.29 2.66 6.67 6.67 0 011.4 4.36 7.12 7.12 0 01-3.3 5.82z" fill="url(#e)"/><path fill="url(#f)" d="M354.35 35.7h12.13V12.63h-50.43V35.7h12.12v57.24h-13.16v23.22h52.5V92.94h-13.16V35.7z"/></g></svg>