<svg xmlns="http://www.w3.org/2000/svg" width="188.922" height="45.751" viewBox="0 0 188.922 45.751"><defs><clipPath id="a"><path data-name="Path 34" d="M370.982 318.864h-.011m-5.852-8.636a2.507 2.507 0 001.913-.885 3.154 3.154 0 015.084 0 2.507 2.507 0 003.823-3.244 8.154 8.154 0 00-12.726 0 2.51 2.51 0 00.287 3.533 2.483 2.483 0 001.619.596zm18.743-.885a3.334 3.334 0 012.542-1.287 3.357 3.357 0 012.536 1.287 2.506 2.506 0 103.821-3.244 8.284 8.284 0 00-6.357-3.055 8.28 8.28 0 00-6.364 3.055 2.506 2.506 0 003.821 3.244zm9.335 4.944a4.587 4.587 0 00-4.589 4.578v9.368a10.756 10.756 0 11-21.511 0l-.005-9.368a4.588 4.588 0 00-9.176 0v9.368a19.935 19.935 0 1039.87 0v-9.369a4.585 4.585 0 00-4.586-4.577z" transform="translate(-357.91 -303.044)" fill="none"/></clipPath><clipPath id="c"><path data-name="Path 37" d="M108.046 316.38h-.011m-53.056 17.783a4.354 4.354 0 00-2.526.836 9.455 9.455 0 01-6.157 2.216c-5.1-.048-8.315-4.129-8.268-9.164v-.122c.046-4.849 3.4-8.932 8.063-8.89a8.891 8.891 0 015.813 2.14 4.374 4.374 0 002.692.945 4.192 4.192 0 004.275-4.135 4.135 4.135 0 00-1.444-3.205c-2.742-2.358-6.229-3.74-11.2-3.786a16.894 16.894 0 00-17.407 16.97v.123a16.8 16.8 0 0016.975 17.162c5.4.049 8.916-1.638 11.7-4.13a3.958 3.958 0 00-2.514-6.96zm25.955-22.62c-4.7 0-7.453 2.5-9.592 5.25v-12.215a4.642 4.642 0 00-9.284 0l-.008 36.037a4.642 4.642 0 009.283 0v-13.987c0-4.4 2.262-6.656 5.8-6.654s5.617 2.259 5.617 6.657v13.987a4.642 4.642 0 009.283 0V323.7c.015-7.513-4.076-12.154-11.099-12.157zm126.912 13.59c-3.542-1.222-6.657-2.078-6.657-3.911v-.122c0-1.283 1.16-2.261 3.42-2.26a17.463 17.463 0 017.085 2.079 3.408 3.408 0 001.709.428 3.651 3.651 0 003.729-3.662 3.783 3.783 0 00-2.2-3.484 22.991 22.991 0 00-10.136-2.507c-6.6 0-11.971 3.724-11.975 10.38v.122c0 6.353 5.189 8.491 9.769 9.837 3.606 1.1 6.78 1.772 6.78 3.788v.123c0 1.465-1.223 2.442-3.911 2.441a17.267 17.267 0 01-8.856-2.933 3.542 3.542 0 00-1.83-.49 3.6 3.6 0 00-3.667 3.664 3.7 3.7 0 001.771 3.178 22.825 22.825 0 0012.338 3.727c7.082 0 12.521-3.294 12.522-10.562v-.123c.002-5.985-5.309-8.185-9.891-9.713zm-30.7-13.567a13.479 13.479 0 00-10.752 5.188c-1.709-3.3-4.947-5.193-9.223-5.193-4.7 0-7.511 2.5-9.65 5.25v-.366a4.642 4.642 0 00-9.284 0l-.007 24.187a4.642 4.642 0 009.285 0l.005-13.985c0-4.4 2.138-6.657 5.619-6.656s5.437 2.261 5.434 6.659v13.987a4.641 4.641 0 109.282 0l.006-13.987c0-4.4 2.138-6.656 5.62-6.656s5.434 2.261 5.434 6.659v13.987a4.641 4.641 0 009.282 0l.003-17.04c0-7.878-4.15-12.032-11.051-12.034z" transform="translate(-28.815 -299.935)"/></clipPath><radialGradient id="b" cx=".5" cy=".5" r=".414" gradientTransform="rotate(-103.53 3.838 -1.276)" gradientUnits="objectBoundingBox"><stop offset=".275" stop-color="#01ca7d"/><stop offset=".381" stop-color="#00a888"/><stop offset=".672" stop-color="#028c90"/></radialGradient></defs><g data-name="Group 124"><g data-name="Group 120"><g data-name="Group 119"><g data-name="Group 118" clip-path="url(#a)" transform="translate(66.159 .625)"><path data-name="Path 33" d="M51.982-1032.89l102.341 424.336-424.338 102.345-102.346-424.333z" transform="translate(225.552 764.322)" fill="url(#b)"/></g></g></g><g data-name="Group 123"><g data-name="Group 122"><path data-name="Path 35" d="M79.231 16.445h-.011M26.164 34.228a4.354 4.354 0 00-2.526.836 9.455 9.455 0 01-6.157 2.216c-5.1-.048-8.315-4.129-8.268-9.164v-.122c.046-4.849 3.4-8.932 8.063-8.89a8.891 8.891 0 015.813 2.14 4.374 4.374 0 002.692.945 4.192 4.192 0 004.275-4.135 4.135 4.135 0 00-1.444-3.205c-2.742-2.358-6.229-3.74-11.2-3.786A16.894 16.894 0 00.005 28.033v.123A16.8 16.8 0 0016.98 45.318c5.4.049 8.916-1.638 11.7-4.13a3.958 3.958 0 00-2.514-6.96zm25.955-22.62c-4.7 0-7.453 2.5-9.592 5.25V4.643a4.642 4.642 0 00-9.284 0l-.008 36.037a4.642 4.642 0 009.283 0V26.693c0-4.4 2.262-6.656 5.8-6.654s5.617 2.259 5.617 6.657v13.987a4.642 4.642 0 009.283 0V23.765c.015-7.513-4.076-12.154-11.099-12.157zm126.912 13.59c-3.542-1.222-6.657-2.078-6.657-3.911v-.122c0-1.283 1.16-2.261 3.42-2.26a17.463 17.463 0 017.085 2.079 3.408 3.408 0 001.709.428 3.651 3.651 0 003.729-3.662 3.783 3.783 0 00-2.2-3.484 22.991 22.991 0 00-10.136-2.507c-6.6 0-11.971 3.724-11.975 10.38v.122c0 6.353 5.189 8.491 9.769 9.837 3.606 1.1 6.78 1.772 6.78 3.788v.123c0 1.465-1.223 2.442-3.911 2.441a17.267 17.267 0 01-8.856-2.933 3.542 3.542 0 00-1.83-.49 3.6 3.6 0 00-3.667 3.664 3.7 3.7 0 001.771 3.178 22.825 22.825 0 0012.338 3.727c7.082 0 12.521-3.294 12.522-10.562v-.123c.002-5.985-5.309-8.185-9.891-9.713zm-30.7-13.567a13.479 13.479 0 00-10.752 5.188c-1.709-3.3-4.947-5.193-9.223-5.193-4.7 0-7.511 2.5-9.65 5.25v-.366a4.642 4.642 0 00-9.284 0l-.007 24.187a4.643 4.643 0 009.285 0l.005-13.985c0-4.4 2.138-6.657 5.619-6.656s5.437 2.261 5.434 6.659v13.987a4.641 4.641 0 109.282 0l.006-13.987c0-4.4 2.138-6.656 5.62-6.656s5.434 2.261 5.434 6.659v13.987a4.641 4.641 0 009.282 0l.003-17.04c0-7.878-4.15-12.032-11.051-12.034z"/><g data-name="Group 121" clip-path="url(#c)"><path data-name="Path 36" d="M343.693-267.943l102.341 424.336L21.696 258.738-80.65-165.595z"/></g></g></g></g></svg>