<svg xmlns="http://www.w3.org/2000/svg" xmlns:xlink="http://www.w3.org/1999/xlink" width="188.922" height="45.751" viewBox="0 0 188.922 45.751">
  <defs>
    <clipPath id="clip-path">
      <path id="Path_34" data-name="Path 34" d="M370.982,318.864h-.011m-5.852-8.636a2.507,2.507,0,0,0,1.913-.885,3.154,3.154,0,0,1,5.084,0,2.507,2.507,0,0,0,3.823-3.244,8.154,8.154,0,0,0-12.726,0,2.51,2.51,0,0,0,.287,3.533A2.483,2.483,0,0,0,365.119,310.228Zm18.743-.885a3.334,3.334,0,0,1,2.542-1.287h0a3.357,3.357,0,0,1,2.536,1.287,2.506,2.506,0,1,0,3.821-3.244,8.284,8.284,0,0,0-6.357-3.055h0a8.28,8.28,0,0,0-6.364,3.055,2.506,2.506,0,0,0,3.821,3.244Zm9.335,4.944a4.587,4.587,0,0,0-4.589,4.578h0l0,9.368a10.756,10.756,0,1,1-21.511,0l-.005-9.368h0a4.588,4.588,0,0,0-9.176,0h0v9.368a19.935,19.935,0,1,0,39.87,0l0-9.369A4.585,4.585,0,0,0,393.2,314.287Z" transform="translate(-357.91 -303.044)" fill="none"/>
    </clipPath>
    <radialGradient id="radial-gradient" cx="0.5" cy="0.5" r="0.414" gradientTransform="matrix(-0.234, -0.972, 0.972, -0.234, 5.976, 2.156)" gradientUnits="objectBoundingBox">
      <stop offset="0.275" stop-color="#01ca7d"/>
      <stop offset="0.381" stop-color="#00a888"/>
      <stop offset="0.672" stop-color="#028c90"/>
    </radialGradient>
    <clipPath id="clip-path-2">
      <path id="Path_37" data-name="Path 37" d="M108.046,316.38h-.011M54.979,334.163a4.354,4.354,0,0,0-2.526.836,9.455,9.455,0,0,1-6.157,2.216c-5.1-.048-8.315-4.129-8.268-9.164v-.122c.046-4.849,3.4-8.932,8.063-8.89a8.891,8.891,0,0,1,5.813,2.14,4.374,4.374,0,0,0,2.692.945,4.192,4.192,0,0,0,4.275-4.135,4.135,4.135,0,0,0-1.444-3.205c-2.742-2.358-6.229-3.74-11.2-3.786a16.894,16.894,0,0,0-17.407,16.97l0,.123a16.8,16.8,0,0,0,16.975,17.162c5.4.049,8.916-1.638,11.7-4.13a3.958,3.958,0,0,0-2.514-6.96Zm25.955-22.62c-4.7,0-7.453,2.5-9.592,5.25l0-12.215a4.642,4.642,0,0,0-9.284,0l-.008,36.037a4.642,4.642,0,0,0,9.283,0l0-13.987c0-4.4,2.262-6.656,5.8-6.654s5.617,2.259,5.617,6.657l0,13.987a4.642,4.642,0,0,0,9.283,0l0-16.918C92.048,316.187,87.957,311.546,80.934,311.543Zm126.912,13.59c-3.542-1.222-6.657-2.078-6.657-3.911V321.1c0-1.283,1.16-2.261,3.42-2.26a17.463,17.463,0,0,1,7.085,2.079,3.408,3.408,0,0,0,1.709.428,3.651,3.651,0,0,0,3.729-3.662,3.783,3.783,0,0,0-2.2-3.484,22.991,22.991,0,0,0-10.136-2.507c-6.6,0-11.971,3.724-11.975,10.38v.122c0,6.353,5.189,8.491,9.769,9.837,3.606,1.1,6.78,1.772,6.78,3.788v.123c0,1.465-1.223,2.442-3.911,2.441a17.267,17.267,0,0,1-8.856-2.933,3.542,3.542,0,0,0-1.83-.49,3.6,3.6,0,0,0-3.667,3.664,3.7,3.7,0,0,0,1.771,3.178,22.825,22.825,0,0,0,12.338,3.727c7.082,0,12.521-3.294,12.522-10.562v-.123C217.739,328.861,212.428,326.661,207.846,325.133Zm-30.7-13.567a13.479,13.479,0,0,0-10.752,5.188c-1.709-3.3-4.947-5.193-9.223-5.193-4.7,0-7.511,2.5-9.65,5.25v-.366a4.642,4.642,0,0,0-9.284,0l-.007,24.187a4.642,4.642,0,0,0,9.285,0l.005-13.985c0-4.4,2.138-6.657,5.619-6.656s5.437,2.261,5.434,6.659l0,13.987a4.641,4.641,0,1,0,9.282,0l.006-13.987c0-4.4,2.138-6.656,5.62-6.656s5.434,2.261,5.434,6.659l0,13.987a4.641,4.641,0,0,0,9.282,0L188.2,323.6C188.2,315.722,184.05,311.568,177.149,311.566Z" transform="translate(-28.815 -299.935)"/>
    </clipPath>
  </defs>
  <g id="chums_logo_nav" transform="translate(-50 -116)">
    <g id="Group_124" data-name="Group 124" transform="translate(50 116)">
      <g id="Group_120" data-name="Group 120" transform="translate(66.159 0.625)">
        <g id="Group_119" data-name="Group 119" transform="translate(0 0)">
          <g id="Group_118" data-name="Group 118" clip-path="url(#clip-path)">
            <path id="Path_33" data-name="Path 33" d="M51.982-1032.89,154.323-608.554-270.015-506.209-372.361-930.542Z" transform="translate(225.552 764.322)" fill="url(#radial-gradient)"/>
          </g>
        </g>
      </g>
      <g id="Group_123" data-name="Group 123" transform="translate(0 0)">
        <g id="Group_122" data-name="Group 122" transform="translate(0)">
          <path id="Path_35" data-name="Path 35" d="M108.046,316.38h-.011M54.979,334.163a4.354,4.354,0,0,0-2.526.836,9.455,9.455,0,0,1-6.157,2.216c-5.1-.048-8.315-4.129-8.268-9.164v-.122c.046-4.849,3.4-8.932,8.063-8.89a8.891,8.891,0,0,1,5.813,2.14,4.374,4.374,0,0,0,2.692.945,4.192,4.192,0,0,0,4.275-4.135,4.135,4.135,0,0,0-1.444-3.205c-2.742-2.358-6.229-3.74-11.2-3.786a16.894,16.894,0,0,0-17.407,16.97l0,.123a16.8,16.8,0,0,0,16.975,17.162c5.4.049,8.916-1.638,11.7-4.13a3.958,3.958,0,0,0-2.514-6.96Zm25.955-22.62c-4.7,0-7.453,2.5-9.592,5.25l0-12.215a4.642,4.642,0,0,0-9.284,0l-.008,36.037a4.642,4.642,0,0,0,9.283,0l0-13.987c0-4.4,2.262-6.656,5.8-6.654s5.617,2.259,5.617,6.657l0,13.987a4.642,4.642,0,0,0,9.283,0l0-16.918C92.048,316.187,87.957,311.546,80.934,311.543Zm126.912,13.59c-3.542-1.222-6.657-2.078-6.657-3.911V321.1c0-1.283,1.16-2.261,3.42-2.26a17.463,17.463,0,0,1,7.085,2.079,3.408,3.408,0,0,0,1.709.428,3.651,3.651,0,0,0,3.729-3.662,3.783,3.783,0,0,0-2.2-3.484,22.991,22.991,0,0,0-10.136-2.507c-6.6,0-11.971,3.724-11.975,10.38v.122c0,6.353,5.189,8.491,9.769,9.837,3.606,1.1,6.78,1.772,6.78,3.788v.123c0,1.465-1.223,2.442-3.911,2.441a17.267,17.267,0,0,1-8.856-2.933,3.542,3.542,0,0,0-1.83-.49,3.6,3.6,0,0,0-3.667,3.664,3.7,3.7,0,0,0,1.771,3.178,22.825,22.825,0,0,0,12.338,3.727c7.082,0,12.521-3.294,12.522-10.562v-.123C217.739,328.861,212.428,326.661,207.846,325.133Zm-30.7-13.567a13.479,13.479,0,0,0-10.752,5.188c-1.709-3.3-4.947-5.193-9.223-5.193-4.7,0-7.511,2.5-9.65,5.25v-.366a4.642,4.642,0,0,0-9.284,0l-.007,24.187a4.642,4.642,0,0,0,9.285,0l.005-13.985c0-4.4,2.138-6.657,5.619-6.656s5.437,2.261,5.434,6.659l0,13.987a4.641,4.641,0,1,0,9.282,0l.006-13.987c0-4.4,2.138-6.656,5.62-6.656s5.434,2.261,5.434,6.659l0,13.987a4.641,4.641,0,0,0,9.282,0L188.2,323.6C188.2,315.722,184.05,311.568,177.149,311.566Z" transform="translate(-28.815 -299.935)"/>
          <g id="Group_121" data-name="Group 121" clip-path="url(#clip-path-2)">
            <path id="Path_36" data-name="Path 36" d="M51.982-1032.89,154.323-608.554-270.015-506.209-372.361-930.542Z" transform="translate(291.711 764.947)"/>
          </g>
        </g>
      </g>
    </g>
  </g>
</svg>
