<svg width="155" height="37" viewBox="0 0 155 37" fill="none" xmlns="http://www.w3.org/2000/svg"><path d="M19.847 29.506c.354 0 .695.003 1.035 0 1.355-.015 2.707-.026 4.063-.047.862-.014 1.727.035 2.589-.089.507-.075.983-.205 1.398-.522.358-.274.56-.628.603-1.07a1.021 1.021 0 00-.052-.394c-.04-.127-.15-.2-.291-.194a.276.276 0 00-.269.202.586.586 0 00-.008.213.817.817 0 01-.297.701c-.245.21-.53.352-.85.395-.48.06-.964.127-1.445.139a219.24 219.24 0 01-4.135.06c-1.142.009-2.286.009-3.428 0-.874-.006-1.747-.037-2.621-.052-.822-.014-1.643-.006-2.462-.037-.444-.018-.894-.058-1.306-.251-.427-.202-.744-.493-.69-1 .024-.205-.086-.347-.26-.367-.172-.02-.32.104-.35.306-.064.395.045.747.287 1.05.34.429.808.651 1.335.76.188.038.375.058.563.087v.75c.003.493.078.966.374 1.378.225.314.528.53.914.57.569.061 1.024-.158 1.35-.63.28-.407.375-.868.395-1.35.008-.21 0-.418 0-.634h.519c0 .132-.006.25 0 .369.014.357.009.72.06 1.075.078.508.352.885.845 1.078.761.297 1.727-.106 1.975-1 .133-.487.188-.992.159-1.496zM9.753 21.08c.031-.395-.447-1.05-.903-1.038-.591.017-1.064.432-1.07.983-.005.735.36 1.055.958 1.09.582.034 1.009-.427 1.015-1.035zm23.054 0c.003-.586-.447-1.027-1.047-1.032-.452-.003-.925.521-.925 1.023 0 .608.418 1.07 1.003 1.044.586-.026.958-.335.97-1.035z" fill="#fff"/><path d="M40.093 16.877c-.311-.063-.614-.141-.917-.182a1.9 1.9 0 00-.585.015c-.265.049-.415.282-.337.539.057.187.15.36.273.513.496.6.894 1.249 1.12 1.995.005.023.014.047.017.07 0 .014-.003.028-.006.046-.168-.04-.329-.093-.496-.113a4.365 4.365 0 00-.672-.052c-.398.01-.583.367-.378.704.03.049.064.098.098.141.82.955 1.275 2.076 1.514 3.299.159.807.13 1.614-.035 2.416-.005.032-.02.063-.037.118-.04-.058-.07-.098-.095-.138-.297-.447-.684-.79-1.188-.99a1.295 1.295 0 00-.205-.063c-.328-.072-.59.121-.574.456.015.213.06.427.133.628.199.583.332 1.177.32 1.79-.006.332-.075.661-.118.99l-.052.003a1.225 1.225 0 00-.11-.162c-.19-.201-.363-.43-.582-.59-.49-.361-.977.031-1.006.484-.023.386-.026.778-.156 1.153a5.926 5.926 0 01-2.485 3.163c-1.226.781-2.529 1.387-3.896 1.874-.937.334-1.882.631-2.854.836-.6.127-1.211.208-1.82.283-.562.069-1.127.11-1.692.147-1.496.104-2.996.034-4.492.054-.825.01-1.64-.063-2.46-.118-.573-.04-1.138-.158-1.712-.227-.848-.101-1.667-.326-2.48-.574-1.087-.335-2.16-.718-3.183-1.214-.972-.473-1.929-.98-2.748-1.698-.59-.52-1.038-1.16-1.38-1.866a4.006 4.006 0 01-.413-1.779.63.63 0 00-.392-.605c-.24-.11-.473-.043-.658.12-.193.17-.36.37-.536.557-.043.05-.072.11-.127.188-.176-.617-.213-1.211-.086-1.802.083-.398.207-.788.311-1.183.035-.138.072-.28.078-.423.014-.37-.242-.574-.603-.482-.519.136-.914.456-1.24.868-.077.098-.144.202-.256.3-.04-.288-.098-.574-.121-.865-.13-1.609.331-3.065 1.173-4.414.075-.122.17-.231.26-.346.075-.096.156-.185.225-.283.11-.156.176-.329.075-.51-.101-.182-.274-.24-.473-.248a2.946 2.946 0 00-.937.13l-.205.054c.066-.19.115-.357.179-.519.233-.59.582-1.11.98-1.603.124-.155.22-.334.277-.524a.405.405 0 00-.32-.525 1.974 1.974 0 00-.597-.02c-.306.037-.605.118-.911.178a.581.581 0 01.02-.066c.43-.949.986-1.814 1.73-2.546.366-.36.741-.712 1.119-1.061a.2.2 0 01.158-.046c1.064.21 2.033.029 2.907-.646.847-.655 1.23-1.534 1.34-2.563.026-.237.024-.476.035-.724.052-.006.104-.009.156-.014a.808.808 0 00.654-1.107c-.135-.367-.38-.652-.689-.889-.052-.04-.11-.08-.161-.12a.328.328 0 01-.044-.067c.104 0 .19-.017.266.003.253.066.51.13.755.225.28.112.545.262.822.386.256.116.527.19.81.144.358-.057.565-.28.591-.64.012-.23.009-.458-.014-.689-.009-.11.023-.15.12-.13.107.02.214.055.315.096.265.112.525.236.79.346.421.175.73.049 1.015-.323.112-.147.199-.318.291-.479.064-.112.147-.133.251-.072.098.058.196.121.288.187a2.66 2.66 0 001.341.514c.436.037.87-.078 1.228-.332a.683.683 0 00.104-1.035c-.112-.124-.236-.237-.366-.363.22-.104.433-.064.631-.023.517.1.986.308 1.384.666.13.115.266.222.398.331.485.4 1.015.447 1.552.139.317-.182.602-.424.905-.638.124-.089.25-.176.392-.274.066.145.124.269.182.393.155.34.496.493.847.357.214-.084.421-.184.623-.3.594-.346 1.217-.623 1.906-.698.28-.028.565.006.845.015a.374.374 0 01.11.034c.146.064.155.107.06.234-.153.202-.326.392-.453.611-.245.43-.187.805.136 1.116.173.164.4.26.64.268.245.012.487-.006.726-.052.395-.072.785-.17 1.2-.262-.029.133-.055.234-.072.337-.067.372.11.635.4.83.26.174.528.119.77-.048.222-.153.43-.323.643-.488.395-.305.782-.625 1.24-.833.15-.066.309-.112.47-.141-.02.029-.04.06-.06.086a2.067 2.067 0 00-.459 1.278c0 .547.447 1.251 1.162 1.349.08.012.162.02.265.035v.369c-.003.738.159 1.441.554 2.058.562.877 1.355 1.44 2.41 1.583.447.06.888.072 1.33-.049.034-.008.092.015.123.043.744.638 1.43 1.327 2.013 2.114.37.49.623 1.038.888 1.577z" fill="#D2FF71"/><path d="M40.093 16.877c-.311-.063-.614-.141-.917-.182a1.9 1.9 0 00-.585.015c-.265.049-.415.282-.337.539.057.187.15.36.273.513.496.6.894 1.249 1.12 1.995.005.023.014.047.017.07 0 .014-.003.028-.006.046-.168-.04-.329-.093-.496-.113a4.365 4.365 0 00-.672-.052c-.398.01-.583.367-.378.704.03.049.064.098.098.141.82.955 1.275 2.076 1.514 3.299.159.807.13 1.614-.035 2.416-.005.032-.02.063-.037.118-.04-.058-.07-.098-.095-.138-.297-.447-.684-.79-1.188-.99a1.295 1.295 0 00-.205-.063c-.328-.072-.59.121-.574.456.015.213.06.427.133.628.199.583.332 1.177.32 1.79-.006.332-.075.661-.118.99l-.052.003a1.225 1.225 0 00-.11-.162c-.19-.201-.363-.43-.582-.59-.49-.361-.977.031-1.006.484-.023.386-.026.778-.156 1.153a5.926 5.926 0 01-2.485 3.163c-1.226.781-2.529 1.387-3.896 1.874-.937.334-1.882.631-2.854.836-.6.127-1.211.208-1.82.283-.562.069-1.127.11-1.692.147-1.496.104-2.996.034-4.492.054-.825.01-1.64-.063-2.46-.118-.573-.04-1.138-.158-1.712-.227-.848-.101-1.667-.326-2.48-.574-1.087-.335-2.16-.718-3.183-1.214-.972-.473-1.929-.98-2.748-1.698-.59-.52-1.038-1.16-1.38-1.866a4.006 4.006 0 01-.413-1.779.63.63 0 00-.392-.605c-.24-.11-.473-.043-.658.12-.193.17-.36.37-.536.557-.043.05-.072.11-.127.188-.176-.617-.213-1.211-.086-1.802.083-.398.207-.788.311-1.183.035-.138.072-.28.078-.423.014-.37-.242-.574-.603-.482-.519.136-.914.456-1.24.868-.077.098-.144.202-.256.3-.04-.288-.098-.574-.121-.865-.13-1.609.331-3.065 1.173-4.414.075-.122.17-.231.26-.346.075-.096.156-.185.225-.283.11-.156.176-.329.075-.51-.101-.182-.274-.24-.473-.248a2.946 2.946 0 00-.937.13l-.205.054c.066-.19.115-.357.179-.519.233-.59.582-1.11.98-1.603.124-.155.22-.334.277-.524a.405.405 0 00-.32-.525 1.974 1.974 0 00-.597-.02c-.306.037-.605.118-.911.178a.581.581 0 01.02-.066c.43-.949.986-1.814 1.73-2.546.366-.36.741-.712 1.119-1.061a.2.2 0 01.158-.046c1.064.21 2.033.029 2.907-.646.847-.655 1.23-1.534 1.34-2.563.026-.237.024-.476.035-.724.052-.006.104-.009.156-.014a.808.808 0 00.654-1.107c-.135-.367-.38-.652-.689-.889-.052-.04-.11-.08-.161-.12a.328.328 0 01-.044-.067c.104 0 .19-.017.266.003.253.066.51.13.755.225.28.112.545.262.822.386.256.116.527.19.81.144.358-.057.565-.28.591-.64.012-.23.009-.458-.014-.689-.009-.11.023-.15.12-.13.107.02.214.055.315.096.265.112.525.236.79.346.421.175.73.049 1.015-.323.112-.147.199-.318.291-.479.064-.112.147-.133.251-.072.098.058.196.121.288.187a2.66 2.66 0 001.341.514c.436.037.87-.078 1.228-.332a.683.683 0 00.104-1.035c-.112-.124-.236-.237-.366-.363.22-.104.433-.064.631-.023.517.1.986.308 1.384.666.13.115.266.222.398.331.485.4 1.015.447 1.552.139.317-.182.602-.424.905-.638.124-.089.25-.176.392-.274.066.145.124.269.182.393.155.34.496.493.847.357.214-.084.421-.184.623-.3.594-.346 1.217-.623 1.906-.698.28-.028.565.006.845.015a.374.374 0 01.11.034c.146.064.155.107.06.234-.153.202-.326.392-.453.611-.245.43-.187.805.136 1.116.173.164.4.26.64.268.245.012.487-.006.726-.052.395-.072.785-.17 1.2-.262-.029.133-.055.234-.072.337-.067.372.11.635.4.83.26.174.528.119.77-.048.222-.153.43-.323.643-.488.395-.305.782-.625 1.24-.833.15-.066.309-.112.47-.141-.02.029-.04.06-.06.086a2.067 2.067 0 00-.459 1.278c0 .547.447 1.251 1.162 1.349.08.012.162.02.265.035v.369c-.003.738.159 1.441.554 2.058.562.877 1.355 1.44 2.41 1.583.447.06.888.072 1.33-.049.034-.008.092.015.123.043.744.638 1.43 1.327 2.013 2.114.37.49.623 1.038.888 1.577z" fill="#FE5A13"/><path d="M35.513 6.399c.998.346 1.955.38 2.869-.277.026.133.052.257.07.38.14 1.021.097 2.04-.041 3.06-.08.597-.268 1.159-.488 1.712-.172.43-.438.802-.758 1.13-.098.102-.268.153-.415.177-1.122.17-2.053-.2-2.75-1.082-.41-.516-.574-1.144-.592-1.805a7.07 7.07 0 01.012-.605c.003-.058.035-.139.08-.17.727-.505 1.246-1.191 1.699-1.935.115-.19.207-.39.314-.585z" fill="#fff"/><path d="M35.513 6.399c.998.346 1.955.38 2.869-.277.026.133.052.257.07.38.14 1.021.097 2.04-.041 3.06-.08.597-.268 1.159-.488 1.712-.172.43-.438.802-.758 1.13-.098.102-.268.153-.415.177-1.122.17-2.053-.2-2.75-1.082-.41-.516-.574-1.144-.592-1.805a7.07 7.07 0 01.012-.605c.003-.058.035-.139.08-.17.727-.505 1.246-1.191 1.699-1.935.115-.19.207-.39.314-.585z" fill="#FE5A13"/><path d="M2.177 6.102c.943.674 1.903.646 2.898.294.095.181.182.369.288.545.421.706.903 1.366 1.575 1.854.19.138.242.285.247.498.026.692-.072 1.361-.438 1.955-.464.753-1.13 1.237-2.03 1.332a4.902 4.902 0 01-.873-.002.744.744 0 01-.499-.254c-.56-.6-.842-1.338-1.035-2.11-.234-.935-.288-1.89-.245-2.847.014-.409.069-.818.112-1.265z" fill="#fff"/><path d="M2.177 6.102c.943.674 1.903.646 2.898.294.095.181.182.369.288.545.421.706.903 1.366 1.575 1.854.19.138.242.285.247.498.026.692-.072 1.361-.438 1.955-.464.753-1.13 1.237-2.03 1.332a4.902 4.902 0 01-.873-.002.744.744 0 01-.499-.254c-.56-.6-.842-1.338-1.035-2.11-.234-.935-.288-1.89-.245-2.847.014-.409.069-.818.112-1.265z" fill="#FE5A13"/><path d="M35.768 5.815l.167-1.523c.6.084 1.153-.092 1.65-.507.066.15.132.291.19.438.132.343.259.692.395 1.035.043.11.011.176-.064.254a1.56 1.56 0 01-.943.476c-.49.063-.968.026-1.395-.173z" fill="#fff"/><path d="M35.768 5.815l.167-1.523c.6.084 1.153-.092 1.65-.507.066.15.132.291.19.438.132.343.259.692.395 1.035.043.11.011.176-.064.254a1.56 1.56 0 01-.943.476c-.49.063-.968.026-1.395-.173z" fill="#FE5A13"/><path d="M3.004 3.795c.692.473.943.545 1.646.502l.17 1.537c-.187.046-.415.124-.645.155-.462.06-.92.04-1.341-.202-.038-.023-.075-.04-.113-.066-.351-.236-.371-.297-.219-.689l.433-1.096c.02-.046.046-.092.07-.14z" fill="#fff"/><path d="M3.004 3.795c.692.473.943.545 1.646.502l.17 1.537c-.187.046-.415.124-.645.155-.462.06-.92.04-1.341-.202-.038-.023-.075-.04-.113-.066-.351-.236-.371-.297-.219-.689l.433-1.096c.02-.046.046-.092.07-.14z" fill="#FE5A13"/><path d="M4.392 3.702a1.574 1.574 0 01-.822-.257c-.225-.15-.257-.274-.118-.501.475-.8 1.032-1.529 1.845-2.022.138-.086.288-.155.441-.207.228-.075.355.034.311.268a.952.952 0 01-.158.378c-.268.374-.554.74-.73 1.17-.13.315-.236.637-.34.96-.029.09-.06.142-.156.156-.1.017-.204.043-.273.055z" fill="#fff"/><path d="M4.392 3.702a1.574 1.574 0 01-.822-.257c-.225-.15-.257-.274-.118-.501.475-.8 1.032-1.529 1.845-2.022.138-.086.288-.155.441-.207.228-.075.355.034.311.268a.952.952 0 01-.158.378c-.268.374-.554.74-.73 1.17-.13.315-.236.637-.34.96-.029.09-.06.142-.156.156-.1.017-.204.043-.273.055z" fill="#FE5A13"/><path d="M36.258 3.704c-.055-.003-.087-.003-.122-.009-.323-.038-.323-.038-.41-.346a5.248 5.248 0 00-.922-1.825c-.127-.162-.256-.323-.276-.545-.02-.23.089-.335.31-.262.157.051.304.12.442.204.692.415 1.202 1.01 1.635 1.675.095.15.181.306.277.456.051.08.037.15-.015.225-.17.242-.435.32-.7.39-.072.02-.145.03-.22.037z" fill="#fff"/><path d="M36.258 3.704c-.055-.003-.087-.003-.122-.009-.323-.038-.323-.038-.41-.346a5.248 5.248 0 00-.922-1.825c-.127-.162-.256-.323-.276-.545-.02-.23.089-.335.31-.262.157.051.304.12.442.204.692.415 1.202 1.01 1.635 1.675.095.15.181.306.277.456.051.08.037.15-.015.225-.17.242-.435.32-.7.39-.072.02-.145.03-.22.037z" fill="#FE5A13"/><path d="M19.846 29.504a4.698 4.698 0 01-.159 1.5c-.248.893-1.214 1.297-1.975 1-.493-.193-.77-.57-.845-1.078-.052-.355-.043-.715-.06-1.076-.006-.118 0-.236 0-.369h-.52c0 .214.01.424 0 .635-.02.481-.115.942-.394 1.349-.326.473-.782.692-1.35.631-.386-.04-.686-.256-.914-.57-.297-.413-.372-.889-.374-1.379-.003-.245 0-.487 0-.75-.188-.028-.378-.048-.563-.086-.524-.11-.994-.331-1.335-.761a1.303 1.303 0 01-.288-1.05c.032-.201.176-.325.352-.305.176.02.282.161.26.366-.055.508.262.799.688 1 .413.197.863.234 1.306.251.82.035 1.641.023 2.463.038.873.014 1.747.043 2.62.052a247.837 247.837 0 007.563-.06c.482-.012.966-.079 1.445-.14.32-.04.606-.184.85-.394a.807.807 0 00.295-.7.587.587 0 01.008-.214c.038-.127.136-.196.268-.202.142-.006.251.063.292.193.043.127.06.262.052.395a1.483 1.483 0 01-.603 1.07c-.415.317-.89.447-1.398.522-.863.127-1.728.078-2.59.09-1.355.02-2.707.03-4.062.045-.337 0-.678-.003-1.032-.003zm-5.957-.046c-.006.09-.015.17-.018.251-.014.418-.023.833.133 1.234.234.597.914.73 1.312.248.087-.107.159-.228.208-.357.161-.416.173-.851.12-1.29-.002-.031-.063-.083-.097-.083-.545-.006-1.093-.003-1.658-.003zm3.52.046c.02.444.026.883.067 1.315a.684.684 0 00.467.606.865.865 0 001.136-.551c.144-.424.17-.865.144-1.31a.516.516 0 00-.023-.06h-1.79zM9.753 21.08c-.006.612-.433 1.07-1.015 1.036-.597-.035-.966-.355-.958-1.09.006-.554.479-.969 1.07-.983.456-.012.934.643.903 1.038zm23.054 0c-.011.701-.383 1.013-.969 1.036-.585.023-1.003-.436-1.003-1.044 0-.502.473-1.026.925-1.023.603.002 1.05.444 1.047 1.032z" fill="#fff"/><path d="M13.89 29.459c.565 0 1.11 0 1.658.003.034 0 .095.052.098.083.052.439.04.874-.121 1.29a1.33 1.33 0 01-.208.357c-.398.481-1.075.349-1.312-.248-.155-.4-.15-.816-.132-1.234.003-.08.011-.162.017-.251zm3.52.045h1.79c.011.02.02.04.023.06.026.445 0 .886-.144 1.31a.867.867 0 01-1.136.55.684.684 0 01-.467-.605c-.04-.435-.046-.87-.067-1.315z" fill="#fff"/><path d="M58.565 31.184c-1.253 0-2.403-.223-3.45-.67a8.284 8.284 0 01-2.679-1.905c-.738-.824-1.313-1.794-1.725-2.91-.412-1.133-.618-2.369-.618-3.708v-.128c0-1.34.223-2.567.67-3.683a8.908 8.908 0 011.854-2.935 8.454 8.454 0 012.806-1.932c1.082-.463 2.267-.695 3.554-.695h.052c1.648 0 3.09.36 4.326 1.082a9.021 9.021 0 013.09 2.935l-2.73 1.725c-.498-.892-1.116-1.57-1.854-2.034-.72-.48-1.596-.72-2.626-.72h-.052c-.841 0-1.605.154-2.292.463a5.31 5.31 0 00-1.776 1.287c-.481.55-.859 1.21-1.134 1.983-.257.755-.386 1.597-.386 2.524v.154c0 .927.129 1.768.386 2.524a6.104 6.104 0 001.133 1.957c.498.532 1.09.953 1.777 1.261.687.292 1.45.438 2.292.438h.052c.703 0 1.339-.094 1.905-.283a4.444 4.444 0 001.442-.773c.395-.343.696-.738.901-1.184.224-.446.335-.919.335-1.416v-.36h-4.017v-2.834h7.159v9.58h-2.447c-.103-.189-.197-.472-.283-.85-.068-.395-.12-.773-.154-1.133-.567.67-1.33 1.21-2.292 1.622a7.633 7.633 0 01-3.039.618h-.18zm11.767-13.648h2.524c.085.258.163.567.231.927a5.7 5.7 0 01.155.979 5.22 5.22 0 011.88-1.39c.755-.344 1.596-.516 2.523-.516h.31v3.09a2.268 2.268 0 00-.85-.154c-1.168 0-2.06.3-2.679.901-.6.601-.9 1.417-.9 2.447v7.107h-3.194v-13.39zM84.05 31.184a6.16 6.16 0 01-1.906-.283 4.866 4.866 0 01-1.468-.824 3.735 3.735 0 01-.979-1.262 3.921 3.921 0 01-.334-1.622v-.18c0-2.902 2.695-4.352 8.085-4.352h1.082v-.592c0-.653-.24-1.176-.721-1.571-.48-.395-1.167-.593-2.06-.593h-.077c-.704 0-1.442.12-2.215.361a9.004 9.004 0 00-2.137 1.004l-1.314-2.317a11.625 11.625 0 012.73-1.236 10.452 10.452 0 013.116-.464h.154c.807 0 1.545.103 2.215.31.67.205 1.253.514 1.751.926.498.412.884.919 1.159 1.52.275.6.412 1.304.412 2.111v6.052c0 .463.043.927.129 1.39.085.464.197.918.334 1.365h-3.038a5.101 5.101 0 01-.232-.721 15.432 15.432 0 01-.129-.876 6.6 6.6 0 01-2.008 1.365c-.773.326-1.623.49-2.55.49zm.643-2.575a5.29 5.29 0 002.137-.438 5.357 5.357 0 001.7-1.21v-2.24h-.901c-1.769 0-3.073.18-3.914.54-.842.344-1.262.876-1.262 1.597v.103c0 .48.206.876.618 1.185.412.309.953.463 1.622.463zm10.711-11.073h2.523c.086.24.163.533.232.876.069.343.12.652.155.927a6.03 6.03 0 011.854-1.494 5.129 5.129 0 012.369-.566h.051c1.94 0 3.253.781 3.94 2.343a5.886 5.886 0 011.931-1.7 5.165 5.165 0 012.55-.643h.051c1.442 0 2.532.43 3.271 1.288.738.858 1.107 2.085 1.107 3.682v8.678h-3.193V22.79c0-.979-.189-1.674-.567-2.086-.36-.43-.935-.644-1.725-.644h-.051c-.859 0-1.554.275-2.086.824-.532.55-.799 1.382-.799 2.498v7.545h-3.193v-8.112c0-.978-.188-1.682-.566-2.111-.361-.43-.944-.644-1.751-.644h-.052c-.858.017-1.553.3-2.085.85-.516.532-.773 1.365-.773 2.498v7.519h-3.193v-13.39zm25.234-2.086c-.549 0-1.004-.154-1.365-.463-.343-.326-.515-.738-.515-1.236s.172-.91.515-1.236c.361-.343.816-.515 1.365-.515.567 0 1.03.172 1.391.515.36.326.541.738.541 1.236s-.181.91-.541 1.236c-.361.31-.824.464-1.391.464zm-1.571 2.086h3.194v13.39h-3.194v-13.39zm7.067 0h2.523c.086.275.163.61.232 1.005.086.395.146.738.18 1.03.636-.773 1.374-1.348 2.215-1.726a6.58 6.58 0 012.678-.566h.077c1.58 0 2.781.446 3.605 1.339.824.876 1.236 2.129 1.236 3.76v8.549h-3.193v-7.88c0-.978-.214-1.717-.643-2.215-.43-.515-1.116-.772-2.06-.772h-.103c-1.082 0-1.949.335-2.601 1.004-.635.67-.953 1.545-.953 2.627v7.236h-3.193v-13.39zm15.545 4.558c0-.72.146-1.373.438-1.957.309-.6.73-1.107 1.262-1.519a5.874 5.874 0 011.88-.953 7.777 7.777 0 012.42-.36h.387c1.03 0 1.94.154 2.729.463.138-.412.275-.772.412-1.081.155-.31.326-.584.515-.824h2.91l-1.674 3.322c.721.806 1.082 1.776 1.082 2.91v.205a4.01 4.01 0 01-.464 1.906 4.56 4.56 0 01-1.236 1.52c-.532.411-1.167.737-1.905.978-.721.24-1.511.36-2.369.36h-.129c-.292 0-.592-.026-.901-.077v1.442c.223-.017.429-.026.618-.026.206-.017.42-.025.643-.025h.232c.876 0 1.691.094 2.447.283.755.171 1.407.429 1.957.772.549.326.978.73 1.287 1.21.309.464.464.988.464 1.571v.258c0 .584-.163 1.107-.49 1.57a3.802 3.802 0 01-1.287 1.211c-.55.343-1.21.6-1.983.773-.755.188-1.579.283-2.472.283h-.644c-.893 0-1.725-.095-2.498-.283-.772-.172-1.433-.43-1.982-.773a4.056 4.056 0 01-1.314-1.21 2.767 2.767 0 01-.463-1.571v-.31c0-.755.257-1.424.772-2.008.532-.583 1.228-1.047 2.086-1.39v-2.42c-.841-.396-1.511-.945-2.009-1.649a4.23 4.23 0 01-.721-2.395v-.206zm3.168.31c0 .36.077.686.232.978.154.292.36.54.618.747.274.206.592.369.952.489.361.103.739.154 1.133.154h.284c.395 0 .764-.06 1.107-.18.36-.12.669-.283.927-.49a2.22 2.22 0 00.644-.746 2.01 2.01 0 00.232-.953v-.283a2.01 2.01 0 00-.232-.953 2.233 2.233 0 00-.644-.747 2.983 2.983 0 00-.927-.489 3.407 3.407 0 00-1.133-.18h-.232c-.412 0-.798.06-1.159.18a3.42 3.42 0 00-.927.49 2.23 2.23 0 00-.643.746 2 2 0 00-.232.953v.283zm-.103 9.913c0 .481.283.867.85 1.16.566.308 1.313.463 2.24.463h.592c.927 0 1.674-.155 2.24-.464.584-.309.876-.695.876-1.159v-.206c0-.463-.292-.85-.876-1.158-.566-.292-1.313-.438-2.24-.438h-.592c-.927 0-1.674.146-2.24.438-.567.309-.85.695-.85 1.158v.206z" fill="#161616"/></svg>