<svg width="195" height="40" xmlns="http://www.w3.org/2000/svg"><path fill="none" d="M-1-1h197v42H-1z"/><path fill="#809cd0" d="M36.261 12.617c.536 0 1.071.134 1.473.536.268.401.536.803.536 1.473 0 .803-.268 1.472-.804 2.008-.67.67-1.205.937-2.008.937-.536 0-1.071-.134-1.473-.535-.402-.402-.536-.804-.536-1.473 0-.804.268-1.473.938-2.009.535-.67 1.205-.937 1.874-.937zm-7.23 26.11l3.615-17.54 4.017-1.206-4.017 18.746h-3.615zm18.21 0l2.41-12.185c0-.268.134-.67.134-.937 0-1.74-1.072-2.678-2.946-2.544-1.205 0-2.41.402-3.75 1.071l-2.945 14.595H36.53l3.214-15.398c2.008-1.34 3.749-2.143 5.221-2.544 1.34-.268 2.544-.536 3.616-.536.67 0 1.339.134 2.008.268 2.276.535 3.347 1.74 3.347 3.749 0 .268 0 .67-.134.937L50.99 38.727h-3.75zm12.452.535c-2.009 0-3.883-.803-5.49-2.276l1.875-2.41c1.205 1.205 2.544 1.74 4.15 1.74.938 0 1.875-.267 2.678-.669.804-.536 1.205-1.071 1.473-1.875.134-.669-.134-1.205-.535-1.472-.268-.134-.67-.402-1.473-.804a18.941 18.941 0 00-1.473-.67c-1.339-.535-2.276-1.07-2.678-1.338-.803-.67-1.205-1.473-1.205-2.544 0-.268 0-.67.134-1.071.402-1.741 1.339-3.214 2.812-4.151a8.116 8.116 0 014.686-1.473c1.607 0 3.213.67 5.088 1.74L67.86 24.4c-1.338-.936-2.544-1.338-3.615-1.338-.803 0-1.606.268-2.142.67-.67.401-1.071.937-1.205 1.74-.134.67.134 1.205.937 1.473.402.268 1.34.67 2.812 1.339 1.339.535 2.276 1.07 2.812 1.607.67.669 1.07 1.472 1.07 2.544 0 .401 0 .803-.133 1.205-.402 1.874-1.473 3.347-3.213 4.418-2.009.67-3.616 1.205-5.49 1.205zm11.916-5.088l2.277-10.845H72.01l.536-2.678h1.874l.938-4.687 3.883-1.338-1.34 6.025h3.08l-.535 2.678H77.5l-2.276 10.845c-.134.268-.134.67-.134.804 0 .669.268 1.07.67 1.205.4.267 1.07.401 2.008.401l-.536 2.41h-1.071c-3.214 0-4.686-1.205-4.686-3.615 0-.401 0-.67.133-1.205zM88.48 12.617c.536 0 1.071.134 1.34.536.4.401.535.803.535 1.473 0 .803-.268 1.472-.937 2.008-.536.67-1.34.937-2.009.937-.535 0-1.071-.134-1.473-.535-.401-.402-.535-.804-.535-1.473 0-.804.267-1.473.937-2.009.67-.67 1.339-.937 2.142-.937zm-7.23 26.11l3.615-17.54 4.017-1.206-4.017 18.746H81.25zm18.076 0l2.41-12.185c.134-.268.134-.67.134-.937 0-1.74-1.071-2.678-2.946-2.544-1.071 0-2.41.402-3.615 1.071l-2.946 14.595h-3.749l3.214-15.398c2.142-1.34 3.883-2.143 5.222-2.544 1.338-.268 2.544-.536 3.615-.536.67 0 1.339.134 1.874.268 2.276.535 3.348 1.74 3.348 3.749 0 .268 0 .67-.134.937l-2.812 13.524h-3.615zm13.39.401c-1.875 0-3.214-.67-4.285-2.008-.938-1.205-1.34-2.812-1.34-4.686 0-2.009.536-4.017 1.607-6.16 1.072-2.008 2.544-3.615 4.285-4.686 1.339-.803 2.812-1.205 4.419-1.205 1.74 0 3.347.536 4.82 1.607l-1.607 2.142c-1.473-.803-2.812-1.071-4.017-1.071-1.607.134-2.946 1.205-4.15 3.213-1.072 1.875-1.607 3.616-1.607 5.356 0 1.34.267 2.41.803 3.214.536.937 1.473 1.339 2.544 1.339s2.812-.536 5.088-1.473l.536 2.276c-2.41 1.473-4.82 2.142-7.097 2.142zm10.979-4.954l2.276-10.845h-1.875l.536-2.678h1.874l.938-4.687 3.883-1.338-1.34 6.025h3.08l-.535 2.678h-2.812l-2.276 10.845c-.134.268-.134.67-.134.804 0 .669.134 1.07.535 1.205.402.267 1.071.401 2.143.401l-.536 2.41h-1.071c-3.214 0-4.82-1.205-4.82-3.615 0-.401 0-.67.134-1.205zm19.682-10.98c-2.946.135-4.686 2.277-5.623 6.16-.268.937-.268 1.874-.268 2.678 0 2.812 1.07 4.284 3.213 4.284 2.812 0 4.82-2.41 5.758-6.962.134-.803.268-1.607.268-2.142-.134-2.544-1.206-3.883-3.348-4.017zm-3.481 15.8c-2.142 0-3.75-.803-4.82-2.142-1.072-1.205-1.473-2.812-1.473-4.954 0-.937.134-1.74.268-2.678.535-2.544 1.74-4.552 3.48-6.427 1.875-1.874 4.152-2.812 6.696-2.678 2.008 0 3.749.67 4.82 2.009 1.071 1.205 1.607 2.811 1.607 4.82 0 2.946-1.072 5.757-2.946 8.167-2.276 2.678-4.686 3.883-7.632 3.883zm22.226-15.8c-2.811.135-4.686 2.277-5.623 6.16-.134.937-.268 1.874-.268 2.678 0 2.812 1.071 4.284 3.08 4.284 2.811 0 4.82-2.41 5.757-6.962.134-.803.268-1.607.268-2.142 0-2.544-1.071-3.883-3.214-4.017zm-3.347 15.8c-2.142 0-3.749-.803-4.954-2.142-.937-1.205-1.473-2.812-1.473-4.954 0-.937.134-1.74.268-2.678.535-2.544 1.74-4.552 3.481-6.427 1.875-1.874 4.15-2.812 6.561-2.678 2.142 0 3.615.67 4.82 2.009 1.071 1.205 1.607 2.811 1.607 4.82 0 2.946-.937 5.757-2.946 8.167-2.008 2.678-4.552 3.883-7.364 3.883zm12.184-4.82l4.687-22.762 3.749-1.071-4.954 23.967v.803c0 .536.134.938.67 1.205.4.268 1.07.268 1.874.402l-.536 2.276h-1.071c-3.08 0-4.552-1.205-4.552-3.48 0-.536 0-.938.133-1.34zm13.792 5.088c-2.009 0-3.883-.803-5.49-2.276l2.008-2.41c1.205 1.205 2.544 1.74 4.151 1.74.937 0 1.875-.267 2.678-.669.803-.536 1.205-1.071 1.473-1.875.134-.669-.134-1.205-.536-1.472-.267-.134-.803-.402-1.473-.804a18.94 18.94 0 00-1.472-.67c-1.34-.535-2.143-1.07-2.678-1.338-.804-.67-1.205-1.473-1.205-2.544 0-.268 0-.67.134-1.071.401-1.741 1.338-3.214 2.811-4.151 1.34-.937 2.946-1.473 4.553-1.473 1.607 0 3.213.67 5.088 1.74l-1.875 2.41c-1.339-.936-2.544-1.338-3.615-1.338-.803 0-1.473.268-2.142.67-.67.401-1.071.937-1.205 1.74-.134.67.134 1.205.937 1.473.402.268 1.339.67 2.678 1.339 1.339.535 2.276 1.07 2.812 1.607.803.669 1.07 1.472 1.07 2.544 0 .401 0 .803-.133 1.205-.402 1.874-1.473 3.347-3.214 4.418-1.874.67-3.615 1.205-5.355 1.205z" class="st0"/><path fill="red" d="M28.094 10.34l-3.348-5.757-7.23 4.285V.433h-6.695v8.435L3.457 4.583l-3.481 5.758 7.498 4.418-7.498 4.419 3.347 5.757 7.23-4.284v8.435h6.695v-8.435l7.23 4.284 3.348-5.757-7.498-4.419" class="st1"/></svg>