<svg xmlns="http://www.w3.org/2000/svg" width="225" height="95" viewBox="0 0 225 95" fill="none"><path d="M206.71 69.633a2.918 2.918 0 01-.689-.71c-.173-.273-.266-.503-.28-.69a1.931 1.931 0 01.107-.71c.101-.287.23-.632.388-1.034 2.928-7.206 4.393-12.044 4.393-14.513-.043-.69-.28-1.177-.711-1.464l-.431-.302c-.129-.1-.201-.273-.215-.517 0-.258.093-.502.28-.732.187-.23.431-.43.732-.603a3.973 3.973 0 011.895-.495c.66 0 1.17.072 1.529.215.373.144.689.338.947.582.546.517.819 1.062.819 1.636a6.675 6.675 0 01-.194 1.745c-.129.588-.287 1.17-.474 1.744-.187.56-.373 1.098-.56 1.615-.186.502-.308.875-.366 1.12-.115.502-.158.818-.129.947.344-.302.553-.596.624-.883l.84-1.594c1.866-3.359 3.69-5.584 5.47-6.675.516-.301 1.134-.452 1.851-.452.733 0 1.321.258 1.766.775.445.503.675 1.063.689 1.68.029.617-.014 1.134-.129 1.55a4.14 4.14 0 01-.474 1.142c-.473.803-1.048 1.205-1.722 1.205a.799.799 0 01-.517-.194l-.474-.409c-.474-.416-.933-.624-1.378-.624-.431 0-.962.287-1.593.861-.618.575-1.264 1.314-1.938 2.218-2.269 3-4.12 6.36-5.556 10.078l-.947 2.498c-.244.617-.46 1.062-.646 1.335-.187.258-.467.387-.84.387-.359 0-.725-.072-1.098-.215a3.676 3.676 0 01-.969-.517z" fill="#ECEAEC"/><path d="M206.71 69.633a2.918 2.918 0 01-.689-.71c-.173-.273-.266-.503-.28-.69a1.931 1.931 0 01.107-.71c.101-.287.23-.632.388-1.034 2.928-7.206 4.393-12.044 4.393-14.513-.043-.69-.28-1.177-.711-1.464l-.431-.302c-.129-.1-.201-.273-.215-.517 0-.258.093-.502.28-.732.187-.23.431-.43.732-.603a3.973 3.973 0 011.895-.495c.66 0 1.17.072 1.529.215.373.144.689.338.947.582.546.517.819 1.062.819 1.636a6.675 6.675 0 01-.194 1.745c-.129.588-.287 1.17-.474 1.744-.187.56-.373 1.098-.56 1.615-.186.502-.308.875-.366 1.12-.115.502-.158.818-.129.947.344-.302.553-.596.624-.883l.84-1.594c1.866-3.359 3.69-5.584 5.47-6.675.516-.301 1.134-.452 1.851-.452.733 0 1.321.258 1.766.775.445.503.675 1.063.689 1.68.029.617-.014 1.134-.129 1.55a4.14 4.14 0 01-.474 1.142c-.473.803-1.048 1.205-1.722 1.205a.799.799 0 01-.517-.194l-.474-.409c-.474-.416-.933-.624-1.378-.624-.431 0-.962.287-1.593.861-.618.575-1.264 1.314-1.938 2.218-2.269 3-4.12 6.36-5.556 10.078l-.947 2.498c-.244.617-.46 1.062-.646 1.335-.187.258-.467.387-.84.387-.359 0-.725-.072-1.098-.215a3.676 3.676 0 01-.969-.517z" fill="#fff"/><path d="M199.345 64.422c0 1.32.467 1.981 1.4 1.981.646 0 1.177-.1 1.593-.301.431-.201.718-.302.862-.302.301 0 .452.158.452.474 0 1.234-.646 2.297-1.938 3.187-1.364.933-2.756 1.163-4.178.689-.933-.33-1.622-1.04-2.067-2.132-.215-.56-.323-1.07-.323-1.529 0-.746.072-1.536.216-2.368-1.335 2.727-2.994 4.608-4.975 5.641a5.473 5.473 0 01-2.519.603c-.89 0-1.665-.18-2.326-.538a5.25 5.25 0 01-1.658-1.529c-.933-1.35-1.356-3.043-1.27-5.082.086-2.555.84-5.06 2.261-7.515 1.306-2.297 2.957-4.17 4.953-5.62 1.995-1.479 3.861-2.218 5.598-2.218 1.737 0 3.137.797 4.199 2.39.991-1.593 1.866-2.39 2.627-2.39.818 0 1.436.15 1.852.452.79.574 1.069 1.077.84 1.508-3.603 7.378-5.455 11.972-5.556 13.78a7.596 7.596 0 00-.043.819zm-11.951.086c0 1.723.553 2.584 1.658 2.584.847 0 1.888-.718 3.123-2.153 1.808-2.11 3.409-4.953 4.802-8.527a30.61 30.61 0 001.119-3.36c-.057-.976-.466-1.693-1.227-2.153-.259-.158-.646-.237-1.163-.237-.502 0-1.098.187-1.787.56-.675.373-1.335.883-1.981 1.53a13.695 13.695 0 00-1.787 2.303 18.346 18.346 0 00-1.443 2.864c-.876 2.21-1.314 4.407-1.314 6.59z" fill="#ECEAEC"/><path d="M199.345 64.422c0 1.32.467 1.981 1.4 1.981.646 0 1.177-.1 1.593-.301.431-.201.718-.302.862-.302.301 0 .452.158.452.474 0 1.234-.646 2.297-1.938 3.187-1.364.933-2.756 1.163-4.178.689-.933-.33-1.622-1.04-2.067-2.132-.215-.56-.323-1.07-.323-1.529 0-.746.072-1.536.216-2.368-1.335 2.727-2.994 4.608-4.975 5.641a5.473 5.473 0 01-2.519.603c-.89 0-1.665-.18-2.326-.538a5.25 5.25 0 01-1.658-1.529c-.933-1.35-1.356-3.043-1.27-5.082.086-2.555.84-5.06 2.261-7.515 1.306-2.297 2.957-4.17 4.953-5.62 1.995-1.479 3.861-2.218 5.598-2.218 1.737 0 3.137.797 4.199 2.39.991-1.593 1.866-2.39 2.627-2.39.818 0 1.436.15 1.852.452.79.574 1.069 1.077.84 1.508-3.603 7.378-5.455 11.972-5.556 13.78a7.596 7.596 0 00-.043.819zm-11.951.086c0 1.723.553 2.584 1.658 2.584.847 0 1.888-.718 3.123-2.153 1.808-2.11 3.409-4.953 4.802-8.527a30.61 30.61 0 001.119-3.36c-.057-.976-.466-1.693-1.227-2.153-.259-.158-.646-.237-1.163-.237-.502 0-1.098.187-1.787.56-.675.373-1.335.883-1.981 1.53a13.695 13.695 0 00-1.787 2.303 18.346 18.346 0 00-1.443 2.864c-.876 2.21-1.314 4.407-1.314 6.59z" fill="#fff"/><path d="M158.432 68.061c-.172-.474-.258-1.012-.258-1.615 0-.617.101-1.299.302-2.046.215-.76.488-1.55.818-2.368a71.2 71.2 0 011.076-2.52l1.163-2.584c1.493-3.316 2.046-5.282 1.658-5.9-.172-.272-.495-.545-.969-.818-.172-.1-.258-.273-.258-.517 0-.258.1-.502.301-.732.216-.23.488-.43.819-.603.703-.33 1.406-.495 2.11-.495.703 0 1.234.079 1.593.237.374.143.675.33.905.56.473.474.71.998.71 1.572 0 .574-.093 1.22-.28 1.938a27.31 27.31 0 01-.732 2.304 75.963 75.963 0 01-.99 2.584c-.991 2.325-1.658 3.861-2.003 4.608l-.797 1.658c-.445.99-.667 1.687-.667 2.088 0 .402.064.69.194.862.129.158.359.237.689.237.344 0 .718-.13 1.119-.388a9.357 9.357 0 001.336-1.034c.473-.43.961-.925 1.464-1.485a36.476 36.476 0 001.507-1.788c1.278-1.579 2.225-2.935 2.842-4.07 3.101-5.713 4.745-8.699 4.932-8.957.473-.617.947-.926 1.421-.926.488 0 .911.057 1.27.172.359.1.668.252.926.453.574.416.747.882.517 1.4a41.22 41.22 0 00-.797 2.13c-2.727 7.91-4.5 12.842-5.318 14.794-.804 1.953-1.508 3.517-2.111 4.694a32.653 32.653 0 01-2.132 3.596 26.184 26.184 0 01-2.583 3.295c-2.096 2.24-4.063 3.438-5.901 3.596-.703.058-1.263-.043-1.679-.301-.718-.431-1.077-.84-1.077-1.228 0-.387.323-.66.969-.818.661-.144 1.335-.445 2.024-.904a13.685 13.685 0 002.024-1.572c1.895-1.81 3.367-3.776 4.415-5.9.89-1.867 1.608-3.632 2.153-5.298l1.68-5.124a43.545 43.545 0 00-1.379 1.765l-1.55 2.067c-1.349 1.709-2.469 2.922-3.359 3.64-1.694 1.363-3.209 2.045-4.544 2.045-1.78 0-2.964-.768-3.553-2.304z" fill="#ECEAEC"/><path d="M158.432 68.061c-.172-.474-.258-1.012-.258-1.615 0-.617.101-1.299.302-2.046.215-.76.488-1.55.818-2.368a71.2 71.2 0 011.076-2.52l1.163-2.584c1.493-3.316 2.046-5.282 1.658-5.9-.172-.272-.495-.545-.969-.818-.172-.1-.258-.273-.258-.517 0-.258.1-.502.301-.732.216-.23.488-.43.819-.603.703-.33 1.406-.495 2.11-.495.703 0 1.234.079 1.593.237.374.143.675.33.905.56.473.474.71.998.71 1.572 0 .574-.093 1.22-.28 1.938a27.31 27.31 0 01-.732 2.304 75.963 75.963 0 01-.99 2.584c-.991 2.325-1.658 3.861-2.003 4.608l-.797 1.658c-.445.99-.667 1.687-.667 2.088 0 .402.064.69.194.862.129.158.359.237.689.237.344 0 .718-.13 1.119-.388a9.357 9.357 0 001.336-1.034c.473-.43.961-.925 1.464-1.485a36.476 36.476 0 001.507-1.788c1.278-1.579 2.225-2.935 2.842-4.07 3.101-5.713 4.745-8.699 4.932-8.957.473-.617.947-.926 1.421-.926.488 0 .911.057 1.27.172.359.1.668.252.926.453.574.416.747.882.517 1.4a41.22 41.22 0 00-.797 2.13c-2.727 7.91-4.5 12.842-5.318 14.794-.804 1.953-1.508 3.517-2.111 4.694a32.653 32.653 0 01-2.132 3.596 26.184 26.184 0 01-2.583 3.295c-2.096 2.24-4.063 3.438-5.901 3.596-.703.058-1.263-.043-1.679-.301-.718-.431-1.077-.84-1.077-1.228 0-.387.323-.66.969-.818.661-.144 1.335-.445 2.024-.904a13.685 13.685 0 002.024-1.572c1.895-1.81 3.367-3.776 4.415-5.9.89-1.867 1.608-3.632 2.153-5.298l1.68-5.124a43.545 43.545 0 00-1.379 1.765l-1.55 2.067c-1.349 1.709-2.469 2.922-3.359 3.64-1.694 1.363-3.209 2.045-4.544 2.045-1.78 0-2.964-.768-3.553-2.304z" fill="#fff"/><path d="M147.838 65.456c-2.182 3.273-4.601 4.91-7.257 4.91-2.397 0-4.012-1.278-4.845-3.834-.287-.875-.43-1.952-.43-3.23 0-1.277.179-2.555.538-3.833a17.868 17.868 0 011.507-3.66 17.636 17.636 0 012.218-3.166 16.748 16.748 0 012.756-2.519c2.039-1.507 4.063-2.261 6.073-2.261 2.01 0 3.445.94 4.306 2.82.173-.186.331-.372.474-.559.144-.201.302-.388.474-.56.373-.373.696-.56.969-.56.287 0 .581.05.883.151.316.1.617.237.904.41.704.416.969.803.797 1.162a44.43 44.43 0 00-1.981 5.039l-3.187 10.163c-2.512 7.71-5.699 12.69-9.561 14.944-1.019.603-1.902.948-2.648 1.034-.747.1-1.285.108-1.615.021a3.245 3.245 0 01-.883-.366c-.56-.358-.84-.681-.84-.969 0-.502.33-.81.991-.925.674-.115 1.378-.388 2.11-.819a11.59 11.59 0 002.088-1.529c2.714-2.512 4.766-6.467 6.159-11.864zm-6.46-7.472a21.783 21.783 0 00-.883 3.186c-.215 1.077-.323 1.96-.323 2.65 0 .688.022 1.212.065 1.571.043.359.129.675.258.947.287.603.711.905 1.271.905.559 0 1.112-.194 1.658-.581.545-.403 1.119-.948 1.722-1.637a21.11 21.11 0 001.809-2.433 33.306 33.306 0 001.723-3.015c1.206-2.383 2.053-4.658 2.541-6.826-.072-.402-.316-.811-.732-1.227-.819-.79-1.558-1.185-2.218-1.185-.661 0-1.321.209-1.981.625-.661.402-1.292.954-1.895 1.658-.589.689-1.142 1.5-1.658 2.433a21.029 21.029 0 00-1.357 2.929z" fill="#ECEAEC"/><path d="M147.838 65.456c-2.182 3.273-4.601 4.91-7.257 4.91-2.397 0-4.012-1.278-4.845-3.834-.287-.875-.43-1.952-.43-3.23 0-1.277.179-2.555.538-3.833a17.868 17.868 0 011.507-3.66 17.636 17.636 0 012.218-3.166 16.748 16.748 0 012.756-2.519c2.039-1.507 4.063-2.261 6.073-2.261 2.01 0 3.445.94 4.306 2.82.173-.186.331-.372.474-.559.144-.201.302-.388.474-.56.373-.373.696-.56.969-.56.287 0 .581.05.883.151.316.1.617.237.904.41.704.416.969.803.797 1.162a44.43 44.43 0 00-1.981 5.039l-3.187 10.163c-2.512 7.71-5.699 12.69-9.561 14.944-1.019.603-1.902.948-2.648 1.034-.747.1-1.285.108-1.615.021a3.245 3.245 0 01-.883-.366c-.56-.358-.84-.681-.84-.969 0-.502.33-.81.991-.925.674-.115 1.378-.388 2.11-.819a11.59 11.59 0 002.088-1.529c2.714-2.512 4.766-6.467 6.159-11.864zm-6.46-7.472a21.783 21.783 0 00-.883 3.186c-.215 1.077-.323 1.96-.323 2.65 0 .688.022 1.212.065 1.571.043.359.129.675.258.947.287.603.711.905 1.271.905.559 0 1.112-.194 1.658-.581.545-.403 1.119-.948 1.722-1.637a21.11 21.11 0 001.809-2.433 33.306 33.306 0 001.723-3.015c1.206-2.383 2.053-4.658 2.541-6.826-.072-.402-.316-.811-.732-1.227-.819-.79-1.558-1.185-2.218-1.185-.661 0-1.321.209-1.981.625-.661.402-1.292.954-1.895 1.658-.589.689-1.142 1.5-1.658 2.433a21.029 21.029 0 00-1.357 2.929z" fill="#fff"/><path d="M127.941 64.422c0 1.32.467 1.981 1.4 1.981.646 0 1.177-.1 1.593-.301.431-.201.718-.302.862-.302.301 0 .452.158.452.474 0 1.234-.646 2.297-1.938 3.187-1.364.933-2.756 1.163-4.177.689-.934-.33-1.623-1.04-2.068-2.132-.215-.56-.323-1.07-.323-1.529 0-.746.072-1.536.216-2.368-1.335 2.727-2.993 4.608-4.974 5.641a5.48 5.48 0 01-2.52.603c-.89 0-1.665-.18-2.325-.538a5.24 5.24 0 01-1.658-1.529c-.934-1.35-1.357-3.043-1.271-5.082.086-2.555.84-5.06 2.261-7.515 1.306-2.297 2.957-4.17 4.953-5.62 1.995-1.479 3.861-2.218 5.598-2.218 1.737 0 3.137.797 4.199 2.39.991-1.593 1.867-2.39 2.627-2.39.819 0 1.436.15 1.852.452.79.574 1.07 1.077.84 1.508-3.603 7.378-5.455 11.972-5.556 13.78a7.596 7.596 0 00-.043.819zm-11.951.086c0 1.723.553 2.584 1.659 2.584.847 0 1.887-.718 3.122-2.153 1.809-2.11 3.409-4.953 4.802-8.527a30.61 30.61 0 001.119-3.36c-.057-.976-.466-1.693-1.227-2.153-.258-.158-.646-.237-1.163-.237-.502 0-1.098.187-1.787.56-.675.373-1.335.883-1.981 1.53a13.747 13.747 0 00-1.787 2.303 18.346 18.346 0 00-1.443 2.864c-.876 2.21-1.314 4.407-1.314 6.59z" fill="#ECEAEC"/><path d="M127.941 64.422c0 1.32.467 1.981 1.4 1.981.646 0 1.177-.1 1.593-.301.431-.201.718-.302.862-.302.301 0 .452.158.452.474 0 1.234-.646 2.297-1.938 3.187-1.364.933-2.756 1.163-4.177.689-.934-.33-1.623-1.04-2.068-2.132-.215-.56-.323-1.07-.323-1.529 0-.746.072-1.536.216-2.368-1.335 2.727-2.993 4.608-4.974 5.641a5.48 5.48 0 01-2.52.603c-.89 0-1.665-.18-2.325-.538a5.24 5.24 0 01-1.658-1.529c-.934-1.35-1.357-3.043-1.271-5.082.086-2.555.84-5.06 2.261-7.515 1.306-2.297 2.957-4.17 4.953-5.62 1.995-1.479 3.861-2.218 5.598-2.218 1.737 0 3.137.797 4.199 2.39.991-1.593 1.867-2.39 2.627-2.39.819 0 1.436.15 1.852.452.79.574 1.07 1.077.84 1.508-3.603 7.378-5.455 11.972-5.556 13.78a7.596 7.596 0 00-.043.819zm-11.951.086c0 1.723.553 2.584 1.659 2.584.847 0 1.887-.718 3.122-2.153 1.809-2.11 3.409-4.953 4.802-8.527a30.61 30.61 0 001.119-3.36c-.057-.976-.466-1.693-1.227-2.153-.258-.158-.646-.237-1.163-.237-.502 0-1.098.187-1.787.56-.675.373-1.335.883-1.981 1.53a13.747 13.747 0 00-1.787 2.303 18.346 18.346 0 00-1.443 2.864c-.876 2.21-1.314 4.407-1.314 6.59z" fill="#fff"/><path d="M107.399 65.8c.359 0 .538.258.538.775 0 .502-.093.919-.28 1.249a5.1 5.1 0 01-.646.904 4.615 4.615 0 01-.926.776c-.875.574-1.801.86-2.777.86-.962 0-1.73-.114-2.304-.344a4.127 4.127 0 01-1.465-1.076c-.89-.99-1.335-2.362-1.335-4.113 0-1.866.36-4.142 1.077-6.826.718-2.699 1.407-5.003 2.067-6.912a124.756 124.756 0 012.067-5.491l1.938-4.931c-2.124 1.909-4.816 5.921-8.075 12.037l-5.21 9.862c-2.785 5.196-4.774 7.795-5.965 7.795-1.163 0-1.96-.503-2.39-1.507-.388-.962-.582-2.592-.582-4.889 0-2.31.18-4.521.538-6.632.374-2.124.84-4.199 1.4-6.223a75.967 75.967 0 013.79-10.637c-1.507.847-3.18 2.735-5.017 5.663-1.407 2.34-2.398 4.048-2.972 5.125l-5.555 10.228c-2.312 4.206-4.17 6.805-5.577 7.795-1.02.718-2.118 1.077-3.295 1.077-1.005 0-1.73-.316-2.175-.948-.172-.258-.258-.495-.258-.71 0-.215.064-.345.194-.388.89-.244 1.521-.495 1.895-.753l1.076-.819c.359-.287.883-.883 1.572-1.787a49.38 49.38 0 002.24-3.294 93.116 93.116 0 002.519-4.329L76.24 52.3c2.526-4.881 5.168-8.793 7.924-11.736.976-1.048 1.938-1.859 2.885-2.433.948-.675 2.046-1.127 3.295-1.357.344-.072.66-.108.947-.108.302 0 .632.044.99.13.374.086.697.222.97.409.631.43.818 1.005.56 1.722-.115.431-.338 1.077-.668 1.938l-1.163 3.08c-2.713 7.493-4.199 14.312-4.457 20.456a76.566 76.566 0 002.304-4.285l2.433-4.802 2.563-4.888c3.947-7.321 7.615-11.513 11.003-12.575.704-.23 1.292-.345 1.766-.345s.847.065 1.12.194c.272.115.516.266.732.452.502.46.674.933.516 1.421-.157.474-.366 1.084-.624 1.83l-3.122 9.11-1.12 3.574c-1.235 4.134-1.967 7.307-2.196 9.517-.087.934.014 1.666.301 2.197.302.517.711.775 1.227.775.517 0 .919-.036 1.206-.108.302-.086.56-.18.775-.28l.56-.258a.917.917 0 01.431-.13z" fill="#ECEAEC"/><path d="M107.399 65.8c.359 0 .538.258.538.775 0 .502-.093.919-.28 1.249a5.1 5.1 0 01-.646.904 4.615 4.615 0 01-.926.776c-.875.574-1.801.86-2.777.86-.962 0-1.73-.114-2.304-.344a4.127 4.127 0 01-1.465-1.076c-.89-.99-1.335-2.362-1.335-4.113 0-1.866.36-4.142 1.077-6.826.718-2.699 1.407-5.003 2.067-6.912a124.756 124.756 0 012.067-5.491l1.938-4.931c-2.124 1.909-4.816 5.921-8.075 12.037l-5.21 9.862c-2.785 5.196-4.774 7.795-5.965 7.795-1.163 0-1.96-.503-2.39-1.507-.388-.962-.582-2.592-.582-4.889 0-2.31.18-4.521.538-6.632.374-2.124.84-4.199 1.4-6.223a75.967 75.967 0 013.79-10.637c-1.507.847-3.18 2.735-5.017 5.663-1.407 2.34-2.398 4.048-2.972 5.125l-5.555 10.228c-2.312 4.206-4.17 6.805-5.577 7.795-1.02.718-2.118 1.077-3.295 1.077-1.005 0-1.73-.316-2.175-.948-.172-.258-.258-.495-.258-.71 0-.215.064-.345.194-.388.89-.244 1.521-.495 1.895-.753l1.076-.819c.359-.287.883-.883 1.572-1.787a49.38 49.38 0 002.24-3.294 93.116 93.116 0 002.519-4.329L76.24 52.3c2.526-4.881 5.168-8.793 7.924-11.736.976-1.048 1.938-1.859 2.885-2.433.948-.675 2.046-1.127 3.295-1.357.344-.072.66-.108.947-.108.302 0 .632.044.99.13.374.086.697.222.97.409.631.43.818 1.005.56 1.722-.115.431-.338 1.077-.668 1.938l-1.163 3.08c-2.713 7.493-4.199 14.312-4.457 20.456a76.566 76.566 0 002.304-4.285l2.433-4.802 2.563-4.888c3.947-7.321 7.615-11.513 11.003-12.575.704-.23 1.292-.345 1.766-.345s.847.065 1.12.194c.272.115.516.266.732.452.502.46.674.933.516 1.421-.157.474-.366 1.084-.624 1.83l-3.122 9.11-1.12 3.574c-1.235 4.134-1.967 7.307-2.196 9.517-.087.934.014 1.666.301 2.197.302.517.711.775 1.227.775.517 0 .919-.036 1.206-.108.302-.086.56-.18.775-.28l.56-.258a.917.917 0 01.431-.13z" fill="#fff"/><path d="M141.993 13.73c1.216 0 2.263.271 3.143.814.88.53 1.559 1.288 2.037 2.27.479.984.718 2.155.718 3.513s-.239 2.529-.718 3.512c-.478.983-1.157 1.746-2.037 2.29-.88.53-1.927.795-3.143.795-1.204 0-2.251-.265-3.144-.795-.88-.544-1.559-1.307-2.037-2.29-.479-.983-.718-2.154-.718-3.512s.239-2.53.718-3.512c.478-.983 1.157-1.74 2.037-2.27.893-.544 1.94-.816 3.144-.816zm0 .892c-.997 0-1.863.233-2.601.699-.724.452-1.287 1.106-1.688 1.96-.401.853-.601 1.869-.601 3.046 0 1.177.2 2.192.601 3.046.401.854.964 1.514 1.688 1.98.738.452 1.604.679 2.601.679 1.009 0 1.875-.227 2.6-.68.724-.465 1.287-1.125 1.688-1.979.401-.854.601-1.869.601-3.046 0-1.177-.2-2.193-.601-3.047-.401-.853-.964-1.507-1.688-1.96-.725-.465-1.591-.698-2.6-.698z" fill="#ECEAEC"/><path d="M141.993 13.73c1.216 0 2.263.271 3.143.814.88.53 1.559 1.288 2.037 2.27.479.984.718 2.155.718 3.513s-.239 2.529-.718 3.512c-.478.983-1.157 1.746-2.037 2.29-.88.53-1.927.795-3.143.795-1.204 0-2.251-.265-3.144-.795-.88-.544-1.559-1.307-2.037-2.29-.479-.983-.718-2.154-.718-3.512s.239-2.53.718-3.512c.478-.983 1.157-1.74 2.037-2.27.893-.544 1.94-.816 3.144-.816zm0 .892c-.997 0-1.863.233-2.601.699-.724.452-1.287 1.106-1.688 1.96-.401.853-.601 1.869-.601 3.046 0 1.177.2 2.192.601 3.046.401.854.964 1.514 1.688 1.98.738.452 1.604.679 2.601.679 1.009 0 1.875-.227 2.6-.68.724-.465 1.287-1.125 1.688-1.979.401-.854.601-1.869.601-3.046 0-1.177-.2-2.193-.601-3.047-.401-.853-.964-1.507-1.688-1.96-.725-.465-1.591-.698-2.6-.698z" fill="#ED2F95"/><path d="M132.876 13.924V26.73h-1.203l-6.792-10.051-.951-1.65h-.019l.058 1.553V26.73h-.931V13.924h1.222l6.772 10.031.97 1.67-.038-1.553V13.924h.912z" fill="#ECEAEC"/><path d="M132.876 13.924V26.73h-1.203l-6.792-10.051-.951-1.65h-.019l.058 1.553V26.73h-.931V13.924h1.222l6.772 10.031.97 1.67-.038-1.553V13.924h.912z" fill="#ED2F95"/><path d="M119.006 13.924V26.73h-.971V13.924h.971z" fill="#ECEAEC"/><path d="M119.006 13.924V26.73h-.971V13.924h.971z" fill="#ED2F95"/><path d="M106.223 26.187l-.175-.35h9.197v.893h-9.896v-.854l8.713-11.41.174.35h-8.712v-.892h9.411v.853l-8.712 11.41z" fill="#ECEAEC"/><path d="M106.223 26.187l-.175-.35h9.197v.893h-9.896v-.854l8.713-11.41.174.35h-8.712v-.892h9.411v.853l-8.712 11.41z" fill="#ED2F95"/><path d="M98.478 13.73c1.177 0 2.167.232 2.969.698.815.466 1.436 1.177 1.863 2.134l-.815.621c-.376-.905-.906-1.558-1.592-1.96-.672-.4-1.507-.6-2.503-.6-.763 0-1.41.122-1.94.368-.53.233-.938.55-1.222.95a2.246 2.246 0 00-.408 1.32c0 .595.194 1.087.582 1.475.388.388 1.1.698 2.135.931l2.522.543c1.255.272 2.135.667 2.639 1.184.517.505.776 1.158.776 1.96 0 .698-.207 1.32-.621 1.863-.401.543-.957.963-1.668 1.26-.712.298-1.546.447-2.504.447-.918 0-1.74-.123-2.464-.369-.711-.258-1.313-.614-1.804-1.067a4.248 4.248 0 01-1.087-1.668l.854-.66c.18.608.478 1.132.892 1.572.427.426.951.75 1.572.97.62.22 1.313.33 2.076.33.725 0 1.371-.097 1.941-.291.569-.207 1.009-.505 1.319-.893.323-.388.485-.867.485-1.436 0-.543-.194-1.002-.582-1.378-.375-.375-1.048-.66-2.018-.853l-2.639-.582c-.815-.182-1.475-.42-1.98-.718-.504-.298-.872-.654-1.105-1.068a3.09 3.09 0 01-.33-1.436c0-.66.188-1.26.563-1.804.375-.556.912-1.003 1.61-1.339.699-.336 1.527-.505 2.484-.505z" fill="#ECEAEC"/><path d="M98.478 13.73c1.177 0 2.167.232 2.969.698.815.466 1.436 1.177 1.863 2.134l-.815.621c-.376-.905-.906-1.558-1.592-1.96-.672-.4-1.507-.6-2.503-.6-.763 0-1.41.122-1.94.368-.53.233-.938.55-1.222.95a2.246 2.246 0 00-.408 1.32c0 .595.194 1.087.582 1.475.388.388 1.1.698 2.135.931l2.522.543c1.255.272 2.135.667 2.639 1.184.517.505.776 1.158.776 1.96 0 .698-.207 1.32-.621 1.863-.401.543-.957.963-1.668 1.26-.712.298-1.546.447-2.504.447-.918 0-1.74-.123-2.464-.369-.711-.258-1.313-.614-1.804-1.067a4.248 4.248 0 01-1.087-1.668l.854-.66c.18.608.478 1.132.892 1.572.427.426.951.75 1.572.97.62.22 1.313.33 2.076.33.725 0 1.371-.097 1.941-.291.569-.207 1.009-.505 1.319-.893.323-.388.485-.867.485-1.436 0-.543-.194-1.002-.582-1.378-.375-.375-1.048-.66-2.018-.853l-2.639-.582c-.815-.182-1.475-.42-1.98-.718-.504-.298-.872-.654-1.105-1.068a3.09 3.09 0 01-.33-1.436c0-.66.188-1.26.563-1.804.375-.556.912-1.003 1.61-1.339.699-.336 1.527-.505 2.484-.505z" fill="#ED2F95"/><path d="M92.284 26.73h-1.028l-1.61-4.016h-6.113l-1.61 4.016h-1.029l5.123-12.806h1.145l5.122 12.806zm-8.402-4.909h5.414l-2.716-6.947-2.698 6.947z" fill="#ECEAEC"/><path d="M92.284 26.73h-1.028l-1.61-4.016h-6.113l-1.61 4.016h-1.029l5.123-12.806h1.145l5.122 12.806zm-8.402-4.909h5.414l-2.716-6.947-2.698 6.947z" fill="#ED2F95"/><path d="M79.975 13.924l-5.355 5.49-.155.156-3.299 3.357v-1.32l7.529-7.683h1.28zm-8.304 0V26.73h-.97V13.924h.97zm3.027 4.85l5.413 7.956h-1.183l-5.007-7.373.777-.582z" fill="#ECEAEC"/><path d="M79.975 13.924l-5.355 5.49-.155.156-3.299 3.357v-1.32l7.529-7.683h1.28zm-8.304 0V26.73h-.97V13.924h.97zm3.027 4.85l5.413 7.956h-1.183l-5.007-7.373.777-.582z" fill="#ED2F95"/><path d="M40.886 46.975c-4.142-4.754-8.233-9.554-12.335-14.343L16.638 46.484c-3.502 4.072 1.338 10.096 6.31 7.368a4.808 4.808 0 001.808-1.743c1.728-2.854 5.88-2.856 7.61-.003 2.141 3.532 7.95 3.179 9.105-1.238.36-1.377.203-2.71-.585-3.893zm-2.173 1.614c-3.41-3.918-6.788-7.866-10.167-11.813l-9.863 11.468c-1.568 1.823.632 4.523 2.968 3.242a2.11 2.11 0 00.797-.775c2.776-4.584 9.446-4.586 12.225-.004.971 1.601 3.663 1.482 4.187-.522.15-.571.141-1.093-.147-1.596z" fill="url(#paint0_linear_261_2)"/><path d="M52.51 53.472v.001zm1.404 6.754c.171-2.53-.517-4.865-1.405-6.754-1.262-2.686-2.923-4.47-3.077-4.633L30.535 26.975c7.092-7.648 13.548-2.66 20.72 1.924l.037.025c1.792 1.144 2.792 2.97 2.792 5.096v26.107l-.17.099zm-25.36-30.929c4.665 5.436 9.336 10.933 14.054 16.347 1.186 1.7 1.504 3.71.965 5.773-1.638 6.265-9.929 6.988-13.065 1.816-.886-1.46-3.008-1.46-3.893.001a6.981 6.981 0 01-2.622 2.523c-7.101 3.896-14.06-4.811-9.002-10.69l13.562-15.77zm4.229 29.633c6.345 2.544 13.427-1.497 14.021-8.511 1.498 1.445 3.246 4.035 3.875 6.63.598 2.466.185 4.938-2.413 6.437L31.581 73.12c-1.924 1.11-4.125 1.11-6.048 0l-5.113-2.952a9.451 9.451 0 001.737-.987 9.927 9.927 0 003.237-3.912l6.242.017h.048c1.02 0 1.877-.413 2.442-1.029.842-.917 1.035-2.288.15-3.42l-1.493-1.907zm24.325 2.928v-32.96L28.554 12.416C19.033 17.912 9.52 23.401 0 28.898v32.963l28.55 16.484c9.52-5.496 19.039-10.993 28.558-16.487zM27.404 26.009L13.708 41.934l.11-4.71.109-4.712c.114-8.389 4.73-11.106 11.28-14.74 2.148-1.193 4.573-1.173 6.702.056l3.967 2.291a13.3 13.3 0 00-2.003.733c-3.684 1.684-6.088 4.664-6.47 5.157zm-16.836 6.34l-.003 14.816c-2.034 7.991 5.981 14.87 13.76 11.766l-1.493 1.906c-.662.846-.743 1.897-.294 2.785-.686.978-1.502 1.883-2.421 2.556-1.673 1.226-3.686 1.686-5.878.42L6.047 61.87c-1.923-1.11-3.024-3.018-3.024-5.238V34.127c0-4.703 5.09-6.43 8.672-8.499l-.016.046c-1.18 3.213-1.126 6.222-1.111 6.676zm17.986 26.065l3.012 3.849-6.013-.015 3-3.834z" fill="url(#paint1_linear_261_2)"/><path opacity=".2" d="M1.342 29.672l27.212-15.707c9.07 5.236 18.142 10.47 27.212 15.707v31.41L28.551 76.797 1.34 61.086V29.672zm55.766-.774L28.554 12.416C19.033 17.912 9.52 23.401 0 28.898v32.963l28.55 16.484c9.52-5.496 19.039-10.993 28.558-16.487v-32.96z" fill="#300C50"/><path opacity=".2" d="M22.42 52.887c-3.91 2.144-7.653-2.54-4.948-5.686l11.077-12.88c3.81 4.45 7.612 8.903 11.458 13.32 1.1 1.466.606 4.754-2.074 5.578-1.718.528-3.684-.128-4.627-1.683-2.158-3.558-7.336-3.557-9.491.003a3.71 3.71 0 01-1.396 1.348zm6.13-20.255L16.639 46.484c-3.502 4.072 1.338 10.096 6.31 7.368a4.808 4.808 0 001.808-1.743c1.728-2.854 5.88-2.856 7.61-.003 2.141 3.532 7.95 3.179 9.105-1.238.36-1.377.203-2.71-.585-3.893-4.142-4.754-8.233-9.554-12.335-14.343z" fill="#300C50"/><defs><linearGradient id="paint0_linear_261_2" x1="28.549" y1="78.345" x2="28.549" y2="8.326" gradientUnits="userSpaceOnUse"><stop stop-color="#5E17A9"/><stop offset="1" stop-color="#FF2966"/></linearGradient><linearGradient id="paint1_linear_261_2" x1="28.554" y1="78.345" x2="28.554" y2="8.326" gradientUnits="userSpaceOnUse"><stop stop-color="#5E17A9"/><stop offset="1" stop-color="#FF2966"/></linearGradient></defs></svg>