<svg width="72" height="40" viewBox="0 0 72 40" xmlns="http://www.w3.org/2000/svg"><path d="M14.048.33c0 .054-.068.246-.205.575-.082.22-.218.549-.41.988L4.26 24.403c-.682 1.674-1.024 2.757-1.024 3.251 0 .741.492 1.111 1.475 1.111.983 0 1.966-.576 2.949-1.728.41-.494.669-.74.778-.74.191 0 .287.095.287.287 0 .357-.451.933-1.352 1.729-1.038.933-2.375 1.399-4.014 1.399-2.239 0-3.358-.837-3.358-2.51 0-.55.341-1.66 1.024-3.334L10.198 1.4c.082-.164.123-.26.123-.288 0-.247-.26-.37-.778-.37C8.34.74 7.74.63 7.74.41c0-.164.122-.246.368-.246s.621.013 1.126.04c.506.028.881.042 1.127.042 1.174 0 2.048-.055 2.62-.165.301-.055.506-.082.615-.082.3 0 .45.11.45.33zm8.478 3.662c0 1.152-.533 1.728-1.598 1.728-.546 0-.996-.171-1.351-.514-.355-.343-.533-.775-.533-1.297 0-1.124.628-1.687 1.884-1.687 1.065 0 1.598.59 1.598 1.77zM19.7 11.687c0 .083-.069.247-.205.494-.191.33-.505 1.001-.942 2.017l-4.71 10.823c-.628 1.454-.942 2.359-.942 2.716 0 .74.382 1.11 1.147 1.11.519 0 1.112-.184 1.781-.555.67-.37 1.181-.816 1.536-1.337.246-.33.437-.494.574-.494.163 0 .245.082.245.247 0 .329-.382.823-1.146 1.481-1.147.988-2.444 1.482-3.891 1.482-.956 0-1.74-.247-2.355-.741s-.922-1.125-.922-1.893c0-.686.342-1.797 1.024-3.333l4.26-9.548c.136-.466.3-.823.491-1.07.082-.11.123-.205.123-.288 0-.247-.6-.411-1.802-.493-.219-.055-.328-.151-.328-.289 0-.246.11-.37.328-.37.027 0 .232.028.614.082.382.055.997.083 1.843.083 1.147 0 1.952-.096 2.417-.288.273-.11.464-.165.573-.165.191 0 .287.11.287.33zm20.15-9.012c0 1.07-.505 1.605-1.516 1.605-.354 0-.662-.117-.921-.35-.26-.233-.39-.5-.39-.802 0-.22.178-.535.533-.947.11-.22.164-.398.164-.535C37.72.96 37.147.617 36 .617c-1.201 0-2.17.515-2.908 1.543-.737 1.03-1.665 3.121-2.785 6.276l-1.106 3.128h4.219c.136-.028.314-.041.532-.041.3 0 .45.15.45.452 0 .302-.19.453-.573.453l-4.791-.041-3.564 9.794c-2.566 7.05-5.064 11.975-7.494 14.774-.983 1.125-1.891 1.913-2.724 2.366-.833.453-1.823.679-2.97.679-2.32 0-3.48-.782-3.48-2.346 0-1.125.6-1.687 1.802-1.687.819 0 1.228.343 1.228 1.029 0 .22-.136.507-.41.864-.163.192-.245.37-.245.535 0 .604.41.905 1.229.905 1.42 0 2.634-.685 3.645-2.057.791-1.098 1.829-3.47 3.112-7.12l6.185-17.654h-.942l-2.048.041a5.959 5.959 0 01-.737.041c-.328 0-.492-.11-.492-.329 0-.411.341-.658 1.024-.74.055 0 .546.013 1.474.04l1.475.042h.573c1.638-3.923 2.976-6.598 4.014-8.025 1.72-2.332 3.89-3.498 6.512-3.498 1.092 0 1.972.24 2.641.72.67.48 1.004 1.118 1.004 1.914zm7.208 11.564c0 1.481-.792 2.709-2.375 3.683-1.584.974-3.59 1.46-6.02 1.46-.875 0-1.844-.068-2.909-.205-1.01 2.112-1.515 4.074-1.515 5.885 0 2.441 1.078 3.662 3.235 3.662 1.666 0 3.29-.878 4.874-2.633.355-.385.587-.577.696-.577.137 0 .205.069.205.206 0 .631-.641 1.413-1.925 2.346-1.474 1.07-3.003 1.605-4.587 1.605-1.775 0-3.235-.521-4.382-1.564-1.147-1.043-1.72-2.36-1.72-3.95 0-3.073 1.665-6.05 4.996-8.93 2.922-2.525 5.53-3.787 7.823-3.787 2.403 0 3.604.933 3.604 2.799zm-2.908-.7c0-.85-.423-1.276-1.27-1.276-.873 0-1.733.33-2.58.988-1.529 1.207-2.935 3.004-4.218 5.391.328.027.696.041 1.106.041 1.529 0 3.017-.466 4.464-1.399 1.665-1.043 2.498-2.29 2.498-3.745zM72 28.765c0 .247-.382.37-1.147.37a102.2 102.2 0 01-2.846-.04 98.649 98.649 0 00-2.847-.042c-1.201 0-2.593.028-4.177.083-.792.027-1.379.041-1.761.041-.792 0-1.188-.15-1.188-.453 0-.274.314-.398.942-.37l1.843.041c.655.027 1.051.014 1.188-.041.41-.082.614-.343.614-.782 0-.412-.341-1.303-1.024-2.675l-4.382-8.889-5.16 8.766c-.901 1.536-1.352 2.441-1.352 2.716 0 .494.45.782 1.352.864h1.843c.491 0 .737.137.737.411 0 .247-.205.37-.615.37l-4.628-.04-3.48.04c-.438 0-.656-.123-.656-.37 0-.246.355-.411 1.065-.493l1.474-.165c.41-.11.751-.288 1.024-.535.519-.466 2.198-3.155 5.038-8.066a207.124 207.124 0 012.785-4.732l-4.67-8.807c-.955-1.81-1.617-2.983-1.986-3.518-.368-.535-.757-.885-1.167-1.05-.437-.082-1.297-.123-2.58-.123-.328 0-.492-.11-.492-.33 0-.301.219-.452.656-.452.6 0 1.843.027 3.727.082.928.028 1.57.041 1.925.041 3.194 0 4.955-.027 5.283-.082h.573c.574 0 .86.11.86.33 0 .301-.491.452-1.474.452-1.83-.028-2.744.192-2.744.658 0 .494 1.556 3.704 4.669 9.63 1.12-1.646 2.348-3.6 3.686-5.864s2.007-3.532 2.007-3.807c0-.411-.751-.617-2.253-.617-.737 0-1.106-.124-1.106-.37 0-.275.26-.412.778-.412.355 0 .874.014 1.557.041.682.028 1.201.041 1.556.041.137 0 .771-.02 1.905-.061a96.841 96.841 0 011.986-.062h.368c.465 0 .697.123.697.37s-.178.37-.533.37c-.054 0-.491.014-1.31.042-.929.027-1.563.192-1.905.494-.341.301-.921 1.18-1.74 2.633-1.065 1.92-2.621 4.458-4.67 7.613l-.45.7c.191.357 2.034 3.964 5.53 10.823 1.2 2.36 2.06 3.766 2.58 4.218.518.453 1.542.665 3.071.638.683 0 1.024.124 1.024.37z" fill="#303030" fill-rule="evenodd"/></svg>