<svg xmlns="http://www.w3.org/2000/svg" width="236" height="64" viewBox="0 0 236 64" fill="none"><path d="M152.921 36.215c0 1.52-.411 2.89-1.233 4.112-.797 1.22-1.966 2.192-3.508 2.915-1.543.698-3.38 1.046-5.513 1.046-3.264 0-5.963-.735-8.096-2.205-2.107-1.495-3.251-3.675-3.431-6.54h9.098c.129 1.52.822 2.28 2.082 2.28.437 0 .784-.112 1.041-.337.282-.224.424-.548.424-.971 0-.623-.334-1.11-1.003-1.458-.642-.374-1.696-.797-3.161-1.27-1.722-.549-3.161-1.11-4.317-1.683-1.131-.573-2.121-1.42-2.969-2.541-.848-1.121-1.272-2.579-1.272-4.373 0-1.72.45-3.177 1.349-4.373.925-1.22 2.172-2.143 3.74-2.765 1.593-.623 3.379-.935 5.358-.935 3.264 0 5.86.735 7.787 2.205 1.928 1.47 2.982 3.588 3.162 6.354h-9.214c-.128-1.395-.72-2.093-1.773-2.093-.36 0-.656.112-.887.336-.231.2-.347.511-.347.935 0 .573.321 1.046.964 1.42.668.349 1.696.76 3.084 1.233 1.748.598 3.187 1.196 4.318 1.794 1.156.573 2.158 1.433 3.007 2.58.873 1.12 1.31 2.565 1.31 4.334zm25.646-18.649v6.578h-7.247v19.883h-8.559V24.144h-7.17v-6.578h22.976zm16.826-.449c2.57 0 4.922.586 7.055 1.757a12.86 12.86 0 015.05 4.821c1.259 2.068 1.889 4.398 1.889 6.99 0 2.59-.63 4.92-1.889 6.988-1.234 2.068-2.93 3.688-5.089 4.859-2.133 1.17-4.472 1.756-7.016 1.756-2.57 0-4.934-.585-7.093-1.756a13.412 13.412 0 01-5.089-4.859c-1.259-2.068-1.889-4.398-1.889-6.989s.63-4.92 1.889-6.989a13.132 13.132 0 015.089-4.821c2.159-1.171 4.523-1.757 7.093-1.757zm0 7.662c-1.722 0-3.045.536-3.971 1.607-.925 1.047-1.388 2.48-1.388 4.298 0 1.794.463 3.227 1.388 4.298.926 1.047 2.249 1.57 3.971 1.57 1.696 0 3.007-.523 3.932-1.57.925-1.071 1.388-2.504 1.388-4.298 0-1.819-.463-3.252-1.388-4.298-.925-1.071-2.236-1.607-3.932-1.607zm26.844 10.838v8.41h-8.558V17.566h11.951c3.341 0 5.898.822 7.671 2.466 1.799 1.645 2.699 3.85 2.699 6.616 0 1.669-.398 3.189-1.195 4.56-.797 1.345-1.979 2.416-3.547 3.214-1.542.797-3.418 1.196-5.628 1.196h-3.393zm2.429-6.54c1.773 0 2.66-.81 2.66-2.43 0-1.619-.887-2.429-2.66-2.429h-2.429v4.859h2.429z" fill="#fff"/><path d="M41.914 17.117c3.602 0 6.53.843 8.784 2.529 2.28 1.685 3.627 3.975 4.042 6.868h-9.095c-.337-.528-.816-.931-1.438-1.208-.622-.302-1.373-.453-2.254-.453-1.658 0-2.94.529-3.848 1.585-.907 1.032-1.36 2.453-1.36 4.265 0 2.088.505 3.648 1.516 4.68 1.01 1.03 2.565 1.546 4.664 1.546 1.995 0 3.601-.78 4.819-2.34h-6.88v-5.924h14.031v8.378c-1.192 1.987-2.837 3.698-4.936 5.132-2.098 1.409-4.754 2.113-7.967 2.113-2.85 0-5.338-.566-7.462-1.698-2.1-1.157-3.719-2.767-4.859-4.83C28.557 35.697 28 33.344 28 30.703c0-2.642.557-4.994 1.671-7.057 1.14-2.063 2.76-3.66 4.858-4.793 2.1-1.157 4.56-1.736 7.385-1.736z" fill="url(#paint0_linear_1403_49214)"/><path d="M76.863 40.062H67.69L66.33 44.1h-9.056L67.34 17.38h9.95L87.318 44.1h-9.095l-1.36-4.038zm-2.1-6.302l-2.487-7.435-2.487 7.435h4.975z" fill="url(#paint1_linear_1403_49214)"/><path d="M123.568 17.381V44.1h-8.59V30.778L110.742 44.1h-7.385l-4.236-13.322V44.1h-8.628V17.38h10.571l6.063 16.039 5.908-16.039h10.533z" fill="url(#paint2_linear_1403_49214)"/><path d="M133.327 50.378c.725 0 1.371.144 1.939.431.575.28 1.04.679 1.395 1.196.362.518.603 1.122.721 1.813h-2.766a1.5 1.5 0 00-.544-.666 1.323 1.323 0 00-.792-.247 1.25 1.25 0 00-1.053.518c-.252.345-.378.81-.378 1.393 0 .584.126 1.048.378 1.393.26.345.611.518 1.053.518.299 0 .563-.078.792-.234.236-.165.417-.39.544-.678h2.766a4.416 4.416 0 01-.721 1.812 3.63 3.63 0 01-1.395 1.208c-.568.28-1.214.42-1.939.42-.843 0-1.576-.186-2.199-.556a3.791 3.791 0 01-1.442-1.578c-.332-.673-.497-1.442-.497-2.305 0-.863.165-1.631.497-2.305a3.71 3.71 0 011.442-1.566c.623-.378 1.356-.567 2.199-.567zm7.893 1.775c.433 0 .807.095 1.123.284.315.18.555.431.721.752v-.95h2.613v6.954h-2.613v-.95a1.89 1.89 0 01-.721.765c-.316.18-.69.271-1.123.271-.521 0-.99-.14-1.407-.42-.418-.287-.749-.698-.993-1.232-.237-.542-.355-1.18-.355-1.91 0-.732.118-1.365.355-1.9.244-.542.575-.953.993-1.232a2.42 2.42 0 011.407-.432zm.874 2.392a.888.888 0 00-.697.308c-.181.206-.272.493-.272.863s.091.658.272.863a.888.888 0 00.697.308.888.888 0 00.698-.308c.181-.205.272-.493.272-.863s-.091-.657-.272-.863a.888.888 0 00-.698-.308zm7.878-2.392c.907 0 1.628.23 2.164.69.544.453.887 1.053 1.029 1.8h-2.448c-.102-.394-.37-.591-.804-.591-.244 0-.366.099-.366.296 0 .14.087.246.26.32.181.074.465.152.851.235a7.38 7.38 0 011.289.357c.362.132.674.35.934.653.26.305.39.72.39 1.245 0 .411-.11.777-.331 1.098-.221.32-.544.57-.97.752-.425.18-.926.271-1.501.271-.962 0-1.726-.214-2.294-.641-.567-.427-.918-1.044-1.052-1.85h2.518c.048.403.32.605.816.605.268 0 .402-.099.402-.296 0-.156-.09-.271-.272-.345-.181-.074-.473-.148-.875-.222a9.436 9.436 0 01-1.276-.345 2.106 2.106 0 01-.875-.63c-.253-.295-.379-.702-.379-1.22 0-.419.107-.793.32-1.121.212-.33.528-.588.945-.777.418-.19.926-.284 1.525-.284zm4.526-1.812c0-.394.138-.72.414-.974.275-.263.642-.394 1.099-.394.449 0 .812.131 1.088.394.276.255.414.58.414.974 0 .386-.138.707-.414.962-.276.255-.639.382-1.088.382-.457 0-.824-.128-1.099-.382a1.253 1.253 0 01-.414-.962zm2.814 1.899v6.953h-2.625V52.24h2.625zm6.347-.05c.765 0 1.36.267 1.786.802.433.534.65 1.257.65 2.17v4.03h-2.613v-3.685c0-.33-.087-.588-.26-.777-.166-.197-.39-.296-.674-.296-.291 0-.52.099-.686.296-.165.189-.248.448-.248.777v3.686h-2.624V52.24h2.624v1.06c.205-.329.477-.596.816-.801.347-.206.757-.309 1.229-.309zm7.235-.037c.67 0 1.273.144 1.809.432a3.06 3.06 0 011.253 1.245c.307.534.461 1.163.461 1.886 0 .723-.154 1.356-.461 1.899a3.076 3.076 0 01-1.253 1.232c-.536.288-1.139.432-1.809.432-.67 0-1.273-.144-1.809-.432a3.161 3.161 0 01-1.265-1.232c-.299-.543-.449-1.176-.449-1.899 0-.723.15-1.352.449-1.886a3.14 3.14 0 011.265-1.245c.536-.288 1.139-.432 1.809-.432zm0 2.367a.762.762 0 00-.615.308c-.165.198-.248.494-.248.888 0 .395.079.695.236.9a.785.785 0 00.627.296.774.774 0 00.615-.296c.165-.205.248-.505.248-.9 0-.394-.083-.69-.248-.888a.762.762 0 00-.615-.308zm7.465-2.367c.906 0 1.628.23 2.163.69.544.453.887 1.053 1.029 1.8h-2.447c-.103-.394-.371-.591-.804-.591-.245 0-.367.099-.367.296 0 .14.087.246.26.32.182.074.465.152.852.235.504.098.934.217 1.288.357.363.132.674.35.934.653.26.305.39.72.39 1.245 0 .411-.11.777-.331 1.098-.22.32-.543.57-.969.752-.426.18-.926.271-1.502.271-.961 0-1.726-.214-2.293-.641-.568-.427-.918-1.044-1.052-1.85h2.518c.047.403.319.605.816.605.268 0 .402-.099.402-.296 0-.156-.091-.271-.272-.345-.182-.074-.473-.148-.875-.222a9.496 9.496 0 01-1.277-.345 2.112 2.112 0 01-.875-.63c-.252-.295-.378-.702-.378-1.22 0-.419.106-.793.319-1.121.213-.33.528-.588.946-.777.418-.19.926-.284 1.525-.284z" fill="#0C77CA"/><path d="M69.922 12.351h-2.679l-2.835-4.129v4.13H61.73V4.138h2.678l2.835 4.199V4.139h2.679v8.212z" fill="url(#paint3_linear_1403_49214)"/><path d="M75.797 4c.804 0 1.54.182 2.208.545a4.01 4.01 0 011.58 1.496c.394.642.592 1.365.592 2.17 0 .804-.198 1.527-.592 2.168a4.072 4.072 0 01-1.592 1.508c-.668.364-1.4.545-2.196.545a4.612 4.612 0 01-2.22-.545 4.184 4.184 0 01-1.593-1.508c-.394-.641-.59-1.364-.59-2.169 0-.804.196-1.527.59-2.169a4.097 4.097 0 011.593-1.496A4.612 4.612 0 0175.797 4zm0 2.378c-.539 0-.953.166-1.243.499-.29.324-.434.769-.434 1.333 0 .557.145 1.002.434 1.334.29.325.704.487 1.243.487.53 0 .941-.162 1.23-.487.29-.332.435-.777.435-1.334 0-.564-.145-1.009-.434-1.333-.29-.333-.7-.5-1.231-.5z" fill="url(#paint4_linear_1403_49214)"/><path d="M89.838 12.351h-2.679l-2.835-4.129v4.13h-2.679V4.138h2.679l2.835 4.199V4.139h2.679v8.212z" fill="url(#paint5_linear_1403_49214)"/><path fill-rule="evenodd" clip-rule="evenodd" d="M125.441 56.47H28v-4.685h97.441v4.685z" fill="url(#paint6_linear_1403_49214)"/><path fill-rule="evenodd" clip-rule="evenodd" d="M51.423 8.685H28V4.937h23.423v3.748zm5.622 0h-2.81V4.937h2.81v3.748z" fill="#fff"/><path fill-rule="evenodd" clip-rule="evenodd" d="M235.063 56.47h-43.099v-4.685h43.099v4.685zm-45.91 0h-2.811v-4.685h2.811v4.685z" fill="#0C77CA"/><path fill-rule="evenodd" clip-rule="evenodd" d="M235.063 8.685H94.523V4.937h140.54v3.748z" fill="#fff"/><path d="M29.529 9.699a1.476 1.476 0 01-.056.211 13.957 13.957 0 00-1.682-1.002 11.818 11.818 0 00-5.146-1.214c-.446 0-.88.022-1.303.078-.802.078-1.604.2-2.406.356a19.46 19.46 0 00-1.18.268l-.29.078-.29.078-.29.077-.29.09c-.779.234-1.536.5-2.283.813-.746.312-1.481.668-2.183 1.069a16.599 16.599 0 00-3.843 2.974c-.412.434-.78.891-1.125 1.37a5.84 5.84 0 00-.367.546 1.021 1.021 0 00-.056.089l-.033-.011c0 .011-.012.044-.034.111-.011.023-.033.045-.044.067l-.156.267-.156.268a.831.831 0 01-.078.133l-.067.134-.134.267-.067.134-.066.134c-.078.19-.167.367-.245.557a.107.107 0 00.044.133c.056.023.111 0 .134-.044.19-.39.4-.769.624-1.136-.1.612-.19 1.47-.156 2.472 0 .123.01.234.01.368a2.508 2.508 0 01-.267-.234 1.675 1.675 0 01-.234-.256 1.687 1.687 0 01-.2-.29 3.313 3.313 0 01-.3-.635 2.932 2.932 0 01-.146-.69c0-.056-.01-.112-.01-.178 0-.056-.012-.123 0-.179v-.178l.01-.178c.012-.134.023-.256.023-.39s0-.256-.011-.39a4.4 4.4 0 00-.1-.768c-.034-.123-.067-.257-.112-.38-.011-.033-.022-.066-.033-.088-.012-.034-.023-.067-.034-.09-.011-.033-.033-.055-.044-.088-.012-.034-.034-.056-.056-.09a.106.106 0 00-.112-.044c-.044.022-.077.067-.055.111v.011c.022.045.033.112.044.168.011.033.011.055.023.089.01.033.01.055.022.089.022.122.033.245.056.356.022.245.033.49.022.735 0 .078-.011.145-.011.223-.346-.334-.847-.958-.88-1.793-.022-.49.568-2.05 2.05-3.82.189-.224.378-.446.6-.67 1.582-1.692 4.423-3.942 8.811-4.967 3.309-.78 6.45-.936 9.056-.457 2.15.39 3.553 1.125 4.155 1.693.768.736.58 1.448.4 1.794a2.925 2.925 0 01-.244-.279 1.182 1.182 0 01-.2-.39.998.998 0 01-.034-.445c0-.045-.022-.09-.067-.1a.093.093 0 00-.111.066 1.232 1.232 0 00-.023.535c.034.178.1.345.19.501.178.312.412.557.612.802.1.123.2.245.279.368.078.122.133.256.156.39a.981.981 0 01-.011.4z" fill="#fff"/><path d="M14.135 16.383a9.88 9.88 0 018.254-7.006c2.217-.29 4.756.245 6.795 1.436 2.05 1.192 3.542 3.431 3.352 5.002.078.19.145.379.2.579.48-.713-.077-2.139-.511-2.918-2.017-3.554-6.673-5.826-10.838-5.28-4.233.546-7.641 3.81-8.533 8.142.279-.044.535-.078.68-.089.2-.022.4.023.601.134z" fill="#fff"/><path d="M29.06 11.014c-1.993-1.158-4.466-1.693-6.638-1.403-3.865.5-7.028 3.208-8.075 6.906.111.089.223.2.334.334.936-3.643 4.077-6.394 7.886-6.884 4.177-.546 8.087 1.715 9.735 5.29-.067-.59-.345-1.269-.79-1.937a7.584 7.584 0 00-2.451-2.306zM14.703 22.72c1.66 3.998 5.836 6.393 10.214 5.825a10.07 10.07 0 001.904-.446h.012c.022-.011 2.472-.635 3.441-2.45-1.436 1.38-3.286 2.26-5.324 2.528a9.53 9.53 0 01-6.115-1.27 9.226 9.226 0 01-3.798-4.444c-.112.1-.223.2-.334.256z" fill="#fff"/><path d="M32.814 17.897c-.601-4.545-4.6-7.842-9.167-7.775a8.62 8.62 0 00-1.07.078c-3.786.49-6.894 3.264-7.74 6.906.356.546.623 1.325.746 2.217.156 1.17 0 2.25-.401 2.907 1.47 3.854 5.547 6.26 9.735 5.714a9.47 9.47 0 001.882-.446 9.067 9.067 0 004.233-3.063 8.68 8.68 0 001.782-6.538zm-5.057-4.767c-.223.601-.924.857-1.57.556-.646-.3-.98-1.024-.758-1.637.223-.601.925-.858 1.57-.557.647.3.981 1.036.758 1.637zm4.166 8.665c-.178.502-.735.713-1.18.446-.28-.167-.435-.49-.435-.813 0-.112.022-.223.056-.323.278-.769.479-2.206.167-3.464-.368-1.493-1.326-2.45-1.994-3.03a.973.973 0 01-.245-1.136l.033-.067c.234-.512.858-.646 1.27-.267.824.746 2.027 2.127 2.517 4.177.457 1.993.134 3.553-.189 4.477z" fill="#000"/><path d="M3.954 22.084c-.29.424-.724.713-1.236.814-.512.1-1.025 0-1.448-.29a1.91 1.91 0 01-.178-3.04c.2.322.412.511.635.612a.95.95 0 00.412.089c.055 0 .1 0 .145-.011a1.2 1.2 0 00.824-.48c.1-.122.178-.267.245-.422.468.278.802.735.913 1.28a1.953 1.953 0 01-.312 1.448z" fill="#A5ABD5"/><path d="M25.196 4.085c-.223-.055-.457-.1-.702-.144-2.673-.48-5.859-.323-9.234.467-4.478 1.047-7.374 3.353-9.022 5.113l-.39.423c-.813.936-1.404 1.827-1.793 2.584a7.594 7.594 0 01-.067-.723c-.023-.457-.011-.903.01-1.36.034-.456.079-.913.146-1.37.044-.334.1-.679.167-1.002.022-.123.044-.234.067-.356.01-.045-.023-.09-.067-.112-.045-.011-.1.011-.112.056-.144.445-.267.902-.367 1.359-.045.2-.09.412-.123.612 0 .023-.01.056-.01.078a7.602 7.602 0 00-.101.702c-.022.234-.045.468-.056.702a7.606 7.606 0 000 .713c.022.456.078.913.223 1.359-.2.49-.29.88-.278 1.136.022.546.211 1.013.445 1.392-.334.546-.468 1.292-.59 2.016-.19 1.092-.346 2.039-1.114 2.139-.357.055-.668-.2-.914-.758a2.909 2.909 0 01-.155-.412C.368 16.238.089 10.68 2.75 6.202 4.478 3.262 7.107 1.446 10.56.81c5.224-.97 9.089.122 11.405 1.203a13.956 13.956 0 013.23 2.071z" fill="red"/><path d="M33.873 22.474a.478.478 0 01-.4.234c-.068 0-.157 0-.246-.034.902-2.005.69-4.243.602-4.9.044.01.089.022.144.044.167.067.357.19.413.423.089.39.077 2.896-.513 4.233z" fill="#00AEEF"/><path d="M22.144 58.13v.022a2.126 2.126 0 01-.257.657 3.82 3.82 0 01-.4.524 6.995 6.995 0 01-.97.857c-.59.435-1.214.791-1.86 1.114.758.524 2.462.524 4.2-.434 1.693-.936 3.018-2.395 3.352-2.796a23.42 23.42 0 01-.479-.635c-.133-.178-.256-.367-.378-.546-.134-.067-1.281-.546-3.208 1.237z" fill="#5E4773"/><path d="M12.197 55.903c-.122.29-.156.646-.111 1.035.044.38.178.724.367.97.179.222.368.334.557.311.19-.022.345-.178.457-.445.122-.29.156-.646.111-1.036a1.992 1.992 0 00-.367-.97c-.156-.2-.334-.311-.502-.311h-.055c-.178.022-.345.178-.457.446z" fill="#00AEEF"/><path d="M21.063 55.923a2.754 2.754 0 00-.958-.668 4.11 4.11 0 00-1.158-.29 5.437 5.437 0 00-.602-.034h-.312l-.156.012-.156.01c-.412.034-.824.09-1.236.157h-.011c-.034 0-.067-.023-.067-.056s.011-.067.044-.078a6.852 6.852 0 011.226-.323 5.116 5.116 0 011.013-.067l-.79-3.274c-.301-.112-1.08-.335-2.15-.312-1.036.022-2.518.29-4.166 1.325-.334.2-.668.446-1.014.713l1.76 7.385.1.4c.234-.255.557-.556.958-.868 1.326-1.058 3.42-2.317 5.18-2.93 1.548-.545 2.45-.556 2.907-.478a2.169 2.169 0 00-.412-.624zm-7.33 2.473l-.657.089c-.01 0-.022 0-.033.01-.033 0-.056.012-.089.012-.256 0-.512-.145-.724-.423-.223-.279-.368-.68-.423-1.103-.056-.423-.011-.846.133-1.18.09-.212.212-.38.357-.48.1-.066.2-.111.323-.122l.646-.09h.044c.58-.077 1.114.591 1.237 1.516.1.78-.134 1.448-.546 1.693-.09.033-.178.067-.267.078z" fill="#189ADA"/><path d="M22.1 57.107c.021.122.044.233.055.356v.09c1.303-1.104 2.283-1.248 2.851-1.182-.067-.111-.145-.222-.211-.345-.357-.033-1.46-.056-2.696 1.08zm-1.76.066c.612-.056 1.069-.011 1.392.145a2.469 2.469 0 00-.09-.39.158.158 0 01-.022-.067c-.29-.09-1.147-.223-2.951.423-2.362.836-5.347 2.83-6.149 3.888l.1.412c.914-1.393 5.904-4.244 7.72-4.411zm-6.283-37.516c.123.913-.022 1.77-.367 2.228a.825.825 0 01-.524.334.572.572 0 00-.122.022 4.98 4.98 0 01-.424.067c.257.278.524.412.769.379.178-.023.345-.134.501-.323.423-.557.602-1.682.446-2.863-.212-1.637-1.014-2.93-1.738-2.84-.312.044-.59.345-.78.857.279-.033.59-.078.713-.089.68-.1 1.348.88 1.526 2.228z" fill="#7C6D88"/><path d="M13.122 21.942c.122-.011.234-.09.334-.223.3-.39.423-1.18.312-2.016-.167-1.27-.769-2.06-1.214-2.005-.045 0-.1.011-.178.022.434.346.79 1.103.913 2.039.122.913-.022 1.76-.368 2.216.011 0 .034 0 .045-.01.078-.012.122-.023.156-.023z" fill="#005373"/><path d="M11.484 18.008c-.3.39-.423 1.18-.312 2.016.167 1.27.758 2.06 1.214 2.005.123-.011.234-.09.335-.223.3-.39.423-1.18.312-2.016-.156-1.225-.724-2.005-1.17-2.005h-.067c-.1.022-.211.1-.312.223z" fill="#00AEEF"/><path d="M14.859 22.217c.423-.557.601-1.682.445-2.862-.211-1.638-1.013-2.93-1.737-2.84-.078.01-.19.021-.312.044.635.434 1.18 1.526 1.359 2.885.167 1.27-.023 2.439-.501 3.063-.023.022-.034.044-.056.066.122-.01.234-.033.312-.033.178-.022.345-.134.49-.323z" fill="#5E4773"/><path d="M50.291 54.61c-.078.59-.2 1.181-.345 1.76-.034.123-.067.257-.1.38-.1.333-.212.667-.346 1.002 0 .01-.01.022-.01.033a6.45 6.45 0 01-.469.97 6.973 6.973 0 01-1.38 1.648 8.652 8.652 0 01-1.794 1.225c-.646.345-1.326.612-2.016.824-.702.212-1.415.379-2.139.49-1.448.223-2.93.257-4.4.134a22.824 22.824 0 01-4.333-.79c-.089-.023-.178-.057-.267-.079-.089-.022-.178-.056-.267-.078-.09-.033-.178-.055-.256-.089l-.257-.09a9.64 9.64 0 01-1.002-.434 11.737 11.737 0 01-.958-.534c-.312-.2-.613-.401-.902-.624-1.159-.891-2.161-1.983-3.019-3.174-.869-1.192-1.593-2.484-2.205-3.821a25.55 25.55 0 01-1.203-3.096c-.078-.234-.145-.48-.212-.713.156.066.312.1.468.1.078 0 .145-.011.223-.022.724-.123 1.28-.87 1.425-1.872.09-.657.023-1.47-.11-2.238.756 1.392 1.313 2.94 1.536 3.62a.526.526 0 00.256.3.447.447 0 00.39.022 1.72 1.72 0 00.212-.089.525.525 0 00.29-.657c-.513-1.526-2.418-5.313-2.819-6.115 1.059-.356 2.083-.924 2.45-1.125.09.045.18.1.268.134.034.022.078.033.112.055.211.09.434.168.657.212l.19.034a2.5 2.5 0 00.645.01 8.35 8.35 0 01.212-.033.324.324 0 01.1-.022l.1-.033c.134-.045.268-.1.39-.179.123-.066.234-.156.346-.245.11-.089.2-.2.29-.3.166-.223.311-.457.411-.713.223.133.59.334.958.479-.089.044-.167.089-.256.133-.323.19-.635.401-.936.646-.29.234-.579.49-.813.791a.068.068 0 000 .09c.023.033.078.033.1.01a7.12 7.12 0 01.87-.657c.3-.2.623-.39.946-.557.167-.089.323-.167.49-.245.167-.078.334-.156.501-.223.334-.144.68-.267 1.025-.378a12.109 12.109 0 014.322-.58c.735.034 1.46.123 2.172.268a15.162 15.162 0 014.11 1.504c.646.345 1.259.746 1.827 1.203.145.111.278.233.423.345.134.122.279.245.401.367.267.257.524.513.757.791a11.2 11.2 0 011.282 1.771c.367.624.69 1.292.935 1.972.256.68.446 1.392.58 2.105.311 1.448.345 2.93.144 4.378z" fill="#C16F39"/><path d="M49.946 56.37c-.034.123-.067.257-.1.38-.1.334-.212.668-.346 1.002 0 .011-.01.022-.01.033a6.45 6.45 0 01-.469.97 6.973 6.973 0 01-1.38 1.648 8.655 8.655 0 01-1.794 1.225c-.646.346-1.326.613-2.016.825-.702.211-1.415.378-2.139.49a18.76 18.76 0 01-4.4.133 22.824 22.824 0 01-4.333-.79c-.089-.023-.178-.056-.267-.078-.089-.023-.178-.056-.267-.078-.09-.034-.178-.056-.256-.09l-.257-.089a9.86 9.86 0 01-1.002-.434 11.457 11.457 0 01-1.86-1.158c-1.159-.892-2.161-1.983-3.019-3.175-.869-1.192-1.593-2.484-2.205-3.82a25.55 25.55 0 01-1.203-3.097c-.078-.234-.145-.48-.212-.713.156.067.312.1.468.1.078 0 .145-.01.223-.022.724-.122 1.28-.869 1.425-1.871.09-.658.023-1.47-.11-2.24.756 1.393 1.313 2.941 1.536 3.62a.526.526 0 00.256.302.447.447 0 00.39.022 1.72 1.72 0 00.212-.09.525.525 0 00.29-.656c-.513-1.526-2.418-5.313-2.819-6.116 1.059-.356 2.083-.924 2.45-1.125.09.045.18.1.268.134.034.023.078.034.112.056.211.089.434.167.657.212.067.01.122.022.19.033l-1.092.713c-.413.267-.569.79-.38 1.236.614 1.437 1.839 4.59 3.52 6.472.914 1.024 2.162 2.16 3.041 2.773.39.279 0 .568-.434.379-1.437-.624-2.64-1.771-4.634-3.275 0 0-2.183.49-2.172 1.794.012 1.303 3.944 8.454 11.429 9.055 6.382.546 10.682-2.227 12.709-4.69z" fill="#B95015"/><path d="M22.288 50.387a7.662 7.662 0 00-3.943.891l-.378-1.593h.089c.133 0 .267 0 .4-.01a4.92 4.92 0 00.402-.045c.133-.023.267-.056.39-.1.044-.012.066-.056.055-.1a.107.107 0 00-.1-.079 2.71 2.71 0 01-.735 0 4.198 4.198 0 01-.368-.056c-.067-.01-.122-.022-.178-.033-.034-.011-.078-.011-.111-.022l-.034-.034c-.022-.022-.056-.044-.078-.078-.022-.022-.056-.044-.089-.066-.033-.023-.056-.045-.089-.067a.962.962 0 00-.178-.112c-.034-.022-.067-.033-.09-.055l-.1-.034a4.07 4.07 0 00-.78-.278 4.079 4.079 0 00-.812-.112c-.034 0-.067-.01-.1 0h-.301l-.401.034c-.034 0-.056.033-.056.055 0 .034.022.067.056.067h.01c.134.011.268.011.39.023l.19.022.1.011c.034 0 .067.011.1.011l.19.034c.067.01.122.033.19.044.122.022.244.067.367.111.234.09.468.19.68.324l.077.044a.337.337 0 01.078.056.337.337 0 01.078.055l.078.056c.022.023.045.034.078.056.022.022.045.033.067.056.022.022.044.033.067.055.01.011.022.011.022.023l.345 1.425a6.775 6.775 0 00-2.072-.278c-1.058.022-2.561.29-4.243 1.314-.335.2-.669.435-1.014.702l-.501-2.094-.29-1.225-.078-.301-.01-.034v-.022l-.012-.022-.033-.1a.889.889 0 00-.09-.179.585.585 0 00-.133-.155c-.023-.023-.056-.045-.078-.067a.337.337 0 00-.078-.056 4.671 4.671 0 01-.245-.167c-.646-.48-1.17-1.125-1.56-1.838a7.219 7.219 0 01-.768-2.306c-.011-.1-.034-.2-.045-.3l-.033-.301c-.022-.2-.022-.401-.022-.602.01-.356.055-.724.1-1.091.223.167.456.323.68.456.1.056.21.123.333.19 1.37.724 4.244 1.715 6.439 1.927.122.378.49.468.868.49h.034c.055 0 .1-.011.156-.022.111.122.356.278.924.3.513.023 1.348.067 1.905.09.39.089.78.155 1.17.189.256.022.512.044.768.044a2.74 2.74 0 00-.022 1.37c.312 1.203 1.114 1.37 1.414 1.382.045.133.1.267.179.39.133.256.3.467.49.634.078.401.178.747.29 1.103z" fill="#A5ABD5"/><path d="M13.6 22.91c-.022.012-.033.012-.056.012 1.827 4.177 6.517 6.861 11.005 6.282h.012c.167-.011.345-.044.534-.067.1-.01.2-.033.312-.044.011 0 .034 0 .045-.011a16.346 16.346 0 001.537-.401c.278-.1.468-.168.468-.179.412-.156.79-.334 1.136-.523.501-.279.869-.635.947-.947.01-.044.01-.078.01-.122-.3.267-.645.512-1.035.735-.825.468-1.549.657-1.627.68-.623.21-1.28.367-1.949.456a9.884 9.884 0 01-6.371-1.292 9.822 9.822 0 01-4.088-4.678c-.033.01-.056.01-.089.01-.167.023-.479.067-.79.09z" fill="#fff"/><path d="M18.412 51.57l.735 3.052a3.91 3.91 0 011.114.29c.412.167.791.423 1.092.757.312.323.534.724.668 1.148 1.103-.97 2.094-1.092 2.607-1.07a26.738 26.738 0 01-.736-1.37h-.033c-.022 0-.045 0-.067-.01-.045 0-.089-.012-.134-.012h-.133c-.045 0-.1 0-.145.011-.19.011-.379.045-.568.09l-.145.044c-.045.01-.089.033-.134.044-.089.034-.178.067-.278.112l-.134.066-.133.067c-.09.045-.179.1-.257.145h-.01c-.045.022-.101.011-.123-.033-.022-.045-.011-.1.033-.123.09-.056.167-.122.256-.178a3.56 3.56 0 01.268-.156c.089-.044.189-.1.278-.134.1-.044.2-.078.29-.111.2-.067.412-.111.623-.134.056 0 .112-.01.157-.01h.222a9.204 9.204 0 01-.223-.48c-.311-.68-.59-1.37-.846-2.072-.09-.267-.178-.523-.267-.79-1.983-.156-3.51.59-3.977.857z" fill="#189ADA"/><path d="M32.28 22.866c.156.022.334.044.534.056.09 0 .09 0 .123-.123a.858.858 0 01.067-.167c1.002-2.183.624-4.7.579-4.979 0-.022-.011-.045-.011-.056-.034-.211-.056-.29-.167-.323l-.48-.133c.056.234.101.479.135.724a9.065 9.065 0 01-.78 5z" fill="#7C6D88"/><path d="M25.096 30.808c-2.117.991-8.767.557-11.941-.757l-.234-.1c-.902-.413-1.426-.88-1.57-1.415a1.07 1.07 0 01.055-.702c.379.212.769.412 1.18.59.213.1.435.19.658.268 1.248.479 2.629.835 4.121 1.047 1.114.156 2.262.245 3.398.245 1.637 0 3.252-.167 4.745-.49.111-.011.223-.034.345-.056.022.345-.033 1.025-.757 1.37zM12.408 41.934c-.946-.245-2.851-.802-4.422-1.637a9.668 9.668 0 01-.88-.524c.156-.423.257-.858.413-1.281l.111-.334c.022-.056.033-.111.056-.167l.066-.167.257-.669c.356-.89.735-1.77 1.147-2.628.212-.446.434-.88.657-1.326-.067.357-.1.713-.111 1.07-.011.445 0 .89.033 1.347v.045c.078.88.256 1.749.535 2.584.29.858.668 1.67 1.158 2.428.312.435.635.858.98 1.259z" fill="#A5ABD5"/><path d="M3.242 40.03l.946-2.238-.59-.401-.902 2.071.546.569zm1.637-4.656c-.034-.01-.056-.01-.09-.01a.388.388 0 00-.245.1.954.954 0 00-.3.434.855.855 0 00-.034.523c.034.145.112.234.212.268.1.033.223.01.334-.078a.954.954 0 00.3-.435.855.855 0 00.034-.523c-.033-.145-.111-.245-.211-.279z" fill="#FCEE21"/><path d="M8.677 29.158c-.412.178-1.804 1.436-3.32 3.352-1.035 1.292-2.884 3.865-3.708 6.472a.774.774 0 00.089.646c.033.056.067.111.1.156.813 1.214 1.504 2.116 1.905 2.495 1.28-4.834 5.569-11.907 6.516-13.433-.513.033-1.114.111-1.582.312zM3.32 40.44l-.902-.936 1.07-2.461.98.657-1.148 2.74zm1.96-4.2a1.151 1.151 0 01-.378.547.674.674 0 01-.39.144.863.863 0 01-.167-.022c-.178-.067-.3-.212-.367-.434-.056-.2-.045-.435.033-.669.078-.222.212-.423.379-.545.178-.134.378-.179.557-.112.178.056.3.212.367.435.056.2.045.434-.033.657z" fill="#7C6D88"/><path d="M26.176 34.537c-.345.012-.635.067-.813.1a1.819 1.819 0 00-.122-.255 1.248 1.248 0 00-.201-.223.494.494 0 00-.122-.09c-.045-.022-.09-.055-.134-.066-.09-.045-.19-.067-.279-.09-.189-.033-.367-.033-.545-.033h-.045v-1.013c0-.134.1-.257.234-.29l.624-.134v.791l.167-.078c.156-.067.568-.211.824-.145.045.123.078.245.123.368a16 16 0 01.29 1.158z" fill="#F7931E"/><path d="M14.269 56.649c-.1-.747-.524-1.326-.925-1.281l-.111.01c.067.056.145.134.2.212.223.279.368.68.424 1.103.055.423.01.847-.134 1.18-.045.101-.09.18-.145.257l.112-.011c.412-.056.68-.724.579-1.47z" fill="#005373"/><path d="M25.663 32.758c-.233-.01-.5.067-.668.123v-.49l.49-.112c.023.067.045.134.078.2.034.09.067.179.1.28z" fill="#00AEEF"/><path d="M23.58 39.295a.58.58 0 01-.178.445.718.718 0 01-.211.145c-.045.023-.09.034-.123.056-.022.011-.044.011-.067.022l-.033.011h-.033c-.023.012-.056.023-.078.034a2.823 2.823 0 00-.88-.624.087.087 0 00-.09.022c-.022.034-.022.078.012.1.345.268.646.569.857.914.223.345.346.735.39 1.147.045.401 0 .824-.111 1.225a3.902 3.902 0 01-.902 1.615 2.06 2.06 0 01-.468.368c-.167.09-.357.156-.557.2a3.86 3.86 0 01-.613.09 6.912 6.912 0 01-1.27-.034 10.108 10.108 0 01-1.27-.222 10.27 10.27 0 01-2.405-.903 7.623 7.623 0 01-1.07-.69 11.877 11.877 0 01-.98-.847l-.1-.1a10.535 10.535 0 01-.034-1.17c.045-1.626.468-2.862 1.281-3.686.936-.958 2.139-1.07 2.585-1.081.256.39.568.724.924 1.002.357.29.758.513 1.18.702a6.96 6.96 0 001.293.401l.067.011.066-.022c.045-.022.1-.033.145-.056.045-.022.1-.033.145-.055a3.8 3.8 0 01.925-.2c.2-.023.412-.023.612 0 .2.033.379.088.535.189.145.1.267.245.345.412.022.044.034.089.056.133.022.045.033.09.045.145 0 .123.01.212.01.3z" fill="#fff"/><path d="M11.818 32.121l-.69.3c-.145 1.059.1 2.507.19 2.953l.734-.279c-.256-1.203-.245-2.495-.234-2.974z" fill="#FCEE21"/><path d="M17.031 36.032c-.022-.056-.055-.112-.078-.167l-.022-.045-.011-.044-.022-.078-.234-.602a17.294 17.294 0 00-1.159-2.317 7.008 7.008 0 00-.746-1.036c-.279-.323-.58-.612-.925-.813-.089-.044-.178-.089-.267-.122-.1-.034-.19-.067-.29-.09-.2-.055-.39-.077-.59-.077-.39 0-.78.111-1.102.334-.201.133-.38.3-.535.501-.1.123-.19.256-.268.39a4.59 4.59 0 00-.434 1.17 7.908 7.908 0 00-.156 1.258 10.768 10.768 0 001.66 6.126c.356.568.78 1.092 1.236 1.582a10.814 10.814 0 010-1.203c.09-1.537.546-2.729 1.348-3.542.925-.936 2.06-1.125 2.618-1.158a.094.094 0 00-.023-.067zm-4.967-4.277l-.012.189c0 .011-.1 1.704.245 3.197l.023.1-1.181.457-.034-.134c-.022-.078-.4-1.927-.211-3.23l.011-.067 1.159-.513z" fill="#1FB1F9"/><path d="M25.407 32.065l-1.314.29a.523.523 0 00-.412.512v1.047a1.75 1.75 0 00-.245.044 4.18 4.18 0 00-.501.134 8.663 8.663 0 00-.49.178 3.98 3.98 0 00-.903.546 2.52 2.52 0 00-.379.39 1.388 1.388 0 00-.256.512l-.033.145-.011.078v.223c.01.044.01.1.022.144.022.123.067.245.134.357-.1.167-.245.345-.334.334a1.217 1.217 0 01-.268-.078c-.167-.067-.39-.156-.668-.078a.927.927 0 00-.334.223c-.123.133-.223.29-.29.423a4.94 4.94 0 01-.69-.457 3.83 3.83 0 01-.836-.913c-.055-.09-.1-.178-.156-.267l-.067-.134-.01-.033-.012-.034-.033-.078a14.362 14.362 0 00-.245-.623 17.675 17.675 0 00-1.181-2.395 9.4 9.4 0 00-.78-1.103 4.057 4.057 0 00-.479-.501c-.089-.078-.19-.156-.29-.234a22.33 22.33 0 002.106.468c.924.156 1.916.278 2.93.345.634.044 1.247.067 1.826.067 1.638 0 2.974-.167 3.787-.48.078.134.234.49.412.948z" fill="#fff"/><path d="M6.94 39.139c-.034.144-.079.29-.101.445a.76.76 0 00-.602-.1.76.76 0 00-.5.4l-.068.168c-.066.2-.066.39-.022.58.09.345.334.668.657.957-.022.034-.044.067-.044.1l-.034.223c-.568-.367-.902-.813-.98-1.325a1.51 1.51 0 01.123-.88 1.4 1.4 0 01.267-.401c.345-.368 1.002-.245 1.303-.167z" fill="#1FB1F9"/><path d="M5.013 40.62a1.78 1.78 0 01.445-1.47c.446-.457 1.203-.323 1.548-.223l.167-.534.112-.346c.022-.055.033-.111.056-.178l.066-.167.245-.68c.346-.902.736-1.793 1.148-2.673.412-.869.857-1.737 1.325-2.584.457-.824.925-1.637 1.437-2.44a1.867 1.867 0 01-.334-.478c-.078 0-.312-.011-.624 0-.68 1.091-5.335 8.632-6.616 13.633.612.38 1.715.635 2.15.724v-.233c0-.268.033-.535.055-.791-.857-.535-1.114-1.136-1.18-1.56z" fill="#3E2A51"/><path d="M26.91 35.785a2.238 2.238 0 00-1.158.512c-.2.18-.367.424-.434.691a1.334 1.334 0 00-.033.424c.01.145.044.29.11.412.057.134.146.256.257.356a3.09 3.09 0 00-.167.758c-.011.055-.011.1-.011.156-.011.122 0 .256 0 .378-.245.212-.847.747-1.504 1.159a4.891 4.891 0 01-.523.3 1.367 1.367 0 01-.034-.11 4.125 4.125 0 00-.145-.324l-.1-.167c.023-.011.045-.011.067-.022.056-.023.123-.045.178-.078.112-.056.234-.134.323-.223a.89.89 0 00.223-.345 1.01 1.01 0 00.067-.401c0-.134-.022-.256-.056-.379a1.09 1.09 0 00-.055-.178 82.96 82.96 0 01-.067-.167 1.403 1.403 0 00-.49-.59 1.678 1.678 0 00-.702-.257h-.034a2.688 2.688 0 00-.668 0 4.568 4.568 0 00-.68.123c-.11.033-.222.055-.322.1-.056.022-.112.033-.168.056l-.1.033a6 6 0 01-1.147-.379h-.011c.1-.189.245-.39.379-.434.133-.045.222-.011.39.056.11.044.233.1.378.111.29.033.524-.212.657-.4.078.066.156.122.245.166a1.3 1.3 0 00.49.178c.023 0 .034 0 .045-.022.011-.022.011-.044-.011-.056a1.828 1.828 0 01-.657-.646.996.996 0 01-.123-.39.608.608 0 010-.2c0-.022 0-.033.011-.056l.012-.044c0-.034.01-.067.022-.1.044-.123.111-.245.2-.357.09-.111.19-.212.312-.3l.011-.012c.234-.19.513-.334.802-.468 0 0 .011 0 .011-.01.279-.123.58-.224.88-.29.156-.034.301-.067.457-.078.156-.011.3-.023.446 0 .267.033.49.189.612.456.134.257.178.58.2.903 0 .022.023.044.045.055.034.011.067-.01.078-.044a1.58 1.58 0 00.078-.513v-.122a5.68 5.68 0 01.747-.1.51.51 0 01.423.144c.156.245.223.568.245.736z" fill="#C16F39"/><path d="M25.451 39.496c-.245.212-.846.747-1.503 1.159a4.88 4.88 0 01-.524.3c-.01-.033-.022-.066-.033-.111a4.142 4.142 0 00-.145-.323l-.1-.167c.022-.011.044-.011.067-.022.055-.023.122-.045.178-.078.111-.056.234-.134.323-.223a.89.89 0 00.223-.345c.055-.134.066-.268.066-.401 0-.134-.022-.256-.055-.38a1.089 1.089 0 00-.056-.177l-.067-.167a1.402 1.402 0 00-.49-.59 1.677 1.677 0 00-.702-.257H22.6a2.684 2.684 0 00-.668 0 4.566 4.566 0 00-.68.123c-.111.033-.223.055-.323.1-.055.022-.111.033-.167.056l-.1.033a6.07 6.07 0 01-1.147-.379h-.012c.1-.19.245-.39.38-.434.133-.045.222-.011.389.056.111.044.234.1.379.11.29.034.523-.21.657-.4.078.067.156.123.245.167a1.3 1.3 0 00.49.178c.022 0 .033 0 .045-.022.01-.022.01-.045-.012-.056a1.829 1.829 0 01-.657-.646.996.996 0 01-.122-.39.608.608 0 010-.2c0-.022 0-.033.01-.056l.012-.044a.32.32 0 01.022-.1c.045-.123.112-.246.2-.357a1.6 1.6 0 01.313-.3l.01-.012c.235-.19.513-.334.803-.468 0 0 .01 0 .01-.01-.266.456-.6 1.224-.255 1.625.523.59 1.615.87 1.648 1.248.045.379.568.813.435 1.392-.134.58.122.825.122.825l.847-.658a1.265 1.265 0 00-.023.401z" fill="#B95015"/><path d="M26.554 34.35c.023.09.034.179.045.268.111.044.2.1.29.178.311.29.4.735.423.958h.011c.067 0 .122 0 .19.01.122.012.244.023.367.045.033.012.056.045.044.067-.01.034-.033.045-.055.045-.468.011-.936.1-1.326.29-.022.01-.055.022-.078.033l-.067.044-.066.045-.067.045-.067.044a.297.297 0 00-.067.056 1.189 1.189 0 00-.122.1 1.078 1.078 0 00-.29.512.864.864 0 00.056.557.64.64 0 00.156.223.735.735 0 00.222.156c.023.011.045.022.067.022l.034.011.033.012c.045.01.09.022.145.022.111.011.212.011.312 0a.976.976 0 00.378-.1.528.528 0 01.078-.034.557.557 0 00.134-.089l.011-.011c.023-.011.056-.011.067.011.011.011.011.034.011.045a.698.698 0 01-.245.323.941.941 0 01-.367.178 1.653 1.653 0 01-.401.056c-.067 0-.134 0-.212-.011l-.056-.012-.055-.01-.1-.034h-.012c-.056.19-.1.378-.122.579-.023.234-.023.479.022.713.022.111.044.234.089.334.045.111.09.212.145.312.122.2.267.379.445.523.179.156.39.279.613.38.223.1.446.188.68.233.467.1.946.056 1.347-.178a1.875 1.875 0 00.524-.457c.145-.178.267-.39.356-.613a2.97 2.97 0 00.19-.701 1.86 1.86 0 000-.702 3 3 0 00-.179-.69 4.304 4.304 0 00-.145-.335 4.627 4.627 0 00-.178-.323 4.66 4.66 0 00-.445-.601 5.892 5.892 0 00-.256-.279c-.09-.089-.179-.178-.279-.256-.033-.022-.033-.067-.011-.1.022-.022.056-.033.09-.011.122.067.222.145.333.223.1.077.212.155.312.245.19.167.368.345.524.545-.134-1.27-.613-2.417-1.17-3.364-1.091-.11-1.971.29-2.306.468z" fill="#fff"/><path d="M28.682 33.613c-.245-.39-.512-.746-.757-1.058a14.473 14.473 0 00-2.094-2.094c-.1.167-.256.312-.457.434.178.38.813 1.827 1.125 3.153a4.197 4.197 0 012.183-.435z" fill="#1FB1F9"/><path d="M11.305 30.563a2.376 2.376 0 011.382-.412h.122a4.43 4.43 0 01-.947-.557c-.2.323-.4.657-.601.991a.085.085 0 00.044-.022z" fill="#616DA4"/><path d="M22.333 48.129c.078.167.167.3.267.4.09.09.234.112.368.067.334-.122.58-.612.657-1.325.056-.501-.011-1.125-.122-1.738-.078.958-.335 2.161-1.17 2.596z" fill="#8E3104"/><path d="M20.685 46.734c-.19-.39-.1-.913-.012-1.236-.055.011-.1.011-.155.022-.1.011-.201.011-.301.011-.067.223-.19.758-.045 1.304.245.924.78 1.125 1.058 1.17a3.99 3.99 0 01-.122-.87.826.826 0 01-.423-.4z" fill="#DE926A"/><path d="M20.974 45.453c-.078.267-.211.813-.044 1.158.044.09.1.145.167.2.022-.59.145-1.113.245-1.436-.056.011-.1.033-.156.045-.056.01-.134.022-.212.033z" fill="#8E3104"/><path d="M16.095 44.93c.2.012.446.023.702.034a12.684 12.684 0 01-1.214-.501c-.045.1-.1.2-.19.29.09.066.279.155.702.178z" fill="#007AA7"/><path d="M14.981 44.653c.178.01.29-.167.357-.312-.011 0-.011-.011-.023-.011a3.732 3.732 0 01-.4-.234c-.034.078-.067.133-.1.19a.428.428 0 01-.346.177h-.045c.09.123.257.167.557.19z" fill="#5E4773"/><path d="M26.71 49.152c-.033.01-.077.033-.11.044-.034.011-.056.022-.09.034a.248.248 0 01-.178-.012.283.283 0 01-.123-.133c-.267-.802-.99-2.83-1.971-4.378a10.094 10.094 0 00-.223-.88c-.122-.456-.245-.824-.3-1.013.1-.023.2-.056.311-.09.346.691 2.306 4.6 2.818 6.116.045.122-.01.267-.133.312z" fill="#FFC9A8"/><path d="M7.552 40.375c-.2.2-.367.602-.445 1.036a4.667 4.667 0 00-.045.412c-.813-.557-1.192-1.047-1.17-1.492a.52.52 0 01.034-.19.68.68 0 01.056-.133.492.492 0 01.312-.245c.144-.034.3 0 .423.089.256.178.546.356.835.523zm1.615 2.128c-.067.1-.145.19-.234.279l.012.01c-.613-.244-1.125-.49-1.46-.701-.066-.034-.122-.078-.178-.111 0-.145 0-.29.022-.424.067-.523.279-.935.446-1.058.535.29 1.114.546 1.682.769 0 .278-.022.813-.29 1.236zm2.106.646a1.163 1.163 0 01-.257.356c-.657-.2-1.292-.412-1.86-.635.09-.089.167-.189.223-.29.256-.422.3-.913.3-1.224.647.244 1.27.445 1.805.601.011.223.023.746-.211 1.192zm3.407.802a.668.668 0 01-.089.178.159.159 0 01-.133.067 12.5 12.5 0 01-1.337-.167c.09-.122.167-.267.212-.4.089-.223.122-.435.144-.613.223.2.457.4.702.579.112.089.234.178.357.256.055.033.1.067.145.1zm-1.414-1.136c-.01.19-.033.479-.156.757a1.87 1.87 0 01-.234.401c-.523-.1-1.069-.234-1.603-.39.1-.111.178-.245.245-.367.211-.435.222-.913.211-1.18.457.133.813.222 1.025.267.134.144.278.29.412.423.033.033.067.055.1.089z" fill="#7C6D88"/><path d="M25.697 40.43a12.52 12.52 0 01-1.615 1.103c-.168.09-.335.179-.513.268 0-.09-.011-.167-.022-.256-.011-.1-.034-.2-.056-.301.056-.022.112-.056.167-.09.724-.378 1.448-.98 1.827-1.302.022.122.056.245.1.356.034.067.067.145.112.223zm.78.916c-.468.256-1.482.79-2.462 1.091-.167.056-.334.1-.501.134.033-.156.044-.312.055-.48.1-.044.19-.088.279-.133.858-.423 1.637-1.014 1.983-1.292.133.2.29.39.479.546.055.055.11.089.167.133z" fill="#FFC9A8"/><path d="M22.11 47.105c.012.29.056.546.123.757 1.192-.657.991-3.33.969-3.553-.045-.178-.1-.345-.134-.479-.067.111-.133.234-.2.345-.022.034-.056.078-.078.112.044.523.111 2.194-.68 2.818z" fill="#DE926A"/><path d="M22.522 44.607c-.01.012-.01.012-.022.023-.267.768-.39 1.481-.4 2.083.411-.524.445-1.515.422-2.106z" fill="#8E3104"/><path d="M24.249 47.75c-.078.568-.301 1.036-.613 1.325a1.131 1.131 0 01-.59.312 1.01 1.01 0 01-.747-.167c-.022-.067-.077-.1-.144-.111a1.877 1.877 0 01-.424-.557c-.668-1.259-.211-2.818-.044-3.297.056-.023.122-.056.178-.09.078-.044.156-.1.223-.144-.501 1.77-.256 3.174.3 3.709.09.09.212.145.335.167.033 0 .056.011.089.011a.582.582 0 00.234-.044c.212-.078.702-.379.835-1.56.145-1.292-.468-3.275-.646-3.843.078-.178.145-.356.19-.545 0-.011.01-.034.01-.045.09.279.335 1.036.535 1.927.234.98.401 2.105.279 2.952z" fill="#FFC9A8"/><path d="M27 11.493c-.646-.3-1.348-.044-1.57.557-.223.602.111 1.337.757 1.638.646.3 1.348.044 1.57-.557.223-.602-.11-1.337-.757-1.638zm2.584 1.65c-.412-.379-1.035-.245-1.27.267l-.033.067a.973.973 0 00.245 1.136c.669.568 1.627 1.537 1.994 3.03.312 1.259.112 2.696-.167 3.464-.145.423.011.902.379 1.136.445.268.991.067 1.18-.445.324-.914.658-2.484.179-4.478-.48-2.05-1.682-3.43-2.507-4.177z" fill="#28182C"/><path d="M21.509 29.55a23.902 23.902 0 01-4.088-.222c-1.782-.256-3.408-.713-4.8-1.348-1.415-.646-2.596-1.46-3.465-2.428a8.563 8.563 0 01-1.192-1.671 9.31 9.31 0 001.281.212c.947.1 2.373.167 4.467.078a11.275 11.275 0 004.01 3.987 11.21 11.21 0 003.787 1.392z" fill="#A5ABD5"/><path d="M13.088 22.922c.1.256.222.501.345.746-.635.034-2.73.1-4.5-.1a11.371 11.371 0 01-1.237-.211c-.735-1.549-.958-3.097-.99-4.289v-.367c0-1.738.356-2.997.367-3.019l-.023-.011c.223-.323.468-.635.713-.947.134-.145.256-.3.39-.457l.401-.434c.145-.145.29-.3.446-.434a14.08 14.08 0 011.604-1.326 33.265 33.265 0 013.698-.056 11.024 11.024 0 00-1.883 4.39c-.412.122-.735.556-.924 1.224a.99.99 0 00-.223.212c-.345.457-.49 1.303-.368 2.228.167 1.247.747 2.172 1.37 2.238.245.335.524.546.814.613z" fill="#1FB1F9"/><path d="M14.647 11.56A10.483 10.483 0 0118.1 8.764c-.078.022-.167.033-.245.055l-.29.078-.29.078-.289.078-.29.09c-1.525.456-3.007 1.058-4.388 1.837-.334.19-.657.379-.97.59a35.19 35.19 0 013.309-.01z" fill="#A5ABD5"/><path d="M14.08 60.758c-.079.055-.145.111-.223.167l-.2.167 2.995.58c.246-.09.49-.179.736-.28l-3.309-.634zm3.163-1.973c-.179.09-.357.19-.535.29l3.62.701c.123-.089.234-.178.357-.278l-3.442-.713zm-3.821 2.508c-.055.056-.111.1-.155.145-.045.044-.09.1-.134.145l2.228.456c.066-.01.133-.033.2-.044.078-.023.156-.034.234-.056l.368-.1-2.74-.546zm6.205-1.027c.144-.089.29-.19.434-.29l-3.676-.712c-.156.089-.323.189-.479.278l3.72.724zm-6.661 1.529a.617.617 0 00-.09.167c.012.011.023.011.034.022.145.09.323.145.512.19.19.033.39.044.58.044.2 0 .4-.022.601-.044.033 0 .078-.011.111-.011l-1.748-.368zm8.443-3.04c.044-.055.078-.111.122-.167.023-.033.034-.067.056-.1.011-.033.033-.067.044-.09l-2.461-.478-.268.1c-.089.034-.178.078-.278.112l2.785.623zm-2.585 1.969c.167-.09.323-.178.49-.268l-3.709-.724a5.05 5.05 0 00-.256.168c-.09.055-.167.11-.256.167l3.731.657zm2.896-2.572c.012-.023.012-.056.023-.078 0-.023.01-.045.01-.067 0-.022 0-.045.012-.067v-.033.01s0-.077-.09-.155c-.122-.1-.445-.256-1.28-.178a.855.855 0 00-.167.022.56.56 0 01-.134.022c-.011 0-.022 0-.045.011-.055.011-.122.034-.189.045-.067.022-.133.033-.2.056l2.06.412zm-.813 1.148c.034-.023.056-.056.09-.09l.166-.167c.023-.022.045-.056.067-.078l-2.985-.668c-.1.044-.212.1-.323.145 0 0-.011 0-.011.01-.112.056-.212.101-.323.157l3.32.69zm-6.127.956c-.077.044-.144.1-.21.145-.068.044-.146.1-.213.144l3.442.669c.112-.045.223-.1.323-.145.112-.056.234-.111.346-.167l-3.687-.646z" fill="#5E4773"/><path d="M50.035 47.989a13.781 13.781 0 00-.969-2.05c-.39-.646-.835-1.27-1.337-1.838a10.846 10.846 0 00-.79-.813 6.831 6.831 0 00-.424-.379c-.145-.122-.29-.245-.434-.356-1.192-.936-2.54-1.649-3.954-2.161a15.025 15.025 0 00-2.172-.613 13.807 13.807 0 00-2.24-.267 12.684 12.684 0 00-4.466.624c-.356.122-.713.256-1.058.4-.078.034-.156.079-.245.112-.446-.111-1.07-.468-1.337-.624.034-.133.067-.256.09-.39a2.99 2.99 0 00.033-.835 2.706 2.706 0 00-.234-.79c.011-2.384-1.203-4.412-2.239-5.693a13.283 13.283 0 00-2.25-2.227c.078-.268.078-.524.067-.702.78-.19 1.504-.479 1.537-.49a9.677 9.677 0 001.18-.546c.613-.334 1.037-.78 1.148-1.214a.736.736 0 00-.056-.557c.39-.423.669-.891.836-1.403a8.822 8.822 0 001.448-2.106c.178.034.39.056.623.067h.034c.212 0 .278-.134.312-.245a.9.9 0 00.29.045.719.719 0 00.634-.357v-.01c.602-1.349.657-3.888.535-4.39-.111-.478-.613-.623-.813-.657-.033-.2-.078-.412-.334-.479l-.602-.167c.858-.757.379-2.417-.29-3.609-.657-1.17-1.603-2.227-2.75-3.107.055-.123.088-.256.122-.39a1.622 1.622 0 000-.568 1.668 1.668 0 00-.212-.524c-.1-.156-.2-.3-.323-.412-.033-.044-.078-.078-.111-.111.223-.39.635-1.415-.423-2.406-.48-.457-1.437-1.014-2.819-1.437-.233-.245-1.514-1.548-3.887-2.673A17.063 17.063 0 0017.276.193c-2.15-.312-4.444-.245-6.794.2C8.61.75 6.95 1.451 5.547 2.465a11.565 11.565 0 00-3.163 3.509C.903 8.469.401 11.153.245 12.969c-.189 2.127 0 4.321.502 5.847.044.145.1.268.144.39a2.342 2.342 0 00-.846 2.273c.122.612.468 1.136.991 1.492.39.256.847.401 1.304.401a2.362 2.362 0 001.96-1.036 2.261 2.261 0 00.356-1.748 2.284 2.284 0 00-1.18-1.593c.111-.368.178-.78.256-1.192.1-.613.211-1.237.445-1.716.212.257.413.435.546.535a4.557 4.557 0 00-.011.78c.022.267.078.534.156.79.09.257.2.502.345.736.078.111.156.223.234.323.09.1.178.2.279.29.1.088.2.178.312.256.055.044.11.078.167.111.033.022.055.033.089.056l.044.022c.179 1.749.791 3.954 2.506 5.859.635.713 1.426 1.337 2.35 1.882a1.382 1.382 0 00-.11.702c-.457-.011-1.705-.011-2.585.357-.534.222-1.982 1.592-3.486 3.486-1.047 1.325-2.94 3.932-3.776 6.605a1.15 1.15 0 00.145 1.003c.612.924 1.726 2.528 2.305 2.918.724.479 2.106.78 2.473.846l.033.301c.012.112.034.212.045.323.145.847.401 1.682.813 2.44.412.757.97 1.436 1.671 1.971.09.067.178.134.267.19.023.022.034.022.056.033.011.011.033.022.045.033.022.023.055.056.066.09.023.033.034.066.056.1.011.022.011.033.022.055v.034l.011.033.078.3.29 1.226 2.317 9.769.29 1.225.022.09c.01.044.022.077.044.1a1.065 1.065 0 00.401.434c.212.133.435.2.658.245.222.044.445.055.668.055.223 0 .434-.022.646-.044.211-.022.423-.067.635-.1.211-.045.412-.09.623-.145.38-.1.747-.223 1.114-.357h.023v-.01c.4-.145.79-.313 1.17-.49.378.356 1.035.567 1.826.567.88 0 1.927-.245 2.985-.835 1.704-.936 2.996-2.34 3.42-2.83.701.847 1.47 1.627 2.35 2.295.3.234.613.446.924.646.323.2.646.39.992.557.334.167.69.323 1.036.457l.267.1c.09.033.178.056.267.09.09.033.178.055.268.077.089.023.178.056.267.078a22.78 22.78 0 004.41.802c1.493.123 3.008.09 4.49-.133a15.048 15.048 0 002.205-.502 11.82 11.82 0 002.094-.857c.669-.357 1.303-.78 1.883-1.281a7.492 7.492 0 001.47-1.76c.2-.323.367-.68.501-1.036.134-.357.256-.713.368-1.07.211-.723.379-1.459.479-2.205.2-1.492.167-3.018-.112-4.511a10.35 10.35 0 00-.579-2.206zM30.041 37.294a4.046 4.046 0 00-.835-.79c-.111-.078-.212-.156-.334-.223-.034-.022-.067-.011-.09.01-.022.034-.022.079.012.101.089.078.19.167.278.256.09.09.178.179.256.279.168.19.312.39.446.601.067.1.122.212.178.323.056.112.1.223.145.335.09.222.134.456.178.69.034.234.045.468 0 .702-.044.245-.1.479-.19.702a2.39 2.39 0 01-.356.612 2.47 2.47 0 01-.245.256 1.562 1.562 0 01-.278.2c-.401.235-.88.28-1.348.18a2.457 2.457 0 01-.68-.235 2.679 2.679 0 01-.612-.378 1.99 1.99 0 01-.445-.524c-.056-.1-.1-.2-.145-.312-.045-.111-.067-.223-.09-.334a2.535 2.535 0 01-.022-.713c.023-.2.067-.39.123-.58h.011l.1.034.056.011.056.012c.066.01.144.01.211.01.134 0 .268-.01.401-.055.134-.033.256-.1.368-.178a.7.7 0 00.245-.323c0-.011 0-.034-.011-.045-.023-.022-.045-.022-.067-.011l-.011.011a.932.932 0 01-.134.09c-.022.01-.044.022-.078.033-.022.01-.044.022-.078.033a1.457 1.457 0 01-.613.067.565.565 0 01-.144-.022l-.034-.011-.033-.012c-.022-.01-.045-.01-.067-.022a.62.62 0 01-.223-.156c-.067-.067-.111-.145-.156-.223a.865.865 0 01-.055-.556 1.064 1.064 0 01.412-.613c.022-.022.044-.034.067-.056l.066-.044.067-.045.067-.044.067-.045a.557.557 0 01.078-.033c.4-.19.869-.279 1.325-.29.023 0 .056-.022.056-.045.011-.033-.011-.066-.044-.066a2.011 2.011 0 00-.368-.045c-.067 0-.123 0-.19-.011h-.01c-.023-.223-.112-.668-.424-.958a.887.887 0 00-.29-.178c-.01-.09-.033-.178-.044-.268a3.82 3.82 0 012.317-.423c.557.902 1.025 2.05 1.158 3.32zm-8.465 17.588c.022.045.078.067.122.034h.012c.089-.045.178-.1.256-.145l.133-.067.134-.067c.09-.033.178-.078.279-.111.044-.011.089-.034.133-.045l.145-.044c.19-.045.379-.078.568-.09.045 0 .1-.01.145-.01h.134c.044 0 .089.01.133.01.023 0 .045 0 .067.012h.034c.233.468.479.924.735 1.37-.513-.022-1.504.111-2.607 1.07a3.054 3.054 0 00-.668-1.148c-.3-.323-.69-.58-1.092-.758a3.916 3.916 0 00-1.114-.29l-.735-3.051c.468-.256 1.994-1.014 3.966-.891.089.267.178.523.267.79.256.702.535 1.393.846 2.072.078.156.145.323.223.48h-.222c-.055 0-.11.01-.155.01a3.882 3.882 0 00-.624.134c-.1.034-.2.067-.29.111-.1.045-.19.09-.278.134-.09.045-.178.1-.268.156a3.59 3.59 0 00-.256.178c-.033.056-.044.112-.022.156zm.58 2.685v-.09c-.012-.122-.034-.233-.056-.356 1.236-1.136 2.339-1.125 2.695-1.08.067.111.145.234.212.345-.557-.067-1.538.067-2.852 1.18zm3.185-.68c.089.134.178.268.278.401l-1.615-.356c.791-.267 1.259-.078 1.337-.045zm-9.435 2.662c.011-.01.023-.01.034-.022.145-.089.3-.178.445-.267l3.676.713c-.145.1-.29.2-.434.29l-3.72-.714zm3.409.914c-.011.01-.023.01-.034.022-.133.078-.278.156-.423.234-.011.011-.022.011-.033.022l-3.743-.668c.078-.056.167-.111.256-.167.09-.056.167-.112.257-.167l3.72.724zm-2.596-1.381l.012-.012c.156-.089.311-.167.467-.256a.084.084 0 01.045-.022l3.43.713c-.01.011-.022.011-.022.022-.1.09-.211.178-.323.256l-3.608-.701zm.88-.468c.112-.056.212-.112.323-.156 0 0 .012 0 .012-.011.1-.045.189-.09.278-.134.011 0 .022-.011.034-.011l2.985.668c-.023.023-.045.056-.067.078l-.167.167-.09.09-3.308-.691zm1.025-.48c.011 0 .023-.01.023-.01.089-.034.167-.067.256-.1l.267-.1 2.462.478c-.012.034-.034.067-.045.09-.022.033-.033.066-.056.1-.033.055-.078.11-.122.166l-2.785-.623zm1.014-.378a1.34 1.34 0 01.2-.056c.067-.022.123-.033.19-.044.01 0 .022 0 .044-.011a.556.556 0 01.134-.023c.056-.01.111-.022.167-.022.835-.078 1.158.078 1.28.178.09.078.09.145.09.156v-.01.033c0 .022 0 .055-.011.066 0 .023 0 .045-.011.067a.207.207 0 01-.023.078l-2.06-.412zm2.673-8.532c-.022-.067-.078-.1-.145-.111a2.033 2.033 0 01-.423-.557c-.668-1.26-.212-2.819-.044-3.297.055-.023.122-.056.178-.09.078-.044.156-.1.223-.144-.502 1.77-.257 3.174.3 3.709a.598.598 0 00.424.167.582.582 0 00.233-.045c.212-.078.702-.378.836-1.56.145-1.291-.468-3.274-.646-3.842a3.18 3.18 0 00.19-.546c0-.01.01-.022.01-.044.09.278.334 1.036.535 1.927.212.969.39 2.094.267 2.94-.122.891-.59 1.537-1.203 1.638a.874.874 0 01-.735-.145zm-1.626-2.484a.807.807 0 00.423.39c.011.29.045.579.123.869-.279-.045-.814-.245-1.059-1.17-.144-.535-.022-1.07.045-1.303.1 0 .2-.011.3-.011.056 0 .101-.011.157-.023-.09.346-.178.87.01 1.248zm.423.078a.419.419 0 01-.167-.2c-.167-.346-.044-.892.045-1.159.078-.011.144-.022.222-.044a.823.823 0 00.156-.045 5.478 5.478 0 00-.256 1.448zm-.011-1.816c-.2.045-.412.078-.613.09a6.913 6.913 0 01-1.27-.034 10.111 10.111 0 01-1.27-.223c-.835-.2-1.648-.501-2.405-.902a7.622 7.622 0 01-1.07-.69 10.07 10.07 0 01-.98-.847l-.1-.1c-.167-2.206.256-3.843 1.248-4.846.935-.958 2.138-1.069 2.584-1.08.256.39.568.724.924 1.002.357.29.758.513 1.18.702a6.96 6.96 0 001.293.401l.067.011.067-.022c.044-.022.1-.033.145-.056.044-.022.1-.033.144-.055.1-.034.2-.067.301-.09.2-.055.412-.089.613-.11.211-.023.412-.023.612 0 .2.021.379.088.535.188.156.1.267.245.345.413.023.044.034.089.056.133.022.045.033.09.044.145.023.09.034.19.045.279a.58.58 0 01-.178.445.716.716 0 01-.212.145c-.044.022-.089.033-.122.056-.023.01-.045.01-.067.022l-.034.011h-.033a.534.534 0 00-.078.033 2.823 2.823 0 00-.88-.623.087.087 0 00-.089.022c-.022.033-.022.078.011.1.345.267.646.568.858.913.223.346.345.736.39 1.148.044.4 0 .824-.112 1.225a3.9 3.9 0 01-.523 1.136 3.186 3.186 0 01-.39.48 2.06 2.06 0 01-.468.367c-.167.1-.367.156-.568.211zm-4.3-.033a61.924 61.924 0 01-.701-.033c-.424-.023-.613-.112-.702-.179a.925.925 0 00.19-.29c.4.19.801.357 1.213.502zm-7.863-2.183c-.613-.245-1.125-.49-1.46-.702-.066-.033-.122-.078-.178-.111-.01-.713.245-1.326.468-1.482.535.29 1.114.546 1.682.769.011.356-.022 1.091-.512 1.526zm.824-7.173c.078.89.256 1.782.546 2.628.29.847.668 1.671 1.158 2.428.29.446.613.87.958 1.27-1.136-.3-3.642-1.036-5.29-2.15.155-.423.255-.857.411-1.28l.112-.346c.022-.056.033-.111.055-.167l.067-.167.256-.668a45.34 45.34 0 011.805-3.954c-.067.356-.1.712-.112 1.069a8.97 8.97 0 00.034 1.337zm15.55 1.392a1.334 1.334 0 00-.034.423c.011.145.044.29.111.412.056.134.145.256.256.357-.089.256-.144.5-.166.768a2.861 2.861 0 00-.012.535c-.3.267-1.192 1.047-2.027 1.459a1.355 1.355 0 01-.033-.111 2.139 2.139 0 00-.156-.323l-.1-.168c.022-.01.044-.01.066-.022.056-.022.123-.044.178-.078.112-.055.234-.133.324-.223.1-.1.178-.211.222-.345.056-.133.067-.267.067-.4 0-.134-.022-.257-.056-.38a1.099 1.099 0 00-.055-.178l-.067-.167a1.402 1.402 0 00-.49-.59 1.677 1.677 0 00-.702-.256 3.068 3.068 0 00-.713-.011 4.566 4.566 0 00-.68.122l-.333.1c-.056.023-.112.034-.168.056l-.1.033a5.771 5.771 0 01-1.147-.378h-.011c.1-.19.245-.39.379-.435.133-.044.222-.01.39.056.11.044.233.1.378.111.29.034.524-.211.657-.4.078.066.156.122.245.166a1.3 1.3 0 00.49.179c.012 0 .034 0 .045-.023.011-.022.011-.044-.011-.055a1.828 1.828 0 01-.657-.646.996.996 0 01-.123-.39.608.608 0 010-.2c0-.023 0-.034.011-.056l.011-.045c0-.033.012-.067.023-.1.044-.123.111-.245.2-.357.09-.111.2-.211.323-.3.234-.19.513-.334.802-.468.29-.123.59-.223.891-.3.156-.034.301-.068.457-.079.156-.011.3-.022.446 0 .278.034.49.19.612.457.134.256.178.579.2.902 0 .022.023.045.045.056.034.01.067-.011.078-.045.056-.167.078-.334.078-.512v-.123c.156-.033.435-.078.746-.1a.51.51 0 01.424.145c.2.19.267.523.29.69a2.75 2.75 0 00-.502.123c-.245.09-.468.223-.668.39-.2.211-.368.457-.435.724zm.39 3.43c-.335.268-1.204.936-2.117 1.37a1.85 1.85 0 00-.022-.256c-.012-.1-.034-.2-.056-.311.78-.38 1.593-1.036 1.994-1.393.022.123.055.245.1.357.022.078.056.155.1.233zM22.79 44.29c.022-.034.056-.078.078-.112.078-.111.134-.223.2-.345.045.133.09.3.134.479.022.222.212 2.907-.969 3.553a3.078 3.078 0 01-.122-.758c.79-.623.724-2.294.679-2.817zm-.68 2.428a6.825 6.825 0 01.402-2.083l.022-.023c.011.59-.022 1.582-.423 2.106zm1.382-1.181c.111.602.178 1.236.122 1.738-.078.712-.323 1.203-.657 1.325a.364.364 0 01-.367-.067c-.1-.1-.19-.234-.268-.4.847-.435 1.103-1.638 1.17-2.596zm2.673-10.994c-.345.011-.635.067-.813.1a1.807 1.807 0 00-.123-.256 1.251 1.251 0 00-.2-.222.494.494 0 00-.123-.09c-.044-.022-.089-.055-.133-.066-.09-.045-.19-.067-.279-.09-.19-.033-.367-.033-.546-.033h-.044v-1.014c0-.133.1-.256.234-.29l.624-.133v.79l.167-.077c.156-.067.568-.212.824-.145.167.501.334 1.036.412 1.526zm-1.17-1.66v-.49l.49-.111c.056.145.112.312.179.468-.234-.011-.501.067-.669.134zm-.902-.534a.523.523 0 00-.412.512v1.047c-.078.011-.167.023-.245.045a4.162 4.162 0 00-.501.133 8.663 8.663 0 00-.49.179 3.98 3.98 0 00-.902.546 2.519 2.519 0 00-.38.39 1.388 1.388 0 00-.255.512c-.012.044-.023.1-.034.145l-.01.078v.211c.01.045.01.1.021.145.023.123.067.245.134.356-.1.167-.245.346-.334.334a1.21 1.21 0 01-.267-.077c-.179-.067-.39-.156-.669-.078-.29.089-.501.412-.624.646a4.942 4.942 0 01-.69-.457 3.832 3.832 0 01-.836-.913c-.055-.09-.11-.179-.155-.268l-.067-.133-.011-.034-.012-.033-.033-.078a14.495 14.495 0 00-.245-.624 17.687 17.687 0 00-1.18-2.395 9.4 9.4 0 00-.78-1.103 4.057 4.057 0 00-.48-.5c-.088-.079-.189-.157-.289-.235 1.403.401 3.175.69 5.035.814a26.5 26.5 0 001.826.066c1.638 0 2.974-.167 3.788-.479.078.167.233.513.412.97l-1.315.278zM12.91 29.955c-.902-.412-1.426-.88-1.57-1.415a1.07 1.07 0 01.055-.701c.379.211.769.412 1.18.59 1.416.624 3.02 1.058 4.78 1.314a24.63 24.63 0 003.397.245c1.637 0 3.252-.167 4.745-.49.111-.01.223-.033.345-.055.022.345-.033 1.024-.757 1.37-2.161 1.013-9.1.523-12.175-.858zm-1.047-.345c.256.2.568.378.947.557h-.123a2.38 2.38 0 00-1.426.446c.19-.346.39-.68.602-1.003zm-.29 1.348a1.947 1.947 0 011.103-.335c.2 0 .401.034.59.078.1.023.19.056.29.09.09.033.178.077.268.122.345.2.646.49.924.813.278.323.524.68.746 1.036a16.06 16.06 0 011.159 2.317c.078.2.167.4.234.601l.022.078.011.045.022.044c.023.056.045.112.078.167a.084.084 0 01.023.045c-.557.033-1.694.223-2.618 1.158-1.003 1.025-1.46 2.618-1.359 4.745-.457-.49-.88-1.013-1.236-1.581a10.769 10.769 0 01-1.66-6.126c.011-.424.056-.847.156-1.26.089-.411.234-.812.434-1.169.223-.323.49-.646.813-.869zM9.68 41.36c.646.245 1.27.446 1.804.602.023.278.023 1.069-.467 1.548a21.348 21.348 0 01-1.86-.635c.456-.457.534-1.125.523-1.515zm2.038.68c.457.133.813.222 1.025.267.134.145.278.29.412.423.034.033.067.056.1.09-.01.267-.067.768-.4 1.158-.524-.1-1.07-.234-1.605-.39.457-.502.49-1.214.468-1.548zm1.771.98c.223.2.457.4.702.579.156.122.323.245.501.356a.666.666 0 01-.089.178c-.022.045-.078.067-.133.056a12.5 12.5 0 01-1.337-.167c.234-.334.323-.713.356-1.002zm.958 1.459h.023a.412.412 0 00.345-.178c.033-.056.067-.112.1-.19l.401.234c.011 0 .011.011.022.011-.066.145-.178.323-.356.312-.3-.022-.468-.067-.568-.178.01-.022.022-.011.033-.011zm9.802.234c-.2-.87-.423-1.593-.523-1.894.1-.022.2-.056.312-.089.345.69 2.305 4.6 2.818 6.115.044.123-.023.256-.134.312-.067.033-.134.056-.19.078a.247.247 0 01-.178-.011.283.283 0 01-.122-.134c-.279-.813-1.003-2.829-1.983-4.377zm-.735-2.139c.034-.156.045-.312.056-.468.969-.434 1.882-1.114 2.26-1.425.135.2.29.39.48.545.056.045.111.09.167.123-.546.3-1.85.98-2.963 1.225zm4.411-10.002c.245.312.512.657.757 1.058a4.043 4.043 0 00-2.183.445c-.312-1.314-.947-2.773-1.125-3.152.2-.122.346-.278.457-.434.312.234 1.214.98 2.094 2.083zm1.615-5.536c-.078.312-.445.68-.947.947a10.86 10.86 0 01-1.136.523s-.19.078-.468.178c-.49.156-1.002.29-1.537.401-.011 0-.033 0-.044.011-.1.011-.212.034-.312.045-.19.033-.368.056-.535.067h-.011c-4.489.579-9.19-2.105-11.005-6.282.022 0 .033-.012.056-.012.323-.022.635-.066.802-.089.033 0 .055-.01.089-.01a9.821 9.821 0 004.088 4.677 9.883 9.883 0 006.37 1.293 9.546 9.546 0 001.95-.457c.078-.023.802-.212 1.626-.68a6.13 6.13 0 001.036-.735c-.01.045-.01.09-.022.123zm-16.229-7.274c-.123-.935-.479-1.693-.913-2.038.078-.011.133-.022.178-.022.445-.056 1.047.735 1.214 2.005.111.835-.011 1.626-.312 2.016-.1.133-.211.211-.334.222a.556.556 0 00-.134.023c-.01 0-.033 0-.044.01.323-.467.468-1.314.345-2.216zm-.278.034c.111.835-.011 1.626-.312 2.016-.1.133-.212.211-.334.223-.457.055-1.048-.736-1.215-2.006-.11-.835.012-1.626.312-2.016.1-.133.212-.2.323-.222h.067c.435 0 1.003.78 1.159 2.005zm.01 2.439a.572.572 0 01.123-.022c.2-.023.379-.145.524-.334.345-.457.49-1.315.367-2.228-.178-1.348-.846-2.328-1.526-2.239-.122.011-.445.056-.713.09.179-.513.457-.814.78-.859.724-.089 1.526 1.203 1.738 2.84.156 1.181-.023 2.306-.446 2.863-.145.19-.312.301-.501.323-.245.034-.512-.1-.768-.378.178 0 .311-.034.423-.056zm2.262-2.874c.156 1.18-.022 2.306-.446 2.863-.145.19-.312.3-.5.323a7.08 7.08 0 01-.313.033c.023-.022.034-.044.056-.067.479-.623.668-1.793.501-3.063-.178-1.359-.724-2.461-1.359-2.885.134-.022.245-.033.312-.044.746-.09 1.537 1.214 1.749 2.84zm-.97-2.84c1.048-3.698 4.211-6.405 8.076-6.906 2.172-.279 4.656.245 6.639 1.403a7.586 7.586 0 012.45 2.306c.446.668.713 1.348.791 1.938-1.66-3.575-5.558-5.836-9.735-5.29-3.82.5-6.95 3.252-7.886 6.883a2.365 2.365 0 00-.334-.334zm12.498 11.584a9.56 9.56 0 01-1.915.446c-4.367.568-8.544-1.827-10.215-5.826.123-.067.223-.156.323-.267a9.177 9.177 0 003.799 4.444 9.453 9.453 0 004.89 1.348c.412 0 .824-.022 1.225-.078a9.431 9.431 0 005.324-2.529c-.969 1.838-3.408 2.462-3.43 2.462zm6.995-10.326c.19.045.48.168.557.468.09.39.09 2.896-.512 4.233-.033.045-.212.334-.646.2.902-1.993.69-4.243.601-4.9zm-.434-.5c.111.033.134.1.167.322 0 .023.011.045.011.056.045.278.423 2.785-.579 4.979-.033.067-.044.122-.067.167-.044.123-.044.123-.122.123a6.633 6.633 0 01-.535-.056 8.946 8.946 0 00.769-5.001 7.55 7.55 0 00-.134-.724l.49.133zm-2.34 7.161c-1.492 1.939-3.664 3.186-6.125 3.51-4.188.545-8.265-1.861-9.735-5.715.4-.646.545-1.738.4-2.907-.122-.891-.39-1.671-.746-2.217.847-3.642 3.954-6.416 7.742-6.906 5-.646 9.59 2.807 10.236 7.697a8.815 8.815 0 01-1.771 6.538zm1.16-10.96c.445.78.99 2.206.512 2.918a5.34 5.34 0 00-.2-.579c.189-1.57-1.304-3.81-3.354-5.001-2.027-1.192-4.566-1.727-6.794-1.437a10.01 10.01 0 00-5.313 2.395 9.824 9.824 0 00-2.94 4.611.994.994 0 00-.602-.134c-.134.023-.401.056-.68.09.891-4.333 4.289-7.586 8.532-8.143 4.177-.545 8.833 1.727 10.838 5.28zm-17.566-1.916a39.524 39.524 0 00-3.309.011c.324-.2.647-.4.97-.59a22.023 22.023 0 014.388-1.838l.29-.089.29-.078.289-.078.29-.078a1.94 1.94 0 01.245-.056 10.482 10.482 0 00-3.453 2.796zm-10.393 9.09c.1.5-.01 1.013-.3 1.436-.29.423-.724.713-1.237.813-.512.1-1.025 0-1.448-.29a1.91 1.91 0 01-.178-3.04c.334.546.713.702 1.036.702.056 0 .1 0 .145-.012.545-.078.869-.423 1.08-.89.457.278.791.746.902 1.28zm-.924-2.941c-.19 1.091-.345 2.038-1.114 2.138-.434.067-.802-.334-1.07-1.17-.79-2.46-1.069-8.02 1.594-12.497C4.478 3.267 7.107 1.451 10.56.816c5.224-.969 9.089.123 11.406 1.203a14.342 14.342 0 013.241 2.072 11.25 11.25 0 00-.702-.145c-2.673-.479-5.858-.323-9.233.468-4.49 1.047-7.385 3.353-9.034 5.113-1.025 1.08-1.738 2.138-2.183 3.007a7.594 7.594 0 01-.067-.724c-.022-.445-.011-.902.011-1.359.034-.456.078-.913.145-1.37.067-.456.145-.913.234-1.359.011-.044-.011-.089-.056-.111a.112.112 0 00-.122.056c-.156.445-.268.902-.368 1.359-.044.233-.1.456-.134.69a7.599 7.599 0 00-.1.702c-.022.234-.044.468-.056.702a7.608 7.608 0 000 .713c.023.456.078.913.212 1.358-.2.49-.29.88-.278 1.137a2.86 2.86 0 00.445 1.392c-.334.534-.468 1.27-.59 1.994zm3.33-2.128a.718.718 0 01-.033.112c-.011.022-.034.044-.045.066l-.156.268-.156.267-.066.134-.067.133-.134.268-.067.133-.067.134c-.077.19-.167.368-.245.557a.107.107 0 00.045.134c.056.022.111 0 .134-.045.189-.39.4-.757.623-1.136-.1.613-.189 1.47-.156 2.473 0 .122.012.234.012.367a1.677 1.677 0 01-.257-.234 1.68 1.68 0 01-.233-.256 1.68 1.68 0 01-.201-.29 3.312 3.312 0 01-.3-.634 2.933 2.933 0 01-.146-.69c0-.057-.01-.123-.01-.18 0-.055-.012-.122 0-.177v-.178l.01-.179c.012-.133.023-.256.023-.39 0-.133 0-.256-.011-.39a4.397 4.397 0 00-.1-.768c-.034-.123-.067-.256-.112-.379-.011-.033-.022-.067-.033-.089-.012-.033-.023-.056-.034-.089a.335.335 0 00-.044-.09c-.012-.033-.034-.055-.056-.088-.022-.034-.067-.056-.112-.034-.044.023-.066.067-.055.112v.01c.022.045.033.112.044.168.011.033.011.056.023.09.01.033.01.055.022.088.022.123.033.245.056.357.022.245.033.49.022.735 0 .078-.011.145-.011.223-.346-.335-.847-.958-.88-1.794-.022-.557.735-2.45 2.65-4.489 1.605-1.715 4.445-3.965 8.834-4.99 3.308-.78 6.449-.935 9.055-.456 2.15.39 3.554 1.136 4.155 1.693.769.735.58 1.448.401 1.793a2.911 2.911 0 01-.245-.278 1.182 1.182 0 01-.2-.39 1.19 1.19 0 01-.045-.446c0-.044-.022-.089-.067-.1a.099.099 0 00-.111.067 1.234 1.234 0 00-.023.534c.034.179.1.346.19.502.178.312.412.557.613.802.1.122.2.245.278.367.078.123.134.256.156.39a1.277 1.277 0 01-.056.624 12.648 12.648 0 00-1.682-1.003c-2.06-1.002-4.355-1.403-6.449-1.136-.802.078-1.604.2-2.406.357-.4.078-.79.167-1.18.256l-.29.078-.29.078-.29.078-.289.089a24.45 24.45 0 00-2.295.813c-.746.312-1.481.668-2.183 1.07a16.596 16.596 0 00-3.843 2.973 13.888 13.888 0 00-1.503 1.916c-.023.034-.034.056-.056.09h-.056zm.045 3.498c-.056-1.927.356-3.364.356-3.386l-.022-.011c.223-.324.468-.635.713-.947.134-.145.256-.301.39-.457l.4-.434a15.598 15.598 0 012.05-1.771 33.242 33.242 0 013.698-.056 11.023 11.023 0 00-1.882 4.388c-.412.123-.735.557-.925 1.226a.993.993 0 00-.222.211c-.346.457-.49 1.315-.368 2.228.167 1.248.746 2.172 1.37 2.239.256.334.535.546.824.613.1.256.223.5.346.746-.791.033-3.866.145-5.737-.312-.735-1.537-.958-3.085-.991-4.277zm2.462 6.482a9.054 9.054 0 01-1.192-1.67c.668.167 2.294.434 5.736.29a11.275 11.275 0 004.01 3.987 11.126 11.126 0 003.787 1.392 23.893 23.893 0 01-4.088-.223c-3.598-.523-6.538-1.86-8.253-3.776zm-7.441 14.07a.774.774 0 01-.09-.646c.825-2.607 2.674-5.18 3.71-6.472 1.526-1.916 2.907-3.186 3.32-3.353.467-.2 1.069-.278 1.58-.312-.946 1.526-5.234 8.6-6.515 13.433-.412-.39-1.136-1.347-2.005-2.65zm4.4 3.319v.234c-.435-.09-1.537-.346-2.15-.724 1.28-4.99 5.937-12.531 6.616-13.623.312-.011.546 0 .624 0 .078.167.19.323.334.48-.512.801-.98 1.614-1.437 2.438a51.181 51.181 0 00-1.325 2.585c-.412.88-.791 1.76-1.147 2.673l-.246.68-.066.166c-.023.056-.034.112-.056.179l-.111.345-.168.535c-.345-.09-1.102-.234-1.548.222a1.793 1.793 0 00-.445 1.47c.066.424.323 1.026 1.18 1.538-.022.278-.044.535-.055.802zm.122-1.27a10.17 10.17 0 01-.033.223c-.568-.368-.902-.813-.98-1.326a1.588 1.588 0 01.378-1.28c.357-.368 1.014-.246 1.315-.168-.034.145-.078.29-.112.446a.76.76 0 00-.601-.1.76.76 0 00-.501.4l-.067.168c-.19.568.145 1.091.635 1.537 0 .033-.023.067-.034.1zm-.312-1.548c.011-.045.034-.09.056-.134a.492.492 0 01.312-.245c.145-.033.3 0 .423.09.256.188.535.367.836.534-.268.267-.468.846-.49 1.448-.947-.646-1.304-1.192-1.137-1.693zm4.077 10.503l-.29-1.225-.078-.3-.01-.034v-.022l-.012-.023-.033-.1a.889.889 0 00-.09-.178.587.587 0 00-.133-.156c-.022-.022-.056-.044-.078-.067a.337.337 0 00-.078-.055c-.078-.056-.167-.112-.245-.167-.646-.48-1.17-1.125-1.56-1.838a7.217 7.217 0 01-.768-2.306c-.011-.1-.033-.2-.045-.3-.01-.101-.022-.201-.033-.302-.022-.2-.022-.4-.022-.601.01-.357.044-.724.1-1.092.223.168.457.323.68.457 1.169.724 4.377 1.883 6.772 2.116.122.38.49.468.869.49h.033c.056 0 .1-.01.156-.022.111.123.356.268.925.301.512.022 1.358.067 1.915.09.39.088.78.155 1.17.188.256.023.512.045.768.045a2.74 2.74 0 00-.022 1.37c.312 1.203 1.125 1.37 1.415 1.381.044.134.1.268.178.39a2.4 2.4 0 00.49.635c.09.368.19.713.3 1.07a7.662 7.662 0 00-3.942.89l-.39-1.592h.089c.134 0 .267 0 .401-.012a4.55 4.55 0 00.401-.044 2.22 2.22 0 00.39-.1.08.08 0 00.056-.1.107.107 0 00-.1-.079c-.246.034-.49.034-.747 0a4.163 4.163 0 01-.368-.055l-.178-.034c-.033-.01-.078-.01-.111-.022l-.034-.033c-.022-.023-.055-.045-.078-.078-.022-.023-.055-.045-.078-.067-.033-.023-.055-.045-.089-.067-.055-.045-.122-.078-.178-.111-.033-.023-.056-.034-.089-.056l-.09-.022a4.084 4.084 0 00-.779-.279 4.078 4.078 0 00-.813-.111h-.4c-.135.01-.268.022-.402.033-.033 0-.056.034-.056.056 0 .033.023.067.067.067.134.01.256.01.39.022l.19.022.1.011c.033 0 .067.012.1.012l.19.033c.066.011.122.033.189.044.122.023.245.067.367.112.234.089.468.19.68.323l.078.044a.338.338 0 01.078.056c.022.022.055.034.078.056l.078.056c.022.022.044.033.078.055.022.023.044.034.066.056.023.022.045.033.067.056.011.01.023.01.023.022l.345 1.426a6.772 6.772 0 00-2.072-.279c-1.27.023-3.186.401-5.257 2.016l-.524-2.072zm2.428 10.192l-.1-.4-1.76-7.397c2.05-1.626 3.932-2.016 5.18-2.038a6.394 6.394 0 012.15.312l.801 3.286a5.117 5.117 0 00-1.013.066 6.4 6.4 0 00-1.226.324c-.033.01-.044.044-.044.078a.084.084 0 00.078.055c.412-.067.824-.122 1.236-.156l.156-.01.156-.012h.312c.2 0 .401.011.602.033.4.045.79.134 1.158.29.367.156.69.379.958.668.167.179.312.39.412.613-.468-.078-1.359-.078-2.907.479-2.295.802-5.157 2.684-6.149 3.81zm.178.747l-.1-.413c.791-1.047 3.787-3.04 6.149-3.887 1.804-.646 2.65-.512 2.951-.423a.145.145 0 01.023.067c.033.122.067.256.089.39-.312-.156-.78-.201-1.392-.145-1.816.178-6.806 3.03-7.72 4.41zm1.983.601c-.2.022-.4.045-.601.045-.2 0-.401-.011-.58-.045a1.287 1.287 0 01-.512-.19c-.011-.01-.022-.01-.033-.021a.617.617 0 01.089-.168l1.748.357a.393.393 0 01-.11.022zm1.203-.234a1.783 1.783 0 01-.234.056c-.067.011-.133.033-.2.044l-2.228-.456.134-.134c.044-.044.1-.1.156-.145l2.74.535c-.123.022-.245.067-.368.1zm.847-.267l-2.997-.58.2-.166c.068-.056.146-.112.224-.168l3.297.646c-.234.09-.48.19-.724.268zm1.815-.758a8.6 8.6 0 01-.345.167c-.111.056-.223.1-.323.145l-3.442-.668c.067-.045.134-.1.212-.145.067-.044.144-.1.223-.145l3.675.646zm.178.39c.078-.044.156-.078.234-.122l1.827.423c-.891.123-1.637-.011-2.06-.3zm2.64.178l-2.083-.478c.179-.1.346-.2.513-.301l2.272.557a5.755 5.755 0 01-.702.223zm1.56-.612a4.64 4.64 0 01-.468.234l-2.361-.58.434-.3 2.506.58c-.033.021-.078.044-.111.066zm.412-.245l-2.562-.59c.122-.09.234-.19.356-.29l2.707.557c-.156.1-.323.212-.501.323zm.768-.524l-2.75-.568.2-.2c.044-.045.078-.09.122-.134l2.807.624c-.122.089-.245.178-.379.278zm.613-.49l-2.874-.635c.045-.055.078-.122.123-.178.033-.044.055-.1.078-.145l3.018.669c-.111.089-.222.189-.345.29zm.557-.501l-3.141-.69a2.08 2.08 0 00.078-.28v-.021a.918.918 0 01.111-.1l3.253.79c-.09.112-.19.2-.301.301zm.501-.49l-3.219-.791c.134-.111.256-.2.379-.29l3.119.791a3.29 3.29 0 01-.279.29zm.457-.49l-3.03-.769c.167-.111.334-.2.48-.267l2.227.49c.122.167.245.323.367.49-.01.011-.022.034-.044.056zm24.137-3.52c-.1.724-.245 1.437-.456 2.139-.1.345-.223.69-.357 1.035a6.469 6.469 0 01-.468.97 6.973 6.973 0 01-1.38 1.648 8.657 8.657 0 01-1.794 1.225c-.646.346-1.326.613-2.016.825-.702.211-1.415.378-2.139.49-1.448.222-2.93.256-4.389.133a23.713 23.713 0 01-4.332-.78c-.09-.022-.179-.055-.268-.077-.089-.023-.178-.056-.267-.078-.09-.034-.178-.056-.256-.09l-.256-.088a10.1 10.1 0 01-1.003-.435 16.127 16.127 0 01-.958-.535c-.312-.2-.612-.4-.902-.623-1.159-.891-2.16-1.983-3.019-3.175-.868-1.192-1.592-2.484-2.205-3.82a27.12 27.12 0 01-.847-2.039c-.122-.345-.245-.69-.356-1.047-.078-.234-.145-.479-.212-.713.156.067.312.1.468.1.067 0 .145-.01.223-.022.724-.133 1.28-.868 1.426-1.882.089-.657.022-1.46-.112-2.239.758 1.392 1.315 2.94 1.537 3.62a.526.526 0 00.257.3.507.507 0 00.222.056c.056 0 .112-.01.168-.022a1.72 1.72 0 00.211-.089.525.525 0 00.29-.657c-.513-1.526-2.417-5.313-2.818-6.115 1.058-.357 2.082-.925 2.45-1.125.09.044.178.1.267.133.245.112.502.212.78.257.267.055.557.078.836.033l.211-.033a.323.323 0 01.1-.023c.034-.01.067-.022.1-.033.134-.045.268-.1.39-.178.123-.067.234-.156.346-.245.111-.09.2-.2.29-.301.166-.223.311-.457.412-.713.222.134.59.334.957.479-.089.045-.167.09-.256.134-.323.19-.635.4-.935.646-.29.234-.58.49-.814.79a.068.068 0 000 .09c.023.033.078.033.1 0a7.12 7.12 0 01.87-.657c.3-.201.623-.39.946-.557a8.95 8.95 0 01.49-.245c.168-.078.335-.156.502-.223a12.36 12.36 0 015.347-.958c.734.033 1.458.122 2.171.267.713.145 1.426.357 2.105.602.691.256 1.36.545 2.005.902.646.345 1.26.746 1.827 1.203.145.111.279.234.423.345.134.123.279.245.401.368.268.245.524.512.758.79.479.546.913 1.137 1.28 1.772.368.623.691 1.292.936 1.971.257.68.446 1.392.58 2.105.3 1.46.334 2.941.133 4.389z" fill="#000"/><path d="M2.429 39.512l.902.936 1.158-2.74-.98-.657-1.08 2.461zm1.76-1.715l-.947 2.239-.546-.568.902-2.06.59.39zm.768-2.64c-.178-.056-.367-.023-.556.111a1.156 1.156 0 00-.38.546 1.16 1.16 0 00-.033.668.61.61 0 00.368.434.433.433 0 00.167.023.606.606 0 00.39-.145c.167-.122.3-.323.379-.546.078-.223.089-.456.033-.668a.644.644 0 00-.368-.423zm.1 1.013a.955.955 0 01-.3.435c-.111.089-.234.111-.334.078-.1-.034-.178-.134-.212-.268a.855.855 0 01.034-.523.954.954 0 01.3-.435c.09-.066.167-.1.245-.1.034 0 .056 0 .09.011.1.034.178.134.211.268a.886.886 0 01-.033.534zm5.848-3.831c-.19 1.303.19 3.152.212 3.23l.033.134 1.18-.457-.022-.1c-.345-1.493-.245-3.186-.245-3.197l.011-.19-1.158.513-.011.067zm.223.09l.69-.302c-.01.48-.022 1.771.234 2.974l-.735.279c-.078-.435-.323-1.894-.19-2.952zm1.927 26.063c.011 0 .022 0 .033-.011l.647-.078c.579-.078.935-.858.813-1.782-.123-.925-.669-1.593-1.237-1.515l-.68.089c-.289.033-.534.256-.679.612-.145.335-.19.747-.133 1.181.055.423.211.825.423 1.103.211.278.468.423.724.423.022-.022.056-.022.089-.022zm.29-3.119c.4-.056.824.535.924 1.281.1.746-.167 1.415-.568 1.47l-.111.011c.055-.078.1-.155.145-.256.144-.334.189-.746.133-1.18-.056-.424-.212-.825-.423-1.103a1.97 1.97 0 00-.2-.212l.1-.01zm-.892 2.529c-.189-.245-.322-.59-.367-.97-.045-.378-.011-.746.111-1.035.112-.257.279-.413.457-.446h.056c.167 0 .345.111.5.312.19.245.324.59.368.969.045.379.012.746-.11 1.036-.112.256-.28.412-.458.446-.178.022-.378-.09-.556-.312z" fill="#310339"/><path d="M13.098 40.776c-.022.379-.022.78 0 1.203-.456-.49-.88-1.014-1.236-1.582a10.768 10.768 0 01-1.66-6.126c.012-.423.056-.846.156-1.258.09-.413.234-.814.435-1.17a3.06 3.06 0 01.267-.39c-.4 1.437-.757 3.954.457 6.583.479 1.07 1.002 1.972 1.582 2.74z" fill="#189ADA"/><path d="M22.132 44.42a2.06 2.06 0 01-.468.367 2.14 2.14 0 01-.557.2c-.2.045-.412.078-.612.09a6.921 6.921 0 01-1.27-.034 10.126 10.126 0 01-1.27-.222 10.27 10.27 0 01-2.406-.903 7.622 7.622 0 01-1.07-.69 11.862 11.862 0 01-.98-.847l-.1-.1a10.56 10.56 0 01-.033-1.17c1.537 1.894 3.408 2.852 5.937 3.253 1.192.2 2.116.178 2.83.056z" fill="#A5ABD5"/><path d="M22.589 37.724a2.683 2.683 0 00-.669 0 4.564 4.564 0 00-.679.123c-.111.033-.223.055-.323.1-.056.022-.111.033-.167.055l-.1.034a5.88 5.88 0 01-1.159-.379c.1-.19.245-.39.379-.434.134-.045.223-.011.39.055.111.045.234.1.379.112.29.033.523-.212.657-.401.078.067.156.122.245.167a1.3 1.3 0 00.49.178c.022 0 .033 0 .044-.022.011-.022.011-.045-.01-.056a1.828 1.828 0 01-.658-.646.996.996 0 01-.123-.39.608.608 0 010-.2c0-.023 0-.034.012-.056l.01-.044c0-.034.012-.067.023-.1a1.27 1.27 0 01.2-.357c.09-.111.19-.212.312-.3-.189.4-.334.957-.055 1.336a2.3 2.3 0 00.88.746.24.24 0 01-.011.434c-.045.034-.056.034-.067.045zm.646 2.807l-.1-.167c.022-.011.044-.011.066-.022.056-.023.123-.045.178-.078.112-.056.234-.134.323-.223.034.212.1.434.245.624a4.89 4.89 0 01-.523.3 1.355 1.355 0 01-.034-.11 2.904 2.904 0 00-.155-.324zM49.5 57.75c0 .011-.011.022-.011.033a6.46 6.46 0 01-.468.97A6.972 6.972 0 0147.64 60.4a8.648 8.648 0 01-1.794 1.225 11.27 11.27 0 01-2.016.825c-.701.211-1.414.378-2.138.49a18.74 18.74 0 01-4.4.133 22.834 22.834 0 01-4.333-.79c-.09-.023-.178-.056-.267-.078-.09-.023-.179-.056-.268-.078-.089-.034-.178-.056-.256-.09l-.256-.089a10.1 10.1 0 01-1.003-.434 11.61 11.61 0 01-1.86-1.159c-1.158-.89-2.16-1.982-3.018-3.174-.87-1.192-1.593-2.484-2.206-3.82a25.53 25.53 0 01-.846-2.05c-.123-.345-.245-.69-.357-1.047-.078-.234-.145-.479-.211-.713.156.067.311.1.467.1.078 0 .145-.01.223-.022.724-.123 1.281-.869 1.426-1.871.09-.657.022-1.47-.111-2.24.757 1.393 1.314 2.942 1.537 3.62a.526.526 0 00.256.302.449.449 0 00.39.022 1.72 1.72 0 00.211-.09.525.525 0 00.29-.656c-.512-1.526-2.417-5.313-2.818-6.115 1.058-.357 2.083-.925 2.45-1.125.09.044.179.1.268.133.033.023.078.034.111.056-.323.245-.991.713-1.76.991-.156.056-.223.223-.156.379.524 1.114 2.44 5.213 2.44 5.859 0 .757-.847 1.002-1.326.991-.479-.01-.69-.256-.902-.768-.212-.513-.613-1.504-.613-1.504s.1 1.348-.701 2.027c-.802.68 1.882 6.784 5.212 9.49 3.33 2.707 8.132 3.576 13.077 2.807 2.852-.412 5.391-2.183 7.118-4.188z" fill="#8E3104"/><path d="M33.081 41.98a.415.415 0 01.078-.656c.624-.368 1.95-.914 4.177-.914 4.077 0 7.886 2.573 9.2 3.843 1.805 1.749 3.108 4.322 3.276 6.884a17.326 17.326 0 01-.268 4.321.423.423 0 01-.3.324.413.413 0 01-.513-.457c.122-1.014.3-3.119-.022-4.924-.346-1.927-1.827-5.97-7.207-8.053-4.422-1.715-7.028-.623-7.808-.178a.406.406 0 01-.49-.067l-.123-.122zM31.9 43.2c.51-.203.807-.655.665-1.01-.141-.353-.668-.476-1.177-.273-.508.203-.806.655-.664 1.01.142.354.668.476 1.177.273z" fill="#D8A381"/><path d="M23.558 41.534c-.011-.1-.034-.2-.056-.3a1.24 1.24 0 00.167-.09.544.544 0 00.412.39c-.167.09-.334.179-.512.268 0-.1 0-.178-.011-.268zm.457.902c-.167.056-.334.1-.501.134.033-.156.044-.312.055-.48.1-.044.19-.088.279-.133 0 .167.022.379.167.479zm2.584 6.759c-.034.011-.056.022-.09.033a.248.248 0 01-.178-.01.283.283 0 01-.122-.134c-.267-.802-.991-2.83-1.972-4.378a10.055 10.055 0 00-.222-.88c.4.68 1.303 2.228 1.815 3.475.468 1.137.613 1.671.769 1.894zm-2.963-.121a1.131 1.131 0 01-.59.312 1.01 1.01 0 01-.747-.167c-.022-.067-.077-.1-.144-.112a1.879 1.879 0 01-.424-.556c-.668-1.26-.211-2.819-.044-3.298.056-.022.122-.055.178-.089.078-.044.156-.1.223-.145-.501 1.772-.256 3.175.3 3.71a.64.64 0 00.335.167c.223.122.512.211.913.178z" fill="#DE926A"/><path d="M26.243 31.152c.323.323 1.18 1.192 1.57 1.794a.205.205 0 01-.133.311l-.045.012c-.078.01-.156-.012-.2-.078-.223-.301-.891-1.192-1.47-1.727-.09-.089-.09-.234.01-.312a.182.182 0 01.268 0z" fill="#127DB2"/><path d="M24.995 32.878v-.267l.568-.123c.033.09.067.178.1.279-.234-.034-.501.044-.668.111z" fill="#8BDAF8"/><path d="M25.875 33.37l-1.482.289a.189.189 0 01-.223-.178v-.546c0-.09.056-.156.145-.178l.457-.1v.567l.167-.078c.156-.066.568-.211.824-.145.034.123.067.246.112.368z" fill="#FCEE21"/><path d="M14.96 32.834c.267.367.924 1.347 1.347 2.494a.268.268 0 01-.19.357l-.39.09c-.133.032-.278-.045-.311-.18-.156-.478-.546-1.57-1.125-2.383a.263.263 0 01.145-.412l.234-.067c.1-.033.222 0 .29.1zm-.424-.768c0 .256-.257.468-.569.468-.311 0-.568-.212-.568-.468s.257-.468.569-.468c.322-.011.568.2.568.468z" fill="#127DB2"/><path d="M26.81 27.497a9.655 9.655 0 01-1.882.446c-4.188.546-8.265-1.86-9.735-5.714.4-.646.546-1.738.4-2.907-.11-.892-.389-1.671-.745-2.217.846-3.642 3.954-6.416 7.741-6.906a8.622 8.622 0 011.07-.078c-2.117.49-6.884 2.094-8.087 6.739 0 0 1.448 2.506.49 5.29 0 0 1.626 4.88 7.373 5.414 1.293.123 2.418.078 3.376-.067z" fill="#1D0F21"/><path d="M8.944 23.58a11.371 11.371 0 01-1.236-.212c-.736-1.548-.958-3.096-.992-4.288v-.368c0-1.738.357-2.996.368-3.018l-.022-.012c.222-.323.467-.635.712-.946.134-.145.257-.301.39-.457l.401-.434c.145-.145.29-.301.446-.435-.657 1.894-1.927 6.672-.067 10.17z" fill="#189ADA"/><path d="M12.631 27.978c-1.415-.646-2.595-1.46-3.464-2.428a8.56 8.56 0 01-1.192-1.671 9.14 9.14 0 001.281.211c.056.09.111.168.178.257-.01.01.936 2.05 3.197 3.63zm.512 2.071l-.234-.1c-.902-.413-1.425-.88-1.57-1.415a1.07 1.07 0 01.056-.702c.378.212.768.412 1.18.59.212.1.435.19.657.268-.122.278-.278.78-.089 1.359zM7.997 40.298a9.622 9.622 0 01-.88-.523c.156-.423.256-.858.412-1.281l.112-.334c.022-.056.033-.112.055-.167l.067-.167.256-.669c.357-.89.736-1.77 1.148-2.628.211-.446.434-.88.657-1.326-.067.357-.1.713-.112 1.07-.01.445 0 .89.034 1.347v.045c-.412.824-1.281 2.662-1.749 4.633zm3.531 11.728c-.334.2-.668.434-1.013.701l-.502-2.094-.29-1.225-.077-.3-.011-.034v-.022l-.012-.023-.033-.1a.889.889 0 00-.089-.178.587.587 0 00-.134-.156c-.022-.022-.055-.045-.078-.067a.337.337 0 00-.078-.056 4.173 4.173 0 01-.245-.167c-.646-.479-1.17-1.125-1.56-1.838a7.217 7.217 0 01-.768-2.305c-.01-.1-.033-.2-.044-.301l-.034-.3c-.022-.201-.022-.402-.022-.602.011-.357.056-.724.1-1.092.223.167.457.323.68.457.1.056.211.122.334.19-.022.5.011.99.1 1.458.68 3.565 2.83 4.033 2.83 4.033l.946 4.02z" fill="#616DA4"/><path d="M13.389 59.946a7.788 7.788 0 00-.958.87l-.1-.402-1.75-7.385c.346-.278.68-.512 1.014-.713l.702 2.997c-.145.1-.267.267-.357.479-.144.334-.189.746-.133 1.18.056.424.211.825.423 1.103s.468.423.724.423c.034 0 .056 0 .09-.01l.345 1.458z" fill="#0782BE"/><path d="M10.67 12.596h1.828a.52.52 0 01.456.768 8.825 8.825 0 00-.468 1.047.515.515 0 01-.49.346H10.07a.526.526 0 01-.501-.68c.145-.445.379-1.002.769-1.348a.472.472 0 01.334-.133z" fill="#127DB2"/><path d="M19.403 37.046c-.122.134-.223.29-.29.424a4.96 4.96 0 01-.69-.457 3.835 3.835 0 01-.836-.913c-.055-.09-.1-.179-.155-.268l-.067-.133-.011-.034-.012-.033-.033-.078a14.547 14.547 0 00-.245-.624 17.687 17.687 0 00-1.18-2.395 9.4 9.4 0 00-.78-1.103 4.057 4.057 0 00-.769-.735c.635.178 1.348.334 2.105.468-.278.09-.557.256-.345.58.367.556 1.303 2.673 1.793 3.864.334.769 1.047 1.215 1.515 1.437z" fill="#A5ABD5"/><path d="M9.958 38.425c.156.545.479 1.448 1.002 2.25.1.144-.044.334-.211.29-.435-.112-1.07-.313-1.56-.569-.078-.033-.111-.123-.1-.2.067-.312.245-1.092.501-1.783.078-.178.323-.167.368.012zM9.3 43.504c.713.312 2.329.936 4.033 1.136a.26.26 0 01.19.111c.122.168.456.502 1.18.569a.3.3 0 01.1.022c.145.067.68.278 1.871.312a23.7 23.7 0 012.273.156.283.283 0 01.245.234c.067.445.29 1.492.78 1.927.634.557-.68 1.38-1.76.98-1.081-.401-1.604-1.014-3.331-.97-1.67.056-5.915-.4-5.96-4.22-.01-.19.19-.335.38-.257zm3.03 5.07c1.014.034 3.487.19 4.612.914a.393.393 0 01.156.222l.056.29a.356.356 0 01-.368.423c-.79-.044-2.462-.056-3.988.513a.35.35 0 01-.468-.257l-.356-1.681a.353.353 0 01.356-.424zm6.193 1.591l.09.345a.23.23 0 00.311.156c.48-.19 1.604-.568 2.54-.568a.235.235 0 00.223-.3l-.1-.313a.22.22 0 00-.235-.156 9.38 9.38 0 00-2.684.568.21.21 0 00-.145.268z" fill="#fff"/><path d="M22.133 51.258l.735 2.017a.355.355 0 01-.19.445c-.378.156-1.036.468-1.437.902-.1.1-.256.134-.378.078a5.283 5.283 0 00-1.08-.29.344.344 0 01-.29-.267l-.524-2.216a.352.352 0 01.19-.39c.49-.223 1.603-.668 2.695-.512a.422.422 0 01.279.233zm-.357 3.954c.3-.212.913-.59 1.66-.624.077 0 .144.033.177.1l.268.457a.2.2 0 01-.1.29c-.335.122-.97.367-1.382.657-.1.066-.223.033-.29-.067a2.993 2.993 0 00-.367-.524c-.078-.078-.067-.211.034-.29zm-1.493.981c-.936.156-3.409.713-5.881 2.662a.195.195 0 01-.312-.111l-.1-.435c.412-.245.646-.913.545-1.693-.122-.924-.668-1.593-1.236-1.514h-.045l-.634-2.785a.181.181 0 01.1-.212c.512-.234 2.383-1.002 4.522-.68.078.012.145.068.156.146l.58 2.439c.021.1-.045.2-.146.234-.479.122-1.704.445-1.815.702-.134.323.178.467.78.356.534-.09 2.54-.234 3.564.535a.198.198 0 01-.078.356z" fill="#1FB1F9"/><path d="M6.304 41.58c-.022.033-.044.067-.044.1l-.034.223c-.568-.368-.902-.813-.98-1.326a1.509 1.509 0 01.123-.88c.022.234.089.646.29.914.077.356.322.68.645.969z" fill="#0782BE"/><path d="M7.107 41.41a4.667 4.667 0 00-.045.413c-.813-.557-1.192-1.047-1.17-1.493.179.212.569.624 1.215 1.08zm1.815 1.372c-.601-.234-1.114-.48-1.448-.69-.067-.034-.122-.079-.178-.112 0-.145 0-.29.022-.423.368.245.802.49 1.315.724.167.078.345.145.523.222-.056.1-.134.19-.234.279zm2.35.366a1.164 1.164 0 01-.256.357 25.96 25.96 0 01-1.86-.635c.089-.09.167-.19.223-.29.579.212 1.236.401 1.893.568zm.234.067c.557.145 1.114.267 1.604.367a1.87 1.87 0 01-.234.401 17.64 17.64 0 01-1.603-.39c.089-.133.178-.256.233-.378zm3.174.737a.665.665 0 01-.089.178.159.159 0 01-.133.067 12.5 12.5 0 01-1.337-.167c.09-.123.167-.267.212-.401.501.1.924.178 1.203.234.055.022.1.056.145.089z" fill="#5E4773"/><path d="M10.259 28.848s-1.348.468-1.782.746c-.435.278-3.364 3.297-4.935 6.282-1.025 1.95-1.492 3.253-1.704 3.92-.033-.055-.067-.1-.1-.155a.774.774 0 01-.09-.646c.825-2.606 2.674-5.18 3.71-6.472 1.526-1.915 2.907-3.185 3.32-3.352.467-.212 1.068-.29 1.58-.323z" fill="#A095A8"/><path d="M3.475 14.311c.023.546.212 1.014.446 1.392-.334.546-.468 1.292-.59 2.017-.19 1.091-.346 2.038-1.114 2.138-.357.056-.669-.2-.914-.757.301.111.769.145.925-.635.234-1.148-.034-6.594 1.492-8.833 0 .022-.01.056-.01.078a7.598 7.598 0 00-.101.701c-.022.234-.045.468-.056.702a7.608 7.608 0 000 .713c.022.457.078.914.223 1.359-.223.479-.312.88-.3 1.125zm.512-2.505c-.022-.457-.01-.903.011-1.36.034-.456.078-.913.145-1.37.045-.333.1-.679.167-1.002.19.435.713 1.482 1.537 1.883-.813.935-1.403 1.826-1.793 2.584a8.583 8.583 0 01-.067-.735z" fill="#C00"/><path d="M7.129 14.946a5.841 5.841 0 00-.368.546 1.021 1.021 0 00-.056.089l-.033-.011a.722.722 0 01-.034.111c-.01.022-.033.045-.044.067l-.156.267-.156.267a.832.832 0 01-.078.134l-.067.134-.133.267-.067.134-.067.133c-.078.19-.167.368-.245.557a.107.107 0 00.044.134c.056.022.112 0 .134-.044.19-.39.401-.769.624-1.137-.1.613-.19 1.47-.156 2.473 0 .123.011.234.011.368a2.518 2.518 0 01-.267-.234 1.68 1.68 0 01-.234-.256 1.684 1.684 0 01-.2-.29 3.315 3.315 0 01-.301-.635 2.933 2.933 0 01-.145-.69c0-.056-.011-.112-.011-.179 0-.055-.012-.122 0-.178v-.178l.01-.178a4.27 4.27 0 00.023-.39c0-.134 0-.256-.011-.39a4.4 4.4 0 00-.1-.769c-.034-.122-.067-.256-.112-.378a.768.768 0 00-.033-.09c-.011-.033-.022-.066-.034-.088-.01-.034-.033-.056-.044-.09-.011-.033-.034-.055-.056-.089a.106.106 0 00-.111-.044c-.045.022-.078.067-.056.111v.011c.022.045.034.112.045.167.01.034.01.056.022.09.011.033.011.055.022.089.022.122.034.245.056.356.022.245.033.49.022.735 0 .078-.011.145-.011.223-.345-.334-.846-.958-.88-1.793-.022-.49.568-2.05 2.05-3.821-.123.568-.257 1.526.111 2.038.524.736.123 2.217 1.092 2.45z" fill="#CCC"/><path d="M3.71 20.93c0 .7-.49 1.258-1.103 1.258s-1.103-.568-1.103-1.259c0-.278.078-.523.2-.735.145.067.279.09.413.09.055 0 .1 0 .144-.012a1.2 1.2 0 00.825-.479c.378.212.623.635.623 1.136z" fill="#fff"/><path d="M21.676 51.448l.657 1.693a.198.198 0 01-.122.267l-.123.045a.214.214 0 01-.278-.123l-.624-1.737c-.044-.134.056-.279.19-.279h.1c.1.012.167.056.2.134zm-4.668.377l.446 1.86a.204.204 0 01-.145.245l-.245.078a.216.216 0 01-.267-.156l-.446-1.938a.205.205 0 01.2-.256h.246c.1.011.19.078.211.167zm1.961 4.079c0 .212-.357.379-.791.379-.434 0-.79-.167-.79-.379s.356-.379.79-.379c.446 0 .79.168.79.38z" fill="#127DB2"/><path d="M12.831 56.415c0 .323-.122.59-.278.59-.156 0-.279-.267-.279-.59 0-.323.123-.59.279-.59.156.01.278.267.278.59zm.469.902c0 .245-.09.435-.212.435-.112 0-.212-.2-.212-.435 0-.245.09-.434.212-.434.111 0 .211.19.211.434zm-1.248-37.972c0 .446-.134.802-.312.802-.167 0-.312-.356-.312-.802 0-.446.134-.802.312-.802s.312.356.312.802zm.501 1.237c0 .334-.1.601-.234.601-.123 0-.234-.267-.234-.601 0-.334.1-.602.234-.602.133 0 .234.268.234.602zm21.319 1.894a.479.479 0 01-.4.234c.545-1.136.634-2.762.667-3.698a3.565 3.565 0 00-.167-1.192c.167.067.357.19.413.424.089.39.078 2.896-.513 4.232z" fill="#8BDAF8"/><path d="M21.163 3.06c.368 0 .48-.501.145-.657-.991-.457-2.484-1.025-4.154-1.259-2.206-.3-4.7-.033-5.848.134a.337.337 0 00-.2.568l.211.222c.078.09.2.123.312.112.746-.123 3.575-.557 5.48-.156 1.894.4 2.996.869 3.264.991a.297.297 0 00.144.034h.646v.01zM9.545 2.85c.499 0 .902-.26.902-.58 0-.32-.403-.579-.902-.579-.498 0-.902.26-.902.58 0 .32.404.579.902.579z" fill="#FF8B8B"/><defs><linearGradient id="paint0_linear_1403_49214" x1="28" y1="29.584" x2="58.811" y2="84.415" gradientUnits="userSpaceOnUse"><stop stop-color="#22B9FF"/><stop offset="1" stop-color="#0562B8"/></linearGradient><linearGradient id="paint1_linear_1403_49214" x1="28" y1="29.584" x2="58.811" y2="84.415" gradientUnits="userSpaceOnUse"><stop stop-color="#22B9FF"/><stop offset="1" stop-color="#0562B8"/></linearGradient><linearGradient id="paint2_linear_1403_49214" x1="28" y1="29.584" x2="58.811" y2="84.415" gradientUnits="userSpaceOnUse"><stop stop-color="#22B9FF"/><stop offset="1" stop-color="#0562B8"/></linearGradient><linearGradient id="paint3_linear_1403_49214" x1="68.667" y1="3.652" x2="81.016" y2="24.327" gradientUnits="userSpaceOnUse"><stop stop-color="#E41D60"/><stop offset="1" stop-color="#F87700"/></linearGradient><linearGradient id="paint4_linear_1403_49214" x1="68.667" y1="3.652" x2="81.016" y2="24.327" gradientUnits="userSpaceOnUse"><stop stop-color="#E41D60"/><stop offset="1" stop-color="#F87700"/></linearGradient><linearGradient id="paint5_linear_1403_49214" x1="68.667" y1="3.652" x2="81.016" y2="24.327" gradientUnits="userSpaceOnUse"><stop stop-color="#E41D60"/><stop offset="1" stop-color="#F87700"/></linearGradient><linearGradient id="paint6_linear_1403_49214" x1="28" y1="56.47" x2="129.378" y2="56.47" gradientUnits="userSpaceOnUse"><stop stop-color="#05A9E7"/><stop offset="1" stop-color="#0C77CA"/></linearGradient></defs></svg>