<svg width="178" height="30" viewBox="0 0 178 30" xmlns="http://www.w3.org/2000/svg"><g fill="none" fill-rule="evenodd"><path d="M22.44.801l7.035 5.029 3.016 9.27-3.19 9.232L21.126 30l-10.04-.062L3 24.144l-.347-1.09L0 14.9l2.825-8.252.348-1.007.44-.267L11.365 0l9.564.033.46.003L22.44.8zM2.69 19.475l.096-9.143-1.58 4.578 1.484 4.565zm.907 2.788l.086.264 5.823-7.56-5.659-7.706-.095.275-.155 14.727zm6.48-6.518L4.37 23.154l9.093-2.798-3.386-4.611zm1.387 13.08l5.362.034-9.702-3.135 4.34 3.102zm-6.721-4.83l14.936 4.826-5.644-7.686-9.292 2.86zm15.97 4.668l.208-27.49-9.192-.057-7.45 5.165 16.435 22.382zm1.061-16.486l-.042 5.634 9.04-2.782-8.998-2.852zm6.56 11.457l1.51-4.372-5.356 7.038 3.846-2.666zm2.48-7.177l.187-.543-9.276 2.854-.072 9.497.368-.255 8.793-11.553zm.162-2.322l-.13-.397-8.684-11.754-.31-.22-.07 9.458 9.194 2.913zm-6.37-10.403l5.333 7.218-1.443-4.438-3.89-2.78z" fill="#262E36"/><path d="M42.313 8.6c2.2 0 3.883.403 5.049 1.21 1.166.807 1.749 2.039 1.749 3.696 0 2.068-1.02 3.469-3.058 4.202.279.337.594.748.946 1.232a36.155 36.155 0 012.134 3.311c.337.594.638 1.177.902 1.749h-3.102c-.279-.528-.58-1.06-.902-1.595a51.981 51.981 0 00-.979-1.562 36.94 36.94 0 00-1.881-2.629 7.571 7.571 0 01-.528.022h-1.76V24h-2.772V8.974a14.842 14.842 0 012.156-.297 30.793 30.793 0 012.046-.077zm.198 2.398c-.587 0-1.13.022-1.628.066v4.928h1.21c.675 0 1.269-.037 1.782-.11.513-.073.942-.205 1.287-.396.345-.19.605-.447.781-.77.176-.323.264-.733.264-1.232 0-.47-.088-.865-.264-1.188a1.964 1.964 0 00-.759-.77 3.591 3.591 0 00-1.177-.407 8.584 8.584 0 00-1.496-.121zM58.065 24.33c-1.041 0-1.936-.15-2.684-.451-.748-.3-1.368-.722-1.859-1.265a5.152 5.152 0 01-1.089-1.914c-.235-.733-.352-1.54-.352-2.42V8.754h2.794v9.262c0 .69.077 1.28.231 1.771.154.491.374.891.66 1.199.286.308.623.535 1.012.682.389.147.825.22 1.309.22s.924-.073 1.32-.22a2.617 2.617 0 001.023-.682c.286-.308.506-.708.66-1.199.154-.491.231-1.082.231-1.771V8.754h2.794v9.526c0 .88-.121 1.687-.363 2.42a5.278 5.278 0 01-1.1 1.914c-.491.543-1.118.964-1.881 1.265-.763.3-1.665.451-2.706.451zm14.19-.154c-.807 0-1.62-.026-2.442-.077a11.385 11.385 0 01-2.156-.319V8.974a25.76 25.76 0 011.034-.165c.367-.051.74-.092 1.122-.121a30.205 30.205 0 012.2-.088c.924 0 1.782.07 2.574.209.792.14 1.478.37 2.057.693.58.323 1.03.748 1.353 1.276.323.528.484 1.18.484 1.958 0 .719-.172 1.335-.517 1.848-.345.513-.825.924-1.441 1.232.924.308 1.606.763 2.046 1.364.44.601.66 1.364.66 2.288 0 1.57-.572 2.746-1.716 3.531-1.144.785-2.897 1.177-5.258 1.177zm-1.87-7.04v4.642a23.397 23.397 0 001.958.088c.572 0 1.104-.037 1.595-.11a4.143 4.143 0 001.276-.385c.36-.183.645-.429.858-.737.213-.308.319-.704.319-1.188 0-.865-.315-1.467-.946-1.804-.63-.337-1.503-.506-2.618-.506h-2.442zm0-2.178h1.958c1.056 0 1.885-.15 2.486-.451.601-.3.902-.84.902-1.617 0-.733-.312-1.254-.935-1.562-.623-.308-1.434-.462-2.431-.462-.425 0-.803.007-1.133.022-.33.015-.612.037-.847.066v4.004zm16.852.55c.66-1.1 1.305-2.215 1.936-3.344a43.622 43.622 0 001.716-3.41h3.08a136.54 136.54 0 01-2.563 4.631 104.112 104.112 0 01-2.849 4.631V24h-2.772v-5.94a117.81 117.81 0 01-2.86-4.664 131.825 131.825 0 01-2.574-4.642h3.256a49.092 49.092 0 001.694 3.41 76.03 76.03 0 001.936 3.344zM100.063 8.6c2.2 0 3.883.403 5.049 1.21 1.166.807 1.749 2.039 1.749 3.696 0 2.068-1.02 3.469-3.058 4.202.279.337.594.748.946 1.232a36.155 36.155 0 012.134 3.311c.337.594.638 1.177.902 1.749h-3.102c-.279-.528-.58-1.06-.902-1.595a51.98 51.98 0 00-.979-1.562 36.941 36.941 0 00-1.881-2.629 7.571 7.571 0 01-.528.022h-1.76V24h-2.772V8.974a14.842 14.842 0 012.156-.297 30.793 30.793 0 012.046-.077zm.198 2.398c-.587 0-1.13.022-1.628.066v4.928h1.21c.675 0 1.269-.037 1.782-.11.513-.073.942-.205 1.287-.396.345-.19.605-.447.781-.77.176-.323.264-.733.264-1.232 0-.47-.088-.865-.264-1.188a1.964 1.964 0 00-.759-.77 3.591 3.591 0 00-1.177-.407 8.584 8.584 0 00-1.496-.121zm11.946 5.368c0 .836.103 1.595.308 2.277.205.682.502 1.261.891 1.738a4.04 4.04 0 001.419 1.111c.557.264 1.188.396 1.892.396.69 0 1.313-.132 1.87-.396a4.04 4.04 0 001.419-1.111c.389-.477.686-1.056.891-1.738.205-.682.308-1.441.308-2.277 0-.836-.103-1.595-.308-2.277-.205-.682-.502-1.261-.891-1.738a4.04 4.04 0 00-1.419-1.111c-.557-.264-1.18-.396-1.87-.396-.704 0-1.335.132-1.892.396a3.987 3.987 0 00-1.419 1.122 5.125 5.125 0 00-.891 1.738c-.205.675-.308 1.43-.308 2.266zm11.902 0c0 1.305-.194 2.457-.583 3.454-.389.997-.917 1.83-1.584 2.497a6.534 6.534 0 01-2.343 1.507 8.039 8.039 0 01-2.86.506 8.128 8.128 0 01-2.871-.506 6.514 6.514 0 01-2.354-1.507c-.667-.667-1.199-1.5-1.595-2.497-.396-.997-.594-2.149-.594-3.454 0-1.305.198-2.453.594-3.443.396-.99.935-1.822 1.617-2.497a6.676 6.676 0 012.365-1.518 7.977 7.977 0 012.838-.506c.997 0 1.943.169 2.838.506a6.464 6.464 0 012.343 1.518c.667.675 1.199 1.507 1.595 2.497.396.99.594 2.138.594 3.443zm3.036-7.612h2.772V24h-2.772V8.754zm9.196 12.958c.161.015.374.026.638.033.264.007.623.011 1.078.011 1.863 0 3.252-.473 4.169-1.419.917-.946 1.375-2.27 1.375-3.971 0-1.73-.447-3.058-1.342-3.982-.895-.924-2.28-1.386-4.158-1.386-.821 0-1.408.022-1.76.066v10.648zm10.164-5.346c0 1.32-.205 2.468-.616 3.443a6.511 6.511 0 01-1.749 2.442c-.755.653-1.665 1.137-2.728 1.452-1.063.315-2.24.473-3.531.473-.616 0-1.313-.026-2.09-.077a14.096 14.096 0 01-2.222-.319V8.974a13.355 13.355 0 012.244-.308 38.53 38.53 0 012.112-.066c1.276 0 2.442.15 3.498.451 1.056.3 1.962.77 2.717 1.408.755.638 1.338 1.445 1.749 2.42.41.975.616 2.138.616 3.487z" fill="#2E3841"/><path d="M149.98 24V9.125h2.124V24h-2.125zm7.23-1.594a.81.81 0 00.436-.133c.142-.088.248-.174.32-.257.072-.083.16-.194.266-.332a.321.321 0 01.041-.058v-2.939c-.088.061-.235.155-.44.283-.205.127-.368.23-.49.311-.121.08-.268.19-.44.332a2.264 2.264 0 00-.398.407 2.08 2.08 0 00-.249.477 1.636 1.636 0 00-.108.59c0 .88.354 1.32 1.063 1.32zm-1.062 1.743c-.592 0-1.094-.256-1.506-.767a2.687 2.687 0 01-.619-1.731c0-.515.087-.982.262-1.403.174-.42.358-.757.552-1.008.193-.252.517-.512.97-.78a9.992 9.992 0 011.03-.553c.233-.1.637-.263 1.212-.49.1-.038.174-.069.224-.09v-.765c0-.536-.075-.953-.224-1.249-.15-.296-.429-.444-.838-.444-.366 0-.627.126-.785.378-.157.252-.247.599-.27 1.042-.005.06-.008.152-.008.273h-2.125c.011-1.018.296-1.828.855-2.432.559-.603 1.337-.904 2.333-.904.99 0 1.77.305 2.336.917.568.611.851 1.418.851 2.42v4.78c0 1.108.091 1.993.274 2.657h-2.117l-.282-1.594c-.11.222-.2.393-.27.515a4.75 4.75 0 01-.303.452c-.132.18-.265.318-.398.415a1.991 1.991 0 01-1.154.361zm10.095-1.743a.74.74 0 00.569-.249c.152-.166.263-.402.332-.71a6.5 6.5 0 00.14-.917c.026-.304.038-.658.038-1.062 0-.3-.001-.695-.004-1.187-.003-.493-.004-.864-.004-1.113s-.006-.466-.017-.651a3.864 3.864 0 00-.083-.585 1.824 1.824 0 00-.178-.507.868.868 0 00-.793-.457c-.587 0-1.118.142-1.594.424v6.682c.548.222 1.08.332 1.594.332zm.531 1.743c-.431 0-.813-.102-1.145-.307a5.097 5.097 0 01-.98-.805V24h-2.125V9.133h2.125v5.296c.2-.21.349-.362.449-.456.1-.094.244-.213.435-.357s.39-.245.594-.303a2.49 2.49 0 01.68-.087c.36 0 .681.065.963.195.283.13.515.286.698.469.182.182.337.445.465.788.127.343.222.653.286.93.064.277.112.65.145 1.12.033.47.053.851.058 1.142.006.29.009.69.009 1.2v.14c0 .465-.024.914-.071 1.345a8.283 8.283 0 01-.257 1.32 4.893 4.893 0 01-.473 1.162 2.37 2.37 0 01-.764.801 1.953 1.953 0 01-1.092.311zm7.489 0c-.875 0-1.576-.26-2.104-.78-.529-.52-.89-1.195-1.084-2.025l1.594-.532c.382 1.063.913 1.594 1.594 1.594.337 0 .599-.092.784-.278.186-.185.278-.447.278-.784a1.6 1.6 0 00-.531-1.229l-2.125-1.594a5.954 5.954 0 01-.598-.452 4.273 4.273 0 01-.49-.519 2.2 2.2 0 01-.377-.689 2.584 2.584 0 01-.129-.83c0-.907.29-1.602.868-2.083.578-.482 1.351-.722 2.32-.722.46 0 .874.073 1.245.22.37.146.682.352.934.618s.46.56.622.884c.164.324.292.685.386 1.083l-1.593.532a3.633 3.633 0 00-.544-1.038 1.41 1.41 0 00-.46-.411 1.208 1.208 0 00-.59-.145c-.338 0-.6.092-.785.278-.185.185-.278.447-.278.784 0 .332.177.631.532.897l2.125 1.593c.238.189.44.37.61.544.168.175.333.376.494.606.16.23.282.486.365.768.083.282.124.584.124.905 0 .907-.289 1.602-.867 2.083-.578.482-1.352.722-2.32.722z" fill="#17B131"/></g></svg>