<svg width="131" height="40" viewBox="0 0 131 40" fill="none" xmlns="http://www.w3.org/2000/svg"><path d="M56.082 6.682c.396.24.726.582.99 1.026.276.444.414 1.038.414 1.782 0 .732-.234 1.398-.702 1.998-.864 1.128-2.178 1.692-3.942 1.692-.768 0-1.53-.108-2.286-.324-.744-.228-1.296-.456-1.656-.684l-.54-.324.774-1.548c.864.42 1.644.63 2.34.63s1.044-.222 1.044-.666c0-.252-.138-.486-.414-.702a5.05 5.05 0 00-.99-.648 13.708 13.708 0 01-1.17-.702c-.384-.276-.714-.654-.99-1.134-.264-.492-.396-1.062-.396-1.71 0-1.152.438-2.028 1.314-2.628.888-.6 1.956-.9 3.204-.9.744 0 1.44.09 2.088.27.66.18 1.128.36 1.404.54l.432.27-.702 1.53a4.643 4.643 0 00-1.854-.396c-.612 0-.918.234-.918.702 0 .252.132.48.396.684.276.204.606.402.99.594.396.18.786.396 1.17.648zm12.434-4.59l.36 3.42-2.898-.576-.81 8.064h-3.51l-.81-8.064-2.916.576.36-3.42h10.224zm6.81 5.454c.553 0 .99-.168 1.315-.504.324-.336.486-.744.486-1.224 0-.492-.156-.858-.468-1.098-.3-.252-.69-.378-1.17-.378h-.72l-.306 3.204h.864zm2.035-5.454c1.284 0 2.31.306 3.078.918.78.6 1.17 1.494 1.17 2.682 0 .432-.09.846-.27 1.242-.18.384-.396.696-.648.936-.528.48-1.014.822-1.458 1.026l-.27.108L80.907 13h-3.15l-3.492-3.51-.342 3.51h-3.51l-1.08-10.908h8.028zM90.515 13l-.72-1.818h-4.59L84.521 13h-2.556l3.042-10.908h6.408L94.457 13h-3.942zm-1.638-4.158l-1.422-3.6-1.368 3.6h2.79zm12.066-6.75l3.186 6.354-.504-6.354h4.158l-.9 10.908h-5.274l-3.024-5.94-.594 5.94h-2.358l-.9-10.908h6.21zm12.427 9.09c.828 0 1.47-.438 1.926-1.314a5.886 5.886 0 00.684-2.754c0-.972-.174-1.746-.522-2.322-.348-.576-.798-.864-1.35-.864H114l-.738 7.254h.108zM113.298 13h-3.528l-1.08-10.908H114c2.676 0 4.518.732 5.526 2.196.528.78.792 1.704.792 2.772 0 3.96-2.34 5.94-7.02 5.94zm15.47-6.318c.396.24.726.582.99 1.026.276.444.414 1.038.414 1.782 0 .732-.234 1.398-.702 1.998-.864 1.128-2.178 1.692-3.942 1.692-.768 0-1.53-.108-2.286-.324-.744-.228-1.296-.456-1.656-.684l-.54-.324.774-1.548c.864.42 1.644.63 2.34.63s1.044-.222 1.044-.666c0-.252-.138-.486-.414-.702a5.05 5.05 0 00-.99-.648 13.708 13.708 0 01-1.17-.702c-.384-.276-.714-.654-.99-1.134-.264-.492-.396-1.062-.396-1.71 0-1.152.438-2.028 1.314-2.628.888-.6 1.956-.9 3.204-.9.744 0 1.44.09 2.088.27.66.18 1.128.36 1.404.54l.432.27-.702 1.53a4.643 4.643 0 00-1.854-.396c-.612 0-.918.234-.918.702 0 .252.132.48.396.684.276.204.606.402.99.594.396.18.786.396 1.17.648z" fill="#181818"/><path d="M65.224 37l-.736-7.36-5.696.512L58.12 37h-6.24l-1.92-19.392h10.08L59.304 25h4.736l-.736-7.392h10.08L71.464 37h-6.24zm11.84 0l-1.92-19.392h10.08L83.304 37h-6.24zM97.87 17.608l5.664 11.296-.896-11.296h7.392L108.431 37h-9.376L93.68 26.44 92.623 37h-4.192l-1.6-19.392h11.04zm31.789 0l.64 6.08-5.152-1.024L123.708 37h-6.24l-1.44-14.336-5.184 1.024.64-6.08h18.176z" fill="#5356FF"/><g clip-path="url(#clip0_148_172)"><path d="M35.509 6.051a1.171 1.171 0 001.625.325l2.344-1.562a1.172 1.172 0 00-1.3-1.95l-2.344 1.562a1.172 1.172 0 00-.325 1.625zm2.669 19.856a1.17 1.17 0 101.3-1.95l-2.344-1.562a1.172 1.172 0 10-1.3 1.95l2.344 1.562zm-1.694-10.35h2.344a1.172 1.172 0 000-2.343h-2.344a1.172 1.172 0 000 2.343z" fill="#5356FF"/><path d="M18.328 17.09c-.848-.422-1.344-1.132-1.344-1.855a1.672 1.672 0 00-3.343 0c0 2.614 2.033 4.747 4.687 5.382v8.57h-2.234a4.582 4.582 0 01-4.503-3.768l-.054-.305-.298-.087a6.125 6.125 0 01-2.946-9.859l.277-.324-.277-.324a6.126 6.126 0 012.946-9.858l.298-.088.054-.305A4.582 4.582 0 0116.094.5h0c.784 0 1.553.202 2.234.584V17.09z" fill="#181818" stroke="#181818"/><path d="M23.906 0a5.082 5.082 0 014.995 4.181 6.625 6.625 0 013.186 10.663 6.626 6.626 0 01-3.186 10.663 5.082 5.082 0 01-4.995 4.18h-2.734v-17.81c1.364.376 2.343 1.39 2.343 2.577a1.172 1.172 0 002.344 0c0-2.452-2.016-4.504-4.687-4.975V.8a5.063 5.063 0 012.734-.8z" fill="#5356FF"/><path d="M23.901 37.5A4.302 4.302 0 0120 40a4.302 4.302 0 01-3.902-2.5h7.803zm-7.807-2.344a1.953 1.953 0 01-1.954-1.953v-1.172h11.72v1.172a1.953 1.953 0 01-1.954 1.953h-7.812z" fill="#181818"/><path d="M3.514 6.323h0a.92.92 0 00.769-.41l-.769.41zm0 0a.916.916 0 01-.51-.155h0m.51.155l-.51-.155m0 0L.661 4.606h0m2.343 1.562L.661 4.606m0 0a.922.922 0 01-.256-1.279L.66 4.606zm1.022-1.534h0a.922.922 0 00-1.278.255l1.278-.255zm0 0l2.344 1.562h0M1.683 3.072l2.344 1.562m0 0a.922.922 0 01.256 1.279l-.256-1.279zm-2.854 21.22h0a.92.92 0 01-.512-1.689l-.139-.207.139.207 2.343-1.562h0a.922.922 0 111.023 1.534l.139.208-.14-.208-2.343 1.562h0a.915.915 0 01-.51.155zm2.343-10.547H1.172a.922.922 0 110-1.843h2.344a.922.922 0 010 1.843z" fill="#181818" stroke="#181818" stroke-width=".5"/></g><defs><clipPath id="clip0_148_172"><path fill="#fff" d="M0 0h40v40H0z"/></clipPath></defs></svg>