<svg width="125" height="125" viewBox="0 0 125 125" fill="none" xmlns="http://www.w3.org/2000/svg" class="w-20 h-20 relative z-[1000001] text-white"><g clip-path="url(#clip0_2777_96)" fill="currentColor"><path d="M78.326 44.746v-1.934c0-6.22-5.741-11.28-12.798-11.28-7.056 0-12.797 5.06-12.797 11.28v1.028H24.832v7.777h10.081v30.57c0 6.22 5.742 11.28 12.798 11.28s12.797-5.06 12.797-11.28V42.812c0-1.9 2.299-3.504 5.02-3.504 2.721 0 5.02 1.605 5.02 3.504v46.766h7.778V55.12c0-.285.05-10.394 0-10.375zM52.73 82.186c0 1.9-2.299 3.504-5.02 3.504-2.721 0-5.02-1.605-5.02-3.504V51.617h10.04v30.57z"/><path d="M83.379 31.531c-6.588 0-12.024 4.41-12.719 10.056v11.374h7.699v-10.15c0-1.899 2.299-3.504 5.02-3.504 2.721 0 5.02 1.605 5.02 3.504v46.766h7.745V42.252c-.334-5.96-5.923-10.722-12.765-10.722v.001z"/></g></svg>