<svg height="256" viewBox="0 0 64 64" width="256" xmlns="http://www.w3.org/2000/svg"><circle cx="32" cy="32" fill="#76C2AF" r="32"/><path d="M49.899 46.243L35.757 32.1a3.982 3.982 0 0 0-3.799-1.037l-8.093-7.993-3.037-5.898-5.911-3.044-2.867 2.867 3.044 5.911 5.911 3.044.008-.008 8.066 7.966a3.986 3.986 0 0 0 1.022 3.849l14.142 14.142a4 4 0 0 0 5.656-5.656z" fill="#231F20" opacity=".2"/><path fill="#4F5D73" d="M34.499 37.263L18.397 21.359l2.934-2.792 16.102 15.904z"/><path d="M49.899 49.899a4 4 0 0 1-5.657 0L30.101 35.757a4 4 0 0 1 5.657-5.657L49.9 44.242a4 4 0 0 1-.001 5.657z" fill="#F5CF87"/><path d="M53.304 18.353l-6.476 6.476a4 4 0 0 1-5.657-5.657l6.476-6.476A9.951 9.951 0 0 0 44 12c-5.523 0-10 4.477-10 10 0 1.289.252 2.516.696 3.647L23.647 36.696A9.951 9.951 0 0 0 20 36c-5.523 0-10 4.477-10 10 0 1.289.252 2.516.696 3.647l6.476-6.476a4 4 0 0 1 5.657 5.657l-6.476 6.476A9.951 9.951 0 0 0 20 56c5.523 0 10-4.477 10-10a9.951 9.951 0 0 0-.696-3.647l11.049-11.049A9.951 9.951 0 0 0 44 32c5.523 0 10-4.477 10-10a9.951 9.951 0 0 0-.696-3.647z" fill="#231F20" opacity=".2"/><path fill="#FFF" d="M23.111 35.231l12.12-12.12 5.657 5.658-12.12 12.12z"/><path fill="#4F5D73" d="M21.005 23.95l-5.911-3.044-3.044-5.911 2.867-2.867 5.911 3.044 3.044 5.911z"/><path d="M46.828 22.828a4 4 0 0 1-5.657-5.657l6.476-6.476A9.971 9.971 0 0 0 44 10c-5.523 0-10 4.477-10 10s4.477 10 10 10 10-4.477 10-10a9.951 9.951 0 0 0-.696-3.647l-6.476 6.475zM17.172 41.172a4 4 0 0 1 5.657 5.657l-6.476 6.476A9.971 9.971 0 0 0 20 54c5.523 0 10-4.477 10-10s-4.477-10-10-10-10 4.477-10 10c0 1.289.252 2.516.696 3.647l6.476-6.475z" fill="#FFF"/></svg>