<?xml version="1.0" ?><svg enable-background="new 0 0 64 64" height="256px" version="1.1" viewBox="0 0 64 64" width="256px" xml:space="preserve" xmlns="http://www.w3.org/2000/svg" xmlns:xlink="http://www.w3.org/1999/xlink"><g id="Layer_1"><g><circle cx="32" cy="32" fill="#76C2AF" r="32"/></g><g opacity="0.2"><path d="M49.899,46.243L35.757,32.1c-1.031-1.031-2.481-1.367-3.799-1.037l-8.093-7.993l-3.037-5.898l-5.911-3.044    l-2.867,2.867l3.044,5.911l5.911,3.044l0.008-0.008l8.066,7.966c-0.351,1.331-0.021,2.805,1.022,3.849l14.142,14.142    c1.562,1.562,4.095,1.562,5.657,0C51.462,50.337,51.462,47.805,49.899,46.243z" fill="#231F20"/></g><g><polygon fill="#4F5D73" points="34.499,37.263 18.397,21.359 21.331,18.567 37.433,34.471   "/></g><g><path d="M49.899,49.899c-1.562,1.562-4.095,1.562-5.657,0L30.101,35.757c-1.562-1.562-1.562-4.095,0-5.657l0,0    c1.562-1.562,4.095-1.562,5.657,0l14.142,14.142C51.462,45.805,51.462,48.337,49.899,49.899L49.899,49.899z" fill="#F5CF87"/></g><g opacity="0.2"><path d="M53.304,18.353l-6.476,6.476c-1.562,1.562-4.095,1.562-5.657,0c-1.562-1.562-1.562-4.095,0-5.657    l6.476-6.476C46.516,12.252,45.289,12,44,12c-5.523,0-10,4.477-10,10c0,1.289,0.252,2.516,0.696,3.647L23.647,36.696    C22.516,36.252,21.289,36,20,36c-5.523,0-10,4.477-10,10c0,1.289,0.252,2.516,0.696,3.647l6.476-6.476    c1.562-1.562,4.095-1.562,5.657,0c1.562,1.562,1.562,4.095,0,5.657l-6.476,6.476C17.484,55.748,18.711,56,20,56    c5.523,0,10-4.477,10-10c0-1.289-0.252-2.516-0.696-3.647l11.049-11.049C41.484,31.748,42.711,32,44,32c5.523,0,10-4.477,10-10    C54,20.711,53.748,19.484,53.304,18.353z" fill="#231F20"/></g><g><rect fill="#FFFFFF" height="8" transform="matrix(0.7071 -0.7071 0.7071 0.7071 -13.2548 32)" width="17.14" x="23.43" y="28"/></g><g><polygon fill="#4F5D73" points="21.005,23.95 15.094,20.906 12.05,14.995 14.917,12.128 20.828,15.172 23.872,21.083   "/></g><g><g><path d="M46.828,22.828c-1.562,1.562-4.095,1.562-5.657,0c-1.562-1.562-1.562-4.095,0-5.657l6.476-6.476     C46.516,10.252,45.289,10,44,10c-5.523,0-10,4.477-10,10c0,5.523,4.477,10,10,10s10-4.477,10-10c0-1.289-0.252-2.516-0.696-3.647     L46.828,22.828z" fill="#FFFFFF"/></g></g><g><g><path d="M17.172,41.172c1.562-1.562,4.095-1.562,5.657,0c1.562,1.562,1.562,4.095,0,5.657l-6.476,6.476     C17.484,53.748,18.711,54,20,54c5.523,0,10-4.477,10-10c0-5.523-4.477-10-10-10s-10,4.477-10,10c0,1.289,0.252,2.516,0.696,3.647     L17.172,41.172z" fill="#FFFFFF"/></g></g></g><g id="Layer_2"/></svg>