<svg width="150" height="29" viewBox="0 0 150 29" fill="none" xmlns="http://www.w3.org/2000/svg"><g clip-path="url(#clip0_4064_17944)"><path fill-rule="evenodd" clip-rule="evenodd" d="M26.932 25.295a7.8 7.8 0 006.072-3.13l7.242-9.698a7.8 7.8 0 10-12.499-9.335l-1.28 1.715-1.636-1.994a7.8 7.8 0 00-12.061 9.894l7.954 9.697a7.8 7.8 0 006.208 2.85z" fill="#FF553C"/><path fill-rule="evenodd" clip-rule="evenodd" d="M41.932 25.295a7.8 7.8 0 006.072-3.13l7.242-9.698a7.8 7.8 0 10-12.499-9.335l-1.28 1.715-1.636-1.994a7.8 7.8 0 00-12.061 9.894l7.954 9.697a7.8 7.8 0 006.208 2.85z" fill="#FF553C"/><g fill="#000"><path d="M74.251 22.666h3.871V7.488h5.065V3.826H69.24v3.662h5.011v15.178z"/><path d="M94.43 22.666h3.606L102.411 9.4h-3.897l-2.493 8.49-2.704-8.49h-2.784l-2.678 8.49-2.519-8.49h-3.87l4.4 13.267h3.606l2.466-7.562 2.492 7.562zm13.464-17.752a2.315 2.315 0 00-2.333-2.309 2.327 2.327 0 00-2.307 2.309 2.327 2.327 0 002.307 2.309 2.315 2.315 0 002.333-2.309zm-4.136 17.752h3.633V9.4h-3.633v13.267zm19.052-3.529l-3.155-1.698c-.531 1.22-1.671 2.123-3.129 2.123-1.909 0-3.367-1.486-3.367-3.53 0-2.043 1.458-3.529 3.367-3.529 1.458 0 2.598.902 3.129 2.123l3.155-1.698c-1.14-2.282-3.526-3.821-6.284-3.821-3.924 0-7.026 2.918-7.026 6.925s3.102 6.926 7.026 6.926c2.758 0 5.144-1.539 6.284-3.821zm11.285-.504c0-2.309-1.459-3.476-3.845-4.113l-1.246-.372c-1.114-.291-1.299-.743-1.299-1.14 0-.611.689-.903 1.326-.903.875 0 1.643.398 2.253 1.168l2.387-1.937c-1.008-1.46-2.572-2.23-4.587-2.23-2.811 0-4.932 1.566-4.985 4.008-.053 2.043 1.22 3.608 3.659 4.245l.981.239c1.458.398 1.776.716 1.776 1.274 0 .663-.716.955-1.458.955-1.273 0-2.386-.557-2.969-1.54l-2.493 2.124c1.14 1.724 3.129 2.547 5.462 2.547 2.837 0 5.038-1.751 5.038-4.325zm6.9 9.579L149.32 9.4h-4.003l-3.527 8.597-3.553-8.597h-3.977l5.568 12.524-2.784 6.29h3.951z"/></g><path d="M36.32 5.962a3.142 3.142 0 00-3.078-.062l-8.803 4.719a3.124 3.124 0 00-1.278 4.236 3.14 3.14 0 004.246 1.275l4.585-2.457a3 3 0 00-.005.165v26.249A2.918 2.918 0 0034.908 43a2.917 2.917 0 002.921-2.914V14.115l3.319 1.954a3.14 3.14 0 004.294-1.104 3.124 3.124 0 00-1.107-4.284L36.32 5.96z" fill="#fff"/></g><defs><clipPath id="clip0_4064_17944"><path fill="#fff" d="M0 0h150v29H0z"/></clipPath></defs></svg>